<?xml version="1.0" encoding="UTF-8" standalone="no"?>
<!-- Created with Inkscape (http://www.inkscape.org/) -->

<svg
   xmlns:dc="http://purl.org/dc/elements/1.1/"
   xmlns:cc="http://creativecommons.org/ns#"
   xmlns:rdf="http://www.w3.org/1999/02/22-rdf-syntax-ns#"
   xmlns:svg="http://www.w3.org/2000/svg"
   xmlns="http://www.w3.org/2000/svg"
   xmlns:sodipodi="http://sodipodi.sourceforge.net/DTD/sodipodi-0.dtd"
   xmlns:inkscape="http://www.inkscape.org/namespaces/inkscape"
   width="210mm"
   height="210mm"
   viewBox="0 0 744.09414 744.09435"
   id="svg4217"
   version="1.1"
   inkscape:version="0.91 r13725"
   sodipodi:docname="circular-ams-logo-mono.svg">
  <defs
     id="defs4219" />
  <sodipodi:namedview
     id="base"
     pagecolor="#ffffff"
     bordercolor="#666666"
     borderopacity="1.0"
     inkscape:pageopacity="0.0"
     inkscape:pageshadow="2"
     inkscape:zoom="0.175"
     inkscape:cx="120.79684"
     inkscape:cy="66.016327"
     inkscape:document-units="px"
     inkscape:current-layer="layer1"
     showgrid="false"
     inkscape:window-width="1366"
     inkscape:window-height="710"
     inkscape:window-x="0"
     inkscape:window-y="27"
     inkscape:window-maximized="1" />
  <metadata
     id="metadata4222">
    <rdf:RDF>
      <cc:Work
         rdf:about="">
        <dc:format>image/svg+xml</dc:format>
        <dc:type
           rdf:resource="http://purl.org/dc/dcmitype/StillImage" />
        <dc:title></dc:title>
      </cc:Work>
    </rdf:RDF>
  </metadata>
  <g
     inkscape:label="Layer 1"
     inkscape:groupmode="layer"
     id="layer1"
     transform="translate(0,-308.26791)">
    <path
       style="opacity:1;fill:#000000;fill-opacity:1;stroke:none;stroke-width:1.44000006;stroke-linejoin:miter;stroke-miterlimit:4;stroke-dasharray:none;stroke-opacity:1"
       d="M 372.04479,324.96762 A 355.34695,355.34695 0 0 0 16.701883,680.31509 355.34695,355.34695 0 0 0 372.04479,1035.6626 355.34695,355.34695 0 0 0 727.39227,680.31509 355.34695,355.34695 0 0 0 372.04479,324.96762 Z m -6.44564,59.48854 c 41.19504,32.5978 52.65872,51.5815 42.62863,106.03059 -0.12305,0.7892 -0.25482,1.5687 -0.39135,2.3342 42.55649,-32.478 63.35238,-17.8788 102.08035,-5.6123 -28.24258,55.20194 -32.21208,64.71614 -90.70842,61.35784 l 0.42358,0.2809 c 54.62394,20.3273 43.55739,64.3888 50.65802,86.2654 -56.78977,3.4252 -73.02089,-2.2189 -92.03437,-39.484 -1.53572,15.2476 -2.5422,37.9269 7.6519,55.4876 -1.07468,-8.5973 5.48013,-9.1011 6.01744,-17.8774 6.80614,8.239 -2.86397,29.0158 20.95752,49.7925 -36.0009,-9.1346 -49.79296,-15.4249 -54.09264,-32.242 6.62594,3.7804 8.35613,-2.0006 17.49067,6.2385 -13.05886,-16.4762 -12.43808,-43.904 -10.72277,-59.7233 -26.18236,37.991 -50.78888,54.169 -87.71118,47.1497 18.41951,-33.2197 -10.19479,-59.085 46.69396,-97.5407 l 0.009,-0.01 c -48.77149,5.7269 -64.37248,-13.8215 -93.39256,-52.60104 48.57856,-18.3645 63.0457,-43.2027 108.23131,-5.7412 -15.80158,-46.11989 18.93082,-49.41819 26.21069,-104.10609 z m 133.52579,42.9601 a 214.93072,214.93072 0 0 1 87.85391,173.04673 214.93072,214.93072 0 0 1 -214.93406,214.9295 214.93072,214.93072 0 0 1 -214.9295,-214.9295 214.93072,214.93072 0 0 1 87.33826,-172.66453 166.38301,166.38301 0 0 0 -38.78884,106.74883 166.38301,166.38301 0 0 0 166.38008,166.3846 166.38301,166.38301 0 0 0 166.38468,-166.3846 166.38301,166.38301 0 0 0 -39.30453,-107.13103 z m -123.93561,5.3085 c -12.77439,2.7631 -6.68759,23.77449 -4.82041,41.60189 1.24635,11.8996 -5.63352,28.13 -1.62061,32.5734 3.10929,3.4429 7.99756,0.4352 8.94559,-11.5837 0.9827,-12.4582 -7.98947,-46.91699 -2.50457,-62.59159 z m 88.87601,68.18089 c -13.71818,9.359 -49.67979,7.8541 -61.10457,13.7982 -10.69524,5.56464 -12.71809,9.29034 -8.86273,11.63904 3.31803,2.0214 10.03603,-7.77164 31.04029,-10.00454 17.82444,-1.8949 39.56821,-2.3787 38.92701,-15.4327 z m -178.13877,0.9669 c -3.90663,0.031 -7.009,1.4456 -8.84891,5.092 16.55035,-1.3654 42.71144,14.08084 55.2022,15.41894 12.04901,1.2907 19.98574,0.4508 18.20429,-2.9973 -2.88932,-5.59234 -20.72545,-2.42544 -31.92888,-6.62514 -11.53926,-4.3256 -24.03421,-10.9567 -32.6287,-10.8885 z m 85.76371,15.9575 a 10.951376,10.951376 0 0 0 -10.94836,10.95754 10.951376,10.951376 0 0 0 10.94836,10.9484 10.951376,10.951376 0 0 0 10.95295,-10.9484 10.951376,10.951376 0 0 0 -10.95295,-10.95754 z m -15.16566,27.00264 c -6.27799,0.4571 -11.88449,17.7319 -20.1518,26.381 -12.38556,12.9576 -30.0563,25.8492 -21.6435,35.8515 5.25338,-15.7537 33.4391,-37.519 40.2852,-47.9739 6.60466,-10.0862 5.39121,-14.2586 1.5101,-14.2586 z m 33.04306,1.1648 c -1.47301,0.026 -1.99153,1.6257 -2.30661,3.5405 -1.02217,6.2111 11.29318,13.2694 17.77152,23.3285 9.70549,15.07 18.1156,35.263 29.80643,29.4197 -14.09052,-8.7884 -28.67115,-41.278 -37.23734,-50.3771 -4.13201,-4.3891 -6.561,-5.9376 -8.034,-5.9116 z m -133.28639,129.9208 c -0.15464,0.01 -0.34692,0.055 -0.5847,0.1334 -0.45877,0.1365 -1.00714,0.3552 -1.63905,0.6584 -0.59454,0.2997 -1.24192,0.6643 -1.93828,1.0865 -0.67941,0.4018 -1.31985,0.7975 -1.92449,1.1924 -0.60461,0.3949 -1.1238,0.7541 -1.56536,1.0774 -0.42112,0.3403 -0.68426,0.5906 -0.78268,0.7504 -0.73636,1.2176 -1.68098,2.7456 -2.83149,4.5856 -1.13342,1.8197 -2.36794,3.782 -3.70163,5.884 -1.29628,2.0985 -2.64531,4.239 -4.04691,6.4226 -1.3642,2.1802 -2.6609,4.2232 -3.89962,6.1279 -1.31325,2.1189 -2.68343,4.1774 -4.10219,6.174 -1.38138,1.9933 -2.77775,4.0243 -4.18965,6.0958 -0.26472,0.4013 -0.27366,0.6854 -0.0323,0.8517 0.2415,0.1662 0.61371,0.1471 1.12338,-0.051 1.12804,-0.443 2.18841,-1.0269 3.17678,-1.7587 1.02576,-0.7353 1.97512,-1.5487 2.85448,-2.4401 0.91683,-0.8949 1.75684,-1.8382 2.5138,-2.8315 0.79435,-0.9967 1.51565,-1.9687 2.16389,-2.9144 2.3487,-3.364 4.56347,-6.7555 6.64361,-10.1702 2.10055,-3.3978 4.23573,-6.8336 6.4042,-10.313 0.77372,-1.2211 1.54181,-2.4141 2.302,-3.5774 0.7976,-1.1666 1.5585,-2.2943 2.28819,-3.3793 l 0.61235,-0.7321 c 0.28855,-0.3469 0.56979,-0.7041 0.83793,-1.0681 0.28514,-0.3844 0.49632,-0.7441 0.63535,-1.0773 0.15959,-0.3163 0.1636,-0.5304 0.0236,-0.6492 -0.0714,-0.06 -0.18599,-0.088 -0.3407,-0.078 z m 230.46345,0.4373 c -0.38426,-0.024 -0.77554,0.059 -1.17404,0.2487 -0.64822,0.316 -1.19885,0.7879 -1.64824,1.418 -0.44116,0.5935 -0.79503,1.2773 -1.06352,2.0442 -0.2685,0.767 -0.44413,1.5537 -0.52947,2.3618 -0.0629,0.794 -0.0247,1.5394 0.10584,2.2422 0.25027,0.9412 0.68655,1.6362 1.31674,2.0856 0.79685,0.5638 1.68639,0.848 2.66573,0.8564 0.97935,0.01 1.95712,-0.056 2.93276,-0.2025 -0.55874,2.1448 -1.2063,4.0002 -1.9429,5.5662 -0.75078,1.5437 -1.57083,3.0847 -2.45395,4.6179 -0.0919,0.1525 -0.2006,0.3447 -0.33148,0.5847 -0.1452,0.2173 -0.27929,0.4604 -0.39595,0.7228 -0.13059,0.24 -0.21757,0.4708 -0.26703,0.6906 -0.0493,0.2197 -0.0189,0.3861 0.0875,0.5065 0.10772,0.1204 0.2948,0.1438 0.56169,0.069 0.27511,-0.1115 0.57974,-0.2704 0.91619,-0.4834 0.34466,-0.2497 0.68339,-0.5338 1.02211,-0.8425 0.34692,-0.3454 0.65114,-0.6883 0.90238,-1.0359 1.24569,-1.6057 2.30434,-3.3038 3.18598,-5.0875 0.86747,-1.806 1.44846,-3.7402 1.74031,-5.8103 0.25867,-0.038 0.59712,-0.033 1.0083,0.024 0.43359,0.04 0.73674,0.097 0.91157,0.1749 0.27069,0.08 0.48619,0.1002 0.64919,0.06 0.16313,-0.04 0.27203,-0.247 0.31767,-0.6215 -0.005,-0.4053 -0.0844,-0.8937 -0.22559,-1.4641 -0.15535,-0.5929 -0.41594,-1.0391 -0.7919,-1.3352 -0.45528,-0.3718 -1.06687,-0.5622 -1.83239,-0.5801 -0.17727,0.019 -0.28233,-0.048 -0.30847,-0.1888 -0.11504,-0.4299 -0.37537,-1.0642 -0.78268,-1.9061 -0.3849,-0.856 -0.87139,-1.6804 -1.4641,-2.4677 -0.59275,-0.7873 -1.25387,-1.4038 -1.97972,-1.8554 -0.37002,-0.2371 -0.74831,-0.3676 -1.13259,-0.3914 z m 0.15652,4.5304 c 0.14968,-0.024 0.30005,-0.019 0.44658,0.014 0.25642,0.058 0.48069,0.1818 0.66758,0.3776 0.20932,0.1815 0.38706,0.3978 0.54327,0.6445 0.15629,0.2467 0.29381,0.5076 0.40517,0.7827 0.0971,0.2527 0.17114,0.4729 0.22559,0.6584 -0.74164,0.2178 -1.48621,0.3268 -2.23756,0.3315 -0.76552,-0.019 -1.42095,-0.1825 -1.96591,-0.4973 -0.0462,-0.222 -0.005,-0.4836 0.11975,-0.7826 0.12494,-0.299 0.29831,-0.568 0.52485,-0.8058 0.24899,-0.2518 0.52199,-0.4407 0.81952,-0.5662 0.15275,-0.081 0.30154,-0.128 0.4512,-0.1521 l 0,0 z m -223.38248,5.4281 c -0.47237,-0.049 -0.87386,0.014 -1.20164,0.1841 l -3.72465,2.4402 c -0.38476,0.2587 -0.30374,0.452 0.24402,0.5801 l 17.8728,3.0617 c 0.28915,0.09 0.55064,0.052 0.78269,-0.1151 l 3.59573,-2.3895 c 0.31145,-0.2423 0.26484,-0.4093 -0.14285,-0.511 l -17.42622,-3.2504 z m 255.70269,0.06 c -0.562,0.019 -1.13215,0.079 -1.71269,0.1796 -1.161,0.2009 -2.30665,0.5205 -3.44382,0.9577 -1.12891,0.4005 -2.22287,0.9161 -3.26885,1.5469 -1.03767,0.5942 -1.98807,1.2435 -2.8591,1.9521 -1.71144,1.3664 -3.59303,2.8591 -5.64912,4.4751 -2.04787,1.5794 -4.20469,3.2093 -6.46865,4.8941 -2.24149,1.6705 -4.53756,3.3595 -6.88301,5.0644 -2.3454,1.705 -4.6532,3.3413 -6.92907,4.9079 -0.32228,0.2355 -0.83878,0.5913 -1.54233,1.0682 -0.69532,0.4402 -1.4867,0.9234 -2.37569,1.4548 -0.8889,0.5314 -1.82379,1.0638 -2.80844,1.593 -0.98465,0.5291 -1.91619,0.9959 -2.79465,1.395 -0.89269,0.3767 -1.67829,0.6485 -2.35266,0.8241 -0.66609,0.1391 -1.1391,0.096 -1.41341,-0.1381 -0.26903,-0.7723 -0.25472,-1.7272 0.0368,-2.8545 0.27752,-1.1498 0.73328,-2.3652 1.3674,-3.6464 0.61994,-1.3037 1.36257,-2.6082 2.23294,-3.9134 0.87862,-1.3418 1.76922,-2.5923 2.66573,-3.7569 0.88234,-1.187 1.72957,-2.2275 2.54603,-3.1215 0.8165,-0.894 1.499,-1.5616 2.03959,-1.9981 -0.13978,-1.2628 -0.28494,-2.5078 -0.43279,-3.7339 -0.13955,-1.2627 -0.31656,-2.533 -0.52947,-3.8121 -0.0618,-0.495 -0.30345,-0.7517 -0.72282,-0.7689 -0.41118,-0.054 -0.76604,0.079 -1.06813,0.3959 -1.19407,1.2902 -2.36833,2.6629 -3.52207,4.116 -1.15374,1.4532 -2.21776,2.9772 -3.1906,4.5672 -0.97281,1.59 -1.8214,3.2237 -2.54603,4.9079 -0.73885,1.6618 -1.28991,3.3762 -1.64824,5.1427 -0.25508,1.1355 -0.43048,2.393 -0.52946,3.7753 -0.0766,1.3681 -0.0519,2.7672 0.0691,4.1989 0.12917,1.395 0.37266,2.7486 0.73204,4.0607 0.34522,1.2896 0.83421,2.4437 1.47329,3.453 0.39762,0.6281 1.03988,0.961 1.91527,1.0037 0.88369,0.01 1.87037,-0.1473 2.96039,-0.4604 1.09004,-0.3131 2.21193,-0.7234 3.36553,-1.2339 1.16184,-0.5471 2.21917,-1.0826 3.18138,-1.5976 3.52294,-1.9791 6.93442,-4.1352 10.23015,-6.4732 3.30391,-2.3747 6.51966,-4.7567 9.65462,-7.1501 3.12078,-2.4158 6.15157,-4.7742 9.09294,-7.0764 2.96376,-2.3163 5.86399,-4.4178 8.69239,-6.3028 0.70357,-0.4769 1.43988,-0.8028 2.20993,-0.9761 0.77005,-0.1733 1.52432,-0.1971 2.26518,-0.069 0.72663,0.1056 1.42018,0.3611 2.08102,0.7597 0.66078,0.3985 1.2368,0.9307 1.7219,1.5976 -4.15335,3.4152 -8.0353,6.5128 -11.64356,9.3001 -3.60003,2.7507 -6.99691,5.2792 -10.18871,7.5828 -3.16936,2.2895 -6.16362,4.3862 -8.97783,6.2937 -2.79175,1.8933 -5.46882,3.6667 -8.03403,5.3223 -2.55699,1.6189 -5.02009,3.1629 -7.38944,4.6316 -2.36931,1.4687 -4.69649,2.9253 -6.9843,4.3738 l -0.84253,0.5387 -0.0236,0.014 -0.0368,0.019 -0.87937,0.3821 -1.52854,0.6676 c -0.55985,0.2438 -1.13948,0.4508 -1.7311,0.6216 -0.57791,0.136 -1.15815,0.2006 -1.74034,0.1932 -0.56843,-0.042 -1.09955,-0.2312 -1.59299,-0.5663 -0.81531,-0.5426 -1.71599,-1.2214 -2.70715,-2.0349 -1.00173,-0.8379 -1.98094,-1.5807 -2.93275,-2.2376 -0.44071,-0.2136 -0.661,-0.1188 -0.65838,0.2855 -0.0189,1.4851 -0.0589,2.9498 -0.12423,4.3968 -0.0514,1.4121 -0.0868,2.8611 -0.10584,4.3462 1.04929,0.6145 2.17396,1.3692 3.37475,2.2652 1.22512,0.8854 2.4117,1.8588 3.5681,2.9189 1.1564,1.0601 2.21971,2.1609 3.18138,3.3057 0.98599,1.1342 1.75995,2.2454 2.32044,3.3333 -0.24478,1.6991 -0.85041,3.3349 -1.81399,4.9125 -0.92864,1.5914 -2.05758,3.0554 -3.38856,4.3877 -1.33095,1.3322 -2.7801,2.5283 -4.34618,3.5865 -1.55551,1.0825 -3.07,1.9581 -4.54418,2.6289 -1.81497,0.8191 -3.52347,1.2588 -5.11966,1.3167 -1.59624,0.058 -3.05541,-0.1728 -4.38304,-0.6952 -1.30328,-0.5328 -2.4515,-1.3093 -3.44379,-2.325 -0.96796,-1.0263 -1.7501,-2.2189 -2.34345,-3.5819 -0.57227,-1.3144 -0.98901,-2.7414 -1.25231,-4.2772 -0.23889,-1.5464 -0.31486,-3.1186 -0.23031,-4.7191 0.0165,-0.2964 -0.0462,-0.5355 -0.17962,-0.709 -0.10914,-0.1841 -0.24568,-0.2963 -0.40976,-0.3407 -0.1504,-0.079 -0.30063,-0.071 -0.4604,0.028 -0.14615,0.063 -0.23929,0.222 -0.27625,0.4696 -0.28513,1.3402 -0.46919,2.7491 -0.54787,4.2311 -0.0544,1.4713 -0.005,2.945 0.14261,4.4152 0.15841,1.4946 0.42356,2.9581 0.7873,4.3923 0.39869,1.4478 0.86698,2.8042 1.41804,4.0699 0.9537,2.1907 2.17591,3.9339 3.6648,5.2256 1.48889,1.2917 3.12724,2.1854 4.90789,2.6841 1.80502,0.4882 3.70495,0.6031 5.70437,0.3407 1.99941,-0.2624 3.99068,-0.8424 5.97603,-1.7357 2.20441,-0.9886 4.19921,-2.2916 5.98521,-3.9088 1.82096,-1.6034 3.34594,-3.4211 4.57179,-5.4604 1.23645,-2.0149 2.11241,-4.1946 2.62891,-6.5331 0.54085,-2.3491 0.63978,-4.7543 0.29465,-7.2099 -0.0839,-0.6584 -0.23219,-1.3557 -0.44198,-2.104 -0.18552,-0.7589 -0.41212,-1.5184 -0.68141,-2.2698 -0.24488,-0.762 -0.50894,-1.5027 -0.79188,-2.2191 -0.28299,-0.7166 -0.55141,-1.3634 -0.80571,-1.9475 0.75887,-0.1856 1.45132,-0.387 2.08101,-0.6032 0.64346,-0.2512 1.24954,-0.4975 1.80939,-0.7412 l 1.6022,-0.6998 c 0.0142,-0.01 0.0243,-0.032 0.0368,-0.041 0.007,0 0.0212,-2e-4 0.0276,0 l 1.41343,-0.8932 c 5.22611,-3.3089 10.35886,-6.6691 15.39585,-10.0782 5.0228,-3.4315 9.77984,-6.8056 14.27706,-10.1243 4.50546,-3.3553 8.64827,-6.5951 12.42627,-9.7098 3.78625,-3.1514 7.04835,-6.0916 9.77892,-8.8259 0.19589,-0.187 0.31854,-0.3828 0.38214,-0.5802 0.086,-0.2116 0.161,-0.3963 0.21639,-0.557 0.0688,-0.7349 0.0377,-1.6261 -0.0922,-2.675 -0.14427,-1.0713 -0.3543,-2.1502 -0.63076,-3.232 -0.26823,-1.1184 -0.59665,-2.1798 -0.98526,-3.1906 -0.38862,-1.0108 -0.80385,-1.8459 -1.2523,-2.5046 -0.73475,-1.0116 -1.58622,-1.7785 -2.54602,-2.302 -0.95986,-0.5234 -1.98387,-0.8519 -3.07088,-0.9806 -0.54349,-0.064 -1.09544,-0.087 -1.65746,-0.069 z m -259.86931,6.4917 c -0.47237,-0.049 -0.87391,0.01 -1.20166,0.1796 l -3.72466,2.4447 c -0.15275,0.092 -0.21757,0.194 -0.19329,0.3039 0.0469,0.1242 0.19777,0.2152 0.44198,0.2763 l 17.88662,3.0294 c 0.23827,0.12 0.49557,0.092 0.76427,-0.083 l 3.61415,-2.4171 c 0.3196,-0.2058 0.26873,-0.3721 -0.16123,-0.488 l -17.4262,-3.2458 z m 5.38669,13.3424 c -0.0971,0.016 -0.20626,0.073 -0.32229,0.1566 l -4.65466,3.1675 -4.24491,13.4898 c -1.10341,0.3994 -2.35084,0.4901 -3.74766,0.2624 -1.37442,-0.2135 -2.75483,-0.5908 -4.14361,-1.128 -1.36637,-0.5229 -2.67945,-1.1349 -3.93184,-1.837 -1.25239,-0.7021 -2.27975,-1.3387 -3.08009,-1.9106 -0.75555,-0.5435 -1.26677,-1.123 -1.53776,-1.7358 -0.2567,-0.6351 -0.341,-1.4118 -0.25781,-2.3342 0.009,-0.2138 -0.0787,-0.3787 -0.25784,-0.4926 -0.15675,-0.1 -0.33508,-0.09 -0.53865,0.032 -0.43565,0.2892 -0.98524,0.8366 -1.65284,1.639 -0.65339,0.78 -1.28011,1.642 -1.87846,2.5828 -0.56173,0.9327 -1.03912,1.8574 -1.43184,2.7717 -0.35604,0.9061 -0.46346,1.6181 -0.32688,2.1454 0.14473,0.564 0.50044,1.1377 1.07274,1.7219 0.57234,0.5842 1.26641,1.154 2.08101,1.7035 0.85123,0.5414 1.74953,1.0529 2.70255,1.5332 0.95304,0.4802 1.89267,0.8864 2.81306,1.22 1.02425,0.3683 2.09315,0.6402 3.20901,0.8149 1.13006,0.1523 2.23835,0.1919 3.31949,0.1243 1.11781,-0.076 2.18954,-0.2745 3.2136,-0.5986 1.0607,-0.3322 2.02882,-0.7987 2.91435,-1.3996 -0.57734,3.2824 -0.49064,6.1206 0.25322,8.5128 0.74385,2.3922 2.31758,4.3504 4.71451,5.8748 l 1.44107,0.9208 c 0.0398,0.025 0.10584,0.019 0.16123,0.024 l 1.29374,0.5848 c 1.16121,0.5248 2.43618,0.9688 3.81673,1.3305 1.40471,0.3727 2.86433,0.6243 4.37842,0.7551 1.52498,0.1065 3.07794,0.083 4.66388,-0.074 1.61015,-0.1461 3.2121,-0.4612 4.79738,-0.9392 0.34305,1.1747 0.72735,2.2836 1.16022,3.3241 0.43286,1.0405 1.00343,2.026 1.71731,2.9604 0.71385,0.9344 1.59775,1.8167 2.65191,2.6427 1.08932,0.8128 2.43187,1.5804 4.02851,2.302 l 1.44566,0.6538 c 0.007,0 0.0118,0.016 0.0189,0.019 l 0.0691,0.024 0.0323,0.014 c 0.002,9e-4 0.007,-9e-4 0.009,0 l 0.61234,0.1933 0.83332,0.267 c 2.73083,0.8734 5.24993,1.0088 7.55979,0.4097 2.31801,-0.6243 4.30801,-1.9231 5.97143,-3.8996 -0.0941,1.2521 0.033,2.4212 0.38214,3.5083 0.37438,1.0953 0.91124,2.0889 1.60218,2.9788 0.72426,0.8727 1.56724,1.6313 2.53221,2.2744 0.96495,0.6431 2.00438,1.1404 3.11693,1.4963 l 1.02209,0.3269 0.68601,0.2209 c 0.009,0 0.0365,-0.024 0.046,-0.024 7.6e-4,7e-4 0.0141,0.014 0.0141,0.014 l 19.25861,4.535 c 0.054,0.038 0.11056,0.081 0.15652,0.083 l 1.67125,0.078 c 0.60997,0.028 1.25904,0.016 1.9521,-0.032 0.69433,-0.075 1.39351,-0.1761 2.09022,-0.3038 0.69794,-0.1544 1.36806,-0.3484 2.01657,-0.5848 0.64848,-0.2363 1.24616,-0.5022 1.79097,-0.7965 1.13806,0.6894 2.43218,1.1721 3.88118,1.4503 1.47553,0.2795 2.94922,0.3189 4.41986,0.1198 1.49714,-0.198 2.90033,-0.656 4.20809,-1.3674 1.33435,-0.7103 2.4419,-1.7085 3.32411,-2.9973 0.29657,0.4918 0.85264,1.0896 1.67125,1.791 0.81983,0.6749 1.75323,1.3 2.79003,1.8785 1.06331,0.5796 2.1555,1.0424 3.28267,1.3858 1.12714,0.3433 2.16071,0.4279 3.0985,0.2578 0.56173,-0.081 1.23435,-0.5397 2.01656,-1.3812 0.78339,-0.8681 1.51088,-2.0175 2.18692,-3.4484 0.2882,0.6774 0.68403,1.3767 1.18323,2.0902 0.50037,0.687 1.12075,1.3235 1.86463,1.9153 0.77037,0.5929 1.69187,1.0988 2.7624,1.5193 1.0717,0.394 2.32477,0.6212 3.75688,0.686 l 1.74494,0.083 c 0.0165,8e-4 0.0542,-0.062 0.0735,-0.069 0.0424,0.019 0.12117,0.1117 0.15181,0.1059 l 1.56536,-0.2855 c 0.73092,-0.1353 1.52878,-0.4216 2.3941,-0.8517 0.88662,-0.4611 1.75597,-1.0917 2.60588,-1.8969 0.87113,-0.8362 1.66908,-1.8622 2.38949,-3.0755 0.71554,-1.2394 1.27933,-2.7094 1.69428,-4.406 1.06536,0.5047 2.31928,0.9243 3.75688,1.2523 1.45886,0.2969 2.88717,0.5178 4.29094,0.6629 1.39894,0.1191 2.6484,0.1566 3.74766,0.1151 1.12055,-0.072 1.88289,-0.2416 2.29281,-0.5065 0.40998,-0.2648 0.76229,-0.7771 1.05431,-1.5331 0.29211,-0.756 0.53326,-1.5681 0.72285,-2.4401 0.21098,-0.903 0.3658,-1.7701 0.45578,-2.5967 0.0856,-0.8527 0.12352,-1.4923 0.12423,-1.9245 -0.007,-0.9165 -0.16218,-1.911 -0.46962,-2.988 -0.30733,-1.0771 -0.72231,-2.1384 -1.23848,-3.1768 -0.52097,-1.0645 -1.12016,-2.0724 -1.80938,-3.0248 -0.68922,-0.9524 -1.41374,-1.7743 -2.16389,-2.4724 -0.75015,-0.6981 -1.52381,-1.232 -2.32042,-1.5976 -0.79659,-0.3655 -1.5572,-0.4805 -2.28821,-0.3453 -0.86629,0.1332 -1.64751,0.5193 -2.33883,1.1602 -0.69619,0.6148 -1.32317,1.3793 -1.88305,2.2928 -0.55987,0.9136 -1.04289,1.9371 -1.45487,3.0663 -0.41681,1.1031 -0.79428,2.2095 -1.12797,3.3241 -0.31239,1.0838 -0.5896,2.1367 -0.83334,3.1538 -0.24858,0.9909 -0.47049,1.84 -0.66298,2.5506 -0.23408,1.0693 -0.65355,1.9411 -1.25689,2.6197 -0.60337,0.6786 -1.30932,1.2278 -2.12245,1.6482 -0.81312,0.4205 -1.67427,0.7456 -2.57826,0.9669 -0.90398,0.2213 -1.78585,0.4115 -2.64731,0.5709 l -0.44199,0.083 -0.99908,-0.051 c -1.48512,-0.067 -2.70837,-0.2922 -3.674,-0.6814 -0.96445,-0.4157 -1.72436,-0.9577 -2.279,-1.6206 -0.52689,-0.6883 -0.88868,-1.4862 -1.08655,-2.3987 -0.17137,-0.9113 -0.23337,-1.9099 -0.1841,-2.9972 0.0141,-0.3183 -0.0644,-0.5496 -0.24403,-0.6906 -0.15298,-0.1398 -0.35283,-0.1896 -0.59391,-0.1474 -0.23989,0.016 -0.48374,0.121 -0.73203,0.3223 -0.24829,0.2013 -0.43409,0.4899 -0.55709,0.8564 -0.19047,0.6823 -0.42412,1.3712 -0.69521,2.0764 -0.2699,0.6787 -0.57493,1.3197 -0.92079,1.9152 -0.31936,0.5968 -0.67644,1.1084 -1.06814,1.5424 -0.36517,0.4352 -0.7448,0.7439 -1.15101,0.9116 -0.53641,0.1086 -1.25455,0.019 -2.14546,-0.2625 -0.86433,-0.2783 -1.73944,-0.6238 -2.62431,-1.0359 -0.85717,-0.4374 -1.61788,-0.8842 -2.28819,-1.3397 -0.64379,-0.4544 -1.00176,-0.8235 -1.06812,-1.1188 0.23978,-0.6004 0.45321,-1.2065 0.63995,-1.8094 0.21451,-0.628 0.40024,-1.2525 0.56169,-1.883 0.0936,-0.3147 0.0936,-0.5693 -0.005,-0.7597 -0.0976,-0.1905 -0.25406,-0.3046 -0.46501,-0.3407 -0.18316,-0.061 -0.39527,-0.03 -0.63995,0.092 -0.24469,0.1219 -0.46976,0.3599 -0.6722,0.7228 -0.46035,0.7764 -0.91961,1.5682 -1.38119,2.3711 -0.43385,0.7776 -0.95872,1.5111 -1.57458,2.2007 -0.59176,0.7439 -1.35922,1.3074 -2.30662,1.6897 -0.91971,0.357 -1.90047,0.5921 -2.94198,0.7044 -1.04028,0.086 -2.10564,0.082 -3.19057,-0.024 -1.0837,-0.1289 -2.08205,-0.311 -3.00183,-0.5387 0.2796,-0.3062 0.55002,-0.689 0.81031,-1.1556 0.28683,-0.4653 0.54648,-0.9617 0.78268,-1.4825 0.23617,-0.5208 0.44885,-1.0273 0.63076,-1.5239 0.18315,-0.5233 0.31676,-0.9824 0.41435,-1.3766 0.0398,-0.2905 0.002,-0.506 -0.12422,-0.6446 -0.0999,-0.1374 -0.24716,-0.2123 -0.4328,-0.2208 -0.18551,-0.01 -0.37004,0.051 -0.56168,0.1749 -0.19165,0.1242 -0.3493,0.2898 -0.465,0.4972 -0.87977,1.2357 -1.76146,2.2458 -2.64732,3.0295 -0.88585,0.7836 -1.84351,1.3914 -2.8729,1.8231 -1.02937,0.4318 -2.16022,0.7121 -3.38856,0.8426 -1.2283,0.1304 -2.61008,0.1617 -4.14824,0.092 l -0.95301,-0.046 -0.36833,-0.019 -17.81757,-4.3462 c -0.0118,0 -0.0245,0.01 -0.0368,0 l -0.16572,-0.055 -1.02211,-0.3269 c -0.708,-0.2265 -1.4169,-0.5069 -2.11785,-0.8425 -0.70091,-0.3357 -1.33874,-0.7339 -1.91527,-1.1971 -0.5513,-0.455 -1.02452,-0.984 -1.41804,-1.5837 -0.36825,-0.5916 -0.58017,-1.2726 -0.63995,-2.0442 -0.0556,-0.4359 -0.0773,-0.8072 -0.0643,-1.1096 0.0384,-0.2943 0.0929,-0.5793 0.15652,-0.8656 0.0889,-0.2781 0.18953,-0.554 0.30388,-0.8241 0.14756,-0.2872 0.31266,-0.6291 0.49262,-1.0175 0.165,-0.2538 0.20107,-0.4639 0.11503,-0.6307 -0.086,-0.1669 -0.24893,-0.2586 -0.49264,-0.2809 -0.21051,-0.04 -0.45707,-0.01 -0.74124,0.097 -0.2589,0.1124 -0.48779,0.3044 -0.68599,0.5755 -0.5197,0.7535 -1.0437,1.3928 -1.57458,1.9199 -0.5056,0.535 -1.10272,1.0004 -1.78637,1.395 -0.82521,0.4886 -1.68688,0.7968 -2.59205,0.9254 -0.90521,0.1287 -1.83003,0.1384 -2.77164,0.032 -0.91631,-0.098 -1.84054,-0.2659 -2.76699,-0.5065 -0.91837,-0.2658 -1.79449,-0.5342 -2.62891,-0.8011 l -0.87476,-0.2762 -0.11503,-0.037 -0.12895,-0.06 -0.90238,-0.4051 c -1.54826,-0.6998 -2.84428,-1.4875 -3.87657,-2.3619 -0.99719,-0.8877 -1.7608,-1.9652 -2.29741,-3.2274 0.39963,-0.1108 0.9199,-0.327 1.56077,-0.6492 0.66505,-0.3112 1.3389,-0.705 2.02116,-1.1832 0.70644,-0.4673 1.35797,-1.0059 1.95209,-1.6114 0.62926,-0.6187 1.101,-1.2782 1.41805,-1.9797 0.47015,-1.0403 0.60013,-2.0448 0.39595,-3.0111 -0.1801,-0.9553 -0.58562,-1.8509 -1.22469,-2.6933 -0.62799,-0.8665 -1.44073,-1.6567 -2.43089,-2.3665 -0.95509,-0.723 -1.98284,-1.3467 -3.08471,-1.8738 -1.73084,-0.8114 -3.39031,-1.3005 -4.97695,-1.4641 -1.56242,-0.1525 -3.02175,-0.012 -4.38302,0.4236 -1.32612,0.4203 -2.5387,1.1091 -3.64178,2.0672 -1.06795,0.9448 -1.9619,2.1138 -2.67954,3.5082 -0.28888,0.5104 -0.306,0.8972 -0.046,1.1602 0.27076,0.2389 0.62128,0.3071 1.04512,0.2072 0.75319,-0.1838 1.45551,-0.1845 2.10402,-0.01 0.64853,0.1766 1.30861,0.5512 1.98434,1.1188 0.65152,0.5566 1.16771,1.2415 1.55617,2.058 0.39939,0.7923 0.73619,1.5678 1.00367,2.3296 -1.12236,0.1629 -2.29826,0.1872 -3.5267,0.069 -1.22841,-0.1181 -2.44438,-0.3225 -3.65559,-0.6077 -1.18702,-0.2743 -2.33564,-0.6056 -3.44379,-0.9899 -1.09723,-0.4085 -2.09291,-0.811 -2.98801,-1.2155 l -0.98067,-0.4466 -0.12894,-0.055 -0.59851,-0.3776 c -1.20965,-0.7692 -2.18628,-1.5169 -2.92356,-2.2375 -0.7006,-0.7287 -1.19106,-1.535 -1.48248,-2.4125 -0.27717,-0.8998 -0.36543,-1.9262 -0.25784,-3.0847 0.14426,-1.1667 0.46796,-2.5864 0.96226,-4.2541 l 4.64085,-15.6859 c 0.0835,-0.2303 0.0462,-0.3975 -0.11056,-0.4973 -0.0783,-0.05 -0.16524,-0.067 -0.26243,-0.051 z m 62.83107,6.1878 -18.25035,1.105 c -0.44394,0.081 -0.79866,0.2412 -1.07274,0.488 l -3.08009,3.7431 c -0.12446,0.1275 -0.15157,0.2579 -0.0827,0.3913 0.0516,0.1002 0.20391,0.146 0.4558,0.1427 l 18.63246,-1.395 c 0.24376,0.024 0.46374,-0.066 0.66298,-0.2533 l 2.98801,-3.7246 c 0.1405,-0.1782 0.17845,-0.2913 0.11056,-0.3407 -0.0599,-0.075 -0.17892,-0.1252 -0.36373,-0.1565 z m 68.11187,7.5506 c -0.71929,0.052 -1.40634,0.2869 -2.058,0.7044 -0.63043,0.3867 -1.21479,0.889 -1.74951,1.501 -0.5347,0.6119 -0.99201,1.2752 -1.372,1.9935 -0.35404,0.7134 -0.59643,1.4261 -0.73664,2.1271 -0.1181,0.9667 0.029,1.77 0.44658,2.4217 0.52972,0.8198 1.24883,1.4186 2.15468,1.7909 0.90587,0.3723 1.83922,0.6705 2.79924,0.8978 -1.31698,1.7826 -2.60993,3.2635 -3.87658,4.4429 -1.27148,1.1532 -2.60131,2.2759 -3.99169,3.3701 -0.14214,0.1073 -0.31868,0.2496 -0.52946,0.4236 -0.21546,0.1478 -0.42943,0.3202 -0.63536,0.5203 -0.21073,0.1739 -0.37878,0.3576 -0.50643,0.5432 -0.12776,0.1856 -0.161,0.3501 -0.10584,0.5019 0.0552,0.1518 0.22158,0.2463 0.49724,0.2762 0.29683,-9e-4 0.63974,-0.038 1.0313,-0.1105 0.41283,-0.1035 0.83223,-0.2355 1.26151,-0.396 0.45054,-0.1914 0.8575,-0.4016 1.22007,-0.6307 1.7539,-1.0266 3.37036,-2.204 4.85263,-3.5313 1.47744,-1.3534 2.73836,-2.9341 3.77991,-4.7467 0.25421,0.061 0.56384,0.1883 0.92539,0.3913 0.38765,0.198 0.64931,0.3691 0.78268,0.5064 0.22135,0.1752 0.41387,0.2761 0.58012,0.2993 0.16619,0.024 0.33848,-0.1344 0.52025,-0.465 0.14615,-0.378 0.25942,-0.8545 0.3407,-1.4365 0.0766,-0.6081 -0.005,-1.1229 -0.244,-1.5377 -0.28417,-0.5144 -0.7787,-0.9183 -1.48251,-1.2201 -0.17114,-0.049 -0.2399,-0.1454 -0.21168,-0.2854 0.0533,-0.4419 0.0483,-1.1297 -0.0189,-2.0626 -0.0387,-0.9378 -0.18952,-1.8847 -0.44658,-2.8361 -0.25706,-0.9514 -0.63622,-1.7692 -1.14179,-2.4585 -0.51039,-0.7155 -1.20486,-1.0495 -2.08563,-0.9945 z m 31.56056,1.9199 c -0.66232,-0.038 -1.32824,0.1221 -1.99813,0.4788 -0.93437,0.5805 -1.62458,1.3874 -2.07182,2.4217 -0.45787,1.0101 -0.73872,2.0938 -0.84713,3.2413 -0.0841,1.1369 -0.0457,2.2477 0.11056,3.3379 0.18033,1.0796 0.4169,1.9611 0.71361,2.6427 0.31045,0.6466 0.73813,1.1958 1.28454,1.6528 0.53583,0.4327 1.12064,0.7747 1.74951,1.0221 0.64264,0.2127 1.30802,0.3148 1.99816,0.3039 0.69016,-0.012 1.35146,-0.1572 1.98434,-0.4328 1.02232,-0.445 1.83538,-1.0348 2.44473,-1.7633 0.59877,-0.7529 1.01664,-1.5526 1.2523,-2.4079 0.22512,-0.8798 0.29836,-1.7782 0.21639,-2.698 -0.0818,-0.9198 -0.29161,-1.7717 -0.63075,-2.5506 -0.26486,-0.6085 -0.67427,-1.283 -1.22926,-2.0258 -0.53067,-0.7534 -1.16517,-1.4066 -1.89687,-1.9567 -0.7423,-0.5744 -1.54796,-0.9641 -2.41711,-1.1648 -0.21993,-0.056 -0.44222,-0.089 -0.66298,-0.1014 z m -32.3939,2.5276 c 0.34423,-0.037 0.63651,0.037 0.88398,0.2072 0.21639,0.1488 0.37831,0.3472 0.47883,0.5985 0.12658,0.2466 0.21403,0.5094 0.26703,0.7965 0.0535,0.2872 0.0775,0.5827 0.0783,0.8794 -0.005,0.2707 -0.009,0.5028 -0.0276,0.6952 -0.76955,-0.073 -1.50636,-0.2538 -2.20534,-0.5295 -0.7038,-0.3017 -1.25043,-0.6973 -1.63902,-1.1924 0.0398,-0.2232 0.17349,-0.4503 0.40054,-0.6814 0.22724,-0.2312 0.48852,-0.4116 0.78728,-0.5479 0.32488,-0.1409 0.65317,-0.2194 0.97605,-0.2255 z m -86.05372,1.5562 c -0.0926,-0.016 -0.18528,0 -0.28546,0.051 l -5.18873,3.5266 c -0.29124,0.2136 -0.34586,0.4455 -0.17491,0.6953 l 3.56352,5.4465 c 0.13766,0.267 0.34189,0.3194 0.61694,0.1565 l 4.68229,-3.2688 3.30568,5.1104 c 0.10419,0.2842 0.32002,0.3377 0.65376,0.1658 l 5.14272,-3.5359 c 0.22346,-0.263 0.26417,-0.473 0.11974,-0.6308 l -3.57732,-5.534 c -0.0952,-0.2256 -0.29817,-0.2652 -0.59854,-0.1106 l -4.64545,3.2873 -3.34711,-5.2163 c -0.0849,-0.083 -0.17444,-0.1271 -0.26704,-0.1429 z m 48.57702,0.8425 c -1.09452,0.1099 -2.07582,0.5296 -2.93276,1.2615 -0.85575,0.7054 -1.58436,1.5497 -2.18692,2.5322 -0.57602,0.9838 -1.03225,2.0003 -1.372,3.0479 -0.31321,1.0488 -0.48661,1.9462 -0.52024,2.6887 -0.007,0.7173 0.13412,1.4025 0.42357,2.0534 0.29065,0.6244 0.66762,1.1861 1.12338,1.6851 0.48349,0.4737 1.03297,0.8524 1.65743,1.1464 0.62449,0.294 1.28101,0.4614 1.97053,0.4926 1.11385,0.05 2.10633,-0.1207 2.9742,-0.5064 0.86905,-0.4124 1.59876,-0.9517 2.1869,-1.616 0.58934,-0.6909 1.04985,-1.4677 1.38121,-2.3297 0.33129,-0.8619 0.51405,-1.7158 0.5525,-2.5644 0.0299,-0.663 -0.0361,-1.446 -0.20721,-2.3573 -0.14497,-0.9101 -0.42775,-1.7806 -0.84255,-2.5966 -0.41363,-0.8426 -0.96542,-1.5412 -1.65744,-2.1041 -0.69084,-0.5893 -1.53924,-0.8672 -2.55062,-0.8333 z m 84.25358,0.1749 c -0.25831,-0.061 -0.44715,0.047 -0.55709,0.3269 l -2.07182,6.2016 c -0.13413,0.2901 -0.0585,0.4729 0.23478,0.5479 l 6.63901,1.8876 c 0.22017,0.1068 0.42475,0 0.60772,-0.3084 l 2.03958,-6.1878 c 0.0443,-0.1641 0.0481,-0.2815 0.0188,-0.3546 -0.0318,-0.073 -0.12281,-0.118 -0.27624,-0.1381 l -6.63439,-1.9751 z m -13.45297,0.097 c 0.54724,-0.01 1.04528,0.1122 1.49632,0.3499 0.44045,0.2138 0.81556,0.5126 1.12797,0.8978 0.32624,0.3502 0.55134,0.7311 0.67219,1.1418 -0.0707,0.4361 -0.41011,0.8865 -1.01748,1.3536 -0.58302,0.4565 -1.25277,0.8501 -2.00735,1.1786 -0.73021,0.3179 -1.44297,0.5099 -2.13627,0.5801 -0.66894,0.06 -1.12481,-0.089 -1.36739,-0.4466 -0.20768,-0.3439 -0.30619,-0.7347 -0.29466,-1.174 0.0118,-0.4393 0.10207,-0.8653 0.26703,-1.2846 0.1544,-0.4435 0.37813,-0.8636 0.67219,-1.2522 0.2941,-0.3886 0.61053,-0.6981 0.94383,-0.9301 0.563,-0.3029 1.1101,-0.4426 1.64362,-0.4143 z m -71.91479,4.9032 c 0.63886,-0.024 1.19091,0.09 1.65746,0.35 0.49429,0.235 0.8922,0.5592 1.19244,0.9714 0.30142,0.3857 0.51058,0.8196 0.62154,1.3029 0.13884,0.4581 0.16901,0.8995 0.0967,1.3214 -0.25548,0.3605 -0.75913,0.6168 -1.51011,0.7689 -0.72443,0.1532 -1.4983,0.2079 -2.32044,0.1704 -0.7956,-0.036 -1.51968,-0.1723 -2.17308,-0.4144 -0.62687,-0.2409 -0.97094,-0.5757 -1.03131,-1.0036 -0.0351,-0.4003 0.0542,-0.7939 0.25782,-1.1833 0.20367,-0.3894 0.46846,-0.7366 0.80111,-1.0405 0.33386,-0.3303 0.72045,-0.6093 1.1556,-0.8287 0.4351,-0.2195 0.85085,-0.3529 1.2523,-0.4144 z m 47.41219,17.638 c 0.5627,-0.024 1.10461,0.108 1.61602,0.3914 0.5375,0.2785 1.0189,0.6457 1.45488,1.105 0.43114,0.4332 0.80828,0.9192 1.12337,1.4548 0.33641,0.5048 0.57421,1.0008 0.71824,1.4871 -0.68837,0.073 -1.4653,0.108 -2.32963,0.1059 -0.83822,-0.01 -1.68412,-0.053 -2.53684,-0.1382 -0.82662,-0.09 -1.63306,-0.2119 -2.41711,-0.3637 -0.75798,-0.1567 -1.41633,-0.3601 -1.97512,-0.6077 0.0891,-0.3944 0.28645,-0.7793 0.59393,-1.1602 0.30267,-0.407 0.66937,-0.7693 1.09575,-1.0912 0.42638,-0.3219 0.87716,-0.5972 1.34897,-0.8195 0.47187,-0.2223 0.90634,-0.3435 1.30754,-0.3637 z m -143.00546,4.8757 c -0.42614,0.041 -0.78027,0.1431 -1.05892,0.3085 l -3.42541,3.0432 c -0.12729,0.088 -0.17632,0.1973 -0.14733,0.3269 0.053,0.1405 0.19259,0.2155 0.41898,0.2303 l 17.58275,1.6114 c 0.25284,0.085 0.49255,0.035 0.72283,-0.152 l 3.28727,-3.0157 c 0.13813,-0.1122 0.18693,-0.2213 0.14732,-0.3268 -0.0507,-0.081 -0.16288,-0.1219 -0.34069,-0.1151 l -17.1868,-1.9106 z m -84.2858,13.0708 c 12.95549,17.0922 33.3684,34.0513 55.35873,47.5181 19.32443,11.8342 39.76214,20.8903 57.57328,24.7881 l -46.82748,4.3968 c -0.20485,-0.1011 -0.41222,-0.1933 -0.61695,-0.2946 a 1.8295534,1.8295534 0 0 0 -2.26058,0.5202 l -38.18113,49.2815 c -23.15254,-13.039 -44.06925,-28.3565 -53.577,-43.7567 16.82557,4.0767 31.76232,4.9336 44.76491,-4.6684 0.58253,-0.4298 0.85689,-1.1626 0.6998,-1.8693 l -16.93358,-75.9157 z m 391.33252,0 -16.92898,75.9157 c -0.15699,0.7067 0.11739,1.4395 0.6998,1.8693 13.00257,9.602 27.93472,8.7451 44.76029,4.6684 -9.50772,15.4002 -30.42446,30.7177 -53.57697,43.7567 L 504.484,844.48099 a 1.8295534,1.8295534 0 0 0 -1.42263,-0.709 1.8295534,1.8295534 0 0 0 -0.83793,0.1888 c -0.20485,0.1014 -0.4121,0.1935 -0.61694,0.2947 l -46.8275,-4.3969 c 17.81233,-3.8978 38.25349,-12.9538 57.57787,-24.788 21.99035,-13.4668 42.39864,-30.4259 55.35415,-47.5181 z m -265.27905,74.7509 -7.98337,21.8829 c -15.47702,-4.2933 -30.67547,-9.9315 -45.54758,-16.8507 l 53.53095,-5.0322 z m 139.22558,0 53.53093,5.0322 c -14.87208,6.9192 -30.06594,12.5574 -45.54296,16.8507 l -7.98797,-21.8829 z m -200.0493,5.5709 c 39.64138,19.418 81.71113,29.9215 125.30302,29.9215 1.70604,0 3.40553,-0.024 5.10125,-0.055 1.71806,0.033 3.43707,0.055 5.16571,0.055 43.59189,0 85.66624,-10.5035 125.30762,-29.9215 l 54.61751,70.4968 c -55.75821,35.7878 -116.41752,55.5106 -179.92513,55.5106 -1.69547,0 -3.39529,-0.021 -5.10124,-0.051 a 1.8295534,1.8295534 0 0 0 -0.0599,0 c -1.70593,0.028 -3.40579,0.051 -5.10125,0.051 -63.50762,0 -124.16692,-19.7229 -179.92513,-55.5106 l 54.61748,-70.4968 z m 215.44975,27.3064 c -0.17279,0.08 -0.28002,0.3562 -0.32229,0.8333 -0.0549,0.4545 -0.0674,1.0197 -0.0323,1.6897 0.0471,0.636 0.13389,1.3367 0.25781,2.1087 0.11103,0.7493 0.2336,1.4643 0.36832,2.1454 0.13507,0.6812 0.2684,1.2802 0.40057,1.791 0.15699,0.4993 0.29105,0.8195 0.40514,0.9669 0.87469,1.1108 1.96697,2.5239 3.27345,4.2357 1.29375,1.689 2.68211,3.52 4.16664,5.4925 1.49644,1.9385 3.01312,3.9404 4.54878,6.0037 1.54756,2.0292 2.99023,3.9503 4.32316,5.7642 1.50922,1.9612 2.93795,3.9461 4.28635,5.953 1.36028,1.9729 2.75255,3.9742 4.17586,6.0037 0.27938,0.3855 0.5471,0.5028 0.80569,0.3545 0.25868,-0.1483 0.39774,-0.4858 0.41436,-1.0083 0.0316,-1.1586 -0.10608,-2.3112 -0.40974,-3.4576 -0.29178,-1.1805 -0.69054,-2.3228 -1.19245,-3.4346 -0.49005,-1.1459 -1.05815,-2.244 -1.70809,-3.2873 -0.63809,-1.0774 -1.28089,-2.0813 -1.92909,-3.011 -2.28873,-3.3449 -4.65711,-6.5813 -7.104,-9.7099 -2.42222,-3.1401 -4.87007,-6.3225 -7.34342,-9.5533 -0.86278,-1.145 -1.70124,-2.2729 -2.51378,-3.384 -0.80067,-1.1451 -1.57549,-2.2467 -2.32503,-3.3011 l -0.46039,-0.8149 c -0.21734,-0.3856 -0.44409,-0.7676 -0.68601,-1.1418 -0.2547,-0.3969 -0.51787,-0.7176 -0.78268,-0.9668 -0.24016,-0.2607 -0.44423,-0.3517 -0.61695,-0.2717 z m -26.96575,8.011 c -0.0962,-0.055 -0.17891,-0.051 -0.24402,0.019 -0.1379,0.1131 -0.22135,0.3085 -0.25322,0.5801 -0.0823,0.3895 -0.20461,0.8397 -0.36372,1.3536 -0.15912,0.5139 -0.32344,1.0434 -0.50184,1.5884 -0.17844,0.545 -0.36827,1.0648 -0.56169,1.5607 -0.19329,0.496 -0.36495,0.9218 -0.51565,1.2753 -0.12375,0.3471 -0.16807,0.5696 -0.13813,0.6676 0.0299,0.098 0.22087,0.2472 0.57088,0.4512 0.22818,0.1813 0.50839,0.4429 0.84255,0.7827 0.35338,0.3087 0.69884,0.6439 1.0405,1.0083 0.34166,0.3643 0.66199,0.749 0.95763,1.151 0.28808,0.3775 0.50721,0.721 0.65839,1.0267 0.779,1.4173 1.58987,3.0343 2.43552,4.8572 0.86487,1.7918 1.73312,3.6375 2.60128,5.5341 0.86063,1.8719 1.7142,3.7203 2.55984,5.5432 0.86488,1.7918 1.67405,3.4012 2.4263,4.825 0.15865,0.3303 0.26687,0.5911 0.32688,0.7873 0.0521,0.1716 0.0561,0.3272 0.0142,0.4696 -0.0502,0.1179 -0.17397,0.2298 -0.37292,0.3315 -0.2065,0.077 -0.49222,0.1858 -0.85175,0.3269 -0.38626,0.1478 -1.01695,0.343 -1.89224,0.5847 -0.87535,0.2417 -1.86561,0.5263 -2.9742,0.8517 -1.1086,0.3255 -2.26964,0.6612 -3.48526,1.0129 -1.21559,0.3518 -2.35018,0.6991 -3.39775,1.0359 -1.02083,0.3302 -1.89981,0.6488 -2.6381,0.9623 -0.73834,0.3134 -1.17288,0.5787 -1.30755,0.7965 -0.31542,0.4732 -0.59299,1.0724 -0.83334,1.7909 -0.24784,0.694 -0.45724,1.431 -0.62154,2.21 -0.14497,0.7478 -0.26288,1.4891 -0.3545,2.2237 -0.0912,0.7347 -0.13508,1.3791 -0.13814,1.9337 -0.0118,0.2406 0.10914,0.4074 0.36832,0.5018 0.25154,0.07 0.53399,0.014 0.85175,-0.1704 0.81526,-0.4379 1.80118,-0.8385 2.95577,-1.2016 1.17382,-0.3943 2.43476,-0.7453 3.77991,-1.0498 1.36438,-0.3355 2.76098,-0.6138 4.18965,-0.8333 1.45542,-0.226 2.86937,-0.4033 4.24031,-0.5294 1.39769,-0.1332 2.71271,-0.2039 3.94565,-0.2164 1.25969,-0.019 2.35113,0.028 3.27805,0.1428 -1.95863,1.5895 -4.08549,2.9968 -6.38577,4.2219 -2.28107,1.194 -4.63164,2.2578 -7.04877,3.1952 -2.41713,0.9374 -4.85324,1.7623 -7.31118,2.4723 -2.46545,0.6856 -4.84933,1.3126 -7.15004,1.8785 l -0.28546,0.069 -25.25305,0.3591 -0.13342,-0.019 -1.11416,-0.1565 c -1.12774,-0.1593 -2.13752,-0.356 -3.02946,-0.5847 -0.89194,-0.2287 -1.71999,-0.4968 -2.48617,-0.8103 -0.73471,-0.3347 -1.42218,-0.702 -2.0626,-1.1004 -0.64038,-0.3983 -1.27153,-0.862 -1.89225,-1.3858 l 0,0 c -0.22394,-0.1855 -0.44689,-0.3074 -0.66298,-0.3637 -0.21215,-0.081 -0.37393,0.059 -0.48802,0.4282 -0.38546,1.2025 -0.7489,2.4482 -1.09115,3.7338 -0.33831,1.2605 -0.63877,2.4622 -0.90241,3.605 -0.075,0.2973 -0.0879,0.5518 -0.0368,0.7643 0.0549,0.1874 0.18033,0.3825 0.37292,0.5893 0.58927,0.545 1.20123,1.0196 1.84161,1.418 0.67184,0.3772 1.48403,0.7718 2.43092,1.1878 -0.73127,1.2563 -1.65392,2.4626 -2.7624,3.6142 -1.08493,1.1806 -2.2777,2.2692 -3.58655,3.2643 -1.30883,0.995 -2.68674,1.8646 -4.12519,2.6104 -1.44238,0.771 -2.86631,1.3497 -4.27713,1.7403 -2.84523,0.7522 -5.71937,1.1549 -8.62332,1.2063 -2.90395,0.051 -5.67171,-0.2492 -8.29644,-0.9024 -0.56582,-0.157 -1.0236,-0.1704 -1.38122,-0.042 -0.35773,0.129 -0.57316,0.3146 -0.63997,0.5617 -0.0983,0.2683 -0.0438,0.5709 0.15652,0.907 0.20037,0.3362 0.55941,0.6305 1.08194,0.884 1.27299,0.6673 2.73814,1.3756 4.39226,2.1224 1.6266,0.743 3.30405,1.4171 5.03677,2.0212 1.76026,0.6079 3.49926,1.0865 5.21638,1.4319 1.7171,0.3452 3.30726,0.4385 4.76515,0.2854 1.25751,-0.1301 2.47123,-0.535 3.64638,-1.2155 1.1712,-0.6553 2.28582,-1.4975 3.34713,-2.5276 1.06128,-1.03 2.06093,-2.183 2.99261,-3.4622 0.93168,-1.2792 1.77138,-2.5982 2.5184,-3.9548 0.77059,-1.3277 1.45636,-2.6566 2.05798,-3.9825 0.60162,-1.3259 1.0991,-2.5343 1.49632,-3.6326 0.81728,0.1669 1.44688,0.2903 1.88305,0.3775 0.46365,0.091 1.02493,0.183 1.68506,0.2763 l 1.85542,0.2624 c 0.0262,0 0.091,-0.071 0.12423,-0.083 0.0794,0.056 0.15605,0.1162 0.244,0.1151 l 26.24753,-0.373 c 0.11881,0 0.21121,-0.063 0.31307,-0.1013 0.14969,0.086 0.27566,0.1402 0.3591,0.1197 l 0.80572,-0.198 1.00367,-0.244 c 3.3173,-0.8159 6.28379,-1.7859 8.90417,-2.9051 2.62037,-1.1193 5.0392,-2.3317 7.25595,-3.6418 2.21676,-1.3101 4.31215,-2.6849 6.28909,-4.1206 1.96942,-1.4603 3.96691,-2.928 5.98982,-4.4015 2.41767,-1.7815 4.9455,-3.1032 7.58743,-3.964 2.66869,-0.8671 5.5267,-1.3058 8.57268,-1.3168 0.35106,0.019 0.61503,-0.017 0.7873,-0.1105 0.19164,-0.1261 0.31358,-0.2505 0.3637,-0.3684 0.0771,-0.1244 0.16501,-0.5298 0.27165,-1.2154 0.13342,-0.6922 0.27094,-1.4756 0.40514,-2.3527 0.12682,-0.9015 0.23599,-1.7984 0.3361,-2.6933 0.12682,-0.9016 0.21993,-1.6376 0.27625,-2.2053 0.037,-0.5367 -0.19754,-0.7938 -0.70902,-0.7735 -4.31277,0.6651 -8.36913,1.1337 -12.16842,1.4088 -3.78005,0.244 -7.49111,0.3 -11.12791,0.1657 0.37638,-0.4618 0.62253,-1.024 0.73664,-1.685 0.14097,-0.6677 0.17326,-1.3613 0.0967,-2.0811 -0.0497,-0.7263 -0.18269,-1.4433 -0.40055,-2.1547 -0.19848,-0.7424 -0.43816,-1.4261 -0.71363,-2.0441 -0.52086,-1.1379 -1.1056,-2.4829 -1.75413,-4.0377 -0.64853,-1.555 -1.30409,-3.146 -1.97513,-4.7744 -0.67104,-1.6285 -1.34587,-3.2169 -2.02116,-4.7652 -0.6485,-1.5549 -1.258,-2.8945 -1.83239,-4.0193 -0.37824,-0.6718 -0.47786,-1.4533 -0.29006,-2.3435 0.21451,-0.8967 0.52593,-1.9627 0.92541,-3.1951 -0.62516,-0.1627 -1.27902,-0.4114 -1.95671,-0.7459 -0.65845,-0.3655 -1.29531,-0.7601 -1.91527,-1.1878 -0.60073,-0.4589 -1.1663,-0.9425 -1.69428,-1.4457 -0.52796,-0.5031 -0.97732,-0.9832 -1.34897,-1.4456 -0.12705,-0.1799 -0.24001,-0.2991 -0.33609,-0.3546 z m -88.66884,6.5976 c -0.38178,-0.027 -0.79289,-0.014 -1.22926,0.042 -0.84659,0.12 -1.70039,0.3357 -2.55984,0.64 -0.82398,0.2892 -1.62515,0.6388 -2.4079,1.0497 -0.75656,0.4197 -1.35212,0.8093 -1.79097,1.174 -0.38473,0.302 -0.66272,0.6275 -0.82872,0.976 -0.15676,0.3248 -0.26559,0.6798 -0.32688,1.0636 -0.11244,1.4987 0.20767,2.8743 0.96223,4.1252 -0.81106,0.1049 -1.57877,0.2102 -2.302,0.3177 -0.72321,0.1075 -1.35957,0.2978 -1.91068,0.5708 -0.67446,0.2856 -1.2075,0.7003 -1.59758,1.2431 -0.35461,0.5279 -0.71788,1.0774 -1.09118,1.6529 -0.0632,0.087 -0.0681,0.1782 -0.0189,0.2762 0.0599,0.074 0.12682,0.099 0.19801,0.069 2.7043,-0.2505 5.41312,-0.4076 8.13071,-0.465 2.71756,-0.057 5.57263,0.069 8.56347,0.3729 0.0785,0.026 0.25583,-0.088 0.53406,-0.3453 0.28756,-0.2807 0.59146,-0.6008 0.907,-0.953 0.34171,-0.3435 0.63036,-0.6639 0.86554,-0.9622 0.27104,-0.3135 0.3992,-0.4961 0.39135,-0.5525 -0.67483,-0.092 -1.29451,-0.1688 -1.86463,-0.2256 -0.54394,-0.048 -1.08149,-0.116 -1.60681,-0.2117 -0.52529,-0.096 -1.05093,-0.2209 -1.58377,-0.3729 -0.49733,-0.1672 -1.04349,-0.4027 -1.63443,-0.7091 -0.45252,-0.206 -0.88489,-0.5024 -1.29833,-0.8839 -0.40413,-0.4054 -0.7567,-0.8341 -1.05433,-1.2846 -0.26213,-0.4654 -0.47499,-0.9405 -0.63995,-1.4272 -0.16524,-0.4868 -0.23978,-0.9422 -0.22087,-1.3674 0.18693,-0.099 0.44646,-0.1881 0.77346,-0.267 0.36252,-0.094 0.72573,-0.1606 1.09577,-0.198 0.40552,-0.052 0.80105,-0.07 1.17863,-0.051 0.40375,0.028 0.74796,0.092 1.0359,0.1888 0.31403,0.1056 0.51315,0.3209 0.59391,0.6446 0.11621,0.3086 0.18976,0.6458 0.22559,1.0082 0.0358,0.3625 0.0837,0.6981 0.13814,1.0129 0.0639,0.291 0.22629,0.4829 0.48802,0.5709 0.3141,0.1056 0.66937,-0.019 1.07274,-0.3683 0.41269,-0.3735 0.79371,-0.7733 1.13719,-1.197 0.26149,-0.2896 0.42565,-0.5541 0.49264,-0.8011 0.0931,-0.2383 0.13366,-0.5349 0.12423,-0.8886 -0.0377,-0.2822 -0.0837,-0.5829 -0.13814,-0.8978 -0.0188,-0.3299 -0.0865,-0.649 -0.20248,-0.9576 -0.0901,-0.2999 -0.2667,-0.5711 -0.52487,-0.8196 -0.23196,-0.2397 -0.56789,-0.4352 -1.01289,-0.5847 -0.32719,-0.1098 -0.68174,-0.1801 -1.06353,-0.2072 z m 21.23376,4.383 c -0.18881,-0.045 -0.47065,0.099 -0.84715,0.4282 -0.36983,0.3049 -0.7816,0.7188 -1.23848,1.2385 -0.42322,0.5015 -0.86731,1.0729 -1.33055,1.7219 -0.4566,0.6244 -0.88143,1.2305 -1.27073,1.8186 -0.3893,0.588 -0.71687,1.1148 -0.98526,1.5745 -0.24115,0.4661 -0.37137,0.7885 -0.39133,0.9669 -0.1379,1.3538 -0.327,3.0584 -0.57091,5.1196 -0.23719,2.0367 -0.5041,4.2396 -0.80109,6.6022 -0.26335,2.3444 -0.5603,4.7444 -0.88397,7.2053 -0.29006,2.4428 -0.58182,4.7437 -0.87938,6.8968 -0.27002,2.369 -0.61991,4.7059 -1.04511,7.012 -0.39154,2.2879 -0.77561,4.6162 -1.16022,6.9843 -0.0662,0.4551 0.0512,0.7047 0.35453,0.7504 0.30338,0.046 0.65063,-0.1233 1.0405,-0.5018 0.86033,-0.8428 1.58987,-1.7818 2.18692,-2.8177 0.63066,-1.0541 1.15301,-2.1437 1.57455,-3.2734 0.45524,-1.148 0.81302,-2.308 1.07275,-3.4761 0.29338,-1.1862 0.52993,-2.3199 0.70901,-3.4024 0.67715,-3.8684 1.215,-7.7024 1.61602,-11.5054 0.42798,-3.7966 0.87129,-7.6428 1.32596,-11.5377 0.17161,-1.372 0.34887,-2.7166 0.53406,-4.0331 0.21875,-1.3347 0.4248,-2.6218 0.61694,-3.8582 l 0.2394,-0.8839 c 0.11339,-0.4179 0.21734,-0.8373 0.30388,-1.2615 0.0933,-0.4489 0.12729,-0.8474 0.10584,-1.1925 0.005,-0.3387 -0.0875,-0.5309 -0.27622,-0.5755 z m 32.67011,7.5368 -18.63706,3.7523 c -0.44409,0.1423 -0.78693,0.3476 -1.02671,0.6215 l -2.523,3.9917 c -0.10536,0.1388 -0.11173,0.2662 -0.0188,0.3821 0.0707,0.087 0.23784,0.1141 0.49724,0.074 l 18.98235,-4.0884 0.005,0 c 0.25338,-0.017 0.46806,-0.1308 0.63997,-0.3361 l 2.43552,-3.964 c 0.11386,-0.1891 0.12918,-0.304 0.0507,-0.3407 -0.0747,-0.062 -0.20862,-0.091 -0.40514,-0.092 z m 31.73092,0.5617 c -0.0952,-0.029 -0.23007,-0.012 -0.40976,0.06 l -15.30837,10.3314 c -0.34128,0.2949 -0.55667,0.6126 -0.65376,0.953 l -0.53409,4.604 c -0.0351,0.1669 0.0141,0.2873 0.15205,0.3592 0.10277,0.054 0.26057,0.014 0.4788,-0.1198 l 15.47411,-10.7688 c 0.22583,-0.1082 0.37584,-0.2896 0.44199,-0.5432 l 0.46042,-4.5442 c 0.0212,-0.216 -0.0141,-0.3268 -0.10137,-0.3315 z m -139.17034,4.9769 c -0.10678,0.035 -0.22535,0.125 -0.35911,0.2717 -0.88512,0.9527 -1.7699,1.9529 -2.65191,2.9972 -0.86735,1.0229 -1.67502,2.0033 -2.42171,2.9466 -0.19989,0.2431 -0.3215,0.4692 -0.36832,0.6814 -0.0321,0.1907 -0.007,0.4176 0.0783,0.6768 0.30147,0.7134 0.65952,1.3717 1.07274,1.9705 0.45151,0.591 1.02077,1.2473 1.7081,1.9751 -1.22689,0.8742 -2.60213,1.6344 -4.12983,2.2744 -1.51875,0.675 -3.0993,1.2201 -4.74212,1.6436 -1.64282,0.4236 -3.29264,0.7121 -4.94472,0.861 -1.66678,0.1706 -3.23537,0.173 -4.70531,0.01 -2.94876,-0.3639 -5.7687,-1.0573 -8.4622,-2.081 -2.69347,-1.0237 -5.10245,-2.319 -7.2283,-3.8812 -0.45115,-0.3516 -0.87103,-0.5337 -1.25691,-0.5479 -0.38584,-0.014 -0.66279,0.081 -0.83332,0.2809 -0.20861,0.2079 -0.29826,0.4995 -0.26243,0.8793 0.0358,0.3799 0.23895,0.783 0.60772,1.2063 0.87634,1.0768 1.91132,2.26 3.10312,3.5497 1.16821,1.276 2.41593,2.5084 3.74307,3.697 1.35071,1.2023 2.7397,2.2755 4.16664,3.2228 1.4269,0.9473 2.84569,1.6232 4.2541,2.0212 1.21399,0.3447 2.5094,0.4212 3.8904,0.2348 1.36638,-0.165 2.76824,-0.5216 4.19889,-1.0682 1.43052,-0.5466 2.85577,-1.2275 4.27713,-2.0487 1.42133,-0.8213 2.77508,-1.7106 4.06073,-2.6704 1.29456,-0.9247 2.50803,-1.8829 3.64639,-2.8683 1.13835,-0.9854 2.13349,-1.9043 2.9834,-2.7578 0.67809,0.4531 1.19815,0.8003 1.56076,1.0405 0.38622,0.254 0.86127,0.5465 1.42725,0.8748 l 1.59299,0.9208 c 0.0559,0.032 0.23592,-0.038 0.37294,-0.073 l 20.42342,9.1205 c 0.0165,0.01 0.029,0.036 0.046,0.042 l 0.17043,0.055 1.28452,0.5755 c 0.19777,0.088 0.40347,0.102 0.61232,0.055 0.72738,0.2408 1.45297,0.4759 2.18692,0.6998 0.8993,0.2752 1.82122,0.5061 2.75781,0.686 0.93656,0.1799 1.88814,0.2804 2.85449,0.3085 0.99251,0.037 2.01586,-0.048 3.0755,-0.2578 0.93618,-0.1975 1.82975,-0.6266 2.67952,-1.2845 0.88526,-0.673 1.70349,-1.474 2.45395,-2.4079 0.75043,-0.934 1.39995,-1.9579 1.95209,-3.0663 0.57833,-1.0996 1.03128,-2.172 1.35359,-3.2228 0.73961,-2.4202 0.91952,-4.8527 0.54328,-7.2974 -0.34075,-2.4597 -1.11268,-4.7954 -2.32042,-7.0073 -0.0936,-0.1393 -0.21145,-0.2633 -0.34991,-0.3637 -0.11221,-0.092 -0.23219,-0.049 -0.35911,0.1242 -1.6744,2.16 -3.26287,4.4008 -4.76517,6.7265 0.25102,0.5695 0.53342,1.219 0.84253,1.9429 0.34461,0.7088 0.65975,1.487 0.94844,2.3388 0.31484,0.8606 0.56982,1.7547 0.76887,2.6841 0.22512,0.9384 0.34058,1.8963 0.34529,2.8684 -0.94373,0.1412 -1.93403,0.1704 -2.96958,0.092 -1.02623,-0.102 -2.068,-0.2771 -3.12612,-0.5248 -1.03199,-0.2389 -2.05916,-0.5142 -3.08931,-0.8334 l -2.83147,-0.953 -0.98066,-0.3269 -0.005,0 -21.56984,-9.6362 c -0.007,0 -0.0118,0 -0.0188,0 -0.76559,-0.4611 -1.49901,-0.9181 -2.09485,-1.3628 -0.71943,-0.537 -1.36272,-1.0896 -1.92908,-1.6574 -0.52805,-0.5756 -1.00021,-1.1647 -1.41343,-1.7634 -0.41323,-0.5987 -0.78822,-1.251 -1.12798,-1.9567 -0.12399,-0.2516 -0.27261,-0.4402 -0.44658,-0.5709 -0.0797,-0.076 -0.1742,-0.095 -0.28087,-0.06 z m 93.3235,10.0967 c -0.11197,0 -0.22866,0.035 -0.35451,0.1197 l -5.25778,3.9503 c -0.2791,0.1657 -0.31192,0.3556 -0.0922,0.5662 l 4.88024,4.9218 c 0.13743,0.1989 0.37497,0.2225 0.70902,0.064 l 5.21635,-3.9595 c 0.13036,-0.1098 0.20108,-0.2008 0.21168,-0.2762 0.0118,-0.074 -0.0478,-0.1598 -0.17042,-0.2532 l 0,0 -4.82503,-4.9908 c -0.0983,-0.091 -0.20555,-0.1351 -0.31766,-0.1381 z m -74.49766,27.7023 c -0.44102,0.068 -0.80088,0.187 -1.07734,0.3638 l -3.3149,3.1307 c -0.12517,0.093 -0.16571,0.2006 -0.12422,0.3223 0.0674,0.1303 0.21851,0.1944 0.45579,0.1933 l 18.48054,0.3499 c 0.27108,0.064 0.51715,0 0.74124,-0.198 l 3.16756,-3.0985 c 0.13437,-0.1165 0.17939,-0.2245 0.12894,-0.3223 -0.0599,-0.074 -0.18339,-0.1016 -0.36832,-0.083 l -18.0892,-0.6584 z m 132.2459,4.8619 c -0.10325,0.039 -0.19471,0.1195 -0.27165,0.244 l -3.03865,5.5755 c -0.18056,0.2554 -0.12305,0.4399 0.17043,0.5525 l 6.61598,2.7255 c 0.21309,0.1323 0.43338,0.062 0.6676,-0.2072 l 3.00182,-5.5616 c 0.0695,-0.149 0.0915,-0.2626 0.0691,-0.3361 -0.0236,-0.074 -0.11079,-0.1297 -0.26703,-0.1705 l -6.59756,-2.8084 c -0.12942,-0.047 -0.24664,-0.052 -0.34989,-0.014 z"
       id="path4722"
       inkscape:connector-curvature="0" />
  </g>
</svg>
