<?xml version="1.0" encoding="UTF-8" standalone="no"?>
<!-- Created with Inkscape (http://www.inkscape.org/) -->

<svg
   xmlns:dc="http://purl.org/dc/elements/1.1/"
   xmlns:cc="http://creativecommons.org/ns#"
   xmlns:rdf="http://www.w3.org/1999/02/22-rdf-syntax-ns#"
   xmlns:svg="http://www.w3.org/2000/svg"
   xmlns="http://www.w3.org/2000/svg"
   xmlns:sodipodi="http://sodipodi.sourceforge.net/DTD/sodipodi-0.dtd"
   xmlns:inkscape="http://www.inkscape.org/namespaces/inkscape"
   width="210mm"
   height="210mm"
   viewBox="0 0 744.09414 744.09435"
   id="svg4217"
   version="1.1"
   inkscape:version="0.91 r13725"
   sodipodi:docname="circular-no-outlines.svg">
  <defs
     id="defs4219" />
  <sodipodi:namedview
     id="base"
     pagecolor="#ffffff"
     bordercolor="#666666"
     borderopacity="1.0"
     inkscape:pageopacity="0.0"
     inkscape:pageshadow="2"
     inkscape:zoom="0.7"
     inkscape:cx="477.32253"
     inkscape:cy="219.55951"
     inkscape:document-units="px"
     inkscape:current-layer="g5118"
     showgrid="false"
     inkscape:window-width="1366"
     inkscape:window-height="713"
     inkscape:window-x="0"
     inkscape:window-y="27"
     inkscape:window-maximized="1" />
  <metadata
     id="metadata4222">
    <rdf:RDF>
      <cc:Work
         rdf:about="">
        <dc:format>image/svg+xml</dc:format>
        <dc:type
           rdf:resource="http://purl.org/dc/dcmitype/StillImage" />
        <dc:title />
      </cc:Work>
    </rdf:RDF>
  </metadata>
  <g
     inkscape:label="Layer 1"
     inkscape:groupmode="layer"
     id="layer1"
     transform="translate(0,-308.26791)">
    <g
       id="g5150"
       transform="matrix(2.3572579,0,0,2.3572579,-126.28967,-1600.3227)">
      <g
         id="g5127">
        <path
           style="opacity:1;fill:#ff0000;fill-opacity:1;stroke:#000000;stroke-width:2.07761407;stroke-linejoin:round;stroke-miterlimit:4;stroke-dasharray:none;stroke-opacity:1"
           d="M 211.4043,816.75 A 150.74586,150.74586 0 0 0 60.660156,967.49609 150.74586,150.74586 0 0 0 211.4043,1118.2422 150.74586,150.74586 0 0 0 362.15039,967.49609 150.74586,150.74586 0 0 0 211.4043,816.75 Z"
           id="path4946"
           inkscape:connector-curvature="0" />
        <g
           transform="matrix(0.42549854,0,0,0.42549854,47.891565,739.31703)"
           id="g4948"
           style="stroke:none">
          <path
             style="opacity:1;fill:#008700;fill-opacity:1;stroke:none;stroke-width:3.38340759;stroke-linejoin:round;stroke-miterlimit:4;stroke-dasharray:none;stroke-opacity:1"
             d="M 510.98242,284.125 A 165.8837,165.8837 0 0 1 550.16992,390.93359 165.8837,165.8837 0 0 1 384.28516,556.81641 165.8837,165.8837 0 0 1 218.40234,390.93359 165.8837,165.8837 0 0 1 257.07812,284.50586 214.28572,214.28572 0 0 0 170,456.64844 214.28572,214.28572 0 0 0 384.28516,670.93359 214.28572,214.28572 0 0 0 598.57227,456.64844 214.28572,214.28572 0 0 0 510.98242,284.125 Z"
             id="path4950"
             inkscape:connector-curvature="0" />
          <g
             id="g4952"
             style="stroke:none">
            <path
               sodipodi:nodetypes="ccccccccc"
               inkscape:connector-curvature="0"
               id="path4954"
               d="m 379.65029,441.2654 c 0,0 -10.24728,47.67331 8.85986,71.78046 -9.10714,-8.2143 -10.83266,-2.45031 -17.43872,-6.21937 4.28679,16.76665 18.03571,23.03571 53.92857,32.14286 -23.75,-20.71429 -14.10714,-41.42857 -20.89286,-49.64286 -0.53571,8.75 -7.07151,9.25245 -6.00008,17.82387 -13.33376,-22.96918 -7.42976,-54.94506 -6.35833,-67.08792 1.07143,-12.14286 -16.39159,-11.98595 -16.39159,-5.91452 z"
               style="opacity:1;fill:#ffffff;fill-rule:evenodd;stroke:none;stroke-width:3.38340759;stroke-linecap:butt;stroke-linejoin:round;stroke-miterlimit:4;stroke-dasharray:none;stroke-opacity:1" />
            <path
               inkscape:connector-curvature="0"
               id="path4956"
               d="m 377.85742,241.29102 c -7.25804,54.52374 -41.88306,57.81147 -26.1289,103.79296 -45.05,-37.34906 -59.47739,-12.58281 -107.91016,5.72657 28.93298,38.6631 44.48815,58.15307 93.11328,52.44336 l -0.008,0.006 c -56.71804,38.34027 -28.1885,64.12989 -46.55274,97.25 40.41592,7.68354 66.02072,-12.42304 95.16602,-58.6875 0.10834,0.1744 0.20265,0.3447 0.3125,0.51953 21.25689,45.75813 35.22936,52.5421 96.38672,48.85351 -7.07932,-21.81105 3.95418,-65.73753 -50.50586,-86.0039 l -0.42383,-0.28321 c 58.32079,3.34816 62.27969,-6.13563 90.4375,-61.17187 -38.61173,-12.22978 -59.34661,-26.78682 -101.77539,5.59375 0.13613,-0.76329 0.2659,-1.53739 0.38867,-2.32422 9.99999,-54.28573 -1.42858,-73.21484 -42.5,-105.71484 z"
               style="opacity:1;fill:#ffffff;fill-rule:evenodd;stroke:none;stroke-width:3.38340759;stroke-linecap:butt;stroke-linejoin:miter;stroke-miterlimit:4;stroke-dasharray:none;stroke-opacity:1" />
            <circle
               r="11.067722"
               cy="384.1463"
               cx="383.85797"
               id="circle4958"
               style="opacity:1;fill:#ffff00;fill-opacity:1;stroke:none;stroke-width:2;stroke-linejoin:round;stroke-miterlimit:4;stroke-dasharray:none;stroke-opacity:1" />
            <path
               sodipodi:nodetypes="sscss"
               inkscape:connector-curvature="0"
               id="path4960"
               d="m 380.88353,362.02754 c -4.05556,-4.49064 2.89691,-20.89317 1.63733,-32.91921 -1.88704,-18.01674 -8.03743,-39.24882 4.87265,-42.04129 -5.54315,15.84119 3.52377,50.66522 2.53063,63.25582 -0.95811,12.14658 -5.89829,15.1841 -9.04061,11.70468 z"
               style="opacity:1;fill:#ffff00;fill-rule:evenodd;stroke:none;stroke-width:2;stroke-linecap:butt;stroke-linejoin:miter;stroke-miterlimit:4;stroke-dasharray:none;stroke-opacity:1" />
            <path
               inkscape:transform-center-y="-15.739913"
               inkscape:transform-center-x="-57.805211"
               style="opacity:1;fill:#ffff00;fill-rule:evenodd;stroke:none;stroke-width:2;stroke-linecap:butt;stroke-linejoin:miter;stroke-miterlimit:4;stroke-dasharray:none;stroke-opacity:1"
               d="m 406.50133,381.67867 c 3.3533,2.04289 10.1433,-7.85443 31.37071,-10.11106 18.01379,-1.915 39.99097,-2.40676 39.34296,-15.59949 -13.8639,9.45843 -50.20509,7.93865 -61.75123,13.94591 -10.80886,5.62367 -12.85875,9.39094 -8.96244,11.76464 z"
               id="path4962"
               inkscape:connector-curvature="0"
               sodipodi:nodetypes="sscss" />
            <path
               sodipodi:nodetypes="sscss"
               inkscape:connector-curvature="0"
               id="path4964"
               d="m 399.59514,405.12234 c -1.033,6.27706 11.4112,13.4064 17.95836,23.57237 9.80858,15.2301 18.30586,35.63658 30.12088,29.73122 -14.24022,-8.88176 -28.97304,-41.71264 -37.63023,-50.90843 -8.35187,-8.87149 -9.81208,-6.26546 -10.44901,-2.39516 z"
               style="opacity:1;fill:#ffff00;fill-rule:evenodd;stroke:none;stroke-width:2;stroke-linecap:butt;stroke-linejoin:miter;stroke-miterlimit:4;stroke-dasharray:none;stroke-opacity:1"
               inkscape:transform-center-x="-37.727903"
               inkscape:transform-center-y="46.381738" />
            <path
               inkscape:transform-center-y="47.773455"
               inkscape:transform-center-x="36.357977"
               style="opacity:1;fill:#ffff00;fill-rule:evenodd;stroke:none;stroke-width:2;stroke-linecap:butt;stroke-linejoin:miter;stroke-miterlimit:4;stroke-dasharray:none;stroke-opacity:1"
               d="m 368.52933,400.36442 c -6.34469,0.46204 -12.00874,17.9188 -20.36385,26.65976 -12.51716,13.09522 -30.37381,26.12474 -21.87163,36.2332 5.30917,-15.92113 33.78966,-37.91622 40.70848,-48.48218 6.67483,-10.19332 5.44936,-14.41078 1.52703,-14.41078 z"
               id="path4966"
               inkscape:connector-curvature="0"
               sodipodi:nodetypes="cscssc" />
            <path
               sodipodi:nodetypes="cscssc"
               inkscape:connector-curvature="0"
               id="path4968"
               d="m 362.42825,374.64798 c -2.92,-5.65174 -20.95003,-2.45203 -32.27249,-6.69633 -16.96269,-6.35857 -35.96484,-17.65223 -41.91511,-5.85976 16.72619,-1.37996 43.16344,14.23137 55.78688,15.58368 12.17702,1.30448 20.20112,0.45716 18.40073,-3.02756 z"
               style="opacity:1;fill:#ffff00;fill-rule:evenodd;stroke:none;stroke-width:2;stroke-linecap:butt;stroke-linejoin:miter;stroke-miterlimit:4;stroke-dasharray:none;stroke-opacity:1"
               inkscape:transform-center-x="58.35937"
               inkscape:transform-center-y="-14.866293" />
          </g>
          <path
             style="font-style:normal;font-variant:normal;font-weight:bold;font-stretch:normal;font-size:medium;line-height:125%;font-family:'KFGQPC Uthman Taha Naskh';-inkscape-font-specification:'KFGQPC Uthman Taha Naskh Bold';letter-spacing:0px;word-spacing:0px;fill:#ffff00;fill-opacity:1;stroke:none;stroke-width:1px;stroke-linecap:butt;stroke-linejoin:miter;stroke-opacity:1"
             d="m 161.59375,246.04102 c -0.0665,0.004 -0.14967,0.0229 -0.25195,0.0566 -0.19727,0.0587 -0.43139,0.15284 -0.70313,0.2832 -0.25566,0.12888 -0.53453,0.28524 -0.83398,0.4668 -0.29216,0.17277 -0.56813,0.34385 -0.82813,0.51367 -0.26,0.16981 -0.48395,0.32384 -0.67383,0.46289 -0.18109,0.14635 -0.29361,0.25352 -0.33593,0.32226 -0.31665,0.5236 -0.7221,1.1814 -1.2168,1.97266 -0.4874,0.78248 -1.01829,1.62541 -1.5918,2.5293 -0.55743,0.90241 -1.13752,1.82467 -1.74023,2.76367 -0.58663,0.93752 -1.14507,1.8157 -1.67774,2.63477 -0.56473,0.91118 -1.15357,1.79568 -1.76367,2.65429 -0.59402,0.85714 -1.19363,1.73033 -1.80078,2.6211 -0.11383,0.17259 -0.11947,0.29567 -0.0156,0.36718 0.10385,0.0715 0.26521,0.0635 0.48437,-0.0215 0.48508,-0.19051 0.94022,-0.44313 1.36524,-0.75781 0.4411,-0.31617 0.85033,-0.6655 1.22851,-1.04883 0.39426,-0.38482 0.75457,-0.78966 1.08008,-1.2168 0.34159,-0.42861 0.65288,-0.84728 0.93164,-1.25391 1.00999,-1.4466 1.96097,-2.90463 2.85547,-4.37304 0.90328,-1.46111 1.82143,-2.93932 2.75391,-4.43555 0.33272,-0.52507 0.66333,-1.03689 0.99023,-1.53711 0.34298,-0.50169 0.67059,-0.98654 0.98437,-1.45312 l 0.26368,-0.31641 c 0.12408,-0.14921 0.24406,-0.30247 0.35937,-0.45898 0.12261,-0.1653 0.21366,-0.31959 0.27344,-0.46289 0.0686,-0.13601 0.0712,-0.22821 0.01,-0.2793 -0.0307,-0.0256 -0.08,-0.0373 -0.14648,-0.0332 z m 99.10352,0.1875 c -0.16524,-0.0102 -0.33255,0.0259 -0.50391,0.10742 -0.27874,0.13594 -0.51574,0.33839 -0.70898,0.60937 -0.18971,0.25523 -0.34158,0.54909 -0.45704,0.87891 -0.11545,0.32982 -0.19181,0.66811 -0.22851,1.01562 -0.0271,0.34141 -0.0113,0.66265 0.0449,0.96485 0.10764,0.40475 0.29542,0.70324 0.56641,0.89648 0.34266,0.24244 0.72534,0.36554 1.14648,0.36914 0.42114,0.004 0.84218,-0.0249 1.26172,-0.0879 -0.24027,0.9223 -0.51919,1.71913 -0.83594,2.39258 -0.32285,0.66381 -0.67493,1.32702 -1.05469,1.98633 -0.0395,0.0656 -0.0863,0.14877 -0.14257,0.25195 -0.0624,0.0935 -0.11976,0.19772 -0.16993,0.31055 -0.0562,0.10318 -0.094,0.20236 -0.11523,0.29687 -0.0212,0.0945 -0.009,0.16699 0.0371,0.21875 0.0463,0.0518 0.12742,0.0614 0.24219,0.0293 0.11831,-0.0479 0.24985,-0.11738 0.39453,-0.20898 0.14821,-0.10736 0.2938,-0.22858 0.43945,-0.36133 0.14919,-0.1485 0.27868,-0.29584 0.38672,-0.44532 0.53567,-0.69046 0.99197,-1.4205 1.37109,-2.1875 0.37303,-0.77664 0.62255,-1.60984 0.74805,-2.5 0.11123,-0.0165 0.25678,-0.0134 0.43359,0.01 0.18646,0.0171 0.31736,0.0427 0.39258,0.0762 0.11637,0.0344 0.20921,0.0427 0.2793,0.0254 0.0701,-0.0173 0.11514,-0.10652 0.13477,-0.26757 -0.002,-0.17425 -0.035,-0.38361 -0.0957,-0.62891 -0.0668,-0.25494 -0.18011,-0.44689 -0.34179,-0.57422 -0.19577,-0.15987 -0.45792,-0.24231 -0.78711,-0.25 -0.0762,0.008 -0.12158,-0.0196 -0.13282,-0.0801 -0.0495,-0.18485 -0.16078,-0.4583 -0.33593,-0.82031 -0.16551,-0.36812 -0.37598,-0.722 -0.63086,-1.06055 -0.25489,-0.33855 -0.53748,-0.60461 -0.84961,-0.79883 -0.15912,-0.10193 -0.32304,-0.15774 -0.48828,-0.16796 z m 0.0684,1.94921 c 0.0644,-0.0104 0.1284,-0.008 0.19141,0.006 0.11027,0.0248 0.20675,0.0779 0.28711,0.16211 0.09,0.0781 0.1672,0.17125 0.23438,0.27735 0.0672,0.10609 0.12594,0.21762 0.17382,0.33593 0.0418,0.10867 0.0742,0.20347 0.0977,0.28321 -0.31892,0.0937 -0.6398,0.14059 -0.96289,0.14258 -0.32919,-0.008 -0.61136,-0.0795 -0.8457,-0.21485 -0.0199,-0.0955 -0.003,-0.20735 0.0508,-0.33594 0.0537,-0.12858 0.12914,-0.24348 0.22656,-0.3457 0.10707,-0.10832 0.22361,-0.19015 0.35156,-0.24414 0.0657,-0.0349 0.13094,-0.056 0.19531,-0.0664 z m -96.05859,2.33399 c -0.20313,-0.021 -0.37663,0.005 -0.51758,0.0781 l -1.60156,1.05078 c -0.16545,0.11125 -0.13007,0.19296 0.10547,0.24805 l 7.68555,1.31641 c 0.12433,0.0385 0.23614,0.023 0.33593,-0.0488 l 1.54688,-1.02734 c 0.13393,-0.10423 0.11262,-0.17698 -0.0625,-0.22071 l -7.49219,-1.39648 z m 109.95703,0.0254 c -0.24167,0.008 -0.48669,0.033 -0.73633,0.0762 -0.49926,0.0864 -0.99342,0.22411 -1.48242,0.41211 -0.48545,0.17225 -0.95451,0.39475 -1.40429,0.66602 -0.44625,0.25551 -0.85591,0.53513 -1.23047,0.83984 -0.73595,0.58757 -1.54553,1.22891 -2.42969,1.92383 -0.88062,0.67916 -1.80771,1.38099 -2.78125,2.10547 -0.96389,0.71837 -1.95041,1.44458 -2.95899,2.17773 -1.00857,0.73316 -2.00179,1.43569 -2.98046,2.10938 -0.13858,0.10124 -0.35957,0.25392 -0.66211,0.45898 -0.299,0.18931 -0.63922,0.39844 -1.02149,0.62695 -0.38227,0.22852 -0.78557,0.45605 -1.20898,0.6836 -0.42342,0.22755 -0.82341,0.42799 -1.20117,0.59961 -0.38387,0.16197 -0.72174,0.27995 -1.01172,0.35547 -0.28645,0.0598 -0.48946,0.0404 -0.60742,-0.0605 -0.11569,-0.33211 -0.10982,-0.74179 0.0156,-1.22656 0.11934,-0.49442 0.3152,-1.01739 0.58789,-1.56836 0.26658,-0.56063 0.58666,-1.12039 0.96094,-1.68164 0.37782,-0.57701 0.75901,-1.11638 1.14453,-1.61719 0.37942,-0.51046 0.7446,-0.95735 1.0957,-1.3418 0.35111,-0.38444 0.6445,-0.67166 0.87696,-0.85937 -0.0601,-0.54299 -0.12197,-1.07824 -0.18555,-1.60547 -0.06,-0.54299 -0.13697,-1.08861 -0.22852,-1.63867 -0.0266,-0.21284 -0.1302,-0.32268 -0.31054,-0.33008 -0.17681,-0.0232 -0.32909,0.0336 -0.45899,0.16992 -0.51347,0.5548 -1.01949,1.14464 -1.51562,1.76953 -0.49613,0.62489 -0.95276,1.27916 -1.3711,1.96289 -0.41833,0.68373 -0.78409,1.38708 -1.0957,2.11133 -0.31772,0.7146 -0.55294,1.4513 -0.70703,2.21094 -0.10969,0.48831 -0.186,1.03059 -0.22852,1.625 -0.0329,0.5883 -0.0227,1.18905 0.0293,1.80469 0.0555,0.59988 0.1599,1.18187 0.31445,1.74609 0.14845,0.55457 0.35996,1.05034 0.63477,1.48437 0.17099,0.27006 0.44582,0.41326 0.82226,0.43164 0.38,0.003 0.80471,-0.0626 1.27344,-0.19726 0.46874,-0.13463 0.9512,-0.31175 1.44727,-0.53125 0.49961,-0.23526 0.95537,-0.46411 1.36914,-0.68555 1.51493,-0.85107 2.98122,-1.77976 4.39844,-2.78515 1.42075,-1.02115 2.80424,-2.04503 4.15234,-3.07422 1.34199,-1.03884 2.64532,-2.05299 3.91016,-3.04297 1.27447,-0.99609 2.52006,-1.90033 3.73632,-2.71094 0.30255,-0.20506 0.62004,-0.34538 0.95118,-0.41992 0.33113,-0.0745 0.65603,-0.0843 0.97461,-0.0293 0.31247,0.0454 0.61036,0.15479 0.89453,0.32617 0.28416,0.17139 0.53163,0.40072 0.74023,0.6875 -1.78601,1.4686 -3.45619,2.80142 -5.00781,4 -1.54808,1.18284 -3.00833,2.26916 -4.38086,3.25977 -1.36288,0.9845 -2.64922,1.88678 -3.85938,2.70703 -1.20051,0.81414 -2.35198,1.57714 -3.45507,2.28906 -1.09956,0.69618 -2.15888,1.36062 -3.17774,1.99219 -1.01885,0.63157 -2.0201,1.25797 -3.0039,1.88086 l -0.36133,0.23047 -0.01,0.006 -0.0176,0.008 -0.37695,0.16406 -0.6582,0.28711 c -0.24074,0.10481 -0.48973,0.19417 -0.74414,0.26758 -0.24851,0.0585 -0.4977,0.0872 -0.74805,0.084 -0.24444,-0.0181 -0.47336,-0.1 -0.68555,-0.24415 -0.3506,-0.23334 -0.73784,-0.52516 -1.16406,-0.875 -0.43077,-0.3603 -0.85042,-0.68041 -1.25977,-0.96289 -0.18953,-0.0918 -0.28433,-0.0508 -0.2832,0.12305 -0.008,0.63863 -0.0267,1.26838 -0.0547,1.89063 -0.0221,0.60722 -0.0367,1.23051 -0.0449,1.86914 0.45121,0.26424 0.93481,0.58931 1.45117,0.97461 0.52683,0.38073 1.03788,0.79805 1.53516,1.2539 0.49727,0.45586 0.95365,0.92957 1.36719,1.42188 0.424,0.48775 0.75703,0.96578 0.99805,1.43359 -0.10526,0.73062 -0.36495,1.43486 -0.7793,2.11328 -0.39933,0.68433 -0.88664,1.31383 -1.45899,1.88672 -0.57234,0.57289 -1.19373,1.08597 -1.86718,1.54102 -0.6689,0.46551 -1.32115,0.84243 -1.95508,1.13086 -0.78047,0.35222 -1.51477,0.5415 -2.20117,0.5664 -0.68641,0.0249 -1.31386,-0.0742 -1.88477,-0.29883 -0.56043,-0.22914 -1.05376,-0.56323 -1.48047,-1 -0.41624,-0.44133 -0.75263,-0.95486 -1.00781,-1.54101 -0.24606,-0.56522 -0.42586,-1.17748 -0.53906,-1.83789 -0.10273,-0.66497 -0.13615,-1.34105 -0.0996,-2.0293 0.007,-0.12745 -0.0188,-0.23007 -0.0762,-0.30469 -0.0469,-0.0792 -0.10523,-0.12739 -0.17579,-0.14648 -0.0647,-0.0341 -0.1305,-0.0307 -0.19921,0.0117 -0.0628,0.0273 -0.10326,0.0947 -0.11915,0.20117 -0.12262,0.57632 -0.20053,1.18304 -0.23437,1.82031 -0.0234,0.63272 -0.003,1.26622 0.0606,1.89844 0.0681,0.64268 0.18147,1.27197 0.33789,1.88867 0.17144,0.62261 0.37437,1.20572 0.61133,1.75 0.41011,0.94203 0.93592,1.69062 1.57617,2.24609 0.64025,0.55548 1.34366,0.93982 2.10937,1.1543 0.77619,0.20993 1.59334,0.25933 2.45313,0.14649 0.85978,-0.11284 1.71657,-0.36197 2.57031,-0.7461 0.94794,-0.42513 1.8062,-0.98426 2.57422,-1.67969 0.78304,-0.68951 1.4377,-1.47267 1.96484,-2.3496 0.5317,-0.86647 0.90876,-1.80299 1.13086,-2.8086 0.23258,-1.01015 0.27539,-2.04366 0.12696,-3.09961 -0.0361,-0.2831 -0.0992,-0.58447 -0.18946,-0.90625 -0.0798,-0.32632 -0.17915,-0.65148 -0.29492,-0.97461 -0.1053,-0.32768 -0.21817,-0.64697 -0.33984,-0.95507 -0.12169,-0.30811 -0.23635,-0.58669 -0.34571,-0.8379 0.32633,-0.0798 0.62375,-0.16678 0.89453,-0.25976 0.2767,-0.10801 0.53661,-0.21355 0.77735,-0.31836 l 0.68945,-0.30078 c 0.006,-0.003 0.0102,-0.0136 0.0156,-0.0176 0.003,-10e-4 0.009,-2.8e-4 0.0117,-0.002 l 0.60743,-0.38477 c 2.24733,-1.42288 4.45509,-2.86801 6.62109,-4.33398 2.1599,-1.47562 4.20674,-2.92642 6.14063,-4.35352 1.93743,-1.44286 3.71718,-2.83445 5.34179,-4.17383 1.62816,-1.35513 3.03088,-2.62106 4.20508,-3.79687 0.0842,-0.0804 0.13867,-0.16318 0.16602,-0.24805 0.037,-0.091 0.068,-0.17112 0.0918,-0.24023 0.0296,-0.31601 0.0168,-0.69935 -0.0391,-1.15039 -0.062,-0.46069 -0.1526,-0.92348 -0.27148,-1.38868 -0.11535,-0.48095 -0.25672,-0.93838 -0.42383,-1.37304 -0.16712,-0.43466 -0.34622,-0.79293 -0.53906,-1.07617 -0.31596,-0.43501 -0.68101,-0.76514 -1.09375,-0.99024 -0.41275,-0.22509 -0.85289,-0.36652 -1.32032,-0.42187 -0.23371,-0.0277 -0.47121,-0.0371 -0.71289,-0.0293 z m -111.75,2.79101 c -0.20313,-0.0209 -0.37468,0.005 -0.51562,0.0781 l -1.60156,1.05078 c -0.0657,0.0394 -0.0945,0.0836 -0.084,0.13086 0.0202,0.0534 0.0844,0.0929 0.18945,0.11914 l 7.69336,1.30274 c 0.10246,0.0516 0.21258,0.0382 0.32813,-0.0371 l 1.55469,-1.03907 c 0.13743,-0.0885 0.11444,-0.15913 -0.0703,-0.20898 l -7.49414,-1.39649 z m 2.31641,5.73829 c -0.0418,0.007 -0.0888,0.0305 -0.13867,0.0664 l -2.00196,1.36328 -1.82422,5.80079 c -0.4745,0.17174 -1.01066,0.20922 -1.61132,0.11132 -0.59103,-0.0918 -1.18601,-0.25339 -1.78321,-0.48437 -0.58756,-0.22486 -1.1509,-0.48715 -1.68945,-0.78906 -0.53856,-0.30192 -0.98006,-0.57634 -1.32422,-0.82227 -0.3249,-0.23368 -0.54558,-0.48258 -0.66211,-0.74609 -0.11039,-0.27315 -0.14711,-0.60727 -0.11133,-1.00391 0.004,-0.0919 -0.0323,-0.16388 -0.10937,-0.21289 -0.0674,-0.0429 -0.14488,-0.0369 -0.23242,0.0156 -0.18734,0.12439 -0.42386,0.35808 -0.71094,0.70313 -0.28096,0.33542 -0.55129,0.70675 -0.80859,1.11133 -0.24155,0.40107 -0.44637,0.79823 -0.61524,1.1914 -0.15311,0.38967 -0.19935,0.69708 -0.14062,0.92383 0.0622,0.24252 0.21483,0.48902 0.46093,0.74024 0.24611,0.25121 0.5462,0.49612 0.89649,0.73242 0.36605,0.23279 0.75229,0.45169 1.16211,0.6582 0.40982,0.20652 0.81319,0.38191 1.20898,0.52539 0.44045,0.15835 0.90103,0.27445 1.38086,0.34961 0.48596,0.0655 0.96087,0.0837 1.42578,0.0547 0.48068,-0.0325 0.94245,-0.11848 1.38282,-0.25781 0.45612,-0.14285 0.87311,-0.34317 1.2539,-0.60157 -0.24826,1.41148 -0.21245,2.63147 0.10742,3.66016 0.31987,1.02869 0.99663,1.87184 2.02735,2.52734 l 0.62109,0.39453 c 0.0171,0.0109 0.0445,0.008 0.0684,0.01 l 0.55664,0.25195 c 0.49934,0.22568 1.04697,0.41671 1.64063,0.57227 0.60406,0.16026 1.23173,0.26798 1.88281,0.32422 0.65578,0.0458 1.32387,0.0363 2.00586,-0.0312 0.69239,-0.0629 1.3808,-0.19876 2.0625,-0.4043 0.14752,0.50515 0.31386,0.98226 0.5,1.42969 0.18614,0.44743 0.4313,0.87161 0.73828,1.27344 0.30697,0.40181 0.68731,0.7815 1.14062,1.13671 0.46843,0.34952 1.04584,0.67798 1.73243,0.98829 l 0.62109,0.28125 c 0.003,0.001 0.005,0.007 0.008,0.008 l 0.0293,0.01 0.0137,0.006 c 9.4e-4,4.3e-4 0.003,-3.8e-4 0.004,0 l 0.26367,0.084 0.35742,0.11328 c 1.17432,0.37558 2.25866,0.43535 3.25195,0.17773 0.99678,-0.26849 1.85306,-0.82781 2.56836,-1.67773 -0.0404,0.53843 0.0139,1.04226 0.16407,1.50976 0.16099,0.47099 0.39039,0.89662 0.6875,1.2793 0.31145,0.37528 0.67489,0.70198 1.08984,0.97852 0.41495,0.27654 0.86142,0.49151 1.33984,0.64453 l 0.43946,0.14062 0.29492,0.0937 c 0.004,0.001 0.0155,-0.0102 0.0195,-0.01 3.3e-4,2.8e-4 0.006,0.006 0.006,0.006 l 8.2832,1.95117 c 0.0232,0.0162 0.0466,0.0343 0.0664,0.0352 l 0.71875,0.0332 c 0.26229,0.0119 0.54178,0.007 0.83984,-0.0137 0.29858,-0.0322 0.59884,-0.0759 0.89844,-0.13086 0.30013,-0.0664 0.58832,-0.15031 0.86719,-0.25196 0.27886,-0.10164 0.53525,-0.21527 0.76953,-0.34179 0.48939,0.29642 1.04682,0.50341 1.66992,0.62304 0.63451,0.12017 1.26799,0.13838 1.90039,0.0527 0.6438,-0.0851 1.24622,-0.28195 1.80859,-0.58789 0.57379,-0.30542 1.05034,-0.73486 1.42969,-1.28906 0.12756,0.21147 0.36673,0.4679 0.71875,0.76953 0.35254,0.29022 0.75338,0.55985 1.19922,0.80859 0.45724,0.24925 0.92741,0.44805 1.41211,0.5957 0.4847,0.14765 0.92876,0.18449 1.33203,0.11133 0.24156,-0.0348 0.53083,-0.23382 0.86719,-0.5957 0.33687,-0.37329 0.65071,-0.86707 0.94141,-1.48242 0.12394,0.2913 0.29315,0.5916 0.50781,0.89843 0.21517,0.29544 0.48285,0.56976 0.80273,0.82422 0.33128,0.25498 0.72716,0.47347 1.1875,0.6543 0.46086,0.16942 0.99941,0.26704 1.61524,0.29492 l 0.75195,0.0352 c 0.007,3.3e-4 0.0229,-0.0264 0.0312,-0.0293 0.0182,0.008 0.0512,0.0474 0.0644,0.0449 l 0.67383,-0.12304 c 0.31431,-0.0582 0.65719,-0.18027 1.0293,-0.36524 0.38126,-0.19827 0.75562,-0.47013 1.12109,-0.8164 0.37462,-0.35958 0.71756,-0.80055 1.02735,-1.32227 0.3077,-0.53295 0.55008,-1.16492 0.72851,-1.89453 0.45813,0.21707 0.99704,0.3961 1.61524,0.53711 0.62734,0.1277 1.24205,0.22273 1.8457,0.28515 0.60157,0.0512 1.13862,0.0686 1.61133,0.0508 0.48185,-0.0311 0.81004,-0.10486 0.98632,-0.21875 0.17629,-0.1139 0.32754,-0.33311 0.45313,-0.65821 0.12559,-0.3251 0.22902,-0.67384 0.31055,-1.04883 0.0907,-0.38829 0.15661,-0.76173 0.19531,-1.11718 0.0368,-0.36668 0.0544,-0.64229 0.0547,-0.82813 -0.003,-0.39412 -0.071,-0.822 -0.20313,-1.28515 -0.13216,-0.46316 -0.30929,-0.91871 -0.53125,-1.36524 -0.22403,-0.45775 -0.48292,-0.89124 -0.7793,-1.30078 -0.29637,-0.40954 -0.6071,-0.76425 -0.92968,-1.06445 -0.32258,-0.30021 -0.65549,-0.52836 -0.99805,-0.68555 -0.34255,-0.15719 -0.67007,-0.20661 -0.98437,-0.14844 -0.37252,0.0573 -0.70858,0.22244 -1.00586,0.49805 -0.29937,0.26438 -0.56784,0.59348 -0.8086,0.98633 -0.24076,0.39285 -0.44979,0.83279 -0.62695,1.31836 -0.17924,0.47434 -0.34089,0.95035 -0.48438,1.42968 -0.13433,0.46604 -0.25455,0.91813 -0.35937,1.35547 -0.10689,0.42613 -0.20239,0.7921 -0.28516,1.09766 -0.10066,0.4598 -0.27961,0.83513 -0.53906,1.12695 -0.25946,0.29183 -0.5644,0.52818 -0.91406,0.70899 -0.34966,0.18081 -0.71869,0.3189 -1.10742,0.41406 -0.38873,0.0952 -0.76824,0.17754 -1.13868,0.24609 l -0.18945,0.0352 -0.42969,-0.0215 c -0.63863,-0.0289 -1.16483,-0.12561 -1.58007,-0.29297 -0.41473,-0.17877 -0.74197,-0.41221 -0.98047,-0.69727 -0.22658,-0.29595 -0.38172,-0.63886 -0.4668,-1.03125 -0.0737,-0.39188 -0.10124,-0.82149 -0.0801,-1.28906 0.006,-0.13685 -0.0282,-0.23624 -0.10547,-0.29688 -0.0658,-0.0601 -0.15023,-0.0807 -0.2539,-0.0625 -0.10316,0.007 -0.20964,0.0521 -0.31641,0.13867 -0.10677,0.0866 -0.18543,0.2096 -0.23828,0.36719 -0.0819,0.29341 -0.18225,0.59127 -0.29883,0.89453 -0.11606,0.29187 -0.24776,0.56617 -0.39648,0.82227 -0.13733,0.25662 -0.29055,0.47742 -0.45899,0.66406 -0.15703,0.18716 -0.32141,0.31854 -0.49609,0.39063 -0.23067,0.0467 -0.53878,0.009 -0.92188,-0.11133 -0.37169,-0.11968 -0.74839,-0.2681 -1.1289,-0.44531 -0.3686,-0.18811 -0.69613,-0.38028 -0.98438,-0.57618 -0.27684,-0.19537 -0.43045,-0.35542 -0.45898,-0.48242 0.10311,-0.25816 0.19509,-0.51814 0.27539,-0.77734 0.0922,-0.27009 0.17277,-0.53943 0.24219,-0.81055 0.0403,-0.1353 0.04,-0.24428 -0.002,-0.32617 -0.042,-0.0819 -0.1085,-0.13097 -0.19922,-0.14648 -0.0788,-0.0264 -0.17017,-0.0133 -0.27539,0.0391 -0.10522,0.0524 -0.202,0.15645 -0.28906,0.3125 -0.19796,0.33386 -0.39527,0.67426 -0.59375,1.01953 -0.18655,0.33438 -0.4129,0.64876 -0.67773,0.94531 -0.25447,0.31988 -0.58478,0.56217 -0.99219,0.72656 -0.39549,0.15351 -0.81776,0.25445 -1.26563,0.30274 -0.44734,0.0369 -0.90455,0.0342 -1.37109,-0.01 -0.46602,-0.0554 -0.89548,-0.13256 -1.29101,-0.23047 0.12024,-0.13168 0.23572,-0.29742 0.34765,-0.49804 0.12334,-0.20012 0.23633,-0.41277 0.33789,-0.63672 0.10156,-0.22396 0.1913,-0.44267 0.26953,-0.65625 0.0788,-0.22499 0.13773,-0.42229 0.17969,-0.5918 0.0171,-0.12493 -2.5e-4,-0.21774 -0.0547,-0.27734 -0.043,-0.0591 -0.10571,-0.0901 -0.18554,-0.0937 -0.0798,-0.004 -0.15978,0.0208 -0.24219,0.0742 -0.0824,0.0534 -0.14947,0.12567 -0.19922,0.21484 -0.37832,0.53139 -0.75773,0.96573 -1.13867,1.30274 -0.38094,0.337 -0.79172,0.59754 -1.23438,0.7832 -0.44265,0.18565 -0.92882,0.3072 -1.45703,0.36328 -0.5282,0.0561 -1.12371,0.069 -1.78515,0.0391 l -0.41016,-0.0195 -0.1582,-0.008 -7.66211,-1.86914 c -0.005,-10e-4 -0.0103,0.003 -0.0156,0.002 l -0.0703,-0.0234 -0.43945,-0.14062 c -0.30446,-0.0974 -0.60874,-0.21894 -0.91016,-0.36328 -0.30141,-0.14435 -0.57629,-0.31452 -0.82422,-0.51367 -0.23706,-0.19568 -0.44015,-0.42377 -0.60937,-0.68165 -0.15836,-0.2544 -0.24969,-0.54707 -0.27539,-0.8789 -0.0239,-0.18744 -0.033,-0.34653 -0.0274,-0.47656 0.0165,-0.12657 0.039,-0.24997 0.0664,-0.37305 0.0382,-0.11961 0.0817,-0.23739 0.13086,-0.35352 0.0635,-0.12352 0.13355,-0.27048 0.21093,-0.4375 0.0709,-0.10917 0.0878,-0.19973 0.0508,-0.27148 -0.037,-0.0718 -0.10808,-0.11154 -0.21289,-0.1211 -0.0905,-0.017 -0.19616,-0.004 -0.31836,0.041 -0.11133,0.0483 -0.2097,0.13148 -0.29493,0.24805 -0.22349,0.32404 -0.44944,0.59955 -0.67773,0.82617 -0.21742,0.2301 -0.4736,0.42995 -0.76758,0.59961 -0.35485,0.21011 -0.72599,0.34314 -1.11523,0.39844 -0.38924,0.0553 -0.7865,0.0593 -1.19141,0.0137 -0.39403,-0.0421 -0.79106,-0.1153 -1.18945,-0.21875 -0.39492,-0.11432 -0.77204,-0.22899 -1.13086,-0.34375 l -0.375,-0.11914 -0.0508,-0.0156 -0.0547,-0.0254 -0.38867,-0.17578 c -0.66578,-0.3009 -1.22211,-0.63961 -1.66602,-1.01562 -0.42881,-0.38172 -0.75753,-0.84396 -0.98828,-1.38672 0.17185,-0.0476 0.39434,-0.14077 0.66992,-0.2793 0.28599,-0.13383 0.57575,-0.30412 0.86914,-0.50977 0.30379,-0.20094 0.58437,-0.43104 0.83985,-0.6914 0.27058,-0.26607 0.47303,-0.54989 0.60937,-0.85156 0.20217,-0.44733 0.25969,-0.87941 0.17188,-1.29493 -0.0774,-0.41081 -0.25258,-0.79599 -0.52735,-1.1582 -0.27006,-0.37261 -0.61911,-0.71238 -1.04492,-1.01758 -0.4107,-0.3109 -0.85234,-0.57996 -1.32617,-0.80664 -0.7443,-0.34892 -1.45834,-0.55857 -2.14063,-0.6289 -0.67188,-0.0656 -1.29939,-0.005 -1.88476,0.18164 -0.57026,0.18073 -1.09206,0.47666 -1.56641,0.88867 -0.45924,0.4063 -0.84374,0.91011 -1.15234,1.50976 -0.12423,0.21946 -0.13126,0.38492 -0.0195,0.49805 0.11643,0.10273 0.26696,0.13275 0.44922,0.0898 0.32389,-0.0791 0.62542,-0.0798 0.90429,-0.004 0.27888,0.0759 0.56294,0.23639 0.85352,0.48047 0.28017,0.23937 0.50288,0.53366 0.66992,0.88476 0.17174,0.3407 0.31662,0.67436 0.43164,1.00196 -0.48264,0.07 -0.98933,0.0801 -1.51758,0.0293 -0.52824,-0.0508 -1.05142,-0.13711 -1.57226,-0.25976 -0.51044,-0.11795 -1.00394,-0.26052 -1.48047,-0.42578 -0.47183,-0.17567 -0.90025,-0.34948 -1.28516,-0.52344 l -0.42187,-0.19141 -0.0547,-0.0234 -0.25781,-0.16406 c -0.52018,-0.33081 -0.93882,-0.65108 -1.25586,-0.96094 -0.30128,-0.31336 -0.51336,-0.65977 -0.63867,-1.03711 -0.11919,-0.38696 -0.15564,-0.82991 -0.10938,-1.32812 0.062,-0.50171 0.19955,-1.11098 0.41211,-1.82812 l 1.99609,-6.7461 c 0.0359,-0.099 0.0206,-0.17 -0.0469,-0.21289 -0.0337,-0.0214 -0.0715,-0.0287 -0.11328,-0.0215 z m 27.01953,2.66015 -7.84766,0.47461 c -0.19091,0.0348 -0.34504,0.1048 -0.46289,0.21094 l -1.32422,1.60937 c -0.0535,0.0548 -0.0647,0.11057 -0.0351,0.16797 0.0222,0.0431 0.087,0.0639 0.19531,0.0625 l 8.01367,-0.60156 c 0.10482,0.01 0.19949,-0.0269 0.28516,-0.10742 l 1.28516,-1.60156 c 0.0604,-0.0766 0.076,-0.12518 0.0469,-0.14649 -0.0257,-0.0322 -0.0767,-0.0549 -0.15625,-0.0684 z m 29.28906,3.24805 c -0.30931,0.0224 -0.60453,0.12316 -0.88476,0.30273 -0.27109,0.16627 -0.52202,0.3814 -0.75196,0.64454 -0.22993,0.26314 -0.42642,0.54854 -0.58984,0.85742 -0.1522,0.3068 -0.25805,0.61265 -0.31836,0.91406 -0.0508,0.41573 0.0138,0.76274 0.19336,1.04297 0.22779,0.35257 0.53625,0.60943 0.92578,0.76953 0.38954,0.1601 0.7903,0.28897 1.20313,0.38672 -0.56633,0.76656 -1.12134,1.40301 -1.66602,1.91015 -0.54676,0.49592 -1.11891,0.97867 -1.7168,1.44922 -0.0611,0.0461 -0.13787,0.10682 -0.22851,0.18164 -0.0927,0.0636 -0.18293,0.13856 -0.27149,0.22461 -0.0906,0.0748 -0.16386,0.15261 -0.21875,0.23242 -0.0549,0.0798 -0.0686,0.15153 -0.0449,0.2168 0.0237,0.0653 0.0944,0.10431 0.21289,0.11719 0.12764,-4e-4 0.27498,-0.0157 0.44336,-0.0469 0.17753,-0.0445 0.35838,-0.10092 0.54297,-0.16992 0.19375,-0.0823 0.36948,-0.17297 0.52539,-0.27148 0.75421,-0.44144 1.44854,-0.94683 2.08594,-1.51758 0.63532,-0.58197 1.17716,-1.2635 1.625,-2.04297 0.10933,0.0262 0.24296,0.0826 0.39844,0.16992 0.1667,0.0852 0.27857,0.15776 0.33593,0.2168 0.0952,0.0753 0.1785,0.11892 0.25,0.12891 0.0715,0.01 0.14644,-0.0571 0.22461,-0.19922 0.0628,-0.16255 0.11154,-0.36887 0.14649,-0.61914 0.0329,-0.2615 -0.003,-0.48179 -0.10547,-0.66016 -0.1222,-0.22119 -0.33407,-0.39564 -0.63672,-0.52539 -0.0736,-0.0212 -0.10385,-0.0628 -0.0918,-0.12305 0.0229,-0.18999 0.02,-0.48552 -0.008,-0.88672 -0.0166,-0.40327 -0.0809,-0.80964 -0.19141,-1.21875 -0.11054,-0.4091 -0.27478,-0.76214 -0.49218,-1.05859 -0.21948,-0.30768 -0.51774,-0.44944 -0.89649,-0.42578 z m 13.57227,0.82422 c -0.28481,-0.0161 -0.57132,0.0536 -0.85938,0.20703 -0.4018,0.24963 -0.69829,0.59621 -0.89062,1.04102 -0.19689,0.43433 -0.31859,0.89914 -0.36524,1.39257 -0.0362,0.48889 -0.0203,0.96674 0.0469,1.43555 0.0776,0.46425 0.17905,0.84364 0.30664,1.13672 0.1335,0.27805 0.31776,0.51441 0.55273,0.71094 0.23041,0.18606 0.48153,0.33307 0.75196,0.43945 0.27634,0.0914 0.5626,0.13554 0.85937,0.13086 0.29678,-0.005 0.58137,-0.0671 0.85352,-0.18555 0.43961,-0.19138 0.7907,-0.44452 1.05273,-0.75781 0.25748,-0.32376 0.43578,-0.66928 0.53711,-1.03711 0.0968,-0.3783 0.12899,-0.76462 0.0937,-1.16016 -0.0352,-0.39553 -0.12566,-0.76076 -0.27148,-1.0957 -0.11392,-0.26167 -0.29064,-0.55167 -0.5293,-0.87109 -0.2282,-0.32399 -0.49981,-0.60526 -0.81445,-0.8418 -0.3192,-0.24701 -0.66532,-0.41369 -1.03907,-0.5 -0.0946,-0.0242 -0.19022,-0.0396 -0.28515,-0.0449 z m -13.93164,1.08789 c 0.148,-0.0158 0.27444,0.0147 0.38086,0.0879 0.0931,0.064 0.16185,0.14972 0.20507,0.25781 0.0544,0.10602 0.0924,0.22028 0.11524,0.34375 0.023,0.12348 0.0349,0.24932 0.0352,0.37695 -0.002,0.11641 -0.006,0.2161 -0.0137,0.29883 -0.33092,-0.0316 -0.64669,-0.10804 -0.94726,-0.22656 -0.30265,-0.12974 -0.53798,-0.30079 -0.70508,-0.51367 0.0171,-0.096 0.0742,-0.19362 0.17188,-0.29297 0.0977,-0.0994 0.21137,-0.17772 0.33984,-0.23633 0.1397,-0.0606 0.27911,-0.0931 0.41797,-0.0957 z m -37.00391,0.66797 c -0.0398,-0.007 -0.08,10e-4 -0.12305,0.0234 l -2.23046,1.51563 c -0.12524,0.0918 -0.14969,0.19142 -0.0762,0.29883 l 1.53321,2.3418 c 0.0592,0.1148 0.14734,0.13839 0.26562,0.0684 l 2.01367,-1.40625 1.41993,2.19727 c 0.0448,0.12221 0.13773,0.14623 0.28125,0.0723 l 2.21289,-1.52149 c 0.0961,-0.11309 0.11298,-0.20365 0.0508,-0.27148 l -1.53906,-2.37891 c -0.0409,-0.097 -0.1267,-0.11344 -0.25586,-0.0469 l -1.99805,1.41211 -1.43945,-2.24219 c -0.0365,-0.0357 -0.0754,-0.0558 -0.11524,-0.0625 z m 20.88867,0.36328 c -0.47067,0.0472 -0.89126,0.22825 -1.25976,0.54297 -0.36799,0.30331 -0.6823,0.66537 -0.94141,1.08789 -0.2477,0.42303 -0.44374,0.86006 -0.58984,1.31055 -0.13469,0.451 -0.21014,0.83693 -0.22461,1.15624 -0.003,0.30843 0.0591,0.60292 0.18359,0.88282 0.12498,0.26849 0.28644,0.51004 0.48242,0.72461 0.20791,0.20368 0.44436,0.3677 0.71289,0.49414 0.26854,0.12644 0.55115,0.19752 0.84766,0.21093 0.47898,0.0217 0.9061,-0.0509 1.2793,-0.21679 0.37371,-0.17735 0.68654,-0.40965 0.93945,-0.69531 0.25343,-0.29707 0.45126,-0.6313 0.59375,-1.00196 0.14247,-0.37066 0.22174,-0.73858 0.23828,-1.10351 0.0129,-0.28511 -0.0162,-0.6218 -0.0898,-1.01367 -0.0623,-0.39136 -0.18295,-0.76434 -0.36133,-1.11524 -0.17786,-0.36231 -0.4153,-0.66422 -0.71289,-0.90625 -0.29707,-0.25342 -0.66275,-0.372 -1.09766,-0.35742 z m 36.23047,0.0742 c -0.11108,-0.0263 -0.191,0.0204 -0.23828,0.14062 l -0.89258,2.66797 c -0.0577,0.12475 -0.0245,0.20212 0.10156,0.23438 l 2.85547,0.8125 c 0.0947,0.0459 0.18304,0.001 0.26172,-0.13282 l 0.87696,-2.66015 c 0.0191,-0.0706 0.0215,-0.12095 0.008,-0.15235 -0.0137,-0.0314 -0.0531,-0.0519 -0.11914,-0.0605 l -2.85352,-0.84961 z m -5.78515,0.043 c 0.23532,-0.003 0.45057,0.0481 0.64453,0.15039 0.1894,0.0919 0.35001,0.21914 0.48437,0.38476 0.14027,0.1506 0.23709,0.3156 0.28906,0.49219 -0.0304,0.18755 -0.17632,0.38117 -0.4375,0.58203 -0.25071,0.1963 -0.5388,0.3646 -0.86328,0.50586 -0.31401,0.1367 -0.61984,0.21981 -0.91797,0.25 -0.28766,0.0256 -0.48358,-0.0376 -0.58789,-0.19141 -0.0893,-0.14788 -0.13191,-0.31695 -0.12695,-0.50586 0.005,-0.1889 0.0443,-0.37244 0.11524,-0.55273 0.0664,-0.19075 0.1626,-0.37 0.28906,-0.53711 0.12646,-0.16711 0.26096,-0.30064 0.40429,-0.40039 0.2421,-0.13029 0.47762,-0.1899 0.70704,-0.17773 z m -30.92383,2.10742 c 0.27473,-0.0104 0.51226,0.0385 0.71289,0.15039 0.21255,0.10105 0.38261,0.24071 0.51172,0.41797 0.12962,0.16585 0.21985,0.35269 0.26757,0.56054 0.0597,0.19697 0.0741,0.38693 0.043,0.56836 -0.10986,0.15502 -0.32745,0.26471 -0.65039,0.33008 -0.31152,0.0659 -0.64451,0.0903 -0.99804,0.0742 -0.34213,-0.0155 -0.65262,-0.0736 -0.9336,-0.17773 -0.26956,-0.10363 -0.4174,-0.24763 -0.44336,-0.43164 -0.0151,-0.1721 0.0218,-0.34232 0.10938,-0.50977 0.0876,-0.16745 0.20265,-0.31661 0.3457,-0.44727 0.14356,-0.14206 0.30898,-0.26109 0.4961,-0.35546 0.18711,-0.0944 0.36644,-0.15323 0.53906,-0.17969 z m 20.38867,7.58594 c 0.24197,-0.01 0.47345,0.0461 0.69336,0.16796 0.23114,0.11976 0.43947,0.27711 0.62695,0.47461 0.1854,0.18628 0.34692,0.39467 0.48242,0.625 0.14466,0.21704 0.24667,0.4315 0.3086,0.64063 -0.29601,0.0315 -0.63028,0.0458 -1.00196,0.0449 -0.36045,-0.003 -0.72316,-0.022 -1.08984,-0.0586 -0.35546,-0.0387 -0.7019,-0.0909 -1.03906,-0.15625 -0.32594,-0.0674 -0.60932,-0.15526 -0.84961,-0.26172 0.0383,-0.16962 0.12363,-0.33621 0.25586,-0.5 0.13015,-0.17501 0.28735,-0.33033 0.4707,-0.46875 0.18336,-0.13842 0.37718,-0.25597 0.58008,-0.35156 0.20289,-0.0956 0.38997,-0.14755 0.5625,-0.15625 z m -61.49609,2.0957 c -0.18325,0.0174 -0.33525,0.0617 -0.45508,0.13281 l -1.47266,1.30859 c -0.0547,0.0379 -0.0769,0.0849 -0.0644,0.14063 0.0228,0.0604 0.0843,0.0932 0.18164,0.0996 l 7.56055,0.69141 c 0.10872,0.0366 0.21151,0.0161 0.31054,-0.0645 l 1.41406,-1.29687 c 0.0594,-0.0483 0.0796,-0.0953 0.0625,-0.14063 -0.0218,-0.0349 -0.07,-0.0518 -0.14648,-0.0488 l -7.39062,-0.82226 z"
             transform="matrix(2.3501843,0,0,2.3501843,-112.55401,-45.398586)"
             id="path4970"
             inkscape:connector-curvature="0" />
        </g>
        <g
           id="g5118">
          <g
             transform="matrix(0.45874371,0,0,0.45874371,35.732801,708.16431)"
             id="g4972"
             style="stroke:none">
            <path
               style="fill:#f2f2f2;fill-opacity:1;fill-rule:evenodd;stroke:none;stroke-width:3.38340759;stroke-linejoin:round;stroke-miterlimit:4;stroke-dasharray:none;stroke-opacity:1"
               d="M 567.71094 459.28516 C 554.75543 476.37736 534.34777 493.33594 512.35742 506.80273 C 493.03305 518.63694 472.59162 527.69204 454.7793 531.58984 L 501.60742 535.98828 C 501.81227 535.88708 502.01781 535.79479 502.22266 535.69336 A 1.8295532 1.8295532 0 0 1 503.06055 535.50391 A 1.8295532 1.8295532 0 0 1 504.48438 536.21289 L 542.66602 585.49414 C 565.81851 572.45514 586.73446 557.13848 596.24219 541.73828 C 579.41662 545.81498 564.48499 546.67232 551.48242 537.07031 C 550.90001 536.64052 550.62427 535.90592 550.78125 535.19922 L 567.71094 459.28516 z M 441.6582 534.03516 L 449.64648 555.91797 C 465.12349 551.62466 480.31737 545.98755 495.18945 539.06836 L 441.6582 534.03516 z M 502.48633 539.60547 C 485.14076 548.10205 467.32942 554.89189 449.12891 559.8418 L 467.32227 609.70312 C 467.50634 609.67532 467.68412 609.65158 467.86914 609.62305 C 468.38062 609.60275 468.61511 609.85979 468.57812 610.39648 C 468.5259 610.92297 468.43337 611.62757 468.32031 612.44141 L 471.25781 620.49023 C 488.38231 613.86584 515.39471 602.6365 540.57422 588.76758 L 502.48633 539.60547 z M 457.19336 566.88477 C 457.33488 566.88883 457.49566 566.98807 457.67578 567.18359 C 457.94059 567.4328 458.20233 567.75349 458.45703 568.15039 C 458.69895 568.52459 458.9272 568.90737 459.14453 569.29297 L 459.60352 570.10742 C 460.35305 571.16182 461.12902 572.2631 461.92969 573.4082 C 462.74223 574.51931 463.58058 575.64797 464.44336 576.79297 C 466.91671 580.02377 469.36489 583.20561 471.78711 586.3457 C 474.23401 589.47431 476.6019 592.71175 478.89062 596.05664 C 479.53882 596.98634 480.18027 597.98901 480.81836 599.06641 C 481.4683 600.10971 482.0373 601.20762 482.52734 602.35352 C 483.02925 603.46532 483.42892 604.60856 483.7207 605.78906 C 484.02435 606.93546 484.16048 608.0875 484.12891 609.24609 C 484.11229 609.76859 483.97353 610.10756 483.71484 610.25586 C 483.45625 610.40416 483.18953 610.28589 482.91016 609.90039 C 481.48684 607.87089 480.09466 605.86938 478.73438 603.89648 C 477.38598 601.88959 475.95648 599.90457 474.44727 597.94336 C 473.11433 596.12946 471.67256 594.20888 470.125 592.17969 C 468.58934 590.11639 467.07261 588.11428 465.57617 586.17578 C 464.09165 584.20327 462.70195 582.37259 461.4082 580.68359 C 460.10174 578.9718 459.00946 577.55807 458.13477 576.44727 C 458.02068 576.29986 457.88746 575.97977 457.73047 575.48047 C 457.5983 574.96967 457.46515 574.37066 457.33008 573.68945 C 457.19536 573.00835 457.07197 572.29422 456.96094 571.54492 C 456.83702 570.77292 456.75027 570.07154 456.70312 569.43555 C 456.66809 568.76554 456.68139 568.2006 456.73633 567.74609 C 456.7786 567.26899 456.8858 566.99213 457.05859 566.91211 C 457.10177 566.89211 457.14619 566.88341 457.19336 566.88477 z "
               transform="matrix(0.92474656,0,0,0.92474656,38.893107,221.25923)"
               id="path4974" />
            <path
               style="fill:#999999;fill-opacity:1;fill-rule:evenodd;stroke:none;stroke-width:3.38340759;stroke-linejoin:round;stroke-miterlimit:4;stroke-dasharray:none;stroke-opacity:1"
               d="M 441.6582 534.03516 L 449.64648 555.91797 C 465.12349 551.62466 480.31737 545.98755 495.18945 539.06836 L 441.6582 534.03516 z M 493.60547 543.78125 C 479.07419 550.3512 464.23275 555.73436 449.12109 559.84375 L 451.89062 567.4375 C 466.1157 560.68735 480.03223 552.77034 493.60547 543.78125 z "
               transform="matrix(0.92474656,0,0,0.92474656,38.893107,221.25923)"
               id="path4976" />
            <path
               style="fill:#f2f2f2;fill-opacity:1;fill-rule:evenodd;stroke:none;stroke-width:3.38340759;stroke-linejoin:round;stroke-miterlimit:4;stroke-dasharray:none;stroke-opacity:1"
               d="M 176.37891 459.28516 L 193.3125 535.19922 C 193.46959 535.90592 193.19581 536.64052 192.61328 537.07031 C 179.61069 546.67232 164.67323 545.81498 147.84766 541.73828 C 157.35541 557.13848 178.27128 572.45513 201.42383 585.49414 L 239.60547 536.21289 A 1.8295532 1.8295532 0 0 1 241.86523 535.69336 C 242.06996 535.79465 242.27758 535.88717 242.48242 535.98828 L 289.31055 531.58984 C 271.49941 527.69204 251.06271 518.63694 231.73828 506.80273 C 209.74795 493.33593 189.3344 476.37735 176.37891 459.28516 z M 302.43164 534.03516 L 248.90039 539.06836 C 263.7725 545.98755 278.97221 551.62466 294.44922 555.91797 L 302.43164 534.03516 z M 241.60742 539.60547 L 203.51953 588.76758 C 218.74887 597.15587 234.62498 604.56825 248.60352 610.58789 C 248.48271 610.36524 248.40056 610.14659 248.38086 609.9375 C 248.34503 609.5577 248.43397 609.2665 248.64258 609.05859 C 248.81311 608.85869 249.09073 608.76329 249.47656 608.77734 C 249.86244 608.79154 250.28322 608.97457 250.73438 609.32617 C 252.86022 610.88837 255.26748 612.18333 257.96094 613.20703 C 260.65444 614.23074 263.47507 614.92322 266.42383 615.28711 C 267.89377 615.45039 269.46213 615.44795 271.12891 615.27734 C 272.40653 615.1622 273.68236 614.96168 274.95508 614.68164 L 294.96484 559.8418 C 276.76532 554.89189 258.953 548.10205 241.60742 539.60547 z "
               transform="matrix(0.92474656,0,0,0.92474656,38.893107,221.25923)"
               id="path4978" />
            <path
               style="fill:#999999;fill-opacity:1;fill-rule:evenodd;stroke:none;stroke-width:3.38340759;stroke-linejoin:round;stroke-miterlimit:4;stroke-dasharray:none;stroke-opacity:1"
               d="M 302.43164 534.03516 L 248.90039 539.06836 C 263.7725 545.98755 278.97221 551.62466 294.44922 555.91797 L 302.43164 534.03516 z M 250.48242 543.7793 C 264.05706 552.7696 277.97455 560.68661 292.20117 567.4375 L 294.9707 559.84375 C 279.8582 555.7338 265.01499 550.35035 250.48242 543.7793 z "
               transform="matrix(0.92474656,0,0,0.92474656,38.893107,221.25923)"
               id="path4980" />
            <path
               style="fill:#ffffff;fill-opacity:1;fill-rule:evenodd;stroke:none;stroke-width:3.38340759;stroke-linejoin:round;stroke-miterlimit:4;stroke-dasharray:none;stroke-opacity:1"
               d="M 241.60742 539.60547 L 186.99023 610.10352 C 242.74843 645.89121 303.40839 665.61328 366.91602 665.61328 C 368.61147 665.61328 370.31165 665.59051 372.01758 665.5625 A 1.8295532 1.8295532 0 0 1 372.07617 665.5625 C 373.78212 665.59256 375.48226 665.61328 377.17773 665.61328 C 440.68534 665.61328 501.34532 645.89131 557.10352 610.10352 L 502.48633 539.60547 C 462.84495 559.02347 420.76962 569.52734 377.17773 569.52734 C 375.4491 569.52734 373.72978 569.50564 372.01172 569.47266 C 370.316 569.50369 368.61814 569.52734 366.91211 569.52734 C 323.32022 569.52734 281.2488 559.02347 241.60742 539.60547 z M 457.19336 566.88477 C 457.33488 566.88883 457.49566 566.98807 457.67578 567.18359 C 457.94059 567.4328 458.20233 567.75349 458.45703 568.15039 C 458.69895 568.52459 458.9272 568.90737 459.14453 569.29297 L 459.60352 570.10742 C 460.35305 571.16182 461.12902 572.2631 461.92969 573.4082 C 462.74223 574.51931 463.58058 575.64797 464.44336 576.79297 C 466.91671 580.02377 469.36489 583.20561 471.78711 586.3457 C 474.23401 589.47431 476.6019 592.71175 478.89062 596.05664 C 479.53882 596.98634 480.18027 597.98901 480.81836 599.06641 C 481.4683 600.10971 482.0373 601.20762 482.52734 602.35352 C 483.02925 603.46532 483.42892 604.60856 483.7207 605.78906 C 484.02435 606.93546 484.16048 608.0875 484.12891 609.24609 C 484.11229 609.76859 483.97353 610.10756 483.71484 610.25586 C 483.45625 610.40416 483.18953 610.28589 482.91016 609.90039 C 481.48684 607.87089 480.09466 605.86938 478.73438 603.89648 C 477.38598 601.88959 475.95648 599.90457 474.44727 597.94336 C 473.11433 596.12946 471.67256 594.20888 470.125 592.17969 C 468.58934 590.11639 467.07261 588.11428 465.57617 586.17578 C 464.09165 584.20327 462.70195 582.37259 461.4082 580.68359 C 460.10174 578.9718 459.00946 577.55807 458.13477 576.44727 C 458.02068 576.29986 457.88746 575.97977 457.73047 575.48047 C 457.5983 574.96967 457.46515 574.37066 457.33008 573.68945 C 457.19536 573.00835 457.07197 572.29422 456.96094 571.54492 C 456.83702 570.77292 456.75027 570.07154 456.70312 569.43555 C 456.66809 568.76554 456.68139 568.2006 456.73633 567.74609 C 456.7786 567.26899 456.8858 566.99213 457.05859 566.91211 C 457.10177 566.89211 457.14619 566.88341 457.19336 566.88477 z M 429.95898 574.88672 C 429.99982 574.88384 430.04368 574.89631 430.0918 574.92383 L 430.0918 574.91797 C 430.18788 574.97347 430.30265 575.09354 430.42969 575.27344 C 430.80135 575.73585 431.24938 576.21565 431.77734 576.71875 C 432.30533 577.22195 432.87193 577.70517 433.47266 578.16406 C 434.09262 578.59177 434.72827 578.98606 435.38672 579.35156 C 436.06441 579.68605 436.71859 579.93495 437.34375 580.09766 C 436.94427 581.33005 436.63248 582.39627 436.41797 583.29297 C 436.23017 584.18317 436.33075 584.96491 436.70898 585.63672 C 437.28338 586.76151 437.89251 588.10135 438.54102 589.65625 C 439.2163 591.20456 439.89146 592.79142 440.5625 594.41992 C 441.23354 596.04832 441.88859 597.64031 442.53711 599.19531 C 443.18564 600.75012 443.77016 602.09452 444.29102 603.23242 C 444.56649 603.85043 444.80737 604.53493 445.00586 605.27734 C 445.22371 605.98874 445.35651 606.70533 445.40625 607.43164 C 445.48283 608.15144 445.44956 608.84596 445.30859 609.51367 C 445.19449 610.17467 444.94864 610.73546 444.57227 611.19727 C 448.20906 611.33156 451.92112 611.27524 455.70117 611.03125 C 459.50046 610.75615 463.55637 610.28815 467.86914 609.62305 C 468.38062 609.60275 468.61511 609.85979 468.57812 610.39648 C 468.52181 610.96419 468.42761 611.69996 468.30078 612.60156 C 468.20067 613.49646 468.09167 614.39342 467.96484 615.29492 C 467.83064 616.17202 467.69397 616.95624 467.56055 617.64844 C 467.45391 618.33404 467.36616 618.73888 467.28906 618.86328 C 467.23895 618.98117 467.11742 619.10632 466.92578 619.23242 C 466.75352 619.32595 466.48778 619.36083 466.13672 619.3418 C 463.09074 619.35279 460.23314 619.79306 457.56445 620.66016 C 454.92253 621.52097 452.39424 622.84154 449.97656 624.62305 C 447.95365 626.09654 445.9577 627.56509 443.98828 629.02539 C 442.01134 630.46109 439.91598 631.83443 437.69922 633.14453 C 435.48247 634.45463 433.06373 635.66781 430.44336 636.78711 C 427.82298 637.90631 424.85636 638.87551 421.53906 639.69141 L 420.53516 639.93555 L 419.72852 640.13477 C 419.64508 640.15527 419.51884 640.09964 419.36914 640.01367 C 419.26729 640.05195 419.17545 640.11523 419.05664 640.11523 L 392.80859 640.48828 C 392.72065 640.48937 392.64383 640.42906 392.56445 640.37305 C 392.53117 640.38494 392.46758 640.45703 392.44141 640.45703 L 390.58594 640.19531 C 389.92581 640.10201 389.36404 640.00902 388.90039 639.91797 C 388.46423 639.83077 387.83486 639.70792 387.01758 639.54102 C 386.62036 640.63932 386.12311 641.84793 385.52148 643.17383 C 384.91987 644.49974 384.23348 645.82856 383.46289 647.15625 C 382.71588 648.51285 381.87699 649.83212 380.94531 651.11133 C 380.01363 652.39052 379.0144 653.54228 377.95312 654.57227 C 376.89181 655.60237 375.77667 656.44432 374.60547 657.09961 C 373.43031 657.78011 372.2165 658.18631 370.95898 658.31641 C 369.50109 658.46951 367.91046 658.37645 366.19336 658.03125 C 364.47623 657.68585 362.73682 657.20555 360.97656 656.59766 C 359.24384 655.99356 357.56605 655.32112 355.93945 654.57812 C 354.28534 653.83133 352.82183 653.12237 351.54883 652.45508 C 351.0263 652.20157 350.66717 651.90651 350.4668 651.57031 C 350.26648 651.23421 350.21225 650.93236 350.31055 650.66406 C 350.37735 650.41697 350.59149 650.23057 350.94922 650.10156 C 351.30684 649.97313 351.76426 649.98754 352.33008 650.14453 C 354.95481 650.79774 357.72301 651.09792 360.62695 651.04688 C 363.53091 650.99547 366.40477 650.59205 369.25 649.83984 C 370.66082 649.44925 372.08496 648.87061 373.52734 648.09961 C 374.96579 647.35381 376.34352 646.48522 377.65234 645.49023 C 378.96119 644.49513 380.1553 643.4052 381.24023 642.22461 C 382.34871 641.07301 383.27068 639.86763 384.00195 638.61133 C 383.05506 638.19532 382.24215 637.80103 381.57031 637.42383 C 380.92993 637.02544 380.31778 636.55086 379.72852 636.00586 C 379.53592 635.79907 379.41236 635.60342 379.35742 635.41602 C 379.30627 635.20351 379.31764 634.94964 379.39258 634.65234 C 379.65622 633.50954 379.95661 632.30737 380.29492 631.04688 C 380.63718 629.76127 381.00126 628.51499 381.38672 627.3125 C 381.50081 626.94334 381.66284 626.80377 381.875 626.88477 C 382.09108 626.94106 382.31318 627.06255 382.53711 627.24805 C 383.15783 627.77184 383.78931 628.23647 384.42969 628.63477 C 385.0701 629.03317 385.75748 629.39967 386.49219 629.73438 C 387.25836 630.04787 388.08657 630.31622 388.97852 630.54492 C 389.87045 630.77362 390.88007 630.9696 392.00781 631.12891 L 393.12305 631.28516 L 393.25586 631.30469 L 418.50977 630.94531 L 418.79492 630.87695 C 421.09564 630.31105 423.47986 629.68365 425.94531 628.99805 C 428.40325 628.28805 430.83872 627.46279 433.25586 626.52539 C 435.67299 625.58799 438.02362 624.52408 440.30469 623.33008 C 442.60497 622.10497 444.73082 620.69888 446.68945 619.10938 C 445.76253 618.99459 444.6718 618.94776 443.41211 618.9668 C 442.17917 618.9793 440.86449 619.0504 439.4668 619.18359 C 438.09586 619.30969 436.68198 619.48689 435.22656 619.71289 C 433.79789 619.9324 432.40149 620.20942 431.03711 620.54492 C 429.69196 620.84943 428.42968 621.20141 427.25586 621.5957 C 426.10127 621.95881 425.11603 622.35897 424.30078 622.79688 C 423.98302 622.98123 423.70076 623.03676 423.44922 622.9668 C 423.19005 622.87239 423.06829 622.70544 423.08008 622.46484 C 423.08314 621.91024 423.12759 621.26595 423.21875 620.53125 C 423.31038 619.79665 423.42925 619.05639 423.57422 618.30859 C 423.73851 617.52959 423.94747 616.79165 424.19531 616.09766 C 424.43567 615.37916 424.71193 614.77984 425.02734 614.30664 C 425.16202 614.08884 425.59761 613.82316 426.33594 613.50977 C 427.07424 613.19626 427.95378 612.87904 428.97461 612.54883 C 430.02218 612.21203 431.1555 611.86351 432.37109 611.51172 C 433.58671 611.16002 434.74882 610.82551 435.85742 610.5 C 436.96601 610.1746 437.95668 609.89014 438.83203 609.64844 C 439.70732 609.40674 440.3364 609.21029 440.72266 609.0625 C 441.08219 608.9214 441.36771 608.81332 441.57422 608.73633 C 441.77316 608.63462 441.89709 608.5222 441.94727 608.4043 C 441.98922 608.2619 441.98572 608.10715 441.93359 607.93555 C 441.87359 607.73935 441.76607 607.47873 441.60742 607.14844 C 440.85517 605.72464 440.04456 604.11406 439.17969 602.32227 C 438.33404 600.49937 437.48173 598.6512 436.62109 596.7793 C 435.75294 594.8827 434.8844 593.03789 434.01953 591.24609 C 433.17388 589.42319 432.36299 587.80598 431.58398 586.38867 C 431.43281 586.08298 431.21386 585.73883 430.92578 585.36133 C 430.63013 584.95933 430.31041 584.57524 429.96875 584.21094 C 429.62709 583.84655 429.28112 583.51183 428.92773 583.20312 C 428.59358 582.86332 428.31217 582.60123 428.08398 582.41992 C 427.73397 582.21592 427.54352 582.06672 427.51367 581.96875 C 427.48373 581.87074 427.5286 581.64788 427.65234 581.30078 C 427.80304 580.94728 427.97467 580.52139 428.16797 580.02539 C 428.36138 579.52948 428.55203 579.00985 428.73047 578.46484 C 428.90886 577.91985 429.07135 577.39085 429.23047 576.87695 C 429.38958 576.36305 429.51341 575.91294 429.5957 575.52344 C 429.62757 575.25184 429.70975 575.05646 429.84766 574.94336 C 429.88021 574.90832 429.91815 574.8896 429.95898 574.88672 z M 340.83008 581.51172 C 341.03512 581.50484 341.23294 581.50797 341.42383 581.52148 C 341.80562 581.54858 342.15914 581.61872 342.48633 581.72852 C 342.93133 581.87802 343.26803 582.0728 343.5 582.3125 C 343.75817 582.561 343.93531 582.8329 344.02539 583.13281 C 344.14136 583.44141 344.20775 583.75995 344.22656 584.08984 C 344.28101 584.40475 344.32749 584.70609 344.36523 584.98828 C 344.37466 585.34198 344.33334 585.63865 344.24023 585.87695 C 344.17325 586.12395 344.00953 586.38813 343.74805 586.67773 C 343.40457 587.10143 343.02402 587.50149 342.61133 587.875 C 342.20796 588.22426 341.85316 588.34979 341.53906 588.24414 C 341.27734 588.15614 341.11469 587.96287 341.05078 587.67188 C 340.99633 587.35708 340.9479 587.02266 340.91211 586.66016 C 340.87628 586.29775 340.80175 585.95898 340.68555 585.65039 C 340.60479 585.32669 340.40583 585.11151 340.0918 585.00586 C 339.80386 584.90908 339.46038 584.84637 339.05664 584.81836 C 338.67906 584.79944 338.28443 584.81713 337.87891 584.86914 C 337.50887 584.90653 337.14572 584.97243 336.7832 585.06641 C 336.45621 585.1453 336.19669 585.23504 336.00977 585.33398 C 335.99085 585.75919 336.06522 586.21438 336.23047 586.70117 C 336.39542 587.18788 336.60701 587.6635 336.86914 588.12891 C 337.16677 588.57941 337.5197 589.00671 337.92383 589.41211 C 338.33727 589.79361 338.77014 590.09088 339.22266 590.29688 C 339.8136 590.60328 340.36009 590.83866 340.85742 591.00586 C 341.39026 591.15786 341.91612 591.28288 342.44141 591.37891 C 342.96673 591.47461 343.50293 591.54183 344.04688 591.58984 C 344.61699 591.64664 345.23728 591.72438 345.91211 591.81641 C 345.91996 591.87281 345.79252 592.05564 345.52148 592.36914 C 345.2863 592.66744 344.99601 592.98658 344.6543 593.33008 C 344.33876 593.68228 344.03561 594.0025 343.74805 594.2832 C 343.46981 594.54047 343.29335 594.65486 343.21484 594.62891 C 340.224 594.325 337.36795 594.19887 334.65039 594.25586 C 331.93279 594.31327 329.22383 594.4702 326.51953 594.7207 C 326.44834 594.75066 326.38217 594.72631 326.32227 594.65234 C 326.27306 594.55435 326.27669 594.464 326.33984 594.37695 C 326.71315 593.80145 327.07704 593.25055 327.43164 592.72266 C 327.82173 592.17985 328.35484 591.76607 329.0293 591.48047 C 329.58041 591.20748 330.21624 591.01765 330.93945 590.91016 C 331.66268 590.80266 332.43113 590.69669 333.24219 590.5918 C 332.48763 589.34089 332.16686 587.9655 332.2793 586.4668 C 332.34059 586.08299 332.45067 585.72715 332.60742 585.40234 C 332.77342 585.05385 333.05081 584.72973 333.43555 584.42773 C 333.8744 584.06303 334.47001 583.67165 335.22656 583.25195 C 336.00932 582.84105 336.81079 582.49233 337.63477 582.20312 C 338.49421 581.89883 339.34677 581.6825 340.19336 581.5625 C 340.41155 581.53455 340.62503 581.5186 340.83008 581.51172 z M 362.6582 585.9043 C 362.84694 585.94889 362.939 586.14177 362.93359 586.48047 C 362.95502 586.82557 362.92145 587.22297 362.82812 587.67188 C 362.74158 588.09608 362.63683 588.51568 362.52344 588.93359 L 362.28516 589.81836 C 362.09302 591.05476 361.88671 592.34108 361.66797 593.67578 C 361.48277 594.99228 361.30442 596.33699 361.13281 597.70898 C 360.67814 601.60389 360.23462 605.4495 359.80664 609.24609 C 359.40562 613.04909 358.86855 616.88355 358.19141 620.75195 C 358.01233 621.83446 357.7758 622.96809 357.48242 624.1543 C 357.22269 625.32239 356.86541 626.48286 356.41016 627.63086 C 355.98862 628.76056 355.4666 629.8502 354.83594 630.9043 C 354.23889 631.9402 353.50876 632.87791 352.64844 633.7207 C 352.25857 634.09921 351.9108 634.26861 351.60742 634.22266 C 351.30404 634.17696 351.18773 633.92775 351.25391 633.47266 C 351.63852 631.10456 352.02252 628.77618 352.41406 626.48828 C 352.83926 624.18219 353.18896 621.84556 353.45898 619.47656 C 353.75655 617.32346 354.04783 615.02288 354.33789 612.58008 C 354.66157 610.11918 354.95931 607.7194 355.22266 605.375 C 355.51965 603.01241 355.78625 600.80818 356.02344 598.77148 C 356.26734 596.71028 356.45585 595.00614 356.59375 593.65234 C 356.61371 593.47394 356.74323 593.15164 356.98438 592.68555 C 357.25277 592.22584 357.58141 591.69933 357.9707 591.11133 C 358.36 590.52322 358.78363 589.91737 359.24023 589.29297 C 359.70347 588.64397 360.14904 588.07181 360.57227 587.57031 C 361.02914 587.05061 361.44072 586.63694 361.81055 586.33203 C 362.18704 586.00278 362.46939 585.85931 362.6582 585.9043 z M 395.32812 593.44141 C 395.52464 593.44238 395.6577 593.47124 395.73242 593.5332 C 395.81089 593.56991 395.7955 593.6859 395.68164 593.875 L 393.24609 597.83789 C 393.07419 598.04319 392.8608 598.15685 392.60742 598.17383 L 392.60156 598.17383 L 373.61914 602.26172 C 373.35974 602.30185 373.19182 602.2765 373.12109 602.18945 C 373.02818 602.07355 373.0353 601.94545 373.14062 601.80664 L 375.66406 597.81445 C 375.90385 597.54055 376.24536 597.33566 376.68945 597.19336 L 395.32812 593.44141 z M 426.88477 593.99414 C 426.95285 593.98452 427.01101 593.98746 427.05859 594.00195 C 427.14586 594.00666 427.18135 594.11799 427.16016 594.33398 L 426.69922 598.87891 C 426.63307 599.1325 426.48364 599.31367 426.25781 599.42188 L 410.7832 610.19141 C 410.56497 610.32526 410.40742 610.36451 410.30469 610.31055 C 410.16669 610.23865 410.1172 610.11807 410.15234 609.95117 L 410.68555 605.34766 C 410.78263 605.00726 410.99856 604.68943 411.33984 604.39453 L 426.64844 594.0625 C 426.73828 594.02649 426.81668 594.00376 426.88477 593.99414 z M 288.03711 598.97461 C 288.08403 598.98449 288.12812 599.00691 288.16797 599.04492 C 288.34194 599.17562 288.48929 599.36558 288.61328 599.61719 C 288.95305 600.32288 289.32896 600.97356 289.74219 601.57227 C 290.1554 602.17096 290.6282 602.76033 291.15625 603.33594 C 291.72261 603.90374 292.36457 604.45714 293.08398 604.99414 C 293.67983 605.43885 294.41409 605.89631 295.17969 606.35742 L 295.19922 606.35742 L 316.76758 615.99219 L 316.77344 615.99219 L 317.75391 616.32031 L 320.58594 617.27344 C 321.61609 617.59264 322.64379 617.86656 323.67578 618.10547 C 324.7339 618.35316 325.77454 618.52889 326.80078 618.63086 C 327.83633 618.70923 328.82776 618.68026 329.77148 618.53906 C 329.76678 617.56696 329.6509 616.60832 329.42578 615.66992 C 329.22673 614.74052 328.97109 613.84693 328.65625 612.98633 C 328.36755 612.13453 328.0536 611.35724 327.70898 610.64844 C 327.39987 609.92454 327.11625 609.27459 326.86523 608.70508 C 328.36753 606.37938 329.95645 604.13851 331.63086 601.97852 C 331.75778 601.80532 331.87802 601.76149 331.99023 601.85352 C 332.12869 601.95392 332.2463 602.07749 332.33984 602.2168 C 333.54759 604.4287 334.31941 606.76491 334.66016 609.22461 C 335.0364 611.66931 334.8568 614.10129 334.11719 616.52148 C 333.79487 617.57229 333.342 618.64454 332.76367 619.74414 C 332.21153 620.85254 331.56098 621.87654 330.81055 622.81055 C 330.06009 623.74445 329.24268 624.54575 328.35742 625.21875 C 327.50765 625.87666 326.61392 626.3064 325.67773 626.50391 C 324.61809 626.71369 323.59407 626.7987 322.60156 626.76172 C 321.63521 626.73362 320.68461 626.63302 319.74805 626.45312 C 318.81146 626.27323 317.88953 626.04278 316.99023 625.76758 C 316.25628 625.54368 315.53012 625.30721 314.80273 625.06641 C 314.59389 625.11334 314.38918 625.09974 314.19141 625.01172 L 312.90625 624.4375 L 312.73633 624.38086 C 312.71935 624.37491 312.706 624.34958 312.68945 624.33984 L 292.26562 615.21875 C 292.1286 615.25379 291.94849 615.32498 291.89258 615.29297 L 290.30078 614.37109 C 289.7348 614.04279 289.25927 613.7501 288.87305 613.49609 C 288.51044 613.2559 287.99059 612.91013 287.3125 612.45703 C 286.46259 613.31053 285.46647 614.22944 284.32812 615.21484 C 283.18976 616.20024 281.97815 617.15733 280.68359 618.08203 C 279.39794 619.04183 278.04242 619.93066 276.62109 620.75195 C 275.19973 621.57315 273.77622 622.25418 272.3457 622.80078 C 270.91506 623.34739 269.51287 623.70414 268.14648 623.86914 C 266.76549 624.05555 265.46985 623.97947 264.25586 623.63477 C 262.84745 623.23676 261.42885 622.56058 260.00195 621.61328 C 258.57501 620.66597 257.18469 619.59293 255.83398 618.39062 C 254.50684 617.20203 253.26001 615.96936 252.0918 614.69336 C 250.9 613.40367 249.86462 612.22133 248.98828 611.14453 C 248.61951 610.72124 248.41665 610.3174 248.38086 609.9375 C 248.34503 609.5577 248.43397 609.2665 248.64258 609.05859 C 248.81311 608.85869 249.09073 608.76329 249.47656 608.77734 C 249.86244 608.79154 250.28322 608.97457 250.73438 609.32617 C 252.86022 610.88837 255.26748 612.18333 257.96094 613.20703 C 260.65444 614.23074 263.47507 614.92322 266.42383 615.28711 C 267.89377 615.45039 269.46213 615.44795 271.12891 615.27734 C 272.78099 615.12845 274.4314 614.83961 276.07422 614.41602 C 277.71705 613.99252 279.29767 613.44844 280.81641 612.77344 C 282.34411 612.13345 283.71842 611.37224 284.94531 610.49805 C 284.25798 609.77025 283.68979 609.11444 283.23828 608.52344 C 282.82507 607.92465 282.46748 607.26613 282.16602 606.55273 C 282.08124 606.29354 282.05382 606.06765 282.08594 605.87695 C 282.13276 605.66475 282.2552 605.43842 282.45508 605.19531 C 283.20177 604.25202 284.0096 603.27094 284.87695 602.24805 C 285.75897 601.20375 286.64417 600.20466 287.5293 599.25195 C 287.66305 599.10525 287.78194 599.01551 287.88867 598.98047 L 287.88672 598.98438 C 287.94005 598.96686 287.99019 598.96473 288.03711 598.97461 z M 381.21094 609.07617 L 381.21094 609.08008 C 381.32305 609.08307 381.431 609.12781 381.5293 609.21875 L 386.35352 614.20898 C 386.47613 614.30238 386.53522 614.38892 386.52344 614.46289 C 386.51284 614.53828 386.44286 614.62849 386.3125 614.73828 L 381.0957 618.69922 C 380.76165 618.85771 380.52414 618.83367 380.38672 618.63477 L 375.50781 613.71289 C 375.28814 613.50228 375.32052 613.31219 375.59961 613.14648 L 380.85742 609.19531 C 380.98327 609.11065 381.09896 609.07617 381.21094 609.07617 z M 306.71289 636.7793 L 306.71484 636.7793 L 324.80273 637.4375 C 324.98767 637.4189 325.11197 637.44557 325.17188 637.51953 C 325.22233 637.61733 325.17734 637.7253 325.04297 637.8418 L 321.875 640.94141 C 321.65091 641.13941 321.40389 641.20269 321.13281 641.13867 L 302.65234 640.78906 C 302.41507 640.79017 302.26464 640.726 302.19727 640.5957 C 302.15577 640.47399 302.1971 640.36644 302.32227 640.27344 L 305.63672 637.14258 C 305.91317 636.96577 306.27187 636.84732 306.71289 636.7793 z M 439.125 641.61523 C 439.18339 641.61761 439.24584 641.63078 439.31055 641.6543 L 445.9082 644.46289 C 446.06445 644.50369 446.15025 644.55885 446.17383 644.63281 C 446.19621 644.70631 446.175 644.81975 446.10547 644.96875 L 443.10352 650.53125 C 442.86929 650.80042 442.64863 650.87058 442.43555 650.73828 L 435.82031 648.01172 C 435.52684 647.89913 435.46787 647.71634 435.64844 647.46094 L 438.6875 641.88477 C 438.76444 641.76027 438.85571 641.67966 438.95898 641.64062 C 439.01061 641.62165 439.06661 641.61286 439.125 641.61523 z "
               transform="matrix(0.92474656,0,0,0.92474656,38.893107,221.25923)"
               id="path4982" />
          </g>
          <path
             inkscape:connector-curvature="0"
             style="font-style:normal;font-variant:normal;font-weight:bold;font-stretch:normal;font-size:medium;line-height:125%;font-family:'KFGQPC Uthman Taha Naskh';-inkscape-font-specification:'KFGQPC Uthman Taha Naskh Bold';letter-spacing:0px;word-spacing:0px;fill:#ff0000;fill-opacity:1;stroke:none;stroke-width:1px;stroke-linecap:butt;stroke-linejoin:miter;stroke-opacity:1"
             d="m 247.46875,1050.1621 c -0.0733,0.034 -0.11879,0.1511 -0.13672,0.3535 -0.0233,0.1928 -0.0286,0.4326 -0.0137,0.7168 0.02,0.2698 0.0568,0.5671 0.10937,0.8945 0.0471,0.3179 0.0991,0.6213 0.15625,0.9102 0.0573,0.289 0.11386,0.5431 0.16993,0.7598 0.0666,0.2118 0.12347,0.3476 0.17187,0.4101 0.37106,0.4713 0.83443,1.0707 1.38867,1.7969 0.54884,0.7166 1.13781,1.4933 1.76758,2.3301 0.63482,0.8223 1.27823,1.6716 1.92969,2.5469 0.65651,0.8608 1.26852,1.6758 1.83398,2.4453 0.64024,0.8319 1.24634,1.674 1.81836,2.5254 0.57706,0.8369 1.16769,1.6859 1.77149,2.5468 0.11852,0.1636 0.23209,0.2134 0.34179,0.1504 0.10974,-0.063 0.16872,-0.206 0.17578,-0.4277 0.0134,-0.4915 -0.045,-0.9805 -0.17382,-1.4668 -0.12378,-0.5008 -0.29294,-0.9854 -0.50586,-1.457 -0.20789,-0.4862 -0.44889,-0.952 -0.72461,-1.3946 -0.27069,-0.457 -0.54338,-0.8829 -0.81836,-1.2773 -0.97093,-1.419 -1.97565,-2.7919 -3.01367,-4.1191 -1.02756,-1.3321 -2.06599,-2.6822 -3.11524,-4.0528 -0.36601,-0.4857 -0.7217,-0.9642 -1.0664,-1.4355 -0.33966,-0.4858 -0.66836,-0.9531 -0.98633,-1.4004 l -0.19531,-0.3457 c -0.0922,-0.1636 -0.18839,-0.3257 -0.29102,-0.4844 -0.10805,-0.1684 -0.21969,-0.3044 -0.33203,-0.4102 -0.10188,-0.1105 -0.18845,-0.1491 -0.26172,-0.1152 z m -11.43945,3.3985 c -0.0408,-0.024 -0.0759,-0.021 -0.10352,0.01 -0.0585,0.048 -0.0939,0.1308 -0.10742,0.246 -0.0349,0.1653 -0.0868,0.3563 -0.1543,0.5743 -0.0675,0.218 -0.13721,0.4426 -0.21289,0.6738 -0.0757,0.2312 -0.15623,0.4517 -0.23828,0.6621 -0.082,0.2104 -0.15482,0.391 -0.21875,0.541 -0.0525,0.1472 -0.0713,0.2416 -0.0586,0.2832 0.0127,0.042 0.0937,0.1049 0.24218,0.1914 0.0968,0.077 0.21567,0.1879 0.35743,0.3321 0.14991,0.1309 0.29646,0.2731 0.4414,0.4277 0.14494,0.1546 0.28083,0.3177 0.40625,0.4883 0.12221,0.1601 0.21517,0.3058 0.2793,0.4355 0.33047,0.6013 0.67446,1.2872 1.0332,2.0606 0.3669,0.7601 0.73523,1.5431 1.10352,2.3476 0.3651,0.7942 0.7272,1.5783 1.08594,2.3516 0.3669,0.7601 0.71017,1.4428 1.02929,2.0469 0.0673,0.1401 0.11321,0.2507 0.13867,0.3339 0.0221,0.073 0.024,0.1389 0.006,0.1993 -0.0213,0.05 -0.0738,0.098 -0.1582,0.1406 -0.0876,0.033 -0.20881,0.079 -0.36133,0.1387 -0.16386,0.063 -0.43141,0.1455 -0.80273,0.248 -0.37134,0.1025 -0.79143,0.2233 -1.26172,0.3613 -0.47029,0.1381 -0.96283,0.2805 -1.47852,0.4297 -0.51568,0.1492 -0.997,0.2966 -1.4414,0.4395 -0.43306,0.14 -0.80594,0.2752 -1.11914,0.4082 -0.31322,0.1329 -0.49756,0.2455 -0.55469,0.3379 -0.13381,0.2007 -0.25156,0.4549 -0.35352,0.7597 -0.10514,0.2944 -0.19397,0.6071 -0.26367,0.9375 -0.0615,0.3173 -0.11152,0.6317 -0.15039,0.9434 -0.0387,0.3117 -0.0573,0.585 -0.0586,0.8203 -0.005,0.1021 0.0463,0.1728 0.15625,0.2129 0.10671,0.03 0.22653,0.01 0.36133,-0.072 0.34585,-0.1858 0.7641,-0.3557 1.2539,-0.5098 0.49796,-0.1672 1.03288,-0.3161 1.60352,-0.4453 0.5788,-0.1423 1.17127,-0.2604 1.77734,-0.3535 0.61742,-0.096 1.21725,-0.1711 1.79883,-0.2246 0.59293,-0.056 1.15079,-0.086 1.67383,-0.092 0.53439,-0.01 0.9974,0.012 1.39062,0.06 -0.83089,0.6743 -1.73315,1.2713 -2.70898,1.791 -0.96768,0.5065 -1.96484,0.9578 -2.99024,1.3555 -1.0254,0.3977 -2.05885,0.7476 -3.10156,1.0488 -1.0459,0.2908 -2.05719,0.5568 -3.0332,0.7969 l -0.1211,0.029 -10.71289,0.1523 -0.0566,-0.01 -0.47265,-0.066 c -0.47841,-0.068 -0.90678,-0.151 -1.28516,-0.248 -0.37838,-0.097 -0.72966,-0.2108 -1.05469,-0.3438 -0.31168,-0.1419 -0.60332,-0.2978 -0.875,-0.4668 -0.27166,-0.169 -0.53941,-0.3656 -0.80273,-0.5878 l 0,0 c -0.095,-0.079 -0.18958,-0.1305 -0.28125,-0.1543 -0.09,-0.034 -0.15863,0.025 -0.20703,0.1816 -0.16352,0.5101 -0.3177,1.0386 -0.46289,1.584 -0.14352,0.5347 -0.27098,1.0445 -0.38282,1.5293 -0.0318,0.1261 -0.0373,0.2341 -0.0156,0.3242 0.0233,0.08 0.0765,0.1623 0.1582,0.25 0.24998,0.2312 0.50959,0.4326 0.78125,0.6016 0.28501,0.16 0.62956,0.3274 1.03125,0.5039 -0.31022,0.5329 -0.70163,1.0446 -1.17187,1.5332 -0.46025,0.5008 -0.96625,0.9626 -1.52149,1.3847 -0.55524,0.4222 -1.13978,0.791 -1.75,1.1075 -0.61189,0.327 -1.21595,0.5725 -1.81445,0.7382 -1.20701,0.3191 -2.42628,0.49 -3.6582,0.5118 -1.23192,0.022 -2.40606,-0.1058 -3.51953,-0.3829 -0.24003,-0.067 -0.43423,-0.072 -0.58594,-0.018 -0.15176,0.055 -0.24315,0.1335 -0.27149,0.2383 -0.0417,0.1138 -0.0186,0.2422 0.0664,0.3848 0.085,0.1426 0.23731,0.2675 0.45898,0.375 0.54003,0.2831 1.16158,0.5835 1.86329,0.9004 0.69004,0.3152 1.40165,0.6011 2.13671,0.8574 0.74674,0.2579 1.48446,0.4609 2.2129,0.6074 0.72844,0.1465 1.40301,0.1861 2.02148,0.1211 0.53346,-0.055 1.04835,-0.2269 1.54687,-0.5156 0.49685,-0.278 0.9697,-0.6353 1.41993,-1.0723 0.45022,-0.4369 0.87429,-0.926 1.26953,-1.4687 0.39524,-0.5427 0.75146,-1.1022 1.06836,-1.6778 0.3269,-0.5632 0.61782,-1.1269 0.87304,-1.6894 0.25522,-0.5625 0.46626,-1.0751 0.63477,-1.541 0.34671,0.071 0.6138,0.1231 0.79883,0.1601 0.19669,0.039 0.4348,0.078 0.71484,0.1172 l 0.78711,0.1113 c 0.0111,0 0.0386,-0.03 0.0527,-0.035 0.0337,0.024 0.0662,0.049 0.10351,0.049 l 11.13477,-0.1582 c 0.0504,-7e-4 0.0896,-0.027 0.13281,-0.043 0.0635,0.037 0.11694,0.06 0.15234,0.051 l 0.3418,-0.084 0.42578,-0.1035 c 1.40727,-0.3461 2.66572,-0.7576 3.77734,-1.2324 1.11162,-0.4748 2.13774,-0.9891 3.07813,-1.5449 0.9404,-0.5558 1.82931,-1.139 2.66797,-1.7481 0.83547,-0.6194 1.68285,-1.2421 2.54101,-1.8672 1.02563,-0.7557 2.09799,-1.3164 3.21875,-1.6816 1.13212,-0.3678 2.34455,-0.5539 3.63672,-0.5586 0.14893,0.01 0.26091,-0.01 0.33399,-0.047 0.0813,-0.054 0.13303,-0.1062 0.15429,-0.1562 0.0327,-0.053 0.07,-0.2248 0.11524,-0.5157 0.0566,-0.2936 0.11494,-0.626 0.17187,-0.998 0.0538,-0.3825 0.10011,-0.7629 0.14258,-1.1426 0.0538,-0.3825 0.0933,-0.6947 0.11719,-0.9355 0.0157,-0.2277 -0.0838,-0.3368 -0.30078,-0.3282 -1.82957,0.2822 -3.55037,0.481 -5.16211,0.5977 -1.60358,0.1035 -3.17787,0.1272 -4.7207,0.07 0.15968,-0.1959 0.2641,-0.4344 0.3125,-0.7148 0.0598,-0.2833 0.0735,-0.5775 0.041,-0.8829 -0.0211,-0.3081 -0.0775,-0.6123 -0.16992,-0.914 -0.0842,-0.315 -0.18588,-0.605 -0.30274,-0.8672 -0.22096,-0.4827 -0.46902,-1.0533 -0.74414,-1.7129 -0.27512,-0.6596 -0.55322,-1.3346 -0.83789,-2.0254 -0.28467,-0.6908 -0.57095,-1.3646 -0.85742,-2.0215 -0.27511,-0.6596 -0.53367,-1.2279 -0.77734,-1.7051 -0.16046,-0.285 -0.20272,-0.6165 -0.12305,-0.9941 0.091,-0.3804 0.22311,-0.8326 0.39258,-1.3555 -0.26521,-0.069 -0.54259,-0.1745 -0.83008,-0.3164 -0.27933,-0.155 -0.5495,-0.3224 -0.8125,-0.5039 -0.25484,-0.1946 -0.49477,-0.3998 -0.71875,-0.6133 -0.22397,-0.2134 -0.41459,-0.4171 -0.57226,-0.6132 -0.0539,-0.076 -0.10182,-0.1269 -0.14258,-0.1504 z m -37.61524,2.7988 c -0.16196,-0.012 -0.33636,-0.01 -0.52148,0.018 -0.35914,0.051 -0.72134,0.1424 -1.08594,0.2715 -0.34955,0.1227 -0.68942,0.271 -1.02148,0.4453 -0.32095,0.178 -0.5736,0.3433 -0.75977,0.498 -0.16321,0.1282 -0.28114,0.2662 -0.35156,0.4141 -0.0665,0.1378 -0.11267,0.2884 -0.13867,0.4512 -0.0477,0.6358 0.0881,1.2193 0.4082,1.75 -0.34407,0.044 -0.66975,0.089 -0.97656,0.1347 -0.3068,0.046 -0.57676,0.1264 -0.81055,0.2422 -0.28612,0.1212 -0.51225,0.2971 -0.67773,0.5274 -0.15043,0.2239 -0.30455,0.457 -0.4629,0.7011 -0.0268,0.037 -0.0293,0.076 -0.008,0.1172 0.0254,0.031 0.0538,0.042 0.084,0.029 1.14722,-0.1062 2.29636,-0.1729 3.44922,-0.1972 1.15285,-0.024 2.36403,0.029 3.63281,0.1582 0.0333,0.011 0.10853,-0.038 0.22656,-0.1465 0.12199,-0.1191 0.25091,-0.2549 0.38477,-0.4043 0.14496,-0.1457 0.26741,-0.2816 0.36718,-0.4082 0.11498,-0.133 0.16935,-0.2105 0.16602,-0.2344 -0.28628,-0.039 -0.54916,-0.072 -0.79102,-0.096 -0.23075,-0.02 -0.45879,-0.049 -0.68164,-0.09 -0.22284,-0.04 -0.44583,-0.094 -0.67187,-0.1582 -0.21098,-0.071 -0.44267,-0.1708 -0.69336,-0.3008 -0.19197,-0.087 -0.37539,-0.2131 -0.55078,-0.375 -0.17144,-0.1719 -0.32101,-0.3538 -0.44727,-0.5449 -0.1112,-0.1975 -0.2015,-0.399 -0.27148,-0.6055 -0.0701,-0.2065 -0.10162,-0.3997 -0.0937,-0.5801 0.0793,-0.042 0.1894,-0.08 0.32812,-0.1132 0.15379,-0.04 0.30787,-0.068 0.46485,-0.084 0.17203,-0.022 0.33982,-0.029 0.5,-0.021 0.17128,0.012 0.3173,0.039 0.43945,0.08 0.13322,0.045 0.21769,0.1361 0.25195,0.2734 0.0493,0.1309 0.0805,0.274 0.0957,0.4277 0.0152,0.1538 0.0355,0.2962 0.0586,0.4297 0.0271,0.1235 0.096,0.2049 0.20703,0.2422 0.13325,0.045 0.28396,-0.01 0.45508,-0.1562 0.17507,-0.1585 0.33671,-0.3281 0.48242,-0.5078 0.11093,-0.1229 0.18058,-0.2351 0.20899,-0.3399 0.0395,-0.1011 0.0567,-0.2269 0.0527,-0.3769 -0.016,-0.1198 -0.0355,-0.2473 -0.0586,-0.3809 -0.008,-0.1399 -0.0367,-0.2753 -0.0859,-0.4063 -0.0382,-0.1272 -0.11314,-0.2422 -0.22266,-0.3476 -0.0984,-0.1017 -0.24091,-0.1847 -0.42969,-0.2481 -0.1388,-0.047 -0.28921,-0.076 -0.45117,-0.088 z m 9.00782,1.8594 c -0.0801,-0.019 -0.19966,0.042 -0.35938,0.1816 -0.15689,0.1293 -0.33157,0.3049 -0.52539,0.5254 -0.17954,0.2127 -0.36793,0.4551 -0.56445,0.7305 -0.1937,0.2648 -0.37392,0.522 -0.53907,0.7714 -0.16515,0.2495 -0.30412,0.473 -0.41797,0.668 -0.1023,0.1977 -0.15754,0.3345 -0.16601,0.4102 -0.0585,0.5743 -0.13872,1.2974 -0.24219,2.1718 -0.10062,0.864 -0.21385,1.7985 -0.33984,2.8008 -0.11172,0.9946 -0.23769,2.0127 -0.375,3.0567 -0.12305,1.0362 -0.24682,2.0123 -0.37305,2.9257 -0.11455,1.005 -0.26298,1.9964 -0.44336,2.9747 -0.1661,0.9705 -0.32903,1.9583 -0.49219,2.9628 -0.0281,0.1931 0.0217,0.299 0.1504,0.3184 0.1287,0.019 0.27601,-0.052 0.4414,-0.2129 0.36497,-0.3575 0.67446,-0.7558 0.92774,-1.1953 0.26754,-0.4472 0.48913,-0.9094 0.66796,-1.3887 0.19312,-0.487 0.3449,-0.9791 0.45508,-1.4746 0.12446,-0.5032 0.22481,-0.9841 0.30078,-1.4433 0.28726,-1.6411 0.51543,-3.2676 0.68555,-4.8809 0.18156,-1.6106 0.36962,-3.2422 0.5625,-4.8945 0.0728,-0.5821 0.148,-1.1525 0.22656,-1.711 0.0928,-0.5662 0.18021,-1.1122 0.26172,-1.6367 l 0.10156,-0.375 c 0.0481,-0.1773 0.0922,-0.3552 0.12891,-0.5351 0.0396,-0.1905 0.054,-0.3595 0.0449,-0.5059 0.002,-0.1437 -0.0371,-0.2252 -0.11718,-0.2441 z m 13.85937,3.1972 -7.90625,1.5918 c -0.18839,0.06 -0.33383,0.1475 -0.43555,0.2637 l -1.07031,1.6933 c -0.0447,0.059 -0.0478,0.113 -0.008,0.1621 0.03,0.037 0.1009,0.048 0.21094,0.031 l 8.05273,-1.7344 c 0,0 0.002,0 0.002,0 0.10749,-0.01 0.19856,-0.055 0.27149,-0.1426 l 1.0332,-1.6816 c 0.0483,-0.08 0.0548,-0.129 0.0215,-0.1446 -0.0317,-0.026 -0.0885,-0.038 -0.17187,-0.039 z m 13.46094,0.2383 c -0.0404,-0.012 -0.0976,0 -0.17383,0.025 l -6.49414,4.3828 c -0.14478,0.1251 -0.23614,0.2599 -0.27734,0.4043 l -0.22657,1.9531 c -0.0149,0.071 0.006,0.1219 0.0645,0.1524 0.0436,0.023 0.11054,0.01 0.20312,-0.051 l 6.56445,-4.5684 c 0.0958,-0.046 0.15944,-0.1228 0.1875,-0.2304 l 0.19532,-1.9278 c 0.009,-0.092 -0.006,-0.1386 -0.043,-0.1406 z m -59.03907,2.1113 c -0.0453,0.015 -0.0956,0.053 -0.15234,0.1153 -0.37549,0.4041 -0.75083,0.8284 -1.125,1.2714 -0.36795,0.434 -0.71058,0.8499 -1.02734,1.25 -0.0848,0.1032 -0.13639,0.1991 -0.15625,0.2891 -0.0136,0.081 -0.003,0.1772 0.0332,0.2871 0.12789,0.3027 0.27978,0.582 0.45508,0.8359 0.19154,0.2508 0.43303,0.5292 0.72461,0.8379 -0.52047,0.3709 -1.10389,0.6934 -1.75196,0.9649 -0.64429,0.2863 -1.31479,0.5176 -2.01171,0.6972 -0.69692,0.1797 -1.39681,0.3022 -2.09766,0.3653 -0.70708,0.072 -1.37251,0.074 -1.99609,0 -1.25093,-0.1544 -2.44721,-0.4486 -3.58985,-0.8828 -1.14263,-0.4343 -2.16457,-0.9838 -3.0664,-1.6465 -0.19139,-0.1492 -0.36951,-0.2264 -0.53321,-0.2324 -0.16368,-0.01 -0.28117,0.034 -0.35351,0.1191 -0.0885,0.088 -0.12653,0.2119 -0.11133,0.3731 0.0152,0.1611 0.10137,0.3321 0.25781,0.5117 0.37176,0.4568 0.81082,0.9587 1.31641,1.5058 0.49558,0.5413 1.02489,1.0642 1.58789,1.5684 0.573,0.5101 1.16224,0.9653 1.76758,1.3672 0.60532,0.4019 1.2072,0.6886 1.80468,0.8574 0.515,0.1462 1.06452,0.1787 1.65039,0.1 0.57965,-0.07 1.17437,-0.2212 1.78126,-0.4531 0.60688,-0.2319 1.21148,-0.5208 1.81445,-0.8692 0.60296,-0.3483 1.17725,-0.7256 1.72265,-1.1328 0.54918,-0.3923 1.06396,-0.7987 1.54688,-1.2168 0.48291,-0.418 0.90507,-0.8078 1.26562,-1.1699 0.28766,0.1922 0.50828,0.3395 0.66211,0.4414 0.16384,0.1077 0.36537,0.2318 0.60547,0.3711 l 0.67578,0.3906 c 0.0237,0.014 0.10008,-0.016 0.15821,-0.031 l 8.66406,3.8692 c 0.007,0 0.0123,0.015 0.0195,0.018 l 0.0723,0.023 0.54492,0.2441 c 0.0839,0.037 0.17116,0.043 0.25976,0.023 0.30857,0.1022 0.61638,0.2019 0.92774,0.2969 0.3815,0.1167 0.7726,0.2147 1.16992,0.291 0.39731,0.076 0.80099,0.1189 1.21094,0.1309 0.42104,0.016 0.85519,-0.02 1.30469,-0.1094 0.39715,-0.084 0.77622,-0.2658 1.13671,-0.5449 0.37555,-0.2855 0.72266,-0.6253 1.04102,-1.0215 0.31835,-0.3962 0.59389,-0.8306 0.82812,-1.3008 0.24534,-0.4665 0.43749,-0.9214 0.57422,-1.3672 0.31376,-1.0267 0.39008,-2.0586 0.23047,-3.0957 -0.14455,-1.0434 -0.47202,-2.0343 -0.98437,-2.9726 -0.0397,-0.059 -0.0897,-0.1117 -0.14844,-0.1543 -0.0476,-0.039 -0.0985,-0.021 -0.15234,0.053 -0.71032,0.9163 -1.38418,1.8669 -2.02149,2.8535 0.10649,0.2416 0.22629,0.5171 0.35742,0.8242 0.14619,0.3007 0.27988,0.6308 0.40235,0.9922 0.13356,0.3651 0.24173,0.7444 0.32617,1.1387 0.0955,0.398 0.14448,0.8044 0.14648,1.2168 -0.40035,0.06 -0.82046,0.072 -1.25976,0.039 -0.43535,-0.043 -0.87729,-0.1176 -1.32617,-0.2227 -0.43779,-0.1013 -0.87354,-0.2181 -1.31055,-0.3535 l -1.20117,-0.4043 -0.41602,-0.1387 -0.002,0 -9.15039,-4.0879 c -0.003,-10e-4 -0.005,-8e-4 -0.008,0 -0.32477,-0.1956 -0.63591,-0.3894 -0.88868,-0.5781 -0.3052,-0.2278 -0.5781,-0.4622 -0.81836,-0.7031 -0.22401,-0.2442 -0.42431,-0.4941 -0.59961,-0.7481 -0.1753,-0.254 -0.33438,-0.5307 -0.47851,-0.83 -0.0526,-0.1068 -0.11565,-0.1868 -0.18945,-0.2422 -0.0338,-0.032 -0.0739,-0.04 -0.11915,-0.025 z m 39.58985,4.2832 c -0.0475,-10e-4 -0.097,0.015 -0.15039,0.051 l -2.23047,1.6758 c -0.1184,0.07 -0.1324,0.1509 -0.0391,0.2402 l 2.07031,2.0879 c 0.0583,0.084 0.15907,0.094 0.30078,0.027 l 2.21289,-1.6797 c 0.0553,-0.046 0.0852,-0.085 0.0898,-0.1171 0.005,-0.032 -0.0203,-0.068 -0.0723,-0.1075 l 0,0 -2.04688,-2.1171 c -0.0417,-0.039 -0.0872,-0.057 -0.13476,-0.059 z m -31.60352,11.752 c -0.18709,0.029 -0.33975,0.079 -0.45703,0.1543 l -1.40625,1.3281 c -0.0531,0.039 -0.0703,0.085 -0.0527,0.1367 0.0286,0.055 0.0927,0.082 0.19336,0.082 l 7.83984,0.1485 c 0.115,0.027 0.21939,0 0.31445,-0.084 l 1.34375,-1.3145 c 0.057,-0.049 0.0761,-0.095 0.0547,-0.1367 -0.0254,-0.031 -0.0778,-0.043 -0.15625,-0.035 l -7.67383,-0.2793 z m 56.10157,2.0625 c -0.0438,0.016 -0.0826,0.051 -0.11524,0.1035 l -1.28906,2.3652 c -0.0766,0.1084 -0.0522,0.1867 0.0723,0.2344 l 2.80664,1.1563 c 0.0904,0.056 0.18385,0.026 0.28321,-0.088 l 1.27344,-2.3594 c 0.0295,-0.063 0.0388,-0.1114 0.0293,-0.1426 -0.01,-0.031 -0.047,-0.055 -0.11328,-0.072 l -2.79883,-1.1914 c -0.0549,-0.02 -0.10463,-0.022 -0.14843,-0.01 z"
             id="path4984" />
        </g>
        <path
           id="path5184"
           d="M 211.40437,826.88458 A 140.6113,140.6113 0 0 0 70.794666,967.49609 140.6113,140.6113 0 0 0 211.40437,1108.1076 140.6113,140.6113 0 0 0 352.01588,967.49609 140.6113,140.6113 0 0 0 211.40437,826.88458 Z"
           style="opacity:1;fill:none;fill-opacity:1;stroke:#ffff00;stroke-width:1.93793726;stroke-linejoin:round;stroke-miterlimit:4;stroke-dasharray:none;stroke-opacity:1"
           inkscape:connector-curvature="0" />
      </g>
    </g>
  </g>
</svg>
