<?xml version="1.0" encoding="UTF-8" standalone="no"?>
<!-- Created with Inkscape (http://www.inkscape.org/) -->

<svg
   xmlns:dc="http://purl.org/dc/elements/1.1/"
   xmlns:cc="http://creativecommons.org/ns#"
   xmlns:rdf="http://www.w3.org/1999/02/22-rdf-syntax-ns#"
   xmlns:svg="http://www.w3.org/2000/svg"
   xmlns="http://www.w3.org/2000/svg"
   xmlns:sodipodi="http://sodipodi.sourceforge.net/DTD/sodipodi-0.dtd"
   xmlns:inkscape="http://www.inkscape.org/namespaces/inkscape"
   width="133mm"
   height="174mm"
   viewBox="0 0 471.25962 616.53521"
   id="svg4217"
   version="1.1"
   inkscape:version="0.91 r13725"
   sodipodi:docname="ams-logo-mono.svg">
  <defs
     id="defs4219" />
  <sodipodi:namedview
     id="base"
     pagecolor="#ffffff"
     bordercolor="#666666"
     borderopacity="1.0"
     inkscape:pageopacity="0.0"
     inkscape:pageshadow="2"
     inkscape:zoom="0.35"
     inkscape:cx="120.79684"
     inkscape:cy="344.21441"
     inkscape:document-units="px"
     inkscape:current-layer="layer1"
     showgrid="false"
     inkscape:window-width="1366"
     inkscape:window-height="710"
     inkscape:window-x="0"
     inkscape:window-y="27"
     inkscape:window-maximized="1" />
  <metadata
     id="metadata4222">
    <rdf:RDF>
      <cc:Work
         rdf:about="">
        <dc:format>image/svg+xml</dc:format>
        <dc:type
           rdf:resource="http://purl.org/dc/dcmitype/StillImage" />
        <dc:title></dc:title>
      </cc:Work>
    </rdf:RDF>
  </metadata>
  <g
     inkscape:label="Layer 1"
     inkscape:groupmode="layer"
     id="layer1"
     transform="translate(0,-435.82705)">
    <path
       inkscape:connector-curvature="0"
       style="opacity:1;fill:#000000;fill-opacity:1;stroke:none;stroke-width:1.24793375;stroke-linejoin:miter;stroke-miterlimit:4;stroke-dasharray:none;stroke-opacity:1"
       d="m 229.1842,449.38189 c -7.2799,54.68789 -42.01229,57.98619 -26.21069,104.10609 -45.1856,-37.4615 -59.6527,-12.6233 -108.231292,5.7412 29.020102,38.77949 44.621092,58.32789 93.392592,52.60099 l -0.01,0.01 c -56.88869,38.4557 -28.2744,64.32099 -46.6939,97.54079 36.9223,7.0193 61.5288,-9.1587 87.71119,-47.1498 -1.7154,15.8192 -2.3361,43.2472 10.7227,59.7234 -9.1345,-8.2391 -10.8647,-2.4581 -17.4906,-6.2385 4.2996,16.8171 18.0917,23.1074 54.0926,32.24199 -23.8215,-20.77669 -14.1514,-41.55349 -20.9575,-49.79249 -0.5373,8.7763 -7.0921,9.2801 -6.0175,17.8774 -10.1941,-17.5607 -9.1876,-40.2401 -7.6519,-55.4877 19.0135,37.2652 35.2446,42.9093 92.03439,39.4841 -7.1006,-21.8767 3.966,-65.93819 -50.65799,-86.26549 l -0.4236,-0.2809 c 58.49639,3.3583 62.46589,-6.1559 90.70839,-61.35779 -38.7279,-12.2665 -59.5238,-26.8657 -102.08029,5.6123 0.1365,-0.7656 0.2683,-1.545 0.3913,-2.3342 10.0301,-54.4491 -1.4336,-73.43279 -42.6286,-106.03059 z m 133.52579,42.96009 A 166.38301,166.38301 0 0 1 402.01448,599.47297 166.38301,166.38301 0 0 1 235.6298,765.85765 166.38301,166.38301 0 0 1 69.249759,599.47297 166.38301,166.38301 0 0 1 108.03862,492.72408 214.93072,214.93072 0 0 0 20.700355,665.38866 214.93072,214.93072 0 0 0 235.6298,880.31814 214.93072,214.93072 0 0 0 450.56388,665.38866 214.93072,214.93072 0 0 0 362.70999,492.34198 Z m -123.93559,5.3084 c -5.4849,15.6747 3.4873,50.1335 2.5046,62.5917 -0.9481,12.0189 -5.8363,15.02659 -8.9456,11.5837 -4.0129,-4.4434 2.8669,-20.6738 1.6206,-32.5734 -1.8672,-17.8274 -7.954,-38.8388 4.8204,-41.602 z m 88.87599,68.181 c 0.6412,13.05399 -21.1026,13.53779 -38.92699,15.43269 -21.0043,2.2328 -27.7223,12.0259 -31.0403,10.0045 -3.8554,-2.3488 -1.8325,-6.0744 8.8627,-11.639 11.4248,-5.94409 47.38639,-4.43919 61.10459,-13.79819 z m -178.13878,0.9668 c 8.5945,-0.068 21.0895,6.563 32.6287,10.88859 11.2035,4.1996 29.0396,1.0328 31.9289,6.6251 1.7815,3.4481 -6.1553,4.288 -18.2043,2.9973 -12.4907,-1.3381 -38.6518,-16.78439 -55.2022,-15.41889 1.8399,-3.6464 4.9423,-5.0612 8.8489,-5.0921 z m 85.76369,15.95759 a 10.951376,10.951376 0 0 1 10.953,10.9575 10.951376,10.951376 0 0 1 -10.953,10.9484 10.951376,10.951376 0 0 1 -10.9483,-10.9484 10.951376,10.951376 0 0 1 10.9483,-10.9575 z m -15.1656,27.0025 c 3.8811,0 5.0945,4.1725 -1.5101,14.2587 -6.84609,10.4549 -35.03179,32.2201 -40.28519,47.97389 -8.4128,-10.0023 9.2579,-22.89399 21.6435,-35.85149 8.2673,-8.6491 13.8738,-25.9239 20.15179,-26.3811 z m 33.043,1.1649 c 1.473,-0.026 3.902,1.5224 8.0341,5.9115 8.5661,9.0992 23.1468,41.5888 37.2373,50.37719 -11.6908,5.8433 -20.1009,-14.34969 -29.8064,-29.41969 -6.4784,-10.0591 -18.7937,-17.1174 -17.7716,-23.3285 0.3151,-1.9148 0.8336,-3.5144 2.3066,-3.5405 z M 119.86632,740.84396 c 0.1547,-0.01 0.2693,0.019 0.3407,0.078 0.1401,0.1188 0.1365,0.3329 -0.024,0.6492 -0.1391,0.3332 -0.3503,0.6929 -0.6354,1.0773 -0.2681,0.36399 -0.5494,0.72119 -0.8379,1.06809 l -0.6124,0.7321 c -0.7297,1.085 -1.4906,2.2127 -2.2882,3.3793 -0.7602,1.1633 -1.5282,2.3563 -2.302,3.5774 -2.1684,3.4794 -4.3036,6.9152 -6.4042,10.313 -2.0801,3.4147 -4.2949,6.8062 -6.6436,10.1702 -0.648202,0.9457 -1.369502,1.9177 -2.163902,2.9144 -0.7569,0.9933 -1.5969,1.9366 -2.5138,2.8315 -0.8793,0.8914 -1.828699,1.7049 -2.854399,2.4401 -0.98842,0.7318 -2.04879,1.3157 -3.17683,1.7587 -0.50966,0.1978 -0.88187,0.2169 -1.12338,0.051 -0.24136,-0.1664 -0.23242,-0.4504 0.0323,-0.8517 1.4119,-2.0715 2.80827,-4.1025 4.18961,-6.0958 1.4188,-1.9966 2.788999,-4.0551 4.102199,-6.174 1.2388,-1.9047 2.5355,-3.9477 3.899602,-6.1279 1.4017,-2.1836 2.7507,-4.3241 4.047,-6.4226 1.3337,-2.102 2.5682,-4.0643 3.7016,-5.8839 1.1505,-1.8401 2.0951,-3.3681 2.8315,-4.5857 0.098,-0.1598 0.3615,-0.4101 0.7827,-0.7504 0.4415,-0.3233 0.9607,-0.6825 1.5653,-1.0774 0.6047,-0.3949 1.2451,-0.7906 1.9245,-1.19239 0.6964,-0.4222 1.3437,-0.7868 1.9383,-1.0865 0.6319,-0.3032 1.1803,-0.5219 1.639,-0.6584 0.2378,-0.078 0.4301,-0.124 0.5847,-0.1334 z m 230.46347,0.4374 c 0.3843,0.024 0.7626,0.1544 1.1326,0.3914 0.7259,0.4516 1.387,1.0681 1.9797,1.85539 0.5927,0.7873 1.0792,1.6117 1.4641,2.4677 0.4073,0.8419 0.6677,1.4762 0.7827,1.9061 0.026,0.1407 0.1313,0.2077 0.3085,0.1888 0.7655,0.019 1.3771,0.2084 1.8324,0.5801 0.3759,0.2961 0.6365,0.7423 0.7919,1.3352 0.1412,0.5704 0.2208,1.0588 0.2255,1.4641 -0.046,0.3745 -0.1546,0.5812 -0.3176,0.6215 -0.1631,0.04 -0.3785,0.021 -0.6492,-0.06 -0.1749,-0.078 -0.478,-0.135 -0.9116,-0.1749 -0.4112,-0.057 -0.7496,-0.061 -1.0083,-0.024 -0.2918,2.0701 -0.8728,4.0043 -1.7403,5.8103 -0.8816,1.7837 -1.9403,3.4818 -3.186,5.0875 -0.2512,0.3476 -0.5554,0.6905 -0.9023,1.0359 -0.3388,0.3087 -0.6775,0.5928 -1.0222,0.8425 -0.3364,0.2131 -0.641,0.3719 -0.9162,0.4834 -0.2668,0.075 -0.4539,0.051 -0.5616,-0.069 -0.1064,-0.1205 -0.1368,-0.2868 -0.088,-0.5065 0.05,-0.2197 0.1365,-0.4506 0.267,-0.6906 0.1167,-0.2624 0.2508,-0.5055 0.396,-0.7228 0.1308,-0.24 0.2395,-0.4322 0.3315,-0.5847 0.8831,-1.5332 1.7031,-3.0742 2.4539,-4.6179 0.7366,-1.566 1.3842,-3.4214 1.9429,-5.5662 -0.9756,0.1464 -1.9534,0.2119 -2.9327,0.2025 -0.9794,-0.01 -1.8689,-0.2926 -2.6658,-0.8564 -0.6302,-0.4494 -1.0665,-1.1444 -1.3167,-2.0856 -0.1306,-0.7028 -0.1688,-1.4482 -0.1059,-2.2422 0.085,-0.8081 0.261,-1.5948 0.5295,-2.3618 0.2685,-0.7669 0.6224,-1.4507 1.0635,-2.04419 0.4494,-0.6302 1.0001,-1.102 1.6483,-1.418 0.3985,-0.1898 0.7898,-0.2725 1.174,-0.2487 z m 0.1565,4.53039 0,0 c -0.1497,0.024 -0.2984,0.071 -0.4512,0.152 -0.2975,0.1257 -0.5705,0.3144 -0.8195,0.5663 -0.2265,0.2377 -0.3999,0.5067 -0.5248,0.8057 -0.1245,0.2991 -0.166,0.5607 -0.1198,0.7827 0.545,0.3148 1.2004,0.4784 1.9659,0.4972 0.7514,0 1.4959,-0.1136 2.2376,-0.3315 -0.054,-0.1855 -0.1285,-0.4056 -0.2256,-0.6583 -0.1113,-0.2752 -0.2489,-0.536 -0.4052,-0.7827 -0.1563,-0.2468 -0.3339,-0.4631 -0.5433,-0.6446 -0.1869,-0.1959 -0.4111,-0.3197 -0.6675,-0.3775 -0.1467,-0.033 -0.2969,-0.038 -0.4466,-0.014 z m -223.38247,5.4281 17.42619,3.2504 c 0.4077,0.1016 0.4542,0.2687 0.1429,0.5111 l -3.5957,2.3895 c -0.232,0.1671 -0.4936,0.2046 -0.7827,0.115 l -17.87279,-3.0617 c -0.5478,-0.128 -0.6288,-0.3213 -0.244,-0.5801 l 3.7246,-2.4401 c 0.3278,-0.17 0.7293,-0.2329 1.2016,-0.1841 z m 255.70267,0.06 c 0.5621,-0.019 1.114,0 1.6575,0.069 1.08699,0.1287 2.11099,0.4572 3.07089,0.9806 0.9598,0.5235 1.8112,1.2904 2.546,2.302 0.4484,0.6587 0.8637,1.4938 1.2523,2.5046 0.3886,1.0108 0.717,2.0722 0.9853,3.1906 0.2764,1.0818 0.4865,2.1607 0.6307,3.232 0.1299,1.0489 0.161,1.9401 0.092,2.675 -0.055,0.1607 -0.1304,0.3454 -0.2164,0.5571 -0.064,0.1973 -0.1862,0.3931 -0.3821,0.5801 -2.7306,2.7343 -5.9927,5.6746 -9.77899,8.8259 -3.778,3.1147 -7.9208,6.3545 -12.4262,9.7099 -4.4973,3.3186 -9.2543,6.6927 -14.2771,10.1242 -5.037,3.4091 -10.1697,6.7693 -15.3958,10.0782 l -1.4135,0.8932 c -0.01,0 -0.021,0 -0.028,0 -0.012,0.01 -0.024,0.034 -0.037,0.041 l -1.6022,0.6998 c -0.5599,0.2437 -1.166,0.4901 -1.8094,0.7412 -0.6297,0.2162 -1.3222,0.4177 -2.081,0.6032 0.2543,0.5842 0.5227,1.2309 0.8057,1.9475 0.2829,0.7164 0.547,1.4571 0.7918,2.2191 0.2693,0.7514 0.4959,1.511 0.6815,2.2698 0.2098,0.7483 0.358,1.4457 0.4419,2.104 0.3452,2.4556 0.2462,4.8609 -0.2946,7.2099 -0.5165,2.33859 -1.3925,4.51819 -2.6289,6.53309 -1.2259,2.0393 -2.7508,3.857 -4.5718,5.4604 -1.786,1.6172 -3.7808,2.9202 -5.9852,3.9088 -1.9854,0.8933 -3.9767,1.4733 -5.9761,1.7357 -1.9994,0.2624 -3.8993,0.1476 -5.7043,-0.3407 -1.7807,-0.4987 -3.419,-1.3923 -4.9079,-2.6841 -1.4889,-1.2917 -2.7111,-3.0349 -3.6648,-5.2256 -0.5511,-1.2657 -1.0194,-2.6221 -1.4181,-4.0699 -0.3637,-1.4342 -0.62879,-2.8977 -0.78729,-4.39229 -0.1473,-1.4702 -0.197,-2.9438 -0.1426,-4.4152 0.079,-1.482 0.2628,-2.8909 0.54789,-4.2311 0.037,-0.2476 0.1301,-0.4062 0.2762,-0.4696 0.1599,-0.099 0.3101,-0.1068 0.4604,-0.028 0.1641,0.044 0.3007,0.1565 0.4098,0.3407 0.1334,0.1735 0.1961,0.4126 0.1796,0.709 -0.085,1.6005 -0.01,3.1727 0.2303,4.7191 0.2634,1.5358 0.6801,2.9628 1.2524,4.2772 0.5933,1.36309 1.3754,2.55559 2.3434,3.58189 0.9923,1.0157 2.1405,1.7922 3.4438,2.325 1.3276,0.5224 2.7868,0.7532 4.383,0.6952 1.5962,-0.058 3.3047,-0.4976 5.1197,-1.3167 1.4742,-0.6707 2.9887,-1.5464 4.5442,-2.6289 1.5661,-1.0582 3.0152,-2.2543 4.3462,-3.58649 1.3309,-1.3323 2.4599,-2.7963 3.3885,-4.3877 0.9636,-1.5776 1.5692,-3.2134 1.814,-4.9125 -0.5605,-1.0879 -1.3344,-2.199 -2.3204,-3.3333 -0.9617,-1.1448 -2.025,-2.2456 -3.1814,-3.3057 -1.1564,-1.06 -2.343,-2.0335 -3.5681,-2.9189 -1.2008,-0.896 -2.3255,-1.6507 -3.3748,-2.2652 0.019,-1.4851 0.054,-2.9341 0.1059,-4.3462 0.065,-1.447 0.1053,-2.9117 0.1242,-4.3968 0,-0.4043 0.2176,-0.499 0.6584,-0.2855 0.9518,0.6569 1.931,1.3997 2.9327,2.2376 0.9912,0.8135 1.8919,1.4923 2.7072,2.035 0.4934,0.335 1.0245,0.5241 1.593,0.5663 0.5822,0.01 1.1624,-0.057 1.7403,-0.1933 0.5916,-0.1707 1.1713,-0.3778 1.7311,-0.6216 l 1.5286,-0.6675 0.8793,-0.3822 0.037,-0.019 0.024,-0.014 0.8425,-0.5387 c 2.2878,-1.4485 4.615,-2.9051 6.9843,-4.3738 2.3694,-1.4687 4.8325,-3.0127 7.3894,-4.6316 2.5653,-1.6556 5.2423,-3.429 8.0341,-5.3223 2.8142,-1.9074 5.8085,-4.0042 8.9778,-6.2937 3.1918,-2.3036 6.5887,-4.8321 10.1887,-7.5828 3.6083,-2.7873 7.4902,-5.8849 11.64359,-9.3001 -0.4851,-0.6669 -1.0611,-1.199 -1.7219,-1.5976 -0.6609,-0.3986 -1.3544,-0.6541 -2.081,-0.7597 -0.74089,-0.128 -1.49519,-0.1042 -2.26519,0.069 -0.7701,0.1733 -1.5064,0.4992 -2.21,0.9761 -2.8284,1.885 -5.7286,3.9865 -8.6923,6.3029 -2.9414,2.3021 -5.9722,4.6605 -9.093,7.0764 -3.1349,2.3933 -6.3507,4.7753 -9.6546,7.15 -3.2957,2.338 -6.7072,4.4941 -10.2302,6.4732 -0.9622,0.515 -2.0195,1.0505 -3.1813,1.5976 -1.1536,0.5105 -2.2755,0.9208 -3.3656,1.2339 -1.09,0.3131 -2.0767,0.4675 -2.9603,0.4604 -0.8754,-0.043 -1.5177,-0.3756 -1.9153,-1.0036 -0.6391,-1.0094 -1.1281,-2.1634 -1.4733,-3.4531 -0.3594,-1.3121 -0.6029,-2.6657 -0.7321,-4.0607 -0.1209,-1.4317 -0.1456,-2.8308 -0.069,-4.1989 0.099,-1.3823 0.2744,-2.6398 0.5294,-3.7753 0.3584,-1.7665 0.9094,-3.4809 1.6483,-5.1427 0.7246,-1.6842 1.5732,-3.3179 2.546,-4.9079 0.9729,-1.59 2.0369,-3.114 3.1906,-4.5672 1.1537,-1.4531 2.328,-2.8258 3.5221,-4.1159 0.3021,-0.3173 0.6569,-0.45 1.0681,-0.396 0.4194,0.017 0.6611,0.2739 0.7228,0.7689 0.2129,1.2791 0.3899,2.5494 0.5295,3.8121 0.1478,1.2261 0.293,2.4712 0.4328,3.7339 -0.5406,0.4365 -1.2231,1.1041 -2.0396,1.9981 -0.8165,0.894 -1.6637,1.9345 -2.546,3.1215 -0.8965,1.1647 -1.7871,2.4151 -2.6658,3.7569 -0.8703,1.3052 -1.613,2.6097 -2.2329,3.9135 -0.6341,1.2811 -1.0899,2.4966 -1.3674,3.6463 -0.2915,1.1273 -0.3059,2.0822 -0.037,2.8545 0.2743,0.2346 0.7474,0.2772 1.4134,0.1382 0.6744,-0.1757 1.46,-0.4475 2.3527,-0.8242 0.8785,-0.3991 1.81,-0.8659 2.7947,-1.395 0.9846,-0.5292 1.9195,-1.0616 2.8084,-1.593 0.889,-0.5314 1.6804,-1.0146 2.3757,-1.4548 0.7035,-0.4769 1.22,-0.8327 1.5423,-1.0682 2.2759,-1.5666 4.5837,-3.2029 6.9291,-4.9079 2.3454,-1.7049 4.6415,-3.3938 6.883,-5.0644 2.2639,-1.6848 4.4208,-3.3147 6.4686,-4.8941 2.0561,-1.616 3.9377,-3.1087 5.6492,-4.4751 0.871,-0.7086 1.8214,-1.3579 2.8591,-1.9521 1.0459,-0.6308 2.1399,-1.1463 3.2688,-1.5469 1.1372,-0.4372 2.2828,-0.7568 3.4438,-0.9576 0.5806,-0.1005 1.1507,-0.1608 1.7127,-0.1797 z m -259.86927,6.4917 17.42619,3.2458 c 0.43,0.116 0.4807,0.2822 0.1612,0.488 l -3.6141,2.4171 c -0.2687,0.1752 -0.526,0.203 -0.7643,0.083 l -17.88659,-3.0295 c -0.2442,-0.061 -0.3951,-0.152 -0.442,-0.2762 -0.024,-0.1098 0.041,-0.2122 0.1933,-0.3039 l 3.7247,-2.4447 c 0.3277,-0.1702 0.7293,-0.2282 1.2016,-0.1796 z m 5.3867,13.3424 c 0.097,-0.016 0.1841,9e-4 0.2624,0.051 0.1568,0.1 0.194,0.2669 0.1106,0.4972 l -4.6409,15.6859 c -0.4943,1.6678 -0.818,3.0874 -0.9622,4.2542 -0.1075,1.1585 -0.019,2.1848 0.2578,3.0847 0.2914,0.8775 0.7819,1.6838 1.4825,2.4125 0.7373,0.7205 1.7139,1.4683 2.9236,2.2375 l 0.5985,0.3775 0.1289,0.055 0.9807,0.4466 c 0.8951,0.4045 1.8908,0.8069 2.988,1.2155 1.10809,0.3843 2.25679,0.7155 3.44379,0.9898 1.2112,0.2852 2.4272,0.4896 3.6556,0.6077 1.2284,0.1181 2.4043,0.094 3.5267,-0.069 -0.2675,-0.7619 -0.6043,-1.5374 -1.0037,-2.3297 -0.3885,-0.8164 -0.9047,-1.5013 -1.5562,-2.0579 -0.6757,-0.5676 -1.3358,-0.9423 -1.9843,-1.1188 -0.6485,-0.1752 -1.3508,-0.1747 -2.104,0.01 -0.4239,0.1 -0.7744,0.032 -1.0452,-0.2072 -0.26,-0.2631 -0.2428,-0.6499 0.046,-1.1602 0.7177,-1.3945 1.6116,-2.5634 2.6796,-3.5083 1.103,-0.9581 2.3156,-1.6469 3.6417,-2.0672 1.3613,-0.4353 2.8206,-0.5761 4.3831,-0.4236 1.5866,0.1636 3.2461,0.6527 4.9769,1.4641 1.1019,0.5272 2.1296,1.1509 3.0847,1.8739 0.9902,0.7097 1.8029,1.5 2.4309,2.3664 0.6391,0.8425 1.0446,1.7381 1.2247,2.6934 0.2041,0.9663 0.074,1.9708 -0.3959,3.011 -0.3171,0.7015 -0.7888,1.361 -1.4181,1.9797 -0.5941,0.6055 -1.2457,1.1442 -1.9521,1.6114 -0.6823,0.4783 -1.3561,0.8721 -2.0212,1.1833 -0.6408,0.3221 -1.1611,0.5384 -1.5607,0.6492 0.5366,1.2621 1.3002,2.3397 2.2974,3.2274 1.0323,0.8744 2.3283,1.6621 3.8766,2.3618 l 0.9024,0.4052 0.1289,0.06 0.115,0.037 0.8748,0.2763 c 0.8344,0.2669 1.7105,0.5352 2.6289,0.8011 0.9264,0.2405 1.8507,0.4086 2.767,0.5064 0.9416,0.1061 1.8664,0.097 2.7716,-0.032 0.9052,-0.1284 1.7669,-0.4368 2.5921,-0.9254 0.6836,-0.3945 1.2807,-0.8599 1.7863,-1.395 0.5309,-0.527 1.0549,-1.1663 1.5746,-1.9199 0.1983,-0.271 0.4271,-0.463 0.686,-0.5755 0.2842,-0.1037 0.5307,-0.1362 0.7413,-0.097 0.2437,0.021 0.4066,0.1138 0.4926,0.2808 0.086,0.1669 0.05,0.3769 -0.115,0.6308 -0.1799,0.3884 -0.3451,0.7302 -0.4927,1.0175 -0.1143,0.27 -0.2149,0.5459 -0.3038,0.8241 -0.064,0.2862 -0.1181,0.5712 -0.1566,0.8656 -0.014,0.3023 0.01,0.6736 0.064,1.1095 0.06,0.7717 0.2717,1.4526 0.6399,2.0442 0.3936,0.5997 0.8668,1.1287 1.4181,1.5838 0.5765,0.4631 1.2143,0.8614 1.9153,1.197 0.7009,0.3357 1.4098,0.616 2.1178,0.8426 l 1.0221,0.3269 0.1657,0.055 c 0.012,0 0.025,-0.01 0.037,0 l 17.8176,4.3462 0.3683,0.019 0.953,0.046 c 1.5382,0.07 2.92,0.038 4.1483,-0.092 1.2283,-0.1304 2.3591,-0.4109 3.3885,-0.8426 1.0294,-0.4317 1.9871,-1.0395 2.8729,-1.8232 0.8859,-0.7837 1.7676,-1.7937 2.6473,-3.0294 0.1158,-0.2075 0.2734,-0.373 0.465,-0.4973 0.1917,-0.1242 0.3762,-0.1843 0.5617,-0.1749 0.1858,0.01 0.3329,0.084 0.4328,0.2209 0.1264,0.1386 0.1641,0.354 0.1242,0.6446 -0.098,0.3941 -0.2312,0.8533 -0.4143,1.3766 -0.182,0.4966 -0.3946,1.0031 -0.6308,1.5239 -0.2362,0.5208 -0.4958,1.0171 -0.7827,1.4825 -0.2602,0.4665 -0.5307,0.8494 -0.8103,1.1556 0.9198,0.2277 1.9182,0.4097 3.0019,0.5387 1.0849,0.1051 2.15029,0.1089 3.19049,0.024 1.0415,-0.1122 2.0223,-0.3475 2.942,-0.7045 0.9474,-0.3823 1.7149,-0.9457 2.3066,-1.6896 0.6159,-0.6896 1.1407,-1.4232 1.5746,-2.2008 0.4616,-0.8029 0.9209,-1.5946 1.3812,-2.371 0.2025,-0.3629 0.4275,-0.601 0.6722,-0.7229 0.2447,-0.1218 0.4568,-0.1534 0.64,-0.092 0.2109,0.036 0.3674,0.1501 0.465,0.3407 0.098,0.1904 0.098,0.445 0,0.7596 -0.1615,0.6305 -0.3472,1.255 -0.5617,1.8831 -0.1867,0.6028 -0.4002,1.209 -0.64,1.8094 0.067,0.2953 0.4244,0.6644 1.0682,1.1187 0.6703,0.4556 1.431,0.9024 2.2882,1.3398 0.8848,0.4121 1.7599,0.7576 2.6243,1.0359 0.8909,0.2813 1.609,0.3711 2.1454,0.2624 0.4062,-0.1676 0.7859,-0.4763 1.151,-0.9116 0.3917,-0.434 0.7488,-0.9455 1.0682,-1.5423 0.3458,-0.5956 0.6509,-1.2365 0.9208,-1.9153 0.2711,-0.7052 0.5047,-1.3941 0.6952,-2.0764 0.123,-0.3664 0.3088,-0.655 0.5571,-0.8563 0.2483,-0.2013 0.4921,-0.3058 0.732,-0.3223 0.2411,-0.042 0.4409,0.01 0.5939,0.1473 0.1796,0.141 0.2582,0.3724 0.244,0.6906 -0.049,1.0873 0.012,2.0859 0.1841,2.9972 0.1978,0.9125 0.5597,1.7105 1.0866,2.3987 0.5546,0.6629 1.3145,1.2049 2.279,1.6206 0.9656,0.3892 2.1889,0.61429 3.674,0.68139 l 0.9991,0.051 0.442,-0.083 c 0.8614,-0.15929 1.7433,-0.34949 2.6473,-0.57089 0.904,-0.2213 1.7651,-0.5463 2.5782,-0.9668 0.8132,-0.4205 1.5191,-0.9696 2.1225,-1.6482 0.6033,-0.6787 1.0228,-1.5505 1.2569,-2.6197 0.1926,-0.7106 0.4144,-1.5597 0.663,-2.5507 0.2437,-1.017 0.5209,-2.0699 0.8333,-3.1537 0.3337,-1.1147 0.7112,-2.2211 1.128,-3.3241 0.4119,-1.1292 0.895,-2.1527 1.4548,-3.0663 0.5599,-0.9136 1.1869,-1.678 1.8831,-2.2928 0.6913,-0.6409 1.4725,-1.027 2.3388,-1.1602 0.731,-0.1353 1.4916,-0.021 2.2882,0.3453 0.7966,0.3655 1.5703,0.8995 2.3204,1.5976 0.7502,0.6981 1.4747,1.52 2.1639,2.4723 0.6893,0.9524 1.2884,1.9604 1.8094,3.0249 0.5162,1.0384 0.9312,2.0997 1.2385,3.1768 0.3074,1.077 0.4625,2.0714 0.4696,2.988 -7e-4,0.4321 -0.039,1.0718 -0.1242,1.9245 -0.09,0.8266 -0.2448,1.6937 -0.4558,2.5966 -0.1895,0.8721 -0.4307,1.6842 -0.7228,2.4402 -0.2921,0.75599 -0.6444,1.26819 -1.0544,1.53309 -0.4099,0.2648 -1.1722,0.4341 -2.2928,0.5064 -1.0992,0.042 -2.3487,0 -3.7476,-0.115 -1.4038,-0.1452 -2.8321,-0.366 -4.291,-0.663 -1.4376,-0.3279 -2.6915,-0.74749 -3.7568,-1.25229 -0.415,1.69669 -0.9788,3.16669 -1.6943,4.40609 -0.7204,1.2132 -1.5184,2.2393 -2.3895,3.0755 -0.8499,0.8052 -1.7193,1.4357 -2.6059,1.8968 -0.8653,0.4302 -1.6632,0.7165 -2.3941,0.8518 l -1.5654,0.2854 c -0.031,0.01 -0.1093,-0.087 -0.1518,-0.1058 -0.019,0.01 -0.057,0.07 -0.073,0.069 l -1.7449,-0.083 c -1.4322,-0.065 -2.6852,-0.2921 -3.7569,-0.686 -1.0706,-0.4206 -1.9921,-0.9264 -2.7624,-1.5194 -0.7439,-0.5917 -1.3643,-1.2282 -1.8647,-1.9152 -0.4992,-0.7136 -0.895,-1.4129 -1.1832,-2.0903 -0.676,1.431 -1.4035,2.5804 -2.1869,3.4484 -0.7822,0.8416 -1.4548,1.3004 -2.0166,1.3813 -0.9378,0.1701 -1.9713,0.086 -3.0985,-0.2579 -1.1271,-0.3433 -2.2193,-0.8062 -3.2826,-1.3858 -1.0368,-0.5785 -1.9702,-1.2035 -2.7901,-1.8784 -0.8186,-0.7015 -1.3747,-1.2992 -1.6712,-1.791 -0.8822,1.2888 -1.9898,2.287 -3.3241,2.9972 -1.3078,0.7115 -2.711,1.1694 -4.20809,1.3674 -1.4707,0.1992 -2.9444,0.1599 -4.4199,-0.1197 -1.449,-0.2782 -2.7431,-0.761 -3.8812,-1.4503 -0.5448,0.2942 -1.1425,0.5601 -1.7909,0.7965 -0.6485,0.2364 -1.3187,0.4303 -2.0166,0.5847 -0.6967,0.1278 -1.3959,0.2289 -2.0902,0.3039 -0.6931,0.049 -1.3422,0.06 -1.9521,0.032 l -1.6713,-0.078 c -0.046,0 -0.1025,-0.045 -0.1565,-0.083 l -19.2586,-4.535 c 0,0 -0.014,-0.014 -0.014,-0.014 -0.01,0 -0.036,0.025 -0.046,0.023 l -0.686,-0.2208 -1.0221,-0.327 c -1.1126,-0.3558 -2.152,-0.8532 -3.1169,-1.4962 -0.965,-0.6432 -1.808,-1.40169 -2.5323,-2.27439 -0.6909,-0.89 -1.2278,-1.8835 -1.6021,-2.9788 -0.3492,-1.0872 -0.4762,-2.2562 -0.3822,-3.5083 -1.6634,1.9765 -3.6534,3.2752 -5.9714,3.8996 -2.3099,0.5991 -4.829,0.4636 -7.5598,-0.4098 l -0.8333,-0.267 -0.6124,-0.1933 c 0,-9e-4 -0.01,0 -0.01,0 l -0.032,-0.014 -0.069,-0.024 c -0.01,0 -0.012,-0.016 -0.019,-0.019 l -1.4457,-0.6537 c -1.5966,-0.7216 -2.9392,-1.4892 -4.0285,-2.302 -1.0541,-0.8261 -1.938,-1.7083 -2.6519,-2.6427 -0.7139,-0.9345 -1.2844,-1.9199 -1.7173,-2.9604 -0.4329,-1.0405 -0.8172,-2.1494 -1.1602,-3.3241 -1.5853,0.4779 -3.1873,0.793 -4.7974,0.9392 -1.5859,0.1565 -3.1389,0.1801 -4.6639,0.073 -1.51409,-0.1308 -2.97369,-0.3823 -4.37839,-0.755 -1.3806,-0.3618 -2.6555,-0.8058 -3.8167,-1.3306 l -1.2938,-0.5847 c -0.055,0 -0.1214,0 -0.1612,-0.024 l -1.4411,-0.9208 c -2.3969,-1.5243 -3.9706,-3.4825 -4.7145,-5.8747 -0.7438,-2.3922 -0.8305,-5.2304 -0.2532,-8.5128 -0.8855,0.6009 -1.8537,1.0674 -2.9144,1.3996 -1.024,0.324 -2.0957,0.5228 -3.2136,0.5985 -1.0811,0.068 -2.1894,0.028 -3.3194,-0.1242 -1.1159,-0.1747 -2.1848,-0.4467 -3.2091,-0.8149 -0.9203,-0.3337 -1.86,-0.7398 -2.813,-1.2201 -0.953,-0.4802 -1.8513,-0.9918 -2.702602,-1.5331 -0.8146,-0.5495 -1.5086,-1.1193 -2.081,-1.7035 -0.5723,-0.5842 -0.928,-1.1579 -1.0727,-1.7219 -0.1365,-0.5273 -0.029,-1.2393 0.3269,-2.1455 0.3927,-0.9143 0.8701,-1.8389 1.4318,-2.7716 0.5984,-0.9409 1.2251,-1.8028 1.8785,-2.5829 0.667602,-0.8024 1.217202,-1.3497 1.652802,-1.639 0.2037,-0.1221 0.3819,-0.132 0.5387,-0.032 0.1791,0.1141 0.2672,0.2789 0.2578,0.4927 -0.083,0.9223 0,1.699 0.2578,2.3342 0.271,0.6128 0.7822,1.1923 1.5378,1.7357 0.8003,0.5719 1.8277,1.2086 3.0801,1.9107 1.2523,0.7021 2.5654,1.3141 3.9318,1.837 1.3888,0.5371 2.7692,0.9144 4.1436,1.128 1.3968,0.2277 2.6443,0.1369 3.7477,-0.2625 l 4.2449,-13.4897 4.6546,-3.1676 c 0.116,-0.083 0.2252,-0.14 0.3223,-0.1565 z m 62.83109,6.1878 c 0.1848,0.031 0.3038,0.082 0.3637,0.1565 0.068,0.05 0.03,0.1625 -0.1106,0.3407 l -2.988,3.7247 c -0.1992,0.1871 -0.4192,0.2768 -0.6629,0.2532 l -18.6325,1.395 c -0.2519,0 -0.4042,-0.042 -0.4558,-0.1426 -0.069,-0.1334 -0.042,-0.2638 0.083,-0.3914 l 3.0801,-3.743 c 0.2741,-0.2468 0.6288,-0.4072 1.0728,-0.488 l 18.2503,-1.105 z m 68.11189,7.5506 c 0.8807,-0.055 1.5752,0.279 2.0856,0.9945 0.5056,0.6894 0.8847,1.5072 1.1418,2.4585 0.257,0.9514 0.4079,1.8983 0.4466,2.8361 0.067,0.933 0.072,1.6208 0.019,2.0626 -0.028,0.14 0.041,0.2362 0.2117,0.2855 0.7038,0.3017 1.1983,0.7056 1.4825,1.22 0.2393,0.4148 0.3206,0.9297 0.244,1.5378 -0.081,0.582 -0.1945,1.0584 -0.3407,1.4364 -0.1817,0.3307 -0.3541,0.4886 -0.5202,0.465 -0.1662,-0.023 -0.3588,-0.124 -0.5802,-0.2992 -0.1334,-0.1375 -0.395,-0.3085 -0.7826,-0.5065 -0.3616,-0.2029 -0.6712,-0.3305 -0.9254,-0.3913 -1.0416,1.8126 -2.3025,3.3934 -3.7799,4.7467 -1.4823,1.3273 -3.0988,2.5048 -4.8527,3.5313 -0.3625,0.2291 -0.7695,0.4393 -1.22,0.6308 -0.4293,0.1605 -0.8487,0.2924 -1.2616,0.3959 -0.3915,0.072 -0.7344,0.1096 -1.0313,0.1106 -0.2756,-0.03 -0.442,-0.1245 -0.4972,-0.2763 -0.055,-0.1518 -0.021,-0.3163 0.1058,-0.5018 0.1276,-0.1855 0.2957,-0.3693 0.5065,-0.5433 0.206,-0.2001 0.4199,-0.3725 0.6353,-0.5203 0.2108,-0.1739 0.3874,-0.3163 0.5295,-0.4235 1.3904,-1.0943 2.7202,-2.2169 3.9917,-3.3702 1.2666,-1.1793 2.5596,-2.6602 3.8766,-4.4428 -0.96,-0.2273 -1.8934,-0.5255 -2.7993,-0.8978 -0.9058,-0.3723 -1.6249,-0.9711 -2.1547,-1.791 -0.4175,-0.6517 -0.5646,-1.455 -0.4465,-2.4217 0.1402,-0.7009 0.3825,-1.4136 0.7366,-2.1271 0.38,-0.7183 0.8373,-1.3816 1.372,-1.9935 0.5347,-0.612 1.1191,-1.1143 1.7495,-1.5009 0.6517,-0.4176 1.3387,-0.6524 2.058,-0.7045 z m 31.5605,1.9199 c 0.2207,0.012 0.4431,0.045 0.663,0.1014 0.8691,0.2006 1.6748,0.5904 2.4171,1.1648 0.7317,0.55 1.3662,1.2032 1.8969,1.9567 0.555,0.7428 0.9644,1.4172 1.2292,2.0257 0.3392,0.7789 0.549,1.6309 0.6308,2.5507 0.082,0.9198 0.01,1.8182 -0.2164,2.6979 -0.2357,0.8554 -0.6535,1.6551 -1.2523,2.4079 -0.6094,0.7286 -1.4224,1.3183 -2.4447,1.7634 -0.6329,0.2755 -1.2942,0.421 -1.9844,0.4328 -0.6901,0.012 -1.3555,-0.091 -1.9981,-0.3039 -0.6289,-0.2474 -1.2137,-0.5894 -1.7495,-1.0221 -0.5465,-0.4571 -0.9741,-1.0062 -1.2846,-1.6529 -0.2967,-0.6815 -0.5333,-1.563 -0.7136,-2.6427 -0.1563,-1.0901 -0.1947,-2.201 -0.1106,-3.3379 0.1085,-1.1474 0.3893,-2.2312 0.8472,-3.2412 0.4472,-1.0344 1.1374,-1.8412 2.0718,-2.4217 0.6699,-0.3567 1.3358,-0.5163 1.9981,-0.4788 z m -32.3939,2.5276 c -0.3229,0.01 -0.6511,0.085 -0.976,0.2256 -0.2988,0.1362 -0.5601,0.3166 -0.7873,0.5479 -0.227,0.231 -0.3607,0.4581 -0.4005,0.6813 0.3885,0.4951 0.9352,0.8908 1.639,1.1925 0.699,0.2756 1.4358,0.4559 2.2053,0.5294 0.019,-0.1923 0.024,-0.4244 0.028,-0.6952 -7e-4,-0.2967 -0.025,-0.5922 -0.078,-0.8793 -0.053,-0.2872 -0.1405,-0.55 -0.267,-0.7965 -0.1004,-0.2514 -0.2624,-0.4498 -0.4788,-0.5986 -0.2475,-0.1701 -0.5398,-0.2439 -0.884,-0.2072 z m -86.05369,1.5562 c 0.093,0.017 0.1822,0.06 0.267,0.1428 l 3.3471,5.2164 4.6455,-3.2873 c 0.3003,-0.1546 0.5033,-0.115 0.5985,0.1105 l 3.5773,5.5341 c 0.1445,0.1577 0.1038,0.3677 -0.1197,0.6307 l -5.1427,3.5359 c -0.3338,0.1721 -0.5496,0.1186 -0.6538,-0.1657 l -3.3057,-5.1105 -4.6822,3.2689 c -0.2751,0.1629 -0.4793,0.1103 -0.617,-0.1565 l -3.5635,-5.4466 c -0.1709,-0.2498 -0.1162,-0.4816 0.1749,-0.6952 l 5.1887,-3.5267 c 0.1002,-0.052 0.1929,-0.067 0.2855,-0.051 z m 48.57699,0.8425 c 1.0114,-0.034 1.8598,0.244 2.5506,0.8333 0.6921,0.5629 1.2438,1.2615 1.6575,2.104 0.4148,0.8161 0.6976,1.6866 0.8425,2.5967 0.1712,0.9113 0.2371,1.6943 0.2072,2.3573 -0.038,0.8486 -0.2211,1.7025 -0.5525,2.5644 -0.3313,0.862 -0.7918,1.6388 -1.3812,2.3297 -0.5881,0.6642 -1.3178,1.2036 -2.1869,1.616 -0.8679,0.3857 -1.8603,0.5569 -2.9742,0.5064 -0.6895,-0.031 -1.346,-0.1985 -1.9705,-0.4926 -0.62449,-0.294 -1.17389,-0.6727 -1.65739,-1.1464 -0.4558,-0.499 -0.8328,-1.0607 -1.1234,-1.6851 -0.2895,-0.6509 -0.4307,-1.3361 -0.4236,-2.0534 0.034,-0.7425 0.207,-1.64 0.5203,-2.6887 0.3397,-1.0477 0.7959,-2.0641 1.3719,-3.0479 0.6026,-0.9825 1.33119,-1.8269 2.18699,-2.5322 0.8569,-0.7319 1.8382,-1.1517 2.9327,-1.2615 z m 84.25359,0.1749 6.6344,1.9751 c 0.1534,0.021 0.2444,0.065 0.2762,0.1382 0.029,0.073 0.026,0.1904 -0.019,0.3545 l -2.0396,6.1878 c -0.1829,0.3108 -0.3876,0.4152 -0.6077,0.3084 l -6.639,-1.8876 c -0.2933,-0.075 -0.369,-0.2578 -0.2348,-0.5479 l 2.0718,-6.2016 c 0.1099,-0.2795 0.2988,-0.3879 0.5571,-0.3269 z m -13.45299,0.097 c -0.5335,-0.028 -1.0806,0.1115 -1.6436,0.4144 -0.3333,0.232 -0.6497,0.5414 -0.9438,0.93 -0.2941,0.3887 -0.5178,0.8088 -0.6722,1.2523 -0.165,0.4193 -0.2553,0.8453 -0.267,1.2845 -0.012,0.4394 0.087,0.8302 0.2946,1.1741 0.2426,0.3577 0.6985,0.5062 1.3674,0.4466 0.6933,-0.07 1.4061,-0.2622 2.1363,-0.5801 0.7546,-0.3285 1.4243,-0.7222 2.0073,-1.1787 0.6074,-0.4671 0.9468,-0.9174 1.0175,-1.3535 -0.1209,-0.4107 -0.3459,-0.7916 -0.6722,-1.1419 -0.3124,-0.3851 -0.6875,-0.6839 -1.128,-0.8977 -0.451,-0.2377 -0.949,-0.357 -1.4963,-0.35 z m -71.9148,4.9033 c -0.4014,0.062 -0.8172,0.195 -1.2523,0.4144 -0.4351,0.2195 -0.8217,0.4984 -1.1556,0.8287 -0.3326,0.3039 -0.5974,0.6511 -0.80109,1.0405 -0.2036,0.3894 -0.2929,0.7831 -0.2578,1.1833 0.06,0.4279 0.4044,0.7627 1.03129,1.0036 0.6534,0.2421 1.3775,0.3783 2.1731,0.4144 0.8221,0.038 1.596,-0.016 2.3204,-0.1704 0.751,-0.1521 1.2547,-0.4084 1.5101,-0.7689 0.072,-0.4219 0.042,-0.8633 -0.097,-1.3213 -0.111,-0.4834 -0.3201,-0.9173 -0.6215,-1.303 -0.3003,-0.4122 -0.6982,-0.7364 -1.1925,-0.9714 -0.4665,-0.2601 -1.0186,-0.3742 -1.6575,-0.3499 z m 47.4122,17.638 c -0.4012,0.021 -0.8356,0.1415 -1.3075,0.3638 -0.4718,0.2222 -0.9226,0.4976 -1.349,0.8195 -0.4264,0.3219 -0.7931,0.6842 -1.0957,1.0911 -0.3075,0.3809 -0.5049,0.7658 -0.594,1.1603 0.5588,0.2475 1.2172,0.4509 1.9752,0.6077 0.784,0.1518 1.5904,0.2737 2.4171,0.3637 0.8527,0.085 1.6986,0.1311 2.5368,0.1381 0.8643,0 1.6413,-0.032 2.3296,-0.1058 -0.144,-0.4863 -0.3818,-0.9824 -0.7182,-1.4871 -0.3151,-0.5356 -0.6922,-1.0217 -1.1234,-1.4549 -0.4359,-0.4592 -0.9173,-0.8264 -1.4549,-1.1049 -0.5114,-0.2834 -1.0533,-0.4149 -1.616,-0.3914 z m -143.00538,4.8757 17.18669,1.9107 c 0.1778,-0.01 0.2901,0.034 0.3407,0.115 0.04,0.1056 -0.01,0.2147 -0.1473,0.3269 l -3.2873,3.0156 c -0.2303,0.1874 -0.4699,0.237 -0.7228,0.1521 l -17.58269,-1.6114 c -0.2263,-0.014 -0.366,-0.09 -0.419,-0.2303 -0.029,-0.1297 0.021,-0.2388 0.1473,-0.3269 l 3.4254,-3.0433 c 0.2787,-0.1655 0.6328,-0.2679 1.059,-0.3085 z m -84.285855,13.07079 16.93357,75.9157 c 0.15699,0.7067 -0.11739,1.4395 -0.6998,1.8692 -13.00258,9.60204 -27.93933,8.74514 -44.7649,4.66844 9.50774,15.4001 30.42446,30.7177 53.576994,43.7566 l 38.181191,-49.28134 a 1.8295534,1.8295534 0 0 1 2.2606,-0.5202 c 0.2048,0.1014 0.4121,0.1935 0.6169,0.2947 l 46.82749,-4.3969 c -17.8112,-3.8978 -38.24889,-12.9538 -57.573292,-24.788 -21.990329,-13.4668 -42.403233,-30.4259 -55.358733,-47.5181 z m 391.332515,0 c -12.9555,17.0922 -33.3638,34.0513 -55.35419,47.5181 -19.3243,11.8342 -39.7655,20.8903 -57.5778,24.7881 l 46.8275,4.3968 c 0.2048,-0.1011 0.4121,-0.1933 0.6169,-0.2946 a 1.8295534,1.8295534 0 0 1 0.838,-0.1889 1.8295534,1.8295534 0 0 1 1.4226,0.7091 l 38.18109,49.28134 c 23.1526,-13.039 44.0693,-28.3565 53.577,-43.7566 -16.8256,4.0767 -31.7577,4.9335 -44.7603,-4.66844 -0.5824,-0.4298 -0.8568,-1.1626 -0.6998,-1.8692 l 16.929,-75.9157 z m -265.27907,74.7509 -53.53089,5.03219 c 14.8721,6.91915 30.07049,12.55735 45.54759,16.85065 l 7.9833,-21.88284 z m 139.22558,0 7.988,21.88284 c 15.477,-4.2933 30.6709,-9.9315 45.543,-16.85065 l -53.531,-5.03219 z m -200.04927,5.57089 -54.617495,70.49665 c 55.758195,35.78782 116.417485,55.51072 179.925075,55.51072 1.6955,0 3.3954,-0.021 5.1013,-0.051 a 1.8295534,1.8295534 0 0 1 0.06,0 c 1.7059,0.03 3.4057,0.051 5.1012,0.051 63.50759,0 124.16689,-19.7228 179.92518,-55.51072 l -54.61749,-70.49665 c -39.6414,19.41785 -81.71579,29.92145 -125.30769,29.92145 -1.7286,0 -3.4476,-0.024 -5.1657,-0.055 -1.6957,0.032 -3.3952,0.055 -5.1012,0.055 -43.59189,0 -85.66169,-10.5036 -125.30308,-29.92145 z m 215.44977,27.30635 c 0.1727,-0.08 0.3767,0.012 0.6169,0.2716 0.2648,0.2493 0.528,0.57 0.7827,0.9669 0.2419,0.3742 0.4687,0.7562 0.686,1.1418 l 0.4604,0.8149 c 0.7495,1.0544 1.5244,2.156 2.325,3.3011 0.8126,1.111 1.651,2.239 2.5138,3.384 2.4734,3.2308 4.9212,6.4132 7.3434,9.5533 2.4469,3.1286 4.8153,6.365 7.104,9.7099 0.6482,0.9297 1.291,1.9336 1.9291,3.011 0.65,1.0433 1.2181,2.1413 1.7081,3.2873 0.5019,1.1118 0.9007,2.2541 1.1925,3.4346 0.3036,1.1464 0.4413,2.299 0.4097,3.4576 -0.016,0.5225 -0.1556,0.86 -0.4144,1.0083 -0.2586,0.1482 -0.5263,0.031 -0.8057,-0.3545 -1.4233,-2.0295 -2.8155,-4.0308 -4.1758,-6.0037 -1.3484,-2.007 -2.7771,-3.9918 -4.2864,-5.953 -1.3329,-1.8139 -2.7756,-3.735 -4.3231,-5.7642 -1.5357,-2.0633 -3.0524,-4.0652 -4.5488,-6.0037 -1.4845,-1.9725 -2.8729,-3.8035 -4.1666,-5.4926 -1.3065,-1.7117 -2.3988,-3.1248 -3.2735,-4.2357 -0.1141,-0.1473 -0.2481,-0.4675 -0.4051,-0.9668 -0.1323,-0.5108 -0.2655,-1.1098 -0.4006,-1.791 -0.1348,-0.6811 -0.2573,-1.3961 -0.3683,-2.1454 -0.124,-0.7721 -0.2108,-1.4727 -0.2578,-2.1087 -0.035,-0.67 -0.024,-1.2352 0.032,-1.6897 0.042,-0.4771 0.1495,-0.7534 0.3223,-0.8333 z m -26.96579,8.011 c 0.096,0.055 0.2091,0.1747 0.3361,0.3545 0.3716,0.4625 0.821,0.9425 1.349,1.4457 0.528,0.5031 1.0935,0.9868 1.6943,1.4456 0.6199,0.4278 1.2568,0.8223 1.9152,1.1879 0.6777,0.3344 1.3316,0.5832 1.95669,0.7458 -0.39939,1.2324 -0.71089,2.2984 -0.92539,3.1952 -0.1878,0.8902 -0.088,1.6716 0.2901,2.3435 0.57439,1.1247 1.18389,2.4644 1.83239,4.0193 0.6753,1.5483 1.3501,3.1366 2.0211,4.7651 0.6711,1.6285 1.3266,3.2195 1.9752,4.7744 0.6485,1.5549 1.2332,2.8999 1.7541,4.0377 0.2755,0.6181 0.5152,1.3018 0.7136,2.0442 0.2178,0.7114 0.3508,1.4284 0.4006,2.1547 0.077,0.7197 0.044,1.4134 -0.097,2.081 -0.1141,0.6611 -0.3602,1.2233 -0.7366,1.6851 3.6368,0.1344 7.3479,0.078 11.1279,-0.1657 3.7993,-0.2751 7.8557,-0.7437 12.1684,-1.4089 0.5115,-0.021 0.7461,0.2369 0.709,0.7735 -0.056,0.5677 -0.1494,1.3038 -0.2762,2.2054 -0.1002,0.8949 -0.2093,1.7917 -0.3361,2.6933 -0.1341,0.877 -0.2717,1.6605 -0.4051,2.3527 -0.1066,0.6856 -0.1945,1.0909 -0.2717,1.2154 -0.05,0.1179 -0.1721,0.2422 -0.3637,0.3683 -0.1723,0.094 -0.4362,0.1295 -0.7873,0.1106 -3.046,0.012 -5.904,0.4497 -8.5727,1.3167 -2.6419,0.8609 -5.1697,2.1826 -7.5874,3.9641 -2.0229,1.4734 -4.0204,2.94122 -5.9898,4.40152 -1.977,1.4357 -4.0724,2.8105 -6.2891,4.1206 -2.21679,1.3101 -4.63559,2.5225 -7.25599,3.6417 -2.6203,1.1193 -5.5868,2.0893 -8.9041,2.9052 l -1.0037,0.244 -0.8057,0.198 c -0.084,0.021 -0.2093,-0.033 -0.3591,-0.1197 -0.1019,0.039 -0.1943,0.099 -0.3131,0.1013 l -26.2475,0.3729 c -0.088,0 -0.1646,-0.059 -0.244,-0.115 -0.033,0.012 -0.098,0.088 -0.1243,0.083 l -1.8554,-0.2625 c -0.6601,-0.093 -1.2214,-0.185 -1.685,-0.2762 -0.4362,-0.087 -1.0658,-0.2107 -1.8831,-0.3775 -0.3972,1.0982 -0.8947,2.3067 -1.4963,3.6325 -0.6016,1.326 -1.2874,2.6549 -2.058,3.9825 -0.747,1.3567 -1.5867,2.6756 -2.5184,3.9549 -0.9317,1.2792 -1.9313,2.4322 -2.9926,3.4622 -1.0613,1.0301 -2.1759,1.8723 -3.3471,2.5276 -1.1752,0.6805 -2.3889,1.0853 -3.6464,1.2155 -1.4579,0.153 -3.0481,0.06 -4.7652,-0.2855 -1.7171,-0.3453 -3.4561,-0.8239 -5.2163,-1.4318 -1.7328,-0.6041 -3.4102,-1.2782 -5.0368,-2.0212 -1.6541,-0.7469 -3.11929,-1.4551 -4.39229,-2.1225 -0.5225,-0.2534 -0.8815,-0.5478 -1.0819,-0.8839 -0.2004,-0.3361 -0.2549,-0.6387 -0.1565,-0.907 0.067,-0.2471 0.2822,-0.4328 0.6399,-0.5617 0.3577,-0.1289 0.8154,-0.1155 1.3813,0.041 2.62469,0.6531 5.39239,0.9538 8.29639,0.9024 2.9039,-0.051 5.7781,-0.4541 8.6233,-1.2063 1.4108,-0.3906 2.8348,-0.9694 4.2771,-1.7403 1.4385,-0.7459 2.8164,-1.6154 4.1252,-2.6105 1.3089,-0.995 2.5017,-2.0836 3.5866,-3.2642 1.1085,-1.1517 2.0311,-2.358 2.7624,-3.6142 -0.9469,-0.416 -1.7591,-0.8107 -2.4309,-1.1878 -0.6404,-0.3984 -1.2524,-0.873 -1.8416,-1.4181 -0.1926,-0.2067 -0.318,-0.4019 -0.373,-0.5893 -0.051,-0.2124 -0.038,-0.467 0.037,-0.7642 0.2637,-1.1428 0.5641,-2.3445 0.9024,-3.605 0.3423,-1.2856 0.7057,-2.5313 1.0912,-3.7339 0.1141,-0.3687 0.2758,-0.5095 0.488,-0.4281 0.2162,0.056 0.439,0.1782 0.663,0.3637 l 0,0 c 0.6207,0.5238 1.2518,0.9874 1.8922,1.3858 0.6404,0.3984 1.3279,0.7657 2.0626,1.1004 0.7662,0.3135 1.5943,0.5816 2.4862,0.8103 0.8919,0.2286 1.9017,0.4253 3.0295,0.5847 l 1.1141,0.1565 0.1334,0.019 25.2531,-0.3592 0.2854,-0.069 c 2.3008,-0.5659 4.6846,-1.193 7.1501,-1.8785 2.4579,-0.71 4.894,-1.5349 7.3112,-2.47232 2.4171,-0.9374 4.76769,-2.0012 7.04869,-3.1952 2.3003,-1.2252 4.4272,-2.6324 6.3858,-4.2219 -0.9269,-0.115 -2.0184,-0.1617 -3.278,-0.1429 -1.233,0.012 -2.548,0.083 -3.9457,0.2164 -1.3709,0.1261 -2.78489,0.3034 -4.24029,0.5295 -1.4287,0.2195 -2.8253,0.4977 -4.1897,0.8333 -1.3451,0.3045 -2.606,0.6555 -3.7799,1.0497 -1.1546,0.3631 -2.1405,0.7638 -2.9557,1.2017 -0.3178,0.1846 -0.6002,0.2404 -0.8518,0.1704 -0.2592,-0.094 -0.3801,-0.2612 -0.3683,-0.5018 0,-0.5546 0.047,-1.1991 0.1381,-1.9337 0.092,-0.7347 0.2096,-1.4759 0.3545,-2.2238 0.1643,-0.7789 0.3737,-1.5159 0.6216,-2.2099 0.2403,-0.7185 0.5179,-1.3178 0.8333,-1.791 0.1346,-0.2178 0.5692,-0.483 1.3076,-0.7964 0.7383,-0.3135 1.6172,-0.6321 2.6381,-0.9623 1.0475,-0.3368 2.1821,-0.6842 3.3977,-1.0359 1.2156,-0.3517 2.3767,-0.6874 3.4853,-1.0129 1.1086,-0.3254 2.09879,-0.6101 2.97419,-0.8517 0.8753,-0.2417 1.506,-0.4369 1.8922,-0.5847 0.3595,-0.1412 0.6453,-0.2496 0.8518,-0.3269 0.1989,-0.1016 0.3227,-0.2136 0.3729,-0.3315 0.042,-0.1424 0.038,-0.298 -0.014,-0.4696 -0.06,-0.1962 -0.1683,-0.4571 -0.3268,-0.7873 -0.7523,-1.4239 -1.5615,-3.0332 -2.4263,-4.825 -0.8457,-1.8229 -1.6993,-3.6713 -2.55989,-5.5433 -0.8681,-1.8965 -1.7364,-3.7422 -2.6013,-5.534 -0.8456,-1.8229 -1.6565,-3.44 -2.4355,-4.8572 -0.1511,-0.3058 -0.3703,-0.6492 -0.6584,-1.0267 -0.2956,-0.4021 -0.6159,-0.7867 -0.9576,-1.151 -0.3417,-0.3644 -0.6871,-0.6996 -1.0405,-1.0083 -0.3342,-0.3398 -0.6144,-0.6014 -0.8426,-0.7827 -0.35,-0.2039 -0.5409,-0.3531 -0.5708,-0.4512 -0.03,-0.098 0.014,-0.3206 0.1381,-0.6676 0.1506,-0.3535 0.3224,-0.7794 0.5156,-1.2753 0.1936,-0.4959 0.3833,-1.0157 0.5617,-1.5608 0.1785,-0.545 0.3428,-1.0744 0.5019,-1.5884 0.1591,-0.5138 0.2814,-0.9641 0.3637,-1.3535 0.032,-0.2716 0.1153,-0.467 0.2532,-0.5801 0.065,-0.07 0.1478,-0.074 0.244,-0.019 z m -88.66879,6.5976 c 0.3817,0.027 0.7363,0.097 1.0635,0.2072 0.445,0.1494 0.7809,0.3449 1.0129,0.5847 0.2582,0.2485 0.4348,0.5197 0.5249,0.8195 0.1159,0.3086 0.1836,0.6278 0.2024,0.9576 0.054,0.3149 0.1005,0.6156 0.1382,0.8978 0.01,0.3537 -0.031,0.6503 -0.1243,0.8886 -0.067,0.247 -0.2312,0.5115 -0.4926,0.8011 -0.3435,0.4237 -0.7245,0.8235 -1.1372,1.1971 -0.4034,0.3494 -0.7586,0.4739 -1.0727,0.3683 -0.2618,-0.088 -0.4242,-0.28 -0.4881,-0.5709 -0.054,-0.3149 -0.1023,-0.6504 -0.1381,-1.0129 -0.036,-0.3625 -0.1094,-0.6997 -0.2256,-1.0083 -0.081,-0.3236 -0.2799,-0.539 -0.5939,-0.6446 -0.2879,-0.097 -0.6321,-0.161 -1.0359,-0.1888 -0.3776,-0.019 -0.7731,0 -1.1786,0.051 -0.3701,0.038 -0.7333,0.1042 -1.0958,0.198 -0.327,0.079 -0.5865,0.1681 -0.7734,0.267 -0.019,0.4252 0.056,0.8807 0.2208,1.3674 0.165,0.4868 0.3778,0.9618 0.64,1.4273 0.2976,0.4504 0.6502,0.8792 1.0543,1.2845 0.4134,0.3815 0.8458,0.678 1.2983,0.884 0.591,0.3064 1.1371,0.5419 1.6345,0.709 0.5328,0.152 1.0584,0.2775 1.5837,0.3729 0.5254,0.096 1.0629,0.1639 1.6068,0.2117 0.5702,0.057 1.1898,0.1339 1.8647,0.2256 0.01,0.056 -0.1202,0.2391 -0.3914,0.5525 -0.2352,0.2984 -0.5238,0.6188 -0.8655,0.9622 -0.3156,0.3523 -0.6195,0.6723 -0.907,0.9531 -0.2782,0.2569 -0.4556,0.3717 -0.5341,0.3453 -2.9908,-0.3041 -5.8459,-0.4302 -8.5634,-0.373 -2.7176,0.057 -5.4265,0.2146 -8.1308,0.465 -0.071,0.03 -0.1381,0 -0.198,-0.069 -0.049,-0.098 -0.045,-0.1898 0.019,-0.2763 0.3733,-0.5754 0.7366,-1.125 1.0912,-1.6528 0.3901,-0.5429 0.9231,-0.9576 1.5976,-1.2431 0.5511,-0.2731 1.1874,-0.4634 1.9106,-0.5709 0.7233,-0.1075 1.491,-0.2129 2.302,-0.3177 -0.7545,-1.2509 -1.0746,-2.6265 -0.9622,-4.1252 0.061,-0.3837 0.1702,-0.7388 0.3269,-1.0635 0.1659,-0.3486 0.444,-0.674 0.8287,-0.9761 0.4389,-0.3647 1.0344,-0.7543 1.791,-1.174 0.7827,-0.4109 1.5839,-0.7605 2.4079,-1.0497 0.8594,-0.3043 1.7132,-0.52 2.5598,-0.64 0.4364,-0.056 0.8475,-0.069 1.2293,-0.042 z m 21.23369,4.383 c 0.1888,0.045 0.281,0.2368 0.2763,0.5755 0.021,0.3451 -0.012,0.7436 -0.1059,1.1924 -0.087,0.4243 -0.1905,0.8437 -0.3039,1.2616 l -0.2394,0.8839 c -0.1921,1.2364 -0.3982,2.5235 -0.6169,3.8582 -0.1853,1.3166 -0.3625,2.6611 -0.5341,4.0331 -0.4546,3.8949 -0.8979,7.7411 -1.3259,11.5377 -0.401,3.8029 -0.9389,7.637 -1.616,11.5054 -0.1792,1.0825 -0.4157,2.2162 -0.7091,3.4024 -0.2597,1.1681 -0.6175,2.3281 -1.0727,3.47602 -0.4215,1.1298 -0.9439,2.2194 -1.5746,3.2735 -0.597,1.0359 -1.3266,1.9749 -2.18689,2.8177 -0.3898,0.3785 -0.7371,0.5475 -1.0405,0.5018 -0.3034,-0.046 -0.4207,-0.2953 -0.3545,-0.7505 0.3846,-2.368 0.7687,-4.6963 1.1602,-6.98422 0.4252,-2.3062 0.7751,-4.643 1.04509,-7.012 0.2976,-2.1532 0.5893,-4.4541 0.8794,-6.8968 0.3237,-2.4609 0.6206,-4.8609 0.884,-7.2053 0.297,-2.3626 0.5639,-4.5655 0.8011,-6.6022 0.2439,-2.0612 0.433,-3.7658 0.5709,-5.1196 0.019,-0.1785 0.1501,-0.5008 0.3913,-0.9669 0.2684,-0.4597 0.596,-0.9865 0.9853,-1.5746 0.3893,-0.588 0.8141,-1.1941 1.2707,-1.8185 0.4632,-0.6491 0.9073,-1.2204 1.3305,-1.7219 0.4569,-0.5198 0.8687,-0.9337 1.2385,-1.2385 0.3765,-0.3294 0.6584,-0.473 0.8472,-0.4282 z m 32.6702,7.5368 c 0.1965,0 0.3304,0.03 0.4051,0.092 0.079,0.037 0.063,0.1515 -0.051,0.3407 l -2.4355,3.964 c -0.1719,0.2053 -0.3866,0.3196 -0.64,0.3361 l 0,0 -18.9824,4.0884 c -0.2594,0.041 -0.4265,0.014 -0.4972,-0.074 -0.093,-0.116 -0.087,-0.2433 0.019,-0.3821 l 2.523,-3.9917 c 0.2397,-0.2739 0.5826,-0.4792 1.0267,-0.6215 l 18.637,-3.7523 z m 31.7309,0.5617 c 0.087,0 0.1225,0.1155 0.1013,0.3315 l -0.4604,4.5441 c -0.066,0.2537 -0.2161,0.4351 -0.442,0.5433 l -15.4741,10.7688 c -0.2183,0.1339 -0.376,0.1735 -0.4788,0.1197 -0.1379,-0.072 -0.1872,-0.1921 -0.152,-0.3591 l 0.5341,-4.604 c 0.097,-0.3404 0.3124,-0.6581 0.6537,-0.953 l 15.3084,-10.3314 c 0.1796,-0.072 0.3145,-0.089 0.4097,-0.06 z m -139.17039,4.9769 c 0.1068,-0.035 0.2011,-0.016 0.2809,0.06 0.1739,0.1308 0.3226,0.3193 0.4466,0.5709 0.3397,0.7057 0.7147,1.358 1.1279,1.9567 0.4133,0.5987 0.8854,1.1878 1.4135,1.7633 0.5663,0.5679 1.2096,1.1205 1.9291,1.6575 0.5958,0.4447 1.3292,0.9017 2.0948,1.3628 0.01,0 0.012,0 0.019,0 l 21.5698,9.6362 0,0 0.9807,0.3269 2.8314,0.953 c 1.0302,0.3192 2.0574,0.5944 3.0893,0.8333 1.0582,0.2477 2.0999,0.4228 3.1262,0.5249 1.0355,0.078 2.0258,0.049 2.9696,-0.092 0,-0.972 -0.1203,-1.93 -0.3453,-2.8683 -0.199,-0.9295 -0.4541,-1.8236 -0.7689,-2.6841 -0.2887,-0.8518 -0.6038,-1.63 -0.9484,-2.3389 -0.3092,-0.7238 -0.5916,-1.3733 -0.8426,-1.9429 1.5023,-2.3256 3.0908,-4.5664 4.7652,-6.7264 0.1268,-0.1731 0.2469,-0.216 0.3591,-0.1243 0.1384,0.1005 0.2563,0.2244 0.3499,0.3637 1.2078,2.2119 1.9797,4.5477 2.3204,7.0074 0.3763,2.4446 0.1964,4.8771 -0.5432,7.2973 -0.3224,1.0509 -0.7753,2.1233 -1.3536,3.2229 -0.5522,1.1084 -1.2017,2.1323 -1.9521,3.0662 -0.7505,0.9339 -1.5687,1.7349 -2.454,2.4079 -0.8497,0.658 -1.7433,1.087 -2.6795,1.2846 -1.0597,0.2102 -2.083,0.2948 -3.0755,0.2578 -0.9663,-0.028 -1.9179,-0.1287 -2.8545,-0.3085 -0.9366,-0.1799 -1.8585,-0.4108 -2.7578,-0.686 -0.734,-0.2239 -1.4595,-0.459 -2.1869,-0.6998 -0.2089,0.047 -0.4146,0.033 -0.6123,-0.055 l -1.2846,-0.5755 -0.1704,-0.055 c -0.016,-0.01 -0.03,-0.032 -0.046,-0.041 l -20.4234,-9.1206 c -0.1369,0.035 -0.3171,0.1059 -0.3729,0.074 l -1.593,-0.9208 c -0.566,-0.3283 -1.0411,-0.6209 -1.4273,-0.8748 -0.3626,-0.2403 -0.8826,-0.5874 -1.5607,-1.0405 -0.8499,0.8535 -1.8451,1.7724 -2.9834,2.7578 -1.1384,0.9854 -2.3519,1.9436 -3.6464,2.8683 -1.2857,0.9598 -2.6394,1.8491 -4.0607,2.6703 -1.4214,0.8213 -2.8467,1.5022 -4.2772,2.0488 -1.4306,0.5466 -2.8325,0.9031 -4.19889,1.0682 -1.3809,0.1864 -2.6764,0.1098 -3.8904,-0.2348 -1.4084,-0.3981 -2.8272,-1.0739 -4.2541,-2.0212 -1.4269,-0.9473 -2.8159,-2.0205 -4.1666,-3.2228 -1.3271,-1.1887 -2.5749,-2.4211 -3.7431,-3.697 -1.1918,-1.2897 -2.2268,-2.473 -3.1031,-3.5497 -0.3688,-0.4234 -0.5719,-0.8264 -0.6077,-1.2063 -0.036,-0.3799 0.054,-0.6714 0.2624,-0.8794 0.1704,-0.2001 0.4475,-0.2949 0.8333,-0.2808 0.3859,0.014 0.8058,0.1964 1.2569,0.5479 2.1259,1.5621 4.5349,2.8575 7.2283,3.8812 2.6935,1.0236 5.5135,1.7171 8.4622,2.081 1.47,0.1636 3.03859,0.1614 4.70529,-0.01 1.6521,-0.1487 3.302,-0.4374 4.9448,-0.8609 1.6428,-0.4235 3.2233,-0.9687 4.7421,-1.6436 1.5277,-0.64 2.9029,-1.4002 4.1298,-2.2744 -0.6873,-0.7278 -1.2566,-1.3842 -1.7081,-1.9752 -0.4132,-0.5987 -0.7712,-1.257 -1.0727,-1.9705 -0.085,-0.2592 -0.1103,-0.4861 -0.078,-0.6768 0.047,-0.2121 0.1683,-0.4383 0.3683,-0.6814 0.7467,-0.9432 1.5544,-1.9236 2.4218,-2.9466 0.882,-1.0442 1.7667,-2.0444 2.6519,-2.9972 0.1336,-0.1466 0.2523,-0.2363 0.3591,-0.2716 z m 93.32349,10.0966 c 0.1122,0 0.2195,0.047 0.3177,0.1382 l 4.825,4.9907 0,0 c 0.1226,0.093 0.1822,0.1789 0.1704,0.2532 -0.01,0.075 -0.081,0.1664 -0.2116,0.2762 l -5.2164,3.9595 c -0.334,0.1582 -0.5716,0.1346 -0.709,-0.064 l -4.8803,-4.9217 c -0.2197,-0.2105 -0.1869,-0.4006 0.092,-0.5663 l 5.2578,-3.9502 c 0.1259,-0.085 0.2425,-0.1221 0.3545,-0.1198 z m -74.49759,27.70242 18.0892,0.6584 c 0.185,-0.019 0.3084,0.01 0.3683,0.083 0.05,0.098 0,0.2058 -0.129,0.3223 l -3.1675,3.0985 c -0.2242,0.1933 -0.4702,0.2621 -0.7413,0.198 l -18.4805,-0.3499 c -0.2373,0 -0.3884,-0.063 -0.4558,-0.1933 -0.042,-0.1216 -9e-4,-0.2294 0.1242,-0.3223 l 3.3149,-3.1307 c 0.2765,-0.1768 0.6363,-0.2963 1.0774,-0.3637 z m 132.24588,4.8619 c 0.1032,-0.038 0.2204,-0.034 0.3499,0.014 l 6.5975,2.8085 c 0.1563,0.041 0.2435,0.097 0.2671,0.1704 0.023,0.074 4e-4,0.1872 -0.069,0.3361 l -3.0018,5.5617 c -0.2344,0.2687 -0.4545,0.3394 -0.6676,0.2072 l -6.61599,-2.7256 c -0.2935,-0.1124 -0.3509,-0.2971 -0.1704,-0.5525 l 3.03859,-5.5755 c 0.077,-0.1244 0.1683,-0.2053 0.2716,-0.244 z"
       id="path4305" />
  </g>
</svg>
