<?xml version="1.0" encoding="UTF-8" standalone="no"?>
<!-- Created with Inkscape (http://www.inkscape.org/) -->

<svg
   xmlns:dc="http://purl.org/dc/elements/1.1/"
   xmlns:cc="http://creativecommons.org/ns#"
   xmlns:rdf="http://www.w3.org/1999/02/22-rdf-syntax-ns#"
   xmlns:svg="http://www.w3.org/2000/svg"
   xmlns="http://www.w3.org/2000/svg"
   xmlns:sodipodi="http://sodipodi.sourceforge.net/DTD/sodipodi-0.dtd"
   xmlns:inkscape="http://www.inkscape.org/namespaces/inkscape"
   width="155mm"
   height="210mm"
   viewBox="0 0 549.21244 744.09437"
   id="svg4217"
   version="1.1"
   inkscape:version="0.91 r13725"
   sodipodi:docname="rectangular-no-outlines.svg">
  <defs
     id="defs4219" />
  <sodipodi:namedview
     id="base"
     pagecolor="#ffffff"
     bordercolor="#666666"
     borderopacity="1.0"
     inkscape:pageopacity="0.0"
     inkscape:pageshadow="2"
     inkscape:zoom="0.7"
     inkscape:cx="200.4938"
     inkscape:cy="220.58013"
     inkscape:document-units="px"
     inkscape:current-layer="g5378"
     showgrid="false"
     inkscape:window-width="1366"
     inkscape:window-height="713"
     inkscape:window-x="0"
     inkscape:window-y="27"
     inkscape:window-maximized="1" />
  <metadata
     id="metadata4222">
    <rdf:RDF>
      <cc:Work
         rdf:about="">
        <dc:format>image/svg+xml</dc:format>
        <dc:type
           rdf:resource="http://purl.org/dc/dcmitype/StillImage" />
        <dc:title />
      </cc:Work>
    </rdf:RDF>
  </metadata>
  <g
     inkscape:label="Layer 1"
     inkscape:groupmode="layer"
     id="layer1"
     transform="translate(0,-308.26789)">
    <g
       id="g5378"
       transform="matrix(2.3572587,0,0,2.3572587,-129.43881,252.42641)">
      <path
         sodipodi:nodetypes="ssssscssssss"
         inkscape:connector-curvature="0"
         id="path4501"
         d="m 71.97221,26.82307 c -7.92574,0 -14.306385,6.38064 -14.306385,14.30638 l 0,255.88218 c 0,7.92574 6.380645,14.30638 14.306385,14.30638 l 67.36488,0 c 18.59447,0 32.06754,24.89822 32.06754,24.89822 0,0 13.47306,-24.89822 32.06753,-24.89822 l 67.36488,0 c 7.92574,0 14.30639,-6.38064 14.30639,-14.30638 l 0,-255.88218 c 0,-7.92574 -6.38065,-14.30638 -14.30639,-14.30638 z"
         style="opacity:1;fill:#ff0000;fill-opacity:1;stroke:#000000;stroke-width:1.43963492;stroke-linejoin:round;stroke-miterlimit:4;stroke-dasharray:none;stroke-opacity:1" />
      <g
         transform="matrix(0.42549854,0,0,0.42549854,7.891565,-60.682968)"
         id="g4503"
         style="stroke:none">
        <path
           style="opacity:1;fill:#008700;fill-opacity:1;stroke:none;stroke-width:3.38340759;stroke-linejoin:round;stroke-miterlimit:4;stroke-dasharray:none;stroke-opacity:1"
           d="M 510.98242,284.125 A 165.8837,165.8837 0 0 1 550.16992,390.93359 165.8837,165.8837 0 0 1 384.28516,556.81641 165.8837,165.8837 0 0 1 218.40234,390.93359 165.8837,165.8837 0 0 1 257.07812,284.50586 214.28572,214.28572 0 0 0 170,456.64844 214.28572,214.28572 0 0 0 384.28516,670.93359 214.28572,214.28572 0 0 0 598.57227,456.64844 214.28572,214.28572 0 0 0 510.98242,284.125 Z"
           id="path4505"
           inkscape:connector-curvature="0" />
        <g
           id="g4507"
           style="stroke:none">
          <path
             sodipodi:nodetypes="ccccccccc"
             inkscape:connector-curvature="0"
             id="path4509"
             d="m 379.65029,441.2654 c 0,0 -10.24728,47.67331 8.85986,71.78046 -9.10714,-8.2143 -10.83266,-2.45031 -17.43872,-6.21937 4.28679,16.76665 18.03571,23.03571 53.92857,32.14286 -23.75,-20.71429 -14.10714,-41.42857 -20.89286,-49.64286 -0.53571,8.75 -7.07151,9.25245 -6.00008,17.82387 -13.33376,-22.96918 -7.42976,-54.94506 -6.35833,-67.08792 1.07143,-12.14286 -16.39159,-11.98595 -16.39159,-5.91452 z"
             style="opacity:1;fill:#ffffff;fill-rule:evenodd;stroke:none;stroke-width:3.38340759;stroke-linecap:butt;stroke-linejoin:round;stroke-miterlimit:4;stroke-dasharray:none;stroke-opacity:1" />
          <path
             inkscape:connector-curvature="0"
             id="path4511"
             d="m 377.85742,241.29102 c -7.25804,54.52374 -41.88306,57.81147 -26.1289,103.79296 -45.05,-37.34906 -59.47739,-12.58281 -107.91016,5.72657 28.93298,38.6631 44.48815,58.15307 93.11328,52.44336 l -0.008,0.006 c -56.71804,38.34027 -28.1885,64.12989 -46.55274,97.25 40.41592,7.68354 66.02072,-12.42304 95.16602,-58.6875 0.10834,0.1744 0.20265,0.3447 0.3125,0.51953 21.25689,45.75813 35.22936,52.5421 96.38672,48.85351 -7.07932,-21.81105 3.95418,-65.73753 -50.50586,-86.0039 l -0.42383,-0.28321 c 58.32079,3.34816 62.27969,-6.13563 90.4375,-61.17187 -38.61173,-12.22978 -59.34661,-26.78682 -101.77539,5.59375 0.13613,-0.76329 0.2659,-1.53739 0.38867,-2.32422 9.99999,-54.28573 -1.42858,-73.21484 -42.5,-105.71484 z"
             style="opacity:1;fill:#ffffff;fill-rule:evenodd;stroke:none;stroke-width:3.38340759;stroke-linecap:butt;stroke-linejoin:miter;stroke-miterlimit:4;stroke-dasharray:none;stroke-opacity:1" />
          <circle
             r="11.067722"
             cy="384.1463"
             cx="383.85797"
             id="circle4513"
             style="opacity:1;fill:#ffff00;fill-opacity:1;stroke:none;stroke-width:2;stroke-linejoin:round;stroke-miterlimit:4;stroke-dasharray:none;stroke-opacity:1" />
          <path
             sodipodi:nodetypes="sscss"
             inkscape:connector-curvature="0"
             id="path4515"
             d="m 380.88353,362.02754 c -4.05556,-4.49064 2.89691,-20.89317 1.63733,-32.91921 -1.88704,-18.01674 -8.03743,-39.24882 4.87265,-42.04129 -5.54315,15.84119 3.52377,50.66522 2.53063,63.25582 -0.95811,12.14658 -5.89829,15.1841 -9.04061,11.70468 z"
             style="opacity:1;fill:#ffff00;fill-rule:evenodd;stroke:none;stroke-width:2;stroke-linecap:butt;stroke-linejoin:miter;stroke-miterlimit:4;stroke-dasharray:none;stroke-opacity:1" />
          <path
             inkscape:transform-center-y="-15.739913"
             inkscape:transform-center-x="-57.805211"
             style="opacity:1;fill:#ffff00;fill-rule:evenodd;stroke:none;stroke-width:2;stroke-linecap:butt;stroke-linejoin:miter;stroke-miterlimit:4;stroke-dasharray:none;stroke-opacity:1"
             d="m 406.50133,381.67867 c 3.3533,2.04289 10.1433,-7.85443 31.37071,-10.11106 18.01379,-1.915 39.99097,-2.40676 39.34296,-15.59949 -13.8639,9.45843 -50.20509,7.93865 -61.75123,13.94591 -10.80886,5.62367 -12.85875,9.39094 -8.96244,11.76464 z"
             id="path4517"
             inkscape:connector-curvature="0"
             sodipodi:nodetypes="sscss" />
          <path
             sodipodi:nodetypes="sscss"
             inkscape:connector-curvature="0"
             id="path4519"
             d="m 399.59514,405.12234 c -1.033,6.27706 11.4112,13.4064 17.95836,23.57237 9.80858,15.2301 18.30586,35.63658 30.12088,29.73122 -14.24022,-8.88176 -28.97304,-41.71264 -37.63023,-50.90843 -8.35187,-8.87149 -9.81208,-6.26546 -10.44901,-2.39516 z"
             style="opacity:1;fill:#ffff00;fill-rule:evenodd;stroke:none;stroke-width:2;stroke-linecap:butt;stroke-linejoin:miter;stroke-miterlimit:4;stroke-dasharray:none;stroke-opacity:1"
             inkscape:transform-center-x="-37.727903"
             inkscape:transform-center-y="46.381738" />
          <path
             inkscape:transform-center-y="47.773455"
             inkscape:transform-center-x="36.357977"
             style="opacity:1;fill:#ffff00;fill-rule:evenodd;stroke:none;stroke-width:2;stroke-linecap:butt;stroke-linejoin:miter;stroke-miterlimit:4;stroke-dasharray:none;stroke-opacity:1"
             d="m 368.52933,400.36442 c -6.34469,0.46204 -12.00874,17.9188 -20.36385,26.65976 -12.51716,13.09522 -30.37381,26.12474 -21.87163,36.2332 5.30917,-15.92113 33.78966,-37.91622 40.70848,-48.48218 6.67483,-10.19332 5.44936,-14.41078 1.52703,-14.41078 z"
             id="path4521"
             inkscape:connector-curvature="0"
             sodipodi:nodetypes="cscssc" />
          <path
             sodipodi:nodetypes="cscssc"
             inkscape:connector-curvature="0"
             id="path4523"
             d="m 362.42825,374.64798 c -2.92,-5.65174 -20.95003,-2.45203 -32.27249,-6.69633 -16.96269,-6.35857 -35.96484,-17.65223 -41.91511,-5.85976 16.72619,-1.37996 43.16344,14.23137 55.78688,15.58368 12.17702,1.30448 20.20112,0.45716 18.40073,-3.02756 z"
             style="opacity:1;fill:#ffff00;fill-rule:evenodd;stroke:none;stroke-width:2;stroke-linecap:butt;stroke-linejoin:miter;stroke-miterlimit:4;stroke-dasharray:none;stroke-opacity:1"
             inkscape:transform-center-x="58.35937"
             inkscape:transform-center-y="-14.866293" />
        </g>
        <path
           style="font-style:normal;font-variant:normal;font-weight:bold;font-stretch:normal;font-size:medium;line-height:125%;font-family:'KFGQPC Uthman Taha Naskh';-inkscape-font-specification:'KFGQPC Uthman Taha Naskh Bold';letter-spacing:0px;word-spacing:0px;fill:#ffff00;fill-opacity:1;stroke:none;stroke-width:1px;stroke-linecap:butt;stroke-linejoin:miter;stroke-opacity:1"
           d="m 161.59375,246.04102 c -0.0665,0.004 -0.14967,0.0229 -0.25195,0.0566 -0.19727,0.0587 -0.43139,0.15284 -0.70313,0.2832 -0.25566,0.12888 -0.53453,0.28524 -0.83398,0.4668 -0.29216,0.17277 -0.56813,0.34385 -0.82813,0.51367 -0.26,0.16981 -0.48395,0.32384 -0.67383,0.46289 -0.18109,0.14635 -0.29361,0.25352 -0.33593,0.32226 -0.31665,0.5236 -0.7221,1.1814 -1.2168,1.97266 -0.4874,0.78248 -1.01829,1.62541 -1.5918,2.5293 -0.55743,0.90241 -1.13752,1.82467 -1.74023,2.76367 -0.58663,0.93752 -1.14507,1.8157 -1.67774,2.63477 -0.56473,0.91118 -1.15357,1.79568 -1.76367,2.65429 -0.59402,0.85714 -1.19363,1.73033 -1.80078,2.6211 -0.11383,0.17259 -0.11947,0.29567 -0.0156,0.36718 0.10385,0.0715 0.26521,0.0635 0.48437,-0.0215 0.48508,-0.19051 0.94022,-0.44313 1.36524,-0.75781 0.4411,-0.31617 0.85033,-0.6655 1.22851,-1.04883 0.39426,-0.38482 0.75457,-0.78966 1.08008,-1.2168 0.34159,-0.42861 0.65288,-0.84728 0.93164,-1.25391 1.00999,-1.4466 1.96097,-2.90463 2.85547,-4.37304 0.90328,-1.46111 1.82143,-2.93932 2.75391,-4.43555 0.33272,-0.52507 0.66333,-1.03689 0.99023,-1.53711 0.34298,-0.50169 0.67059,-0.98654 0.98437,-1.45312 l 0.26368,-0.31641 c 0.12408,-0.14921 0.24406,-0.30247 0.35937,-0.45898 0.12261,-0.1653 0.21366,-0.31959 0.27344,-0.46289 0.0686,-0.13601 0.0712,-0.22821 0.01,-0.2793 -0.0307,-0.0256 -0.08,-0.0373 -0.14648,-0.0332 z m 99.10352,0.1875 c -0.16524,-0.0102 -0.33255,0.0259 -0.50391,0.10742 -0.27874,0.13594 -0.51574,0.33839 -0.70898,0.60937 -0.18971,0.25523 -0.34158,0.54909 -0.45704,0.87891 -0.11545,0.32982 -0.19181,0.66811 -0.22851,1.01562 -0.0271,0.34141 -0.0113,0.66265 0.0449,0.96485 0.10764,0.40475 0.29542,0.70324 0.56641,0.89648 0.34266,0.24244 0.72534,0.36554 1.14648,0.36914 0.42114,0.004 0.84218,-0.0249 1.26172,-0.0879 -0.24027,0.9223 -0.51919,1.71913 -0.83594,2.39258 -0.32285,0.66381 -0.67493,1.32702 -1.05469,1.98633 -0.0395,0.0656 -0.0863,0.14877 -0.14257,0.25195 -0.0624,0.0935 -0.11976,0.19772 -0.16993,0.31055 -0.0562,0.10318 -0.094,0.20236 -0.11523,0.29687 -0.0212,0.0945 -0.009,0.16699 0.0371,0.21875 0.0463,0.0518 0.12742,0.0614 0.24219,0.0293 0.11831,-0.0479 0.24985,-0.11738 0.39453,-0.20898 0.14821,-0.10736 0.2938,-0.22858 0.43945,-0.36133 0.14919,-0.1485 0.27868,-0.29584 0.38672,-0.44532 0.53567,-0.69046 0.99197,-1.4205 1.37109,-2.1875 0.37303,-0.77664 0.62255,-1.60984 0.74805,-2.5 0.11123,-0.0165 0.25678,-0.0134 0.43359,0.01 0.18646,0.0171 0.31736,0.0427 0.39258,0.0762 0.11637,0.0344 0.20921,0.0427 0.2793,0.0254 0.0701,-0.0173 0.11514,-0.10652 0.13477,-0.26757 -0.002,-0.17425 -0.035,-0.38361 -0.0957,-0.62891 -0.0668,-0.25494 -0.18011,-0.44689 -0.34179,-0.57422 -0.19577,-0.15987 -0.45792,-0.24231 -0.78711,-0.25 -0.0762,0.008 -0.12158,-0.0196 -0.13282,-0.0801 -0.0495,-0.18485 -0.16078,-0.4583 -0.33593,-0.82031 -0.16551,-0.36812 -0.37598,-0.722 -0.63086,-1.06055 -0.25489,-0.33855 -0.53748,-0.60461 -0.84961,-0.79883 -0.15912,-0.10193 -0.32304,-0.15774 -0.48828,-0.16796 z m 0.0684,1.94921 c 0.0644,-0.0104 0.1284,-0.008 0.19141,0.006 0.11027,0.0248 0.20675,0.0779 0.28711,0.16211 0.09,0.0781 0.1672,0.17125 0.23438,0.27735 0.0672,0.10609 0.12594,0.21762 0.17382,0.33593 0.0418,0.10867 0.0742,0.20347 0.0977,0.28321 -0.31892,0.0937 -0.6398,0.14059 -0.96289,0.14258 -0.32919,-0.008 -0.61136,-0.0795 -0.8457,-0.21485 -0.0199,-0.0955 -0.003,-0.20735 0.0508,-0.33594 0.0537,-0.12858 0.12914,-0.24348 0.22656,-0.3457 0.10707,-0.10832 0.22361,-0.19015 0.35156,-0.24414 0.0657,-0.0349 0.13094,-0.056 0.19531,-0.0664 z m -96.05859,2.33399 c -0.20313,-0.021 -0.37663,0.005 -0.51758,0.0781 l -1.60156,1.05078 c -0.16545,0.11125 -0.13007,0.19296 0.10547,0.24805 l 7.68555,1.31641 c 0.12433,0.0385 0.23614,0.023 0.33593,-0.0488 l 1.54688,-1.02734 c 0.13393,-0.10423 0.11262,-0.17698 -0.0625,-0.22071 l -7.49219,-1.39648 z m 109.95703,0.0254 c -0.24167,0.008 -0.48669,0.033 -0.73633,0.0762 -0.49926,0.0864 -0.99342,0.22411 -1.48242,0.41211 -0.48545,0.17225 -0.95451,0.39475 -1.40429,0.66602 -0.44625,0.25551 -0.85591,0.53513 -1.23047,0.83984 -0.73595,0.58757 -1.54553,1.22891 -2.42969,1.92383 -0.88062,0.67916 -1.80771,1.38099 -2.78125,2.10547 -0.96389,0.71837 -1.95041,1.44458 -2.95899,2.17773 -1.00857,0.73316 -2.00179,1.43569 -2.98046,2.10938 -0.13858,0.10124 -0.35957,0.25392 -0.66211,0.45898 -0.299,0.18931 -0.63922,0.39844 -1.02149,0.62695 -0.38227,0.22852 -0.78557,0.45605 -1.20898,0.6836 -0.42342,0.22755 -0.82341,0.42799 -1.20117,0.59961 -0.38387,0.16197 -0.72174,0.27995 -1.01172,0.35547 -0.28645,0.0598 -0.48946,0.0404 -0.60742,-0.0605 -0.11569,-0.33211 -0.10982,-0.74179 0.0156,-1.22656 0.11934,-0.49442 0.3152,-1.01739 0.58789,-1.56836 0.26658,-0.56063 0.58666,-1.12039 0.96094,-1.68164 0.37782,-0.57701 0.75901,-1.11638 1.14453,-1.61719 0.37942,-0.51046 0.7446,-0.95735 1.0957,-1.3418 0.35111,-0.38444 0.6445,-0.67166 0.87696,-0.85937 -0.0601,-0.54299 -0.12197,-1.07824 -0.18555,-1.60547 -0.06,-0.54299 -0.13697,-1.08861 -0.22852,-1.63867 -0.0266,-0.21284 -0.1302,-0.32268 -0.31054,-0.33008 -0.17681,-0.0232 -0.32909,0.0336 -0.45899,0.16992 -0.51347,0.5548 -1.01949,1.14464 -1.51562,1.76953 -0.49613,0.62489 -0.95276,1.27916 -1.3711,1.96289 -0.41833,0.68373 -0.78409,1.38708 -1.0957,2.11133 -0.31772,0.7146 -0.55294,1.4513 -0.70703,2.21094 -0.10969,0.48831 -0.186,1.03059 -0.22852,1.625 -0.0329,0.5883 -0.0227,1.18905 0.0293,1.80469 0.0555,0.59988 0.1599,1.18187 0.31445,1.74609 0.14845,0.55457 0.35996,1.05034 0.63477,1.48437 0.17099,0.27006 0.44582,0.41326 0.82226,0.43164 0.38,0.003 0.80471,-0.0626 1.27344,-0.19726 0.46874,-0.13463 0.9512,-0.31175 1.44727,-0.53125 0.49961,-0.23526 0.95537,-0.46411 1.36914,-0.68555 1.51493,-0.85107 2.98122,-1.77976 4.39844,-2.78515 1.42075,-1.02115 2.80424,-2.04503 4.15234,-3.07422 1.34199,-1.03884 2.64532,-2.05299 3.91016,-3.04297 1.27447,-0.99609 2.52006,-1.90033 3.73632,-2.71094 0.30255,-0.20506 0.62004,-0.34538 0.95118,-0.41992 0.33113,-0.0745 0.65603,-0.0843 0.97461,-0.0293 0.31247,0.0454 0.61036,0.15479 0.89453,0.32617 0.28416,0.17139 0.53163,0.40072 0.74023,0.6875 -1.78601,1.4686 -3.45619,2.80142 -5.00781,4 -1.54808,1.18284 -3.00833,2.26916 -4.38086,3.25977 -1.36288,0.9845 -2.64922,1.88678 -3.85938,2.70703 -1.20051,0.81414 -2.35198,1.57714 -3.45507,2.28906 -1.09956,0.69618 -2.15888,1.36062 -3.17774,1.99219 -1.01885,0.63157 -2.0201,1.25797 -3.0039,1.88086 l -0.36133,0.23047 -0.01,0.006 -0.0176,0.008 -0.37695,0.16406 -0.6582,0.28711 c -0.24074,0.10481 -0.48973,0.19417 -0.74414,0.26758 -0.24851,0.0585 -0.4977,0.0872 -0.74805,0.084 -0.24444,-0.0181 -0.47336,-0.1 -0.68555,-0.24415 -0.3506,-0.23334 -0.73784,-0.52516 -1.16406,-0.875 -0.43077,-0.3603 -0.85042,-0.68041 -1.25977,-0.96289 -0.18953,-0.0918 -0.28433,-0.0508 -0.2832,0.12305 -0.008,0.63863 -0.0267,1.26838 -0.0547,1.89063 -0.0221,0.60722 -0.0367,1.23051 -0.0449,1.86914 0.45121,0.26424 0.93481,0.58931 1.45117,0.97461 0.52683,0.38073 1.03788,0.79805 1.53516,1.2539 0.49727,0.45586 0.95365,0.92957 1.36719,1.42188 0.424,0.48775 0.75703,0.96578 0.99805,1.43359 -0.10526,0.73062 -0.36495,1.43486 -0.7793,2.11328 -0.39933,0.68433 -0.88664,1.31383 -1.45899,1.88672 -0.57234,0.57289 -1.19373,1.08597 -1.86718,1.54102 -0.6689,0.46551 -1.32115,0.84243 -1.95508,1.13086 -0.78047,0.35222 -1.51477,0.5415 -2.20117,0.5664 -0.68641,0.0249 -1.31386,-0.0742 -1.88477,-0.29883 -0.56043,-0.22914 -1.05376,-0.56323 -1.48047,-1 -0.41624,-0.44133 -0.75263,-0.95486 -1.00781,-1.54101 -0.24606,-0.56522 -0.42586,-1.17748 -0.53906,-1.83789 -0.10273,-0.66497 -0.13615,-1.34105 -0.0996,-2.0293 0.007,-0.12745 -0.0188,-0.23007 -0.0762,-0.30469 -0.0469,-0.0792 -0.10523,-0.12739 -0.17579,-0.14648 -0.0647,-0.0341 -0.1305,-0.0307 -0.19921,0.0117 -0.0628,0.0273 -0.10326,0.0947 -0.11915,0.20117 -0.12262,0.57632 -0.20053,1.18304 -0.23437,1.82031 -0.0234,0.63272 -0.003,1.26622 0.0606,1.89844 0.0681,0.64268 0.18147,1.27197 0.33789,1.88867 0.17144,0.62261 0.37437,1.20572 0.61133,1.75 0.41011,0.94203 0.93592,1.69062 1.57617,2.24609 0.64025,0.55548 1.34366,0.93982 2.10937,1.1543 0.77619,0.20993 1.59334,0.25933 2.45313,0.14649 0.85978,-0.11284 1.71657,-0.36197 2.57031,-0.7461 0.94794,-0.42513 1.8062,-0.98426 2.57422,-1.67969 0.78304,-0.68951 1.4377,-1.47267 1.96484,-2.3496 0.5317,-0.86647 0.90876,-1.80299 1.13086,-2.8086 0.23258,-1.01015 0.27539,-2.04366 0.12696,-3.09961 -0.0361,-0.2831 -0.0992,-0.58447 -0.18946,-0.90625 -0.0798,-0.32632 -0.17915,-0.65148 -0.29492,-0.97461 -0.1053,-0.32768 -0.21817,-0.64697 -0.33984,-0.95507 -0.12169,-0.30811 -0.23635,-0.58669 -0.34571,-0.8379 0.32633,-0.0798 0.62375,-0.16678 0.89453,-0.25976 0.2767,-0.10801 0.53661,-0.21355 0.77735,-0.31836 l 0.68945,-0.30078 c 0.006,-0.003 0.0102,-0.0136 0.0156,-0.0176 0.003,-10e-4 0.009,-2.8e-4 0.0117,-0.002 l 0.60743,-0.38477 c 2.24733,-1.42288 4.45509,-2.86801 6.62109,-4.33398 2.1599,-1.47562 4.20674,-2.92642 6.14063,-4.35352 1.93743,-1.44286 3.71718,-2.83445 5.34179,-4.17383 1.62816,-1.35513 3.03088,-2.62106 4.20508,-3.79687 0.0842,-0.0804 0.13867,-0.16318 0.16602,-0.24805 0.037,-0.091 0.068,-0.17112 0.0918,-0.24023 0.0296,-0.31601 0.0168,-0.69935 -0.0391,-1.15039 -0.062,-0.46069 -0.1526,-0.92348 -0.27148,-1.38868 -0.11535,-0.48095 -0.25672,-0.93838 -0.42383,-1.37304 -0.16712,-0.43466 -0.34622,-0.79293 -0.53906,-1.07617 -0.31596,-0.43501 -0.68101,-0.76514 -1.09375,-0.99024 -0.41275,-0.22509 -0.85289,-0.36652 -1.32032,-0.42187 -0.23371,-0.0277 -0.47121,-0.0371 -0.71289,-0.0293 z m -111.75,2.79101 c -0.20313,-0.0209 -0.37468,0.005 -0.51562,0.0781 l -1.60156,1.05078 c -0.0657,0.0394 -0.0945,0.0836 -0.084,0.13086 0.0202,0.0534 0.0844,0.0929 0.18945,0.11914 l 7.69336,1.30274 c 0.10246,0.0516 0.21258,0.0382 0.32813,-0.0371 l 1.55469,-1.03907 c 0.13743,-0.0885 0.11444,-0.15913 -0.0703,-0.20898 l -7.49414,-1.39649 z m 2.31641,5.73829 c -0.0418,0.007 -0.0888,0.0305 -0.13867,0.0664 l -2.00196,1.36328 -1.82422,5.80079 c -0.4745,0.17174 -1.01066,0.20922 -1.61132,0.11132 -0.59103,-0.0918 -1.18601,-0.25339 -1.78321,-0.48437 -0.58756,-0.22486 -1.1509,-0.48715 -1.68945,-0.78906 -0.53856,-0.30192 -0.98006,-0.57634 -1.32422,-0.82227 -0.3249,-0.23368 -0.54558,-0.48258 -0.66211,-0.74609 -0.11039,-0.27315 -0.14711,-0.60727 -0.11133,-1.00391 0.004,-0.0919 -0.0323,-0.16388 -0.10937,-0.21289 -0.0674,-0.0429 -0.14488,-0.0369 -0.23242,0.0156 -0.18734,0.12439 -0.42386,0.35808 -0.71094,0.70313 -0.28096,0.33542 -0.55129,0.70675 -0.80859,1.11133 -0.24155,0.40107 -0.44637,0.79823 -0.61524,1.1914 -0.15311,0.38967 -0.19935,0.69708 -0.14062,0.92383 0.0622,0.24252 0.21483,0.48902 0.46093,0.74024 0.24611,0.25121 0.5462,0.49612 0.89649,0.73242 0.36605,0.23279 0.75229,0.45169 1.16211,0.6582 0.40982,0.20652 0.81319,0.38191 1.20898,0.52539 0.44045,0.15835 0.90103,0.27445 1.38086,0.34961 0.48596,0.0655 0.96087,0.0837 1.42578,0.0547 0.48068,-0.0325 0.94245,-0.11848 1.38282,-0.25781 0.45612,-0.14285 0.87311,-0.34317 1.2539,-0.60157 -0.24826,1.41148 -0.21245,2.63147 0.10742,3.66016 0.31987,1.02869 0.99663,1.87184 2.02735,2.52734 l 0.62109,0.39453 c 0.0171,0.0109 0.0445,0.008 0.0684,0.01 l 0.55664,0.25195 c 0.49934,0.22568 1.04697,0.41671 1.64063,0.57227 0.60406,0.16026 1.23173,0.26798 1.88281,0.32422 0.65578,0.0458 1.32387,0.0363 2.00586,-0.0312 0.69239,-0.0629 1.3808,-0.19876 2.0625,-0.4043 0.14752,0.50515 0.31386,0.98226 0.5,1.42969 0.18614,0.44743 0.4313,0.87161 0.73828,1.27344 0.30697,0.40181 0.68731,0.7815 1.14062,1.13671 0.46843,0.34952 1.04584,0.67798 1.73243,0.98829 l 0.62109,0.28125 c 0.003,0.001 0.005,0.007 0.008,0.008 l 0.0293,0.01 0.0137,0.006 c 9.4e-4,4.3e-4 0.003,-3.8e-4 0.004,0 l 0.26367,0.084 0.35742,0.11328 c 1.17432,0.37558 2.25866,0.43535 3.25195,0.17773 0.99678,-0.26849 1.85306,-0.82781 2.56836,-1.67773 -0.0404,0.53843 0.0139,1.04226 0.16407,1.50976 0.16099,0.47099 0.39039,0.89662 0.6875,1.2793 0.31145,0.37528 0.67489,0.70198 1.08984,0.97852 0.41495,0.27654 0.86142,0.49151 1.33984,0.64453 l 0.43946,0.14062 0.29492,0.0937 c 0.004,0.001 0.0155,-0.0102 0.0195,-0.01 3.3e-4,2.8e-4 0.006,0.006 0.006,0.006 l 8.2832,1.95117 c 0.0232,0.0162 0.0466,0.0343 0.0664,0.0352 l 0.71875,0.0332 c 0.26229,0.0119 0.54178,0.007 0.83984,-0.0137 0.29858,-0.0322 0.59884,-0.0759 0.89844,-0.13086 0.30013,-0.0664 0.58832,-0.15031 0.86719,-0.25196 0.27886,-0.10164 0.53525,-0.21527 0.76953,-0.34179 0.48939,0.29642 1.04682,0.50341 1.66992,0.62304 0.63451,0.12017 1.26799,0.13838 1.90039,0.0527 0.6438,-0.0851 1.24622,-0.28195 1.80859,-0.58789 0.57379,-0.30542 1.05034,-0.73486 1.42969,-1.28906 0.12756,0.21147 0.36673,0.4679 0.71875,0.76953 0.35254,0.29022 0.75338,0.55985 1.19922,0.80859 0.45724,0.24925 0.92741,0.44805 1.41211,0.5957 0.4847,0.14765 0.92876,0.18449 1.33203,0.11133 0.24156,-0.0348 0.53083,-0.23382 0.86719,-0.5957 0.33687,-0.37329 0.65071,-0.86707 0.94141,-1.48242 0.12394,0.2913 0.29315,0.5916 0.50781,0.89843 0.21517,0.29544 0.48285,0.56976 0.80273,0.82422 0.33128,0.25498 0.72716,0.47347 1.1875,0.6543 0.46086,0.16942 0.99941,0.26704 1.61524,0.29492 l 0.75195,0.0352 c 0.007,3.3e-4 0.0229,-0.0264 0.0312,-0.0293 0.0182,0.008 0.0512,0.0474 0.0644,0.0449 l 0.67383,-0.12304 c 0.31431,-0.0582 0.65719,-0.18027 1.0293,-0.36524 0.38126,-0.19827 0.75562,-0.47013 1.12109,-0.8164 0.37462,-0.35958 0.71756,-0.80055 1.02735,-1.32227 0.3077,-0.53295 0.55008,-1.16492 0.72851,-1.89453 0.45813,0.21707 0.99704,0.3961 1.61524,0.53711 0.62734,0.1277 1.24205,0.22273 1.8457,0.28515 0.60157,0.0512 1.13862,0.0686 1.61133,0.0508 0.48185,-0.0311 0.81004,-0.10486 0.98632,-0.21875 0.17629,-0.1139 0.32754,-0.33311 0.45313,-0.65821 0.12559,-0.3251 0.22902,-0.67384 0.31055,-1.04883 0.0907,-0.38829 0.15661,-0.76173 0.19531,-1.11718 0.0368,-0.36668 0.0544,-0.64229 0.0547,-0.82813 -0.003,-0.39412 -0.071,-0.822 -0.20313,-1.28515 -0.13216,-0.46316 -0.30929,-0.91871 -0.53125,-1.36524 -0.22403,-0.45775 -0.48292,-0.89124 -0.7793,-1.30078 -0.29637,-0.40954 -0.6071,-0.76425 -0.92968,-1.06445 -0.32258,-0.30021 -0.65549,-0.52836 -0.99805,-0.68555 -0.34255,-0.15719 -0.67007,-0.20661 -0.98437,-0.14844 -0.37252,0.0573 -0.70858,0.22244 -1.00586,0.49805 -0.29937,0.26438 -0.56784,0.59348 -0.8086,0.98633 -0.24076,0.39285 -0.44979,0.83279 -0.62695,1.31836 -0.17924,0.47434 -0.34089,0.95035 -0.48438,1.42968 -0.13433,0.46604 -0.25455,0.91813 -0.35937,1.35547 -0.10689,0.42613 -0.20239,0.7921 -0.28516,1.09766 -0.10066,0.4598 -0.27961,0.83513 -0.53906,1.12695 -0.25946,0.29183 -0.5644,0.52818 -0.91406,0.70899 -0.34966,0.18081 -0.71869,0.3189 -1.10742,0.41406 -0.38873,0.0952 -0.76824,0.17754 -1.13868,0.24609 l -0.18945,0.0352 -0.42969,-0.0215 c -0.63863,-0.0289 -1.16483,-0.12561 -1.58007,-0.29297 -0.41473,-0.17877 -0.74197,-0.41221 -0.98047,-0.69727 -0.22658,-0.29595 -0.38172,-0.63886 -0.4668,-1.03125 -0.0737,-0.39188 -0.10124,-0.82149 -0.0801,-1.28906 0.006,-0.13685 -0.0282,-0.23624 -0.10547,-0.29688 -0.0658,-0.0601 -0.15023,-0.0807 -0.2539,-0.0625 -0.10316,0.007 -0.20964,0.0521 -0.31641,0.13867 -0.10677,0.0866 -0.18543,0.2096 -0.23828,0.36719 -0.0819,0.29341 -0.18225,0.59127 -0.29883,0.89453 -0.11606,0.29187 -0.24776,0.56617 -0.39648,0.82227 -0.13733,0.25662 -0.29055,0.47742 -0.45899,0.66406 -0.15703,0.18716 -0.32141,0.31854 -0.49609,0.39063 -0.23067,0.0467 -0.53878,0.009 -0.92188,-0.11133 -0.37169,-0.11968 -0.74839,-0.2681 -1.1289,-0.44531 -0.3686,-0.18811 -0.69613,-0.38028 -0.98438,-0.57618 -0.27684,-0.19537 -0.43045,-0.35542 -0.45898,-0.48242 0.10311,-0.25816 0.19509,-0.51814 0.27539,-0.77734 0.0922,-0.27009 0.17277,-0.53943 0.24219,-0.81055 0.0403,-0.1353 0.04,-0.24428 -0.002,-0.32617 -0.042,-0.0819 -0.1085,-0.13097 -0.19922,-0.14648 -0.0788,-0.0264 -0.17017,-0.0133 -0.27539,0.0391 -0.10522,0.0524 -0.202,0.15645 -0.28906,0.3125 -0.19796,0.33386 -0.39527,0.67426 -0.59375,1.01953 -0.18655,0.33438 -0.4129,0.64876 -0.67773,0.94531 -0.25447,0.31988 -0.58478,0.56217 -0.99219,0.72656 -0.39549,0.15351 -0.81776,0.25445 -1.26563,0.30274 -0.44734,0.0369 -0.90455,0.0342 -1.37109,-0.01 -0.46602,-0.0554 -0.89548,-0.13256 -1.29101,-0.23047 0.12024,-0.13168 0.23572,-0.29742 0.34765,-0.49804 0.12334,-0.20012 0.23633,-0.41277 0.33789,-0.63672 0.10156,-0.22396 0.1913,-0.44267 0.26953,-0.65625 0.0788,-0.22499 0.13773,-0.42229 0.17969,-0.5918 0.0171,-0.12493 -2.5e-4,-0.21774 -0.0547,-0.27734 -0.043,-0.0591 -0.10571,-0.0901 -0.18554,-0.0937 -0.0798,-0.004 -0.15978,0.0208 -0.24219,0.0742 -0.0824,0.0534 -0.14947,0.12567 -0.19922,0.21484 -0.37832,0.53139 -0.75773,0.96573 -1.13867,1.30274 -0.38094,0.337 -0.79172,0.59754 -1.23438,0.7832 -0.44265,0.18565 -0.92882,0.3072 -1.45703,0.36328 -0.5282,0.0561 -1.12371,0.069 -1.78515,0.0391 l -0.41016,-0.0195 -0.1582,-0.008 -7.66211,-1.86914 c -0.005,-10e-4 -0.0103,0.003 -0.0156,0.002 l -0.0703,-0.0234 -0.43945,-0.14062 c -0.30446,-0.0974 -0.60874,-0.21894 -0.91016,-0.36328 -0.30141,-0.14435 -0.57629,-0.31452 -0.82422,-0.51367 -0.23706,-0.19568 -0.44015,-0.42377 -0.60937,-0.68165 -0.15836,-0.2544 -0.24969,-0.54707 -0.27539,-0.8789 -0.0239,-0.18744 -0.033,-0.34653 -0.0274,-0.47656 0.0165,-0.12657 0.039,-0.24997 0.0664,-0.37305 0.0382,-0.11961 0.0817,-0.23739 0.13086,-0.35352 0.0635,-0.12352 0.13355,-0.27048 0.21093,-0.4375 0.0709,-0.10917 0.0878,-0.19973 0.0508,-0.27148 -0.037,-0.0718 -0.10808,-0.11154 -0.21289,-0.1211 -0.0905,-0.017 -0.19616,-0.004 -0.31836,0.041 -0.11133,0.0483 -0.2097,0.13148 -0.29493,0.24805 -0.22349,0.32404 -0.44944,0.59955 -0.67773,0.82617 -0.21742,0.2301 -0.4736,0.42995 -0.76758,0.59961 -0.35485,0.21011 -0.72599,0.34314 -1.11523,0.39844 -0.38924,0.0553 -0.7865,0.0593 -1.19141,0.0137 -0.39403,-0.0421 -0.79106,-0.1153 -1.18945,-0.21875 -0.39492,-0.11432 -0.77204,-0.22899 -1.13086,-0.34375 l -0.375,-0.11914 -0.0508,-0.0156 -0.0547,-0.0254 -0.38867,-0.17578 c -0.66578,-0.3009 -1.22211,-0.63961 -1.66602,-1.01562 -0.42881,-0.38172 -0.75753,-0.84396 -0.98828,-1.38672 0.17185,-0.0476 0.39434,-0.14077 0.66992,-0.2793 0.28599,-0.13383 0.57575,-0.30412 0.86914,-0.50977 0.30379,-0.20094 0.58437,-0.43104 0.83985,-0.6914 0.27058,-0.26607 0.47303,-0.54989 0.60937,-0.85156 0.20217,-0.44733 0.25969,-0.87941 0.17188,-1.29493 -0.0774,-0.41081 -0.25258,-0.79599 -0.52735,-1.1582 -0.27006,-0.37261 -0.61911,-0.71238 -1.04492,-1.01758 -0.4107,-0.3109 -0.85234,-0.57996 -1.32617,-0.80664 -0.7443,-0.34892 -1.45834,-0.55857 -2.14063,-0.6289 -0.67188,-0.0656 -1.29939,-0.005 -1.88476,0.18164 -0.57026,0.18073 -1.09206,0.47666 -1.56641,0.88867 -0.45924,0.4063 -0.84374,0.91011 -1.15234,1.50976 -0.12423,0.21946 -0.13126,0.38492 -0.0195,0.49805 0.11643,0.10273 0.26696,0.13275 0.44922,0.0898 0.32389,-0.0791 0.62542,-0.0798 0.90429,-0.004 0.27888,0.0759 0.56294,0.23639 0.85352,0.48047 0.28017,0.23937 0.50288,0.53366 0.66992,0.88476 0.17174,0.3407 0.31662,0.67436 0.43164,1.00196 -0.48264,0.07 -0.98933,0.0801 -1.51758,0.0293 -0.52824,-0.0508 -1.05142,-0.13711 -1.57226,-0.25976 -0.51044,-0.11795 -1.00394,-0.26052 -1.48047,-0.42578 -0.47183,-0.17567 -0.90025,-0.34948 -1.28516,-0.52344 l -0.42187,-0.19141 -0.0547,-0.0234 -0.25781,-0.16406 c -0.52018,-0.33081 -0.93882,-0.65108 -1.25586,-0.96094 -0.30128,-0.31336 -0.51336,-0.65977 -0.63867,-1.03711 -0.11919,-0.38696 -0.15564,-0.82991 -0.10938,-1.32812 0.062,-0.50171 0.19955,-1.11098 0.41211,-1.82812 l 1.99609,-6.7461 c 0.0359,-0.099 0.0206,-0.17 -0.0469,-0.21289 -0.0337,-0.0214 -0.0715,-0.0287 -0.11328,-0.0215 z m 27.01953,2.66015 -7.84766,0.47461 c -0.19091,0.0348 -0.34504,0.1048 -0.46289,0.21094 l -1.32422,1.60937 c -0.0535,0.0548 -0.0647,0.11057 -0.0351,0.16797 0.0222,0.0431 0.087,0.0639 0.19531,0.0625 l 8.01367,-0.60156 c 0.10482,0.01 0.19949,-0.0269 0.28516,-0.10742 l 1.28516,-1.60156 c 0.0604,-0.0766 0.076,-0.12518 0.0469,-0.14649 -0.0257,-0.0322 -0.0767,-0.0549 -0.15625,-0.0684 z m 29.28906,3.24805 c -0.30931,0.0224 -0.60453,0.12316 -0.88476,0.30273 -0.27109,0.16627 -0.52202,0.3814 -0.75196,0.64454 -0.22993,0.26314 -0.42642,0.54854 -0.58984,0.85742 -0.1522,0.3068 -0.25805,0.61265 -0.31836,0.91406 -0.0508,0.41573 0.0138,0.76274 0.19336,1.04297 0.22779,0.35257 0.53625,0.60943 0.92578,0.76953 0.38954,0.1601 0.7903,0.28897 1.20313,0.38672 -0.56633,0.76656 -1.12134,1.40301 -1.66602,1.91015 -0.54676,0.49592 -1.11891,0.97867 -1.7168,1.44922 -0.0611,0.0461 -0.13787,0.10682 -0.22851,0.18164 -0.0927,0.0636 -0.18293,0.13856 -0.27149,0.22461 -0.0906,0.0748 -0.16386,0.15261 -0.21875,0.23242 -0.0549,0.0798 -0.0686,0.15153 -0.0449,0.2168 0.0237,0.0653 0.0944,0.10431 0.21289,0.11719 0.12764,-4e-4 0.27498,-0.0157 0.44336,-0.0469 0.17753,-0.0445 0.35838,-0.10092 0.54297,-0.16992 0.19375,-0.0823 0.36948,-0.17297 0.52539,-0.27148 0.75421,-0.44144 1.44854,-0.94683 2.08594,-1.51758 0.63532,-0.58197 1.17716,-1.2635 1.625,-2.04297 0.10933,0.0262 0.24296,0.0826 0.39844,0.16992 0.1667,0.0852 0.27857,0.15776 0.33593,0.2168 0.0952,0.0753 0.1785,0.11892 0.25,0.12891 0.0715,0.01 0.14644,-0.0571 0.22461,-0.19922 0.0628,-0.16255 0.11154,-0.36887 0.14649,-0.61914 0.0329,-0.2615 -0.003,-0.48179 -0.10547,-0.66016 -0.1222,-0.22119 -0.33407,-0.39564 -0.63672,-0.52539 -0.0736,-0.0212 -0.10385,-0.0628 -0.0918,-0.12305 0.0229,-0.18999 0.02,-0.48552 -0.008,-0.88672 -0.0166,-0.40327 -0.0809,-0.80964 -0.19141,-1.21875 -0.11054,-0.4091 -0.27478,-0.76214 -0.49218,-1.05859 -0.21948,-0.30768 -0.51774,-0.44944 -0.89649,-0.42578 z m 13.57227,0.82422 c -0.28481,-0.0161 -0.57132,0.0536 -0.85938,0.20703 -0.4018,0.24963 -0.69829,0.59621 -0.89062,1.04102 -0.19689,0.43433 -0.31859,0.89914 -0.36524,1.39257 -0.0362,0.48889 -0.0203,0.96674 0.0469,1.43555 0.0776,0.46425 0.17905,0.84364 0.30664,1.13672 0.1335,0.27805 0.31776,0.51441 0.55273,0.71094 0.23041,0.18606 0.48153,0.33307 0.75196,0.43945 0.27634,0.0914 0.5626,0.13554 0.85937,0.13086 0.29678,-0.005 0.58137,-0.0671 0.85352,-0.18555 0.43961,-0.19138 0.7907,-0.44452 1.05273,-0.75781 0.25748,-0.32376 0.43578,-0.66928 0.53711,-1.03711 0.0968,-0.3783 0.12899,-0.76462 0.0937,-1.16016 -0.0352,-0.39553 -0.12566,-0.76076 -0.27148,-1.0957 -0.11392,-0.26167 -0.29064,-0.55167 -0.5293,-0.87109 -0.2282,-0.32399 -0.49981,-0.60526 -0.81445,-0.8418 -0.3192,-0.24701 -0.66532,-0.41369 -1.03907,-0.5 -0.0946,-0.0242 -0.19022,-0.0396 -0.28515,-0.0449 z m -13.93164,1.08789 c 0.148,-0.0158 0.27444,0.0147 0.38086,0.0879 0.0931,0.064 0.16185,0.14972 0.20507,0.25781 0.0544,0.10602 0.0924,0.22028 0.11524,0.34375 0.023,0.12348 0.0349,0.24932 0.0352,0.37695 -0.002,0.11641 -0.006,0.2161 -0.0137,0.29883 -0.33092,-0.0316 -0.64669,-0.10804 -0.94726,-0.22656 -0.30265,-0.12974 -0.53798,-0.30079 -0.70508,-0.51367 0.0171,-0.096 0.0742,-0.19362 0.17188,-0.29297 0.0977,-0.0994 0.21137,-0.17772 0.33984,-0.23633 0.1397,-0.0606 0.27911,-0.0931 0.41797,-0.0957 z m -37.00391,0.66797 c -0.0398,-0.007 -0.08,10e-4 -0.12305,0.0234 l -2.23046,1.51563 c -0.12524,0.0918 -0.14969,0.19142 -0.0762,0.29883 l 1.53321,2.3418 c 0.0592,0.1148 0.14734,0.13839 0.26562,0.0684 l 2.01367,-1.40625 1.41993,2.19727 c 0.0448,0.12221 0.13773,0.14623 0.28125,0.0723 l 2.21289,-1.52149 c 0.0961,-0.11309 0.11298,-0.20365 0.0508,-0.27148 l -1.53906,-2.37891 c -0.0409,-0.097 -0.1267,-0.11344 -0.25586,-0.0469 l -1.99805,1.41211 -1.43945,-2.24219 c -0.0365,-0.0357 -0.0754,-0.0558 -0.11524,-0.0625 z m 20.88867,0.36328 c -0.47067,0.0472 -0.89126,0.22825 -1.25976,0.54297 -0.36799,0.30331 -0.6823,0.66537 -0.94141,1.08789 -0.2477,0.42303 -0.44374,0.86006 -0.58984,1.31055 -0.13469,0.451 -0.21014,0.83693 -0.22461,1.15624 -0.003,0.30843 0.0591,0.60292 0.18359,0.88282 0.12498,0.26849 0.28644,0.51004 0.48242,0.72461 0.20791,0.20368 0.44436,0.3677 0.71289,0.49414 0.26854,0.12644 0.55115,0.19752 0.84766,0.21093 0.47898,0.0217 0.9061,-0.0509 1.2793,-0.21679 0.37371,-0.17735 0.68654,-0.40965 0.93945,-0.69531 0.25343,-0.29707 0.45126,-0.6313 0.59375,-1.00196 0.14247,-0.37066 0.22174,-0.73858 0.23828,-1.10351 0.0129,-0.28511 -0.0162,-0.6218 -0.0898,-1.01367 -0.0623,-0.39136 -0.18295,-0.76434 -0.36133,-1.11524 -0.17786,-0.36231 -0.4153,-0.66422 -0.71289,-0.90625 -0.29707,-0.25342 -0.66275,-0.372 -1.09766,-0.35742 z m 36.23047,0.0742 c -0.11108,-0.0263 -0.191,0.0204 -0.23828,0.14062 l -0.89258,2.66797 c -0.0577,0.12475 -0.0245,0.20212 0.10156,0.23438 l 2.85547,0.8125 c 0.0947,0.0459 0.18304,0.001 0.26172,-0.13282 l 0.87696,-2.66015 c 0.0191,-0.0706 0.0215,-0.12095 0.008,-0.15235 -0.0137,-0.0314 -0.0531,-0.0519 -0.11914,-0.0605 l -2.85352,-0.84961 z m -5.78515,0.043 c 0.23532,-0.003 0.45057,0.0481 0.64453,0.15039 0.1894,0.0919 0.35001,0.21914 0.48437,0.38476 0.14027,0.1506 0.23709,0.3156 0.28906,0.49219 -0.0304,0.18755 -0.17632,0.38117 -0.4375,0.58203 -0.25071,0.1963 -0.5388,0.3646 -0.86328,0.50586 -0.31401,0.1367 -0.61984,0.21981 -0.91797,0.25 -0.28766,0.0256 -0.48358,-0.0376 -0.58789,-0.19141 -0.0893,-0.14788 -0.13191,-0.31695 -0.12695,-0.50586 0.005,-0.1889 0.0443,-0.37244 0.11524,-0.55273 0.0664,-0.19075 0.1626,-0.37 0.28906,-0.53711 0.12646,-0.16711 0.26096,-0.30064 0.40429,-0.40039 0.2421,-0.13029 0.47762,-0.1899 0.70704,-0.17773 z m -30.92383,2.10742 c 0.27473,-0.0104 0.51226,0.0385 0.71289,0.15039 0.21255,0.10105 0.38261,0.24071 0.51172,0.41797 0.12962,0.16585 0.21985,0.35269 0.26757,0.56054 0.0597,0.19697 0.0741,0.38693 0.043,0.56836 -0.10986,0.15502 -0.32745,0.26471 -0.65039,0.33008 -0.31152,0.0659 -0.64451,0.0903 -0.99804,0.0742 -0.34213,-0.0155 -0.65262,-0.0736 -0.9336,-0.17773 -0.26956,-0.10363 -0.4174,-0.24763 -0.44336,-0.43164 -0.0151,-0.1721 0.0218,-0.34232 0.10938,-0.50977 0.0876,-0.16745 0.20265,-0.31661 0.3457,-0.44727 0.14356,-0.14206 0.30898,-0.26109 0.4961,-0.35546 0.18711,-0.0944 0.36644,-0.15323 0.53906,-0.17969 z m 20.38867,7.58594 c 0.24197,-0.01 0.47345,0.0461 0.69336,0.16796 0.23114,0.11976 0.43947,0.27711 0.62695,0.47461 0.1854,0.18628 0.34692,0.39467 0.48242,0.625 0.14466,0.21704 0.24667,0.4315 0.3086,0.64063 -0.29601,0.0315 -0.63028,0.0458 -1.00196,0.0449 -0.36045,-0.003 -0.72316,-0.022 -1.08984,-0.0586 -0.35546,-0.0387 -0.7019,-0.0909 -1.03906,-0.15625 -0.32594,-0.0674 -0.60932,-0.15526 -0.84961,-0.26172 0.0383,-0.16962 0.12363,-0.33621 0.25586,-0.5 0.13015,-0.17501 0.28735,-0.33033 0.4707,-0.46875 0.18336,-0.13842 0.37718,-0.25597 0.58008,-0.35156 0.20289,-0.0956 0.38997,-0.14755 0.5625,-0.15625 z m -61.49609,2.0957 c -0.18325,0.0174 -0.33525,0.0617 -0.45508,0.13281 l -1.47266,1.30859 c -0.0547,0.0379 -0.0769,0.0849 -0.0644,0.14063 0.0228,0.0604 0.0843,0.0932 0.18164,0.0996 l 7.56055,0.69141 c 0.10872,0.0366 0.21151,0.0161 0.31054,-0.0645 l 1.41406,-1.29687 c 0.0594,-0.0483 0.0796,-0.0953 0.0625,-0.14063 -0.0218,-0.0349 -0.07,-0.0518 -0.14648,-0.0488 l -7.39062,-0.82226 z"
           transform="matrix(2.3501843,0,0,2.3501843,-112.55401,-45.398586)"
           id="path4525"
           inkscape:connector-curvature="0" />
      </g>
      <path
         style="color:#000000;font-style:normal;font-variant:normal;font-weight:normal;font-stretch:normal;font-size:medium;line-height:normal;font-family:sans-serif;text-indent:0;text-align:start;text-decoration:none;text-decoration-line:none;text-decoration-style:solid;text-decoration-color:#000000;letter-spacing:normal;word-spacing:normal;text-transform:none;direction:ltr;block-progression:tb;writing-mode:lr-tb;baseline-shift:baseline;text-anchor:start;white-space:normal;clip-rule:nonzero;display:inline;overflow:visible;visibility:visible;opacity:1;isolation:auto;mix-blend-mode:normal;color-interpolation:sRGB;color-interpolation-filters:linearRGB;solid-color:#000000;solid-opacity:1;fill:#ffff00;fill-opacity:1;fill-rule:nonzero;stroke:none;stroke-width:0.71981746;stroke-linecap:butt;stroke-linejoin:round;stroke-miterlimit:4;stroke-dasharray:none;stroke-dashoffset:0;stroke-opacity:1;color-rendering:auto;image-rendering:auto;shape-rendering:auto;text-rendering:auto;enable-background:accumulate"
         d="m 71.97266,33.66211 c -4.24234,0 -7.46875,3.22445 -7.46875,7.4668 l 0,255.88281 c 0,4.24234 3.22641,7.4668 7.46875,7.4668 l 67.36328,0 c 12.35958,0 21.73258,7.76089 28.05468,14.67382 1.38979,1.51965 2.60045,3.01921 3.73047,4.47071 a 0.35994472,0.35994472 0 0 0 0.56836,0 c 1.13001,-1.4515 2.3407,-2.95106 3.73047,-4.47071 6.32213,-6.91293 15.69317,-14.67382 28.05274,-14.67382 l 67.36523,0 c 4.24234,0 7.4668,-3.22446 7.4668,-7.4668 l 0,-255.88281 c 0,-4.24235 -3.22446,-7.4668 -7.4668,-7.4668 l -198.86523,0 z m 0,2.51953 198.86523,0 c 2.92524,0 4.94727,2.02202 4.94727,4.94727 l 0,255.88281 c 0,2.92523 -2.02204,4.94922 -4.94727,4.94922 l -67.36523,0 c -13.46194,0 -23.36826,8.33484 -29.91211,15.49023 -0.81237,0.88829 -1.46523,1.73452 -2.15625,2.58594 -0.69101,-0.85138 -1.34198,-1.69769 -2.1543,-2.58594 -6.54387,-7.15539 -16.45212,-15.49023 -29.91406,-15.49023 l -67.36328,0 c -2.92524,0 -4.94922,-2.02399 -4.94922,-4.94922 l 0,-255.88281 c 0,-2.92525 2.02398,-4.94727 4.94922,-4.94727 z"
         id="path4541"
         inkscape:connector-curvature="0" />
      <g
         transform="matrix(0.45874357,0,0,0.45874357,-4.2666804,-93.298828)"
         id="g4972"
         style="stroke:none">
        <path
           inkscape:connector-curvature="0"
           style="fill:#f2f2f2;fill-opacity:1;fill-rule:evenodd;stroke:none;stroke-width:3.38340759;stroke-linejoin:round;stroke-miterlimit:4;stroke-dasharray:none;stroke-opacity:1"
           d="m 567.71094,459.28516 c -12.95551,17.0922 -33.36317,34.05078 -55.35352,47.51757 -19.32437,11.83421 -39.7658,20.88931 -57.57812,24.78711 l 46.82812,4.39844 c 0.20485,-0.1012 0.41039,-0.19349 0.61524,-0.29492 a 1.8295532,1.8295532 0 0 1 0.83789,-0.18945 1.8295532,1.8295532 0 0 1 1.42383,0.70898 l 38.18164,49.28125 c 23.15249,-13.039 44.06844,-28.35566 53.57617,-43.75586 -16.82557,4.0767 -31.7572,4.93404 -44.75977,-4.66797 -0.58241,-0.42979 -0.85815,-1.16439 -0.70117,-1.87109 l 16.92969,-75.91406 z m -126.05274,74.75 7.98828,21.88281 c 15.47701,-4.29331 30.67089,-9.93042 45.54297,-16.84961 l -53.53125,-5.0332 z m 60.82813,5.57031 c -17.34557,8.49658 -35.15691,15.28642 -53.35742,20.23633 l 18.19336,49.86132 c 0.18407,-0.0278 0.36185,-0.0515 0.54687,-0.0801 0.51148,-0.0203 0.74597,0.23674 0.70898,0.77343 -0.0522,0.52649 -0.14475,1.23109 -0.25781,2.04493 l 2.9375,8.04882 c 17.1245,-6.62439 44.1369,-17.85373 69.31641,-31.72265 l -38.08789,-49.16211 z m -45.29297,27.2793 c 0.14152,0.004 0.3023,0.1033 0.48242,0.29882 0.26481,0.24921 0.52655,0.5699 0.78125,0.9668 0.24192,0.3742 0.47017,0.75698 0.6875,1.14258 l 0.45899,0.81445 c 0.74953,1.0544 1.5255,2.15568 2.32617,3.30078 0.81254,1.11111 1.65089,2.23977 2.51367,3.38477 2.47335,3.2308 4.92153,6.41264 7.34375,9.55273 2.4469,3.12861 4.81479,6.36605 7.10351,9.71094 0.6482,0.9297 1.28965,1.93237 1.92774,3.00977 0.64994,1.0433 1.21894,2.14121 1.70898,3.28711 0.50191,1.1118 0.90158,2.25504 1.19336,3.43554 0.30365,1.1464 0.43978,2.29844 0.40821,3.45703 -0.0166,0.5225 -0.15538,0.86147 -0.41407,1.00977 -0.25859,0.1483 -0.52531,0.03 -0.80468,-0.35547 -1.42332,-2.0295 -2.8155,-4.03101 -4.17578,-6.00391 -1.3484,-2.00689 -2.7779,-3.99191 -4.28711,-5.95312 -1.33294,-1.8139 -2.77471,-3.73448 -4.32227,-5.76367 -1.53566,-2.0633 -3.05239,-4.06541 -4.54883,-6.00391 -1.48452,-1.97251 -2.87422,-3.80319 -4.16797,-5.49219 -1.30646,-1.71179 -2.39874,-3.12552 -3.27343,-4.23632 -0.11409,-0.14741 -0.24731,-0.4675 -0.4043,-0.9668 -0.13217,-0.5108 -0.26532,-1.10981 -0.40039,-1.79102 -0.13472,-0.6811 -0.25811,-1.39523 -0.36914,-2.14453 -0.12392,-0.772 -0.21067,-1.47338 -0.25782,-2.10937 -0.035,-0.67001 -0.0217,-1.23495 0.0332,-1.68946 0.0423,-0.4771 0.14947,-0.75396 0.32226,-0.83398 0.0432,-0.02 0.0876,-0.0287 0.13477,-0.0273 z"
           transform="matrix(0.92474656,0,0,0.92474656,38.893107,221.25923)"
           id="path4974" />
        <path
           inkscape:connector-curvature="0"
           style="fill:#999999;fill-opacity:1;fill-rule:evenodd;stroke:none;stroke-width:3.38340759;stroke-linejoin:round;stroke-miterlimit:4;stroke-dasharray:none;stroke-opacity:1"
           d="m 441.6582,534.03516 7.98828,21.88281 c 15.47701,-4.29331 30.67089,-9.93042 45.54297,-16.84961 l -53.53125,-5.0332 z m 51.94727,9.74609 c -14.53128,6.56995 -29.37272,11.95311 -44.48438,16.0625 l 2.76953,7.59375 c 14.22508,-6.75015 28.14161,-14.66716 41.71485,-23.65625 z"
           transform="matrix(0.92474656,0,0,0.92474656,38.893107,221.25923)"
           id="path4976" />
        <path
           inkscape:connector-curvature="0"
           style="fill:#f2f2f2;fill-opacity:1;fill-rule:evenodd;stroke:none;stroke-width:3.38340759;stroke-linejoin:round;stroke-miterlimit:4;stroke-dasharray:none;stroke-opacity:1"
           d="m 176.37891,459.28516 16.93359,75.91406 c 0.15709,0.7067 -0.11669,1.4413 -0.69922,1.87109 -13.00259,9.60201 -27.94005,8.74467 -44.76562,4.66797 9.50775,15.4002 30.42362,30.71685 53.57617,43.75586 l 38.18164,-49.28125 a 1.8295532,1.8295532 0 0 1 2.25976,-0.51953 c 0.20473,0.10129 0.41235,0.19381 0.61719,0.29492 l 46.82813,-4.39844 c -17.81114,-3.8978 -38.24784,-12.9529 -57.57227,-24.78711 -21.99033,-13.4668 -42.40388,-30.42538 -55.35937,-47.51757 z m 126.05273,74.75 -53.53125,5.0332 c 14.87211,6.91919 30.07182,12.5563 45.54883,16.84961 l 7.98242,-21.88281 z m -60.82422,5.57031 -38.08789,49.16211 c 15.22934,8.38829 31.10545,15.80067 45.08399,21.82031 -0.12081,-0.22265 -0.20296,-0.4413 -0.22266,-0.65039 -0.0358,-0.3798 0.0531,-0.671 0.26172,-0.87891 0.17053,-0.1999 0.44815,-0.2953 0.83398,-0.28125 0.38588,0.0142 0.80666,0.19723 1.25782,0.54883 2.12584,1.5622 4.5331,2.85716 7.22656,3.88086 2.6935,1.02371 5.51413,1.71619 8.46289,2.08008 1.46994,0.16328 3.0383,0.16084 4.70508,-0.01 1.27762,-0.11514 2.55345,-0.31566 3.82617,-0.5957 L 294.96484,559.8418 C 276.76532,554.89189 258.953,548.10205 241.60742,539.60547 Z"
           transform="matrix(0.92474656,0,0,0.92474656,38.893107,221.25923)"
           id="path4978" />
        <path
           inkscape:connector-curvature="0"
           style="fill:#999999;fill-opacity:1;fill-rule:evenodd;stroke:none;stroke-width:3.38340759;stroke-linejoin:round;stroke-miterlimit:4;stroke-dasharray:none;stroke-opacity:1"
           d="m 302.43164,534.03516 -53.53125,5.0332 c 14.87211,6.91919 30.07182,12.5563 45.54883,16.84961 l 7.98242,-21.88281 z m -51.94922,9.74414 c 13.57464,8.9903 27.49213,16.90731 41.71875,23.6582 l 2.76953,-7.59375 c -15.1125,-4.10995 -29.95571,-9.4934 -44.48828,-16.06445 z"
           transform="matrix(0.92474656,0,0,0.92474656,38.893107,221.25923)"
           id="path4980" />
        <path
           inkscape:connector-curvature="0"
           style="fill:#ffffff;fill-opacity:1;fill-rule:evenodd;stroke:none;stroke-width:3.38340759;stroke-linejoin:round;stroke-miterlimit:4;stroke-dasharray:none;stroke-opacity:1"
           d="m 241.60742,539.60547 -54.61719,70.49805 c 55.7582,35.78769 116.41816,55.50976 179.92579,55.50976 1.69545,0 3.39563,-0.0228 5.10156,-0.0508 a 1.8295532,1.8295532 0 0 1 0.0586,0 c 1.70595,0.0301 3.40609,0.0508 5.10156,0.0508 63.50761,0 124.16759,-19.72197 179.92579,-55.50976 l -54.61719,-70.49805 c -39.64138,19.418 -81.71671,29.92187 -125.3086,29.92187 -1.72863,0 -3.44795,-0.0217 -5.16601,-0.0547 -1.69572,0.031 -3.39358,0.0547 -5.09961,0.0547 -43.59189,0 -85.66331,-10.50387 -125.30469,-29.92187 z m 215.58594,27.2793 c 0.14152,0.004 0.3023,0.1033 0.48242,0.29882 0.26481,0.24921 0.52655,0.5699 0.78125,0.9668 0.24192,0.3742 0.47017,0.75698 0.6875,1.14258 l 0.45899,0.81445 c 0.74953,1.0544 1.5255,2.15568 2.32617,3.30078 0.81254,1.11111 1.65089,2.23977 2.51367,3.38477 2.47335,3.2308 4.92153,6.41264 7.34375,9.55273 2.4469,3.12861 4.81479,6.36605 7.10351,9.71094 0.6482,0.9297 1.28965,1.93237 1.92774,3.00977 0.64994,1.0433 1.21894,2.14121 1.70898,3.28711 0.50191,1.1118 0.90158,2.25504 1.19336,3.43554 0.30365,1.1464 0.43978,2.29844 0.40821,3.45703 -0.0166,0.5225 -0.15538,0.86147 -0.41407,1.00977 -0.25859,0.1483 -0.52531,0.03 -0.80468,-0.35547 -1.42332,-2.0295 -2.8155,-4.03101 -4.17578,-6.00391 -1.3484,-2.00689 -2.7779,-3.99191 -4.28711,-5.95312 -1.33294,-1.8139 -2.77471,-3.73448 -4.32227,-5.76367 -1.53566,-2.0633 -3.05239,-4.06541 -4.54883,-6.00391 -1.48452,-1.97251 -2.87422,-3.80319 -4.16797,-5.49219 -1.30646,-1.71179 -2.39874,-3.12552 -3.27343,-4.23632 -0.11409,-0.14741 -0.24731,-0.4675 -0.4043,-0.9668 -0.13217,-0.5108 -0.26532,-1.10981 -0.40039,-1.79102 -0.13472,-0.6811 -0.25811,-1.39523 -0.36914,-2.14453 -0.12392,-0.772 -0.21067,-1.47338 -0.25782,-2.10937 -0.035,-0.67001 -0.0217,-1.23495 0.0332,-1.68946 0.0423,-0.4771 0.14947,-0.75396 0.32226,-0.83398 0.0432,-0.02 0.0876,-0.0287 0.13477,-0.0273 z m -27.23438,8.00195 c 0.0408,-0.003 0.0847,0.01 0.13282,0.0371 l 0,-0.006 c 0.0961,0.0555 0.21085,0.17557 0.33789,0.35547 0.37166,0.46241 0.81969,0.94221 1.34765,1.44531 0.52799,0.5032 1.09459,0.98642 1.69532,1.44531 0.61996,0.42771 1.25561,0.822 1.91406,1.1875 0.67769,0.33449 1.33187,0.58339 1.95703,0.7461 -0.39948,1.23239 -0.71127,2.29861 -0.92578,3.19531 -0.1878,0.8902 -0.0872,1.67194 0.29101,2.34375 0.5744,1.12479 1.18353,2.46463 1.83204,4.01953 0.67528,1.54831 1.35044,3.13517 2.02148,4.76367 0.67104,1.6284 1.32609,3.22039 1.97461,4.77539 0.64853,1.55481 1.23305,2.89921 1.75391,4.03711 0.27547,0.61801 0.51635,1.30251 0.71484,2.04492 0.21785,0.7114 0.35065,1.42799 0.40039,2.1543 0.0766,0.7198 0.0433,1.41432 -0.0977,2.08203 -0.1141,0.661 -0.35995,1.22179 -0.73632,1.6836 3.63679,0.13429 7.34885,0.078 11.1289,-0.16602 3.79929,-0.2751 7.8552,-0.7431 12.16797,-1.4082 0.51148,-0.0203 0.74597,0.23674 0.70898,0.77343 -0.0563,0.56771 -0.15051,1.30348 -0.27734,2.20508 -0.10011,0.8949 -0.20911,1.79186 -0.33594,2.69336 -0.1342,0.8771 -0.27087,1.66132 -0.40429,2.35352 -0.10664,0.6856 -0.19439,1.09044 -0.27149,1.21484 -0.0501,0.11789 -0.17164,0.24304 -0.36328,0.36914 -0.17226,0.0935 -0.438,0.12841 -0.78906,0.10938 -3.04598,0.011 -5.90358,0.45126 -8.57227,1.31836 -2.64192,0.86081 -5.17021,2.18138 -7.58789,3.96289 -2.02291,1.47349 -4.01886,2.94204 -5.98828,4.40234 -1.97694,1.4357 -4.0723,2.80904 -6.28906,4.11914 -2.21675,1.3101 -4.63549,2.52328 -7.25586,3.64258 -2.62038,1.1192 -5.587,2.0884 -8.9043,2.9043 l -1.0039,0.24414 -0.80664,0.19922 c -0.0834,0.0205 -0.20968,-0.0351 -0.35938,-0.1211 -0.10185,0.0383 -0.19369,0.10156 -0.3125,0.10156 l -26.24805,0.37305 c -0.0879,0.001 -0.16476,-0.0592 -0.24414,-0.11523 -0.0333,0.0119 -0.0969,0.084 -0.12304,0.084 l -1.85547,-0.26172 c -0.66013,-0.0933 -1.2219,-0.18629 -1.68555,-0.27734 -0.43616,-0.0872 -1.06553,-0.21005 -1.88281,-0.37695 -0.39722,1.0983 -0.89447,2.30691 -1.4961,3.63281 -0.60161,1.32591 -1.288,2.65473 -2.05859,3.98242 -0.74701,1.3566 -1.5859,2.67587 -2.51758,3.95508 -0.93168,1.27919 -1.93091,2.43095 -2.99219,3.46094 -1.06131,1.0301 -2.17645,1.87205 -3.34765,2.52734 -1.17516,0.6805 -2.38897,1.0867 -3.64649,1.2168 -1.45789,0.1531 -3.04852,0.06 -4.76562,-0.28516 -1.71713,-0.3454 -3.45654,-0.8257 -5.2168,-1.43359 -1.73272,-0.6041 -3.41051,-1.27654 -5.03711,-2.01954 -1.65411,-0.74679 -3.11762,-1.45575 -4.39062,-2.12304 -0.52253,-0.25351 -0.88166,-0.54857 -1.08203,-0.88477 -0.20032,-0.3361 -0.25455,-0.63795 -0.15625,-0.90625 0.0668,-0.24709 0.28094,-0.43349 0.63867,-0.5625 0.35762,-0.12843 0.81504,-0.11402 1.38086,0.043 2.62473,0.65321 5.39293,0.95339 8.29687,0.90235 2.90396,-0.0514 5.77782,-0.45483 8.62305,-1.20704 1.41082,-0.39059 2.83496,-0.96923 4.27734,-1.74023 1.43845,-0.7458 2.81618,-1.61439 4.125,-2.60938 1.30885,-0.9951 2.50296,-2.08503 3.58789,-3.26562 1.10848,-1.1516 2.03045,-2.35698 2.76172,-3.61328 -0.94689,-0.41601 -1.7598,-0.8103 -2.43164,-1.1875 -0.64038,-0.39839 -1.25253,-0.87297 -1.84179,-1.41797 -0.1926,-0.20679 -0.31616,-0.40244 -0.3711,-0.58984 -0.0512,-0.21251 -0.0398,-0.46638 0.0352,-0.76368 0.26364,-1.1428 0.56403,-2.34497 0.90234,-3.60546 0.34226,-1.28561 0.70634,-2.53189 1.0918,-3.73438 0.11409,-0.36916 0.27612,-0.50873 0.48828,-0.42773 0.21608,0.0563 0.43818,0.17778 0.66211,0.36328 0.62072,0.52379 1.2522,0.98842 1.89258,1.38672 0.64041,0.3984 1.32779,0.7649 2.0625,1.09961 0.76617,0.31349 1.59438,0.58184 2.48633,0.81054 0.89193,0.2287 1.90155,0.42468 3.02929,0.58399 l 1.11524,0.15625 0.13281,0.0195 25.25391,-0.35938 0.28515,-0.0684 c 2.30072,-0.5659 4.68494,-1.1933 7.15039,-1.8789 2.45794,-0.71 4.89341,-1.53526 7.31055,-2.47266 2.41713,-0.9374 4.76776,-2.00131 7.04883,-3.19531 2.30028,-1.22511 4.42613,-2.6312 6.38476,-4.2207 -0.92692,-0.11479 -2.01765,-0.16162 -3.27734,-0.14258 -1.23294,0.0125 -2.54762,0.0836 -3.94531,0.21679 -1.37094,0.1261 -2.78482,0.3033 -4.24024,0.5293 -1.42867,0.21951 -2.82507,0.49653 -4.18945,0.83203 -1.34515,0.30451 -2.60743,0.65649 -3.78125,1.05078 -1.15459,0.36311 -2.13983,0.76327 -2.95508,1.20118 -0.31776,0.18435 -0.60002,0.23988 -0.85156,0.16992 -0.25917,-0.0944 -0.38093,-0.26136 -0.36914,-0.50196 0.003,-0.5546 0.0475,-1.19889 0.13867,-1.93359 0.0916,-0.7346 0.2105,-1.47486 0.35547,-2.22266 0.16429,-0.779 0.37325,-1.51694 0.62109,-2.21093 0.24036,-0.7185 0.51662,-1.31782 0.83203,-1.79102 0.13468,-0.2178 0.57027,-0.48348 1.3086,-0.79687 0.7383,-0.31351 1.61784,-0.63073 2.63867,-0.96094 1.04757,-0.3368 2.18089,-0.68532 3.39648,-1.03711 1.21562,-0.3517 2.37773,-0.68621 3.48633,-1.01172 1.10859,-0.3254 2.09926,-0.60986 2.97461,-0.85156 0.87529,-0.2417 1.50437,-0.43815 1.89063,-0.58594 0.35953,-0.1411 0.64505,-0.24918 0.85156,-0.32617 0.19894,-0.10171 0.32287,-0.21413 0.37305,-0.33203 0.0419,-0.1424 0.0385,-0.29715 -0.0137,-0.46875 -0.06,-0.1962 -0.16752,-0.45682 -0.32617,-0.78711 -0.75225,-1.4238 -1.56286,-3.03438 -2.42773,-4.82617 -0.84565,-1.8229 -1.69796,-3.67107 -2.5586,-5.54297 -0.86815,-1.8966 -1.73669,-3.74141 -2.60156,-5.53321 -0.84565,-1.8229 -1.65654,-3.44011 -2.43555,-4.85742 -0.15117,-0.30569 -0.37012,-0.64984 -0.6582,-1.02734 -0.29565,-0.402 -0.61537,-0.78609 -0.95703,-1.15039 -0.34166,-0.36439 -0.68763,-0.69911 -1.04102,-1.00782 -0.33415,-0.3398 -0.61556,-0.60189 -0.84375,-0.7832 -0.35001,-0.204 -0.54046,-0.3532 -0.57031,-0.45117 -0.0299,-0.098 0.0149,-0.32087 0.13867,-0.66797 0.1507,-0.3535 0.32233,-0.77939 0.51563,-1.27539 0.19341,-0.49591 0.38406,-1.01554 0.5625,-1.56055 0.17839,-0.54499 0.34088,-1.07399 0.5,-1.58789 0.15911,-0.5139 0.28294,-0.96401 0.36523,-1.35351 0.0319,-0.2716 0.11405,-0.46698 0.25196,-0.58008 0.0325,-0.035 0.0705,-0.0538 0.11132,-0.0566 z m -89.1289,6.625 c 0.20504,-0.007 0.40286,-0.004 0.59375,0.01 0.38179,0.0271 0.73531,0.0972 1.0625,0.20704 0.445,0.1495 0.7817,0.34428 1.01367,0.58398 0.25817,0.2485 0.43531,0.5204 0.52539,0.82031 0.11597,0.3086 0.18236,0.62714 0.20117,0.95703 0.0544,0.31491 0.10093,0.61625 0.13867,0.89844 0.009,0.3537 -0.0319,0.65037 -0.125,0.88867 -0.067,0.247 -0.2307,0.51118 -0.49218,0.80078 -0.34348,0.4237 -0.72403,0.82376 -1.13672,1.19727 -0.40337,0.34926 -0.75817,0.47479 -1.07227,0.36914 -0.26172,-0.088 -0.42437,-0.28127 -0.48828,-0.57226 -0.0544,-0.3148 -0.10288,-0.64922 -0.13867,-1.01172 -0.0358,-0.36241 -0.11036,-0.70118 -0.22656,-1.00977 -0.0808,-0.3237 -0.27972,-0.53888 -0.59375,-0.64453 -0.28794,-0.0968 -0.63142,-0.15949 -1.03516,-0.1875 -0.37758,-0.0189 -0.77221,-10e-4 -1.17773,0.0508 -0.37004,0.0374 -0.73319,0.10329 -1.09571,0.19727 -0.32699,0.0789 -0.58651,0.16863 -0.77343,0.26757 -0.0189,0.42521 0.0555,0.8804 0.2207,1.36719 0.16495,0.48671 0.37654,0.96233 0.63867,1.42774 0.29763,0.4505 0.65056,0.8778 1.05469,1.2832 0.41344,0.3815 0.84631,0.67877 1.29883,0.88477 0.59094,0.3064 1.13743,0.54178 1.63476,0.70898 0.53284,0.152 1.0587,0.27702 1.58399,0.37305 0.52532,0.0957 1.06152,0.16292 1.60547,0.21093 0.57011,0.0568 1.1904,0.13454 1.86523,0.22657 0.008,0.0564 -0.11959,0.23923 -0.39063,0.55273 -0.23518,0.2983 -0.52547,0.61744 -0.86718,0.96094 -0.31554,0.3522 -0.61869,0.67242 -0.90625,0.95312 -0.27824,0.25727 -0.4547,0.37166 -0.53321,0.34571 -2.99084,-0.30391 -5.84689,-0.43004 -8.56445,-0.37305 -2.7176,0.0574 -5.42656,0.21434 -8.13086,0.46484 -0.0712,0.03 -0.13736,0.006 -0.19726,-0.0684 -0.0492,-0.098 -0.0456,-0.18834 0.0176,-0.27539 0.37331,-0.5755 0.7372,-1.1264 1.0918,-1.65429 0.39009,-0.54281 0.9232,-0.95659 1.59766,-1.24219 0.55111,-0.27299 1.18694,-0.46282 1.91015,-0.57031 0.72323,-0.1075 1.49168,-0.21347 2.30274,-0.31836 -0.75456,-1.25091 -1.07533,-2.6263 -0.96289,-4.125 0.0613,-0.38381 0.17137,-0.73965 0.32812,-1.06446 0.166,-0.34849 0.44339,-0.67261 0.82813,-0.97461 0.43885,-0.3647 1.03446,-0.75608 1.79101,-1.17578 0.78276,-0.4109 1.58423,-0.75962 2.40821,-1.04883 0.85944,-0.30429 1.712,-0.52062 2.55859,-0.64062 0.21819,-0.028 0.43167,-0.0439 0.63672,-0.0508 z m 21.82812,4.39258 c 0.18874,0.0446 0.2808,0.23747 0.27539,0.57617 0.0214,0.3451 -0.0121,0.7425 -0.10547,1.19141 -0.0865,0.4242 -0.19129,0.8438 -0.30468,1.26171 l -0.23828,0.88477 c -0.19214,1.2364 -0.39845,2.52272 -0.61719,3.85742 -0.1852,1.3165 -0.36355,2.66121 -0.53516,4.0332 -0.45467,3.89491 -0.89819,7.74052 -1.32617,11.53711 -0.40102,3.803 -0.93809,7.63746 -1.61523,11.50586 -0.17908,1.08251 -0.41561,2.21614 -0.70899,3.40235 -0.25973,1.16809 -0.61701,2.32856 -1.07226,3.47656 -0.42154,1.1297 -0.94356,2.21934 -1.57422,3.27344 -0.59705,1.0359 -1.32718,1.97361 -2.1875,2.8164 -0.38987,0.37851 -0.73764,0.54791 -1.04102,0.50196 -0.30338,-0.0457 -0.41969,-0.29491 -0.35351,-0.75 0.38461,-2.3681 0.76861,-4.69648 1.16015,-6.98438 0.4252,-2.30609 0.7749,-4.64272 1.04492,-7.01172 0.29757,-2.1531 0.58885,-4.45368 0.87891,-6.89648 0.32368,-2.4609 0.62142,-4.86068 0.88477,-7.20508 0.29699,-2.36259 0.56359,-4.56682 0.80078,-6.60352 0.2439,-2.0612 0.43241,-3.76534 0.57031,-5.11914 0.02,-0.1784 0.14948,-0.5007 0.39063,-0.96679 0.26839,-0.45971 0.59703,-0.98622 0.98632,-1.57422 0.3893,-0.58811 0.81293,-1.19396 1.26953,-1.81836 0.46324,-0.649 0.90881,-1.22116 1.33204,-1.72266 0.45687,-0.5197 0.86845,-0.93337 1.23828,-1.23828 0.37649,-0.32925 0.65884,-0.47272 0.84765,-0.42773 z m 32.66992,7.53711 c 0.19652,9.7e-4 0.32958,0.0298 0.4043,0.0918 0.0785,0.0367 0.0631,0.1527 -0.0508,0.3418 l -2.43555,3.96289 c -0.1719,0.2053 -0.38529,0.31896 -0.63867,0.33594 l -0.006,0 -18.98242,4.08789 c -0.2594,0.0401 -0.42732,0.0148 -0.49805,-0.0723 -0.0929,-0.1159 -0.0858,-0.244 0.0195,-0.38281 l 2.52344,-3.99219 c 0.23979,-0.2739 0.5813,-0.47879 1.02539,-0.62109 l 18.63867,-3.75195 z m 31.55665,0.55273 c 0.0681,-0.01 0.12624,-0.007 0.17382,0.008 0.0873,0.005 0.12276,0.11604 0.10157,0.33203 l -0.46094,4.54493 c -0.0662,0.25359 -0.21558,0.43476 -0.44141,0.54297 L 410.7832,610.1916 c -0.21823,0.13385 -0.37578,0.1731 -0.47851,0.11914 -0.138,-0.0719 -0.18749,-0.19248 -0.15235,-0.35938 l 0.53321,-4.60351 c 0.0971,-0.3404 0.31301,-0.65823 0.65429,-0.95313 l 15.3086,-10.33203 c 0.0898,-0.036 0.16824,-0.0587 0.23633,-0.0684 z m -138.84766,4.98047 c 0.0469,0.01 0.091,0.0323 0.13086,0.0703 0.17397,0.1307 0.32132,0.32066 0.44531,0.57227 0.33977,0.70569 0.71568,1.35637 1.12891,1.95508 0.41321,0.59869 0.88601,1.18806 1.41406,1.76367 0.56636,0.5678 1.20832,1.1212 1.92773,1.6582 0.59585,0.44471 1.33011,0.90217 2.09571,1.36328 l 0.0195,0 21.56836,9.63477 0.006,0 0.98047,0.32812 2.83203,0.95313 c 1.03015,0.3192 2.05785,0.59312 3.08984,0.83203 1.05812,0.24769 2.09876,0.42342 3.125,0.52539 1.03555,0.0784 2.02698,0.0494 2.9707,-0.0918 -0.005,-0.9721 -0.12058,-1.93074 -0.3457,-2.86914 -0.19905,-0.9294 -0.45469,-1.82299 -0.76953,-2.68359 -0.2887,-0.8518 -0.60265,-1.62909 -0.94727,-2.33789 -0.30911,-0.7239 -0.59273,-1.37385 -0.84375,-1.94336 1.5023,-2.3257 3.09122,-4.56657 4.76563,-6.72656 0.12692,-0.1732 0.24716,-0.21703 0.35937,-0.125 0.13846,0.1004 0.25607,0.22397 0.34961,0.36328 1.20775,2.2119 1.97957,4.54811 2.32032,7.00781 0.37624,2.4447 0.19664,4.87668 -0.54297,7.29687 -0.32232,1.05081 -0.77519,2.12306 -1.35352,3.22266 -0.55214,1.1084 -1.20269,2.1324 -1.95312,3.06641 -0.75046,0.9339 -1.56787,1.7352 -2.45313,2.4082 -0.84977,0.65791 -1.7435,1.08765 -2.67969,1.28516 -1.05964,0.20978 -2.08366,0.29479 -3.07617,0.25781 -0.96635,-0.0281 -1.91695,-0.1287 -2.85351,-0.3086 -0.93659,-0.17989 -1.85852,-0.41034 -2.75782,-0.68554 -0.73395,-0.2239 -1.46011,-0.46037 -2.1875,-0.70117 -0.20884,0.0469 -0.41355,0.0333 -0.61132,-0.0547 l -1.28516,-0.57422 -0.16992,-0.0566 c -0.017,-0.006 -0.0303,-0.0313 -0.0469,-0.041 l -20.42383,-9.12109 c -0.13702,0.035 -0.31713,0.10623 -0.37304,0.0742 l -1.5918,-0.92188 c -0.56598,-0.3283 -1.04151,-0.62099 -1.42773,-0.875 -0.36261,-0.24019 -0.88246,-0.58596 -1.56055,-1.03906 -0.84991,0.8535 -1.84603,1.77241 -2.98438,2.75781 -1.13836,0.9854 -2.34997,1.94249 -3.64453,2.86719 -1.28565,0.9598 -2.64117,1.84863 -4.0625,2.66992 -1.42136,0.8212 -2.84487,1.50223 -4.27539,2.04883 -1.43064,0.54661 -2.83283,0.90336 -4.19922,1.06836 -1.38099,0.18641 -2.67663,0.11033 -3.89062,-0.23437 -1.40841,-0.39801 -2.82701,-1.07419 -4.25391,-2.02149 -1.42694,-0.94731 -2.81726,-2.02035 -4.16797,-3.22266 -1.32714,-1.18859 -2.57397,-2.42126 -3.74218,-3.69726 -1.1918,-1.28969 -2.22718,-2.47203 -3.10352,-3.54883 -0.36877,-0.42329 -0.57163,-0.82713 -0.60742,-1.20703 -0.0358,-0.3798 0.0531,-0.671 0.26172,-0.87891 0.17053,-0.1999 0.44815,-0.2953 0.83398,-0.28125 0.38588,0.0142 0.80666,0.19723 1.25782,0.54883 2.12584,1.5622 4.5331,2.85716 7.22656,3.88086 2.6935,1.02371 5.51413,1.71619 8.46289,2.08008 1.46994,0.16328 3.0383,0.16084 4.70508,-0.01 1.65208,-0.14889 3.30249,-0.43773 4.94531,-0.86132 1.64283,-0.4235 3.22345,-0.96758 4.74219,-1.64258 1.5277,-0.63999 2.90201,-1.4012 4.1289,-2.27539 -0.68733,-0.7278 -1.25552,-1.38361 -1.70703,-1.97461 -0.41321,-0.59879 -0.7708,-1.25731 -1.07226,-1.97071 -0.0848,-0.25919 -0.1122,-0.48508 -0.0801,-0.67578 0.0468,-0.2122 0.16926,-0.43853 0.36914,-0.68164 0.74669,-0.94329 1.55452,-1.92437 2.42187,-2.94726 0.88202,-1.0443 1.76722,-2.04339 2.65235,-2.9961 0.13375,-0.1467 0.25264,-0.23644 0.35937,-0.27148 l -0.002,0.004 c 0.0533,-0.0175 0.10347,-0.0196 0.15039,-0.01 z m 93.17383,10.10156 0,0.004 c 0.11211,0.003 0.22006,0.0477 0.31836,0.13867 l 4.82422,4.99023 c 0.12261,0.0934 0.1817,0.17994 0.16992,0.25391 -0.0106,0.0754 -0.0806,0.1656 -0.21094,0.27539 l -5.2168,3.96094 c -0.33405,0.15849 -0.57156,0.13445 -0.70898,-0.0644 l -4.87891,-4.92188 c -0.21967,-0.21061 -0.18729,-0.4007 0.0918,-0.56641 l 5.25781,-3.95117 c 0.12585,-0.0847 0.24154,-0.11914 0.35352,-0.11914 z m -74.49805,27.70313 0.002,0 18.08789,0.6582 c 0.18494,-0.0186 0.30924,0.008 0.36915,0.082 0.0505,0.0978 0.005,0.20577 -0.12891,0.32227 l -3.16797,3.09961 c -0.22409,0.198 -0.47111,0.26128 -0.74219,0.19726 l -18.48047,-0.34961 c -0.23727,10e-4 -0.3877,-0.0631 -0.45507,-0.19336 -0.0415,-0.12171 -1.7e-4,-0.22926 0.125,-0.32226 l 3.31445,-3.13086 c 0.27645,-0.17681 0.63515,-0.29526 1.07617,-0.36328 z m 132.41211,4.83593 c 0.0584,0.002 0.12084,0.0155 0.18555,0.0391 l 6.59765,2.80859 c 0.15625,0.0408 0.24205,0.096 0.26563,0.16992 0.0224,0.0735 10e-4,0.18694 -0.0684,0.33594 l -3.00195,5.5625 c -0.23423,0.26917 -0.45489,0.33933 -0.66797,0.20703 l -6.61524,-2.72656 c -0.29347,-0.11259 -0.35244,-0.29538 -0.17187,-0.55078 l 3.03906,-5.57617 c 0.0769,-0.1245 0.16821,-0.20511 0.27148,-0.24415 0.0516,-0.019 0.10763,-0.0278 0.16602,-0.0254 z"
           transform="matrix(0.92474656,0,0,0.92474656,38.893107,221.25923)"
           id="path4982" />
      </g>
    </g>
  </g>
</svg>
