<?xml version="1.0" encoding="UTF-8" standalone="no"?>
<!-- Created with Inkscape (http://www.inkscape.org/) -->

<svg
   xmlns:dc="http://purl.org/dc/elements/1.1/"
   xmlns:cc="http://creativecommons.org/ns#"
   xmlns:rdf="http://www.w3.org/1999/02/22-rdf-syntax-ns#"
   xmlns:svg="http://www.w3.org/2000/svg"
   xmlns="http://www.w3.org/2000/svg"
   xmlns:sodipodi="http://sodipodi.sourceforge.net/DTD/sodipodi-0.dtd"
   xmlns:inkscape="http://www.inkscape.org/namespaces/inkscape"
   width="155mm"
   height="210mm"
   viewBox="0 0 549.21244 744.09437"
   id="svg4217"
   version="1.1"
   inkscape:version="0.91 r13725"
   sodipodi:docname="rectangular-ams-logo-mono.svg">
  <defs
     id="defs4219" />
  <sodipodi:namedview
     id="base"
     pagecolor="#ffffff"
     bordercolor="#666666"
     borderopacity="1.0"
     inkscape:pageopacity="0.0"
     inkscape:pageshadow="2"
     inkscape:zoom="0.49497475"
     inkscape:cx="120.79684"
     inkscape:cy="344.21441"
     inkscape:document-units="px"
     inkscape:current-layer="layer1"
     showgrid="false"
     inkscape:window-width="1366"
     inkscape:window-height="710"
     inkscape:window-x="0"
     inkscape:window-y="27"
     inkscape:window-maximized="1" />
  <metadata
     id="metadata4222">
    <rdf:RDF>
      <cc:Work
         rdf:about="">
        <dc:format>image/svg+xml</dc:format>
        <dc:type
           rdf:resource="http://purl.org/dc/dcmitype/StillImage" />
        <dc:title></dc:title>
      </cc:Work>
    </rdf:RDF>
  </metadata>
  <g
     inkscape:label="Layer 1"
     inkscape:groupmode="layer"
     id="layer1"
     transform="translate(0,-308.26789)">
    <path
       inkscape:connector-curvature="0"
       id="path4572"
       d="m 40.220151,315.65366 c -18.68301,0 -33.72445,15.0414 -33.72445,33.7244 l 0,603.18192 c 0,18.683 15.04144,33.72453 33.72445,33.72453 l 158.797259,0 c 43.83199,0 75.58879,58.69199 75.58879,58.69199 0,0 31.76149,-58.69199 75.59339,-58.69199 l 158.79728,0 c 18.683,0 33.7199,-15.04153 33.7199,-33.72453 l 0,-603.18192 c 0,-18.683 -15.0369,-33.7244 -33.7199,-33.7244 l -468.776719,0 z m 0,16.1233 468.776719,0 c 10.0003,0 17.6012,7.6008 17.6012,17.6011 l 0,603.18192 c 0,10.0003 -7.6009,17.6012 -17.6012,17.6012 l -158.79728,0 c -29.1347,0 -51.2246,18.29443 -66.12749,34.59002 -3.2761,3.5822 -6.13,7.1171 -8.7937,10.5386 a 0.84848272,0.84848272 0 0 1 -1.3398,0 c -2.6637,-3.4215 -5.5176,-6.9564 -8.7937,-10.5386 -14.9028,-16.29559 -36.9974,-34.59002 -66.13209,-34.59002 l -158.792659,0 c -10.00029,0 -17.60577,-7.6009 -17.60577,-17.6012 l 0,-603.18192 c 0,-10.0003 7.60548,-17.6011 17.60577,-17.6011 z m 0,5.9392 c -6.89554,0 -11.66659,4.7664 -11.66659,11.6619 l 0,603.18192 c 0,6.8956 4.77105,11.6666 11.66659,11.6666 l 158.792659,0 c 31.73329,0 55.08959,19.64743 70.51519,36.51452 1.9148,2.0938 3.4493,4.0888 5.0782,6.0957 1.6289,-2.007 3.1679,-4.0018 5.0829,-6.0957 15.4255,-16.86709 38.77729,-36.51452 70.51049,-36.51452 l 158.79728,0 c 6.8955,0 11.662,-4.771 11.662,-11.6666 l 0,-603.18192 c 0,-6.8955 -4.7664,-11.6619 -11.662,-11.6619 l -468.776719,0 z m 227.940449,13.6831 c 41.19499,32.59779 52.65869,51.58149 42.62859,106.03058 -0.123,0.7892 -0.2548,1.5687 -0.3913,2.3342 42.5565,-32.47799 63.3524,-17.8788 102.08029,-5.6123 -28.2425,55.2019 -32.2121,64.7161 -90.70839,61.3578 l 0.4236,0.2809 c 54.6239,20.32729 43.5574,64.38879 50.658,86.26549 -56.7898,3.4252 -73.0209,-2.2189 -92.03439,-39.4841 -1.5357,15.2476 -2.5422,37.927 7.6519,55.48769 -1.0746,-8.5973 5.4802,-9.10109 6.0175,-17.87739 6.80609,8.239 -2.864,29.01579 20.95749,49.79249 -36.00089,-9.1346 -49.79299,-15.4249 -54.09269,-32.242 6.626,3.7804 8.3562,-2.0006 17.4907,6.2385 -13.0588,-16.47619 -12.4381,-43.90409 -10.7228,-59.72339 -26.1823,37.9911 -50.7888,54.16909 -87.71109,47.14979 18.4195,-33.21979 -10.1948,-59.08509 46.69389,-97.54078 l 0.01,-0.01 c -48.77149,5.7269 -64.37249,-13.8215 -93.39259,-52.601 48.5785,-18.3645 63.0457,-43.20269 108.23129,-5.7412 -15.8016,-46.11989 18.9308,-49.41819 26.2107,-104.10608 z m 133.52578,42.96009 A 214.93072,214.93072 0 0 1 489.54027,567.40603 214.93072,214.93072 0 0 1 274.6062,782.3356 214.93072,214.93072 0 0 1 59.676721,567.40603 214.93072,214.93072 0 0 1 147.01501,394.74155 166.38301,166.38301 0 0 0 108.22614,501.49034 166.38301,166.38301 0 0 0 274.6062,667.87502 166.38301,166.38301 0 0 0 440.99088,501.49034 166.38301,166.38301 0 0 0 401.68638,394.35935 Z m -123.93558,5.3085 c -12.7744,2.7631 -6.6876,23.7745 -4.8204,41.6019 1.2463,11.89959 -5.6336,28.12999 -1.6207,32.57339 3.1093,3.4429 7.9976,0.4352 8.9456,-11.5837 0.9827,-12.4582 -7.9894,-46.91699 -2.5045,-62.59159 z m 88.87599,68.18089 c -13.7182,9.359 -49.6798,7.8541 -61.1046,13.7982 -10.69519,5.5646 -12.71809,9.2903 -8.8627,11.639 3.318,2.0214 10.036,-7.7716 31.0403,-10.0045 17.8244,-1.8949 39.5682,-2.3787 38.927,-15.4327 z m -178.13878,0.9669 c -3.9066,0.031 -7.009,1.4456 -8.8489,5.092 16.5503,-1.3654 42.71139,14.0808 55.20219,15.4189 12.049,1.2907 19.9857,0.4508 18.2043,-2.9973 -2.8893,-5.5923 -20.7255,-2.4254 -31.9289,-6.6251 -11.53929,-4.3256 -24.03419,-10.9568 -32.62869,-10.8885 z m 85.76369,15.9575 a 10.951376,10.951376 0 0 0 -10.9483,10.9575 10.951376,10.951376 0 0 0 10.9483,10.9484 10.951376,10.951376 0 0 0 10.953,-10.9484 10.951376,10.951376 0 0 0 -10.953,-10.9575 z m -15.1656,27.0026 c -6.278,0.4571 -11.8845,17.73189 -20.1518,26.38099 -12.3856,12.9576 -30.05629,25.8492 -21.6435,35.8515 5.2533,-15.7537 33.4391,-37.519 40.2851,-47.9739 6.6047,-10.08619 5.3913,-14.25859 1.5102,-14.25859 z m 33.043,1.1648 c -1.473,0.026 -1.9915,1.6257 -2.3066,3.5405 -1.0222,6.2111 11.29319,13.26939 17.77149,23.32849 9.7055,15.07 18.1156,35.263 29.8065,29.4197 -14.0906,-8.7884 -28.6712,-41.278 -37.2374,-50.37709 -4.132,-4.3891 -6.56099,-5.9376 -8.03399,-5.9116 z M 158.84271,642.86142 c -0.1546,0.01 -0.347,0.055 -0.5847,0.1334 -0.4588,0.1365 -1.0071,0.3552 -1.639,0.6584 -0.5946,0.2997 -1.242,0.6643 -1.9383,1.0865 -0.6794,0.4018 -1.3199,0.7975 -1.9245,1.1924 -0.6046,0.3949 -1.1238,0.7541 -1.5654,1.0774 -0.4211,0.3403 -0.6842,0.5906 -0.7826,0.7504 -0.7364,1.2176 -1.681,2.7456 -2.8315,4.5856 -1.1335,1.8197 -2.368,3.782 -3.7017,5.884 -1.2962,2.0985 -2.6453,4.239 -4.0469,6.4226 -1.3642,2.1802 -2.6609,4.2232 -3.8996,6.1279 -1.3132,2.1189 -2.6834,4.1774 -4.1022,6.174 -1.38137,1.9933 -2.77774,4.0243 -4.18963,6.0958 -0.26472,0.4013 -0.27372,0.6854 -0.0323,0.8517 0.2415,0.1662 0.6137,0.1471 1.12336,-0.051 1.12804,-0.443 2.18841,-1.0269 3.17677,-1.7587 1.0258,-0.7353 1.9752,-1.5487 2.8545,-2.4401 0.9168,-0.8949 1.7568,-1.8382 2.5138,-2.8315 0.7944,-0.9967 1.5157,-1.9687 2.1639,-2.9144 2.3487,-3.364 4.5635,-6.7555 6.6436,-10.1702 2.1006,-3.3978 4.2357,-6.8336 6.4042,-10.313 0.7737,-1.2211 1.5418,-2.4141 2.302,-3.5774 0.7976,-1.1666 1.5585,-2.2943 2.2882,-3.3793 l 0.6123,-0.7321 c 0.2886,-0.3469 0.5698,-0.7041 0.838,-1.0681 0.2851,-0.3844 0.4963,-0.7441 0.6353,-1.0773 0.1596,-0.3163 0.1641,-0.5304 0.024,-0.6492 -0.071,-0.06 -0.186,-0.088 -0.3407,-0.078 z m 230.46347,0.4373 c -0.3843,-0.024 -0.7755,0.059 -1.174,0.2487 -0.6483,0.316 -1.1989,0.7879 -1.6483,1.418 -0.4411,0.5935 -0.795,1.2773 -1.0635,2.0442 -0.2685,0.767 -0.4441,1.5537 -0.5295,2.3618 -0.063,0.794 -0.025,1.5394 0.1059,2.2422 0.2502,0.9412 0.6865,1.6362 1.3167,2.0856 0.7969,0.5638 1.6864,0.848 2.6657,0.8564 0.9794,0.01 1.9572,-0.056 2.9328,-0.2025 -0.5587,2.1448 -1.2063,4.0002 -1.9429,5.5662 -0.7508,1.5437 -1.5708,3.0847 -2.454,4.6179 -0.092,0.1525 -0.2006,0.3447 -0.3314,0.5847 -0.1452,0.2173 -0.2793,0.4604 -0.396,0.7228 -0.1306,0.24 -0.2176,0.4708 -0.267,0.6906 -0.049,0.2197 -0.019,0.3861 0.087,0.5065 0.1078,0.1204 0.2948,0.1438 0.5617,0.069 0.2751,-0.1115 0.5798,-0.2704 0.9162,-0.4834 0.3447,-0.2497 0.6834,-0.5338 1.0221,-0.8425 0.347,-0.3454 0.6512,-0.6883 0.9024,-1.0359 1.2457,-1.6057 2.3044,-3.3038 3.186,-5.0875 0.8675,-1.806 1.4485,-3.7402 1.7403,-5.8103 0.2587,-0.038 0.5971,-0.033 1.0083,0.024 0.4336,0.04 0.7368,0.097 0.9116,0.1749 0.2707,0.08 0.4862,0.1002 0.6492,0.06 0.1631,-0.04 0.272,-0.247 0.3176,-0.6215 0,-0.4053 -0.084,-0.8937 -0.2256,-1.4641 -0.1553,-0.5929 -0.4159,-1.0391 -0.7919,-1.3352 -0.4552,-0.3718 -1.0668,-0.5622 -1.8323,-0.5801 -0.1773,0.019 -0.2824,-0.048 -0.3085,-0.1888 -0.1151,-0.4299 -0.3754,-1.0642 -0.7827,-1.9061 -0.3849,-0.856 -0.8714,-1.6804 -1.4641,-2.4677 -0.5927,-0.7873 -1.2539,-1.4038 -1.9797,-1.8554 -0.37,-0.2371 -0.7483,-0.3676 -1.1326,-0.3914 z m 0.1565,4.5304 c 0.1497,-0.024 0.3001,-0.019 0.4466,0.014 0.2564,0.058 0.4807,0.1818 0.6676,0.3776 0.2093,0.1815 0.387,0.3978 0.5432,0.6445 0.1563,0.2467 0.2939,0.5076 0.4052,0.7827 0.097,0.2527 0.1711,0.4729 0.2256,0.6584 -0.7416,0.2178 -1.4862,0.3268 -2.2376,0.3315 -0.7655,-0.019 -1.4209,-0.1825 -1.9659,-0.4973 -0.046,-0.222 0,-0.4836 0.1198,-0.7826 0.1249,-0.299 0.2983,-0.568 0.5248,-0.8058 0.249,-0.2518 0.522,-0.4407 0.8196,-0.5662 0.1527,-0.081 0.3015,-0.128 0.4512,-0.1521 l 0,0 z m -223.38247,5.4281 c -0.4724,-0.049 -0.8739,0.014 -1.2016,0.1841 l -3.7247,2.4402 c -0.3847,0.2587 -0.3037,0.452 0.244,0.5801 l 17.8728,3.0617 c 0.2892,0.09 0.5507,0.052 0.7827,-0.1151 l 3.5958,-2.3895 c 0.3114,-0.2423 0.2647,-0.4093 -0.1427,-0.511 l -17.4262,-3.2504 z m 255.70267,0.06 c -0.562,0.019 -1.1321,0.079 -1.7127,0.1796 -1.161,0.2009 -2.3066,0.5205 -3.4438,0.9577 -1.1289,0.4005 -2.2229,0.9161 -3.2688,1.5469 -1.0377,0.5942 -1.9881,1.2435 -2.8591,1.9521 -1.7115,1.3664 -3.5931,2.8591 -5.6492,4.4751 -2.0478,1.5794 -4.2046,3.2093 -6.4686,4.8941 -2.2415,1.6705 -4.5376,3.3595 -6.883,5.0644 -2.3454,1.705 -4.6532,3.3413 -6.9291,4.9079 -0.3223,0.2355 -0.8388,0.5913 -1.5423,1.0682 -0.6953,0.4402 -1.4867,0.9234 -2.3757,1.4548 -0.8889,0.5314 -1.82379,1.0638 -2.80839,1.593 -0.9847,0.5291 -1.9162,0.9959 -2.7947,1.395 -0.8927,0.3767 -1.6783,0.6485 -2.3527,0.8241 -0.6661,0.1391 -1.1391,0.096 -1.4134,-0.1381 -0.269,-0.7723 -0.2547,-1.7272 0.037,-2.8545 0.2775,-1.1498 0.7333,-2.3651 1.3674,-3.6464 0.6199,-1.3037 1.3626,-2.6082 2.2329,-3.9134 0.8787,-1.3418 1.7693,-2.5923 2.6658,-3.7569 0.8823,-1.187 1.7295,-2.2275 2.54599,-3.1215 0.8165,-0.894 1.499,-1.5616 2.0396,-1.9981 -0.1398,-1.2628 -0.285,-2.5078 -0.4328,-3.7339 -0.1395,-1.2627 -0.3166,-2.533 -0.5295,-3.8121 -0.062,-0.495 -0.3034,-0.7517 -0.7228,-0.7689 -0.4112,-0.054 -0.766,0.079 -1.06809,0.3959 -1.1941,1.2902 -2.3683,2.6629 -3.5221,4.116 -1.1537,1.4532 -2.2177,2.9772 -3.1906,4.5672 -0.9728,1.59 -1.8214,3.2237 -2.546,4.9079 -0.7389,1.6618 -1.2899,3.3762 -1.6483,5.1427 -0.255,1.1355 -0.4304,2.393 -0.5294,3.7753 -0.077,1.3681 -0.052,2.7672 0.069,4.1989 0.1291,1.395 0.3726,2.7486 0.732,4.0607 0.3452,1.2896 0.8342,2.4437 1.4733,3.453 0.3976,0.6281 1.0399,0.961 1.9153,1.0037 0.8836,0.01 1.8703,-0.1473 2.9603,-0.4604 1.0901,-0.3131 2.212,-0.7234 3.3656,-1.2339 1.16179,-0.5471 2.21909,-1.0826 3.18139,-1.5976 3.5229,-1.9791 6.9344,-4.1352 10.2301,-6.4732 3.3039,-2.3747 6.5197,-4.7567 9.6546,-7.1501 3.1208,-2.4158 6.1516,-4.7742 9.093,-7.0764 2.9637,-2.3163 5.8639,-4.4178 8.6924,-6.3028 0.7035,-0.4769 1.4398,-0.8028 2.2099,-0.9761 0.77,-0.1733 1.5243,-0.1971 2.2652,-0.069 0.7266,0.1056 1.4201,0.3611 2.081,0.7597 0.6608,0.3985 1.2368,0.9307 1.7219,1.5976 -4.1534,3.4152 -8.0353,6.5128 -11.6436,9.3001 -3.6,2.7507 -6.9969,5.2792 -10.1887,7.5828 -3.1693,2.2895 -6.1636,4.3862 -8.9778,6.2937 -2.7918,1.8933 -5.4688,3.6667 -8.034,5.3223 -2.557,1.6189 -5.0201,3.16289 -7.3895,4.63159 -2.36929,1.4687 -4.69649,2.9253 -6.98429,4.3738 l -0.8425,0.5387 -0.024,0.014 -0.037,0.019 -0.8793,0.3821 -1.5286,0.6676 c -0.5598,0.2438 -1.1395,0.4508 -1.7311,0.6216 -0.5779,0.136 -1.1581,0.2006 -1.7403,0.1932 -0.5685,-0.042 -1.0996,-0.2312 -1.593,-0.5663 -0.8153,-0.5426 -1.716,-1.2214 -2.7072,-2.0349 -1.0017,-0.8379 -1.9809,-1.5807 -2.9327,-2.2376 -0.4407,-0.2136 -0.661,-0.1188 -0.6584,0.2855 -0.019,1.4851 -0.059,2.9498 -0.1242,4.3968 -0.051,1.4121 -0.087,2.8611 -0.1059,4.3462 1.0493,0.6145 2.174,1.3692 3.3748,2.2652 1.2251,0.8854 2.4117,1.8588 3.5681,2.9189 1.1564,1.0601 2.2197,2.1609 3.1814,3.3057 0.986,1.1342 1.7599,2.2454 2.3204,3.3333 -0.2448,1.6991 -0.8504,3.3349 -1.814,4.9125 -0.9286,1.5914 -2.0576,3.0554 -3.3885,4.3877 -1.331,1.3322 -2.7801,2.5283 -4.3462,3.5865 -1.5555,1.0825 -3.07,1.9581 -4.5442,2.6289 -1.815,0.8191 -3.5235,1.2588 -5.1197,1.3167 -1.5962,0.058 -3.0554,-0.1728 -4.383,-0.6952 -1.3033,-0.5328 -2.4515,-1.3093 -3.4438,-2.325 -0.968,-1.0263 -1.7501,-2.2189 -2.3434,-3.5819 -0.5723,-1.3144 -0.989,-2.7414 -1.2524,-4.2772 -0.2389,-1.5464 -0.3149,-3.1186 -0.2303,-4.7191 0.016,-0.2964 -0.046,-0.5355 -0.1796,-0.709 -0.1091,-0.1841 -0.2457,-0.2963 -0.4097,-0.3407 -0.1504,-0.079 -0.3007,-0.071 -0.4604,0.028 -0.1462,0.063 -0.2393,0.222 -0.2763,0.4696 -0.2851,1.3402 -0.4692,2.7491 -0.5479,4.2311 -0.054,1.4713 0,2.945 0.1426,4.4152 0.1585,1.4946 0.4236,2.9581 0.7873,4.3923 0.3987,1.4478 0.867,2.8042 1.4181,4.0699 0.9537,2.1907 2.1759,3.9339 3.6648,5.2256 1.4889,1.2917 3.1272,2.1854 4.9079,2.6841 1.805,0.4882 3.7049,0.6031 5.7043,0.3407 1.9995,-0.2624 3.9907,-0.8424 5.9761,-1.7357 2.2044,-0.9886 4.1992,-2.2916 5.9852,-3.9088 1.821,-1.6034 3.3459,-3.4211 4.5718,-5.4604 1.2364,-2.0149 2.1124,-4.1946 2.6289,-6.5331 0.5408,-2.3491 0.6398,-4.7543 0.2946,-7.2099 -0.084,-0.6584 -0.2321,-1.3557 -0.4419,-2.104 -0.1856,-0.7589 -0.4122,-1.5184 -0.6815,-2.2698 -0.2448,-0.762 -0.5089,-1.5027 -0.7918,-2.2191 -0.283,-0.7166 -0.5514,-1.3634 -0.8057,-1.9475 0.7588,-0.1856 1.4513,-0.387 2.081,-0.6032 0.6434,-0.2512 1.2495,-0.4975 1.8094,-0.7412 l 1.6022,-0.6998 c 0.014,-0.01 0.024,-0.032 0.037,-0.041 0.01,0 0.021,-3e-4 0.028,0 l 1.4135,-0.8932 c 5.22609,-3.3089 10.35879,-6.6691 15.39579,-10.0782 5.0228,-3.4315 9.7798,-6.80559 14.2771,-10.12429 4.5054,-3.3553 8.6482,-6.5951 12.4262,-9.7098 3.7863,-3.1514 7.0484,-6.0916 9.779,-8.8259 0.1958,-0.187 0.3185,-0.3828 0.3821,-0.5802 0.086,-0.2116 0.161,-0.3963 0.2164,-0.557 0.069,-0.7349 0.038,-1.6261 -0.092,-2.675 -0.1442,-1.0713 -0.3543,-2.1502 -0.6307,-3.232 -0.2683,-1.1184 -0.5967,-2.1798 -0.9853,-3.1906 -0.3886,-1.0108 -0.8038,-1.8459 -1.2523,-2.5046 -0.7348,-1.0116 -1.5862,-1.7785 -2.546,-2.302 -0.9599,-0.5234 -1.9839,-0.8519 -3.0709,-0.9806 -0.5435,-0.064 -1.0954,-0.087 -1.6575,-0.069 z m -259.86927,6.4917 c -0.4724,-0.049 -0.8739,0.01 -1.2017,0.1796 l -3.7246,2.4447 c -0.1528,0.092 -0.2176,0.194 -0.1933,0.3039 0.047,0.1242 0.1977,0.2152 0.442,0.2763 l 17.8866,3.0294 c 0.2382,0.12 0.4955,0.092 0.7642,-0.083 l 3.6142,-2.4171 c 0.3196,-0.2058 0.2686,-0.3721 -0.1612,-0.488 l -17.4262,-3.2458 z m 5.3867,13.3424 c -0.097,0.016 -0.2063,0.073 -0.3223,0.1566 l -4.6547,3.1675 -4.2449,13.4898 c -1.1034,0.3994 -2.3508,0.4901 -3.7476,0.2624 -1.3745,-0.2135 -2.7549,-0.5908 -4.1437,-1.128 -1.3663,-0.5229 -2.6794,-1.1349 -3.9318,-1.837 -1.2524,-0.7021 -2.2797,-1.3387 -3.0801,-1.9106 -0.7555,-0.5435 -1.2668,-1.123 -1.5377,-1.7358 -0.2567,-0.6351 -0.341,-1.4118 -0.2579,-2.3342 0.01,-0.2138 -0.079,-0.3787 -0.2578,-0.4926 -0.1568,-0.1 -0.3351,-0.09 -0.5387,0.032 -0.4356,0.2892 -0.9852,0.8366 -1.6528,1.639 -0.6534,0.78 -1.2801,1.642 -1.8784,2.5828 -0.5618,0.9327 -1.0392,1.8574 -1.4319,2.7717 -0.356,0.9061 -0.4634,1.6181 -0.3269,2.1454 0.1448,0.564 0.5005,1.1377 1.0728,1.7219 0.5723,0.5842 1.2664,1.154 2.081,1.70349 0.8512,0.5414 1.7495,1.0529 2.7025,1.5332 0.9531,0.4802 1.8927,0.8864 2.8131,1.22 1.0242,0.3683 2.0931,0.6402 3.209,0.8149 1.1301,0.1523 2.2384,0.1919 3.3195,0.1243 1.1178,-0.076 2.1895,-0.2745 3.2136,-0.5986 1.0607,-0.3322 2.0288,-0.7987 2.9143,-1.3996 -0.5773,3.2824 -0.4906,6.1206 0.2533,8.5128 0.7438,2.3922 2.3175,4.3504 4.7145,5.8748 l 1.441,0.9208 c 0.04,0.025 0.1059,0.019 0.1613,0.024 l 1.2937,0.5848 c 1.1612,0.5248 2.4362,0.9688 3.8167,1.3305 1.4048,0.3727 2.8644,0.6243 4.3785,0.7551 1.5249,0.1065 3.0779,0.083 4.6638,-0.074 1.6102,-0.1461 3.2121,-0.4612 4.7974,-0.9392 0.3431,1.1747 0.7274,2.2836 1.1602,3.3241 0.4329,1.0405 1.0035,2.026 1.7174,2.9604 0.7138,0.9344 1.5977,1.8167 2.6519,2.6427 1.0893,0.8128 2.4318,1.5804 4.0285,2.302 l 1.4456,0.6538 c 0.01,0 0.012,0.016 0.019,0.019 l 0.069,0.024 0.032,0.014 c 0,9e-4 0.01,-9e-4 0.01,0 l 0.6123,0.1933 0.8333,0.267 c 2.7309,0.8734 5.25,1.0088 7.5598,0.4097 2.3181,-0.6243 4.3081,-1.9231 5.9715,-3.8996 -0.094,1.2521 0.033,2.4212 0.3821,3.5083 0.3744,1.0953 0.9113,2.0889 1.6022,2.9788 0.7243,0.8727 1.5672,1.6313 2.53219,2.2744 0.9649,0.6431 2.0044,1.1404 3.1169,1.4963 l 1.0221,0.3269 0.686,0.2209 c 0.01,0 0.037,-0.024 0.046,-0.024 8e-4,7e-4 0.014,0.014 0.014,0.014 l 19.2587,4.535 c 0.054,0.038 0.1105,0.081 0.1565,0.083 l 1.6712,0.078 c 0.61,0.028 1.2591,0.016 1.9521,-0.032 0.6944,-0.075 1.3935,-0.1761 2.0902,-0.3038 0.698,-0.1544 1.3681,-0.3484 2.0166,-0.5848 0.6485,-0.2363 1.2462,-0.5022 1.791,-0.7965 1.138,0.6894 2.4322,1.1721 3.8812,1.4503 1.4755,0.2795 2.9492,0.319 4.4198,0.1198 1.4972,-0.198 2.9004,-0.656 4.2081,-1.3674 1.3344,-0.7103 2.4419,-1.7085 3.3241,-2.9973 0.2966,0.4918 0.8527,1.0896 1.6713,1.791 0.8198,0.6749 1.7532,1.2999 2.79,1.8785 1.0633,0.5796 2.1555,1.0424 3.2827,1.3858 1.1271,0.3433 2.1607,0.4279 3.0985,0.2578 0.5617,-0.081 1.2343,-0.5397 2.0165,-1.3812 0.7834,-0.8681 1.5109,-2.0175 2.187,-3.4484 0.2882,0.6774 0.684,1.3767 1.1832,2.0902 0.5004,0.687 1.1207,1.3235 1.8646,1.9153 0.7704,0.5929 1.6919,1.0988 2.7624,1.5193 1.0717,0.394 2.3248,0.6212 3.7569,0.686 l 1.7449,0.083 c 0.016,8e-4 0.054,-0.062 0.074,-0.069 0.042,0.019 0.1214,0.1117 0.1518,0.1059 l 1.5654,-0.2855 c 0.7309,-0.1353 1.5287,-0.4216 2.3941,-0.8517 0.8866,-0.4611 1.7559,-1.0917 2.6058,-1.8969 0.87119,-0.8362 1.66909,-1.8622 2.38949,-3.0755 0.7156,-1.2394 1.2794,-2.7094 1.6943,-4.406 1.0654,0.5047 2.3193,0.9243 3.7569,1.2523 1.4588,0.2969 2.8872,0.5178 4.2909,0.6629 1.399,0.1191 2.6484,0.1566 3.7477,0.1151 1.1205,-0.072 1.8829,-0.2416 2.2928,-0.5065 0.41,-0.2648 0.7623,-0.7771 1.0543,-1.5331 0.2921,-0.756 0.5333,-1.5681 0.7229,-2.4401 0.2109,-0.903 0.3658,-1.7701 0.4557,-2.5967 0.086,-0.8527 0.1236,-1.4923 0.1243,-1.9245 -0.01,-0.9165 -0.1622,-1.911 -0.4697,-2.988 -0.3073,-1.0771 -0.7223,-2.1384 -1.2384,-3.1768 -0.521,-1.0645 -1.1202,-2.0724 -1.8094,-3.0248 -0.6892,-0.9524 -1.4138,-1.7743 -2.1639,-2.4724 -0.7502,-0.6981 -1.5238,-1.232 -2.3204,-1.5976 -0.7966,-0.3655 -1.5572,-0.4805 -2.2882,-0.3453 -0.8663,0.1332 -1.6475,0.5193 -2.3389,1.1602 -0.6962,0.6148 -1.3231,1.3793 -1.883,2.2928 -0.5599,0.9136 -1.0429,1.9371 -1.4549,3.0663 -0.4168,1.1031 -0.7943,2.2095 -1.128,3.3241 -0.3123,1.0838 -0.5896,2.1367 -0.8333,3.1538 -0.2486,0.9909 -0.4705,1.84 -0.663,2.5506 -0.2341,1.0693 -0.6535,1.9411 -1.2569,2.6197 -0.60329,0.6786 -1.30929,1.2278 -2.12239,1.6482 -0.8131,0.4205 -1.6743,0.7456 -2.5783,0.9669 -0.904,0.2213 -1.7858,0.4115 -2.6473,0.5709 l -0.442,0.083 -0.9991,-0.051 c -1.4851,-0.067 -2.7083,-0.2922 -3.674,-0.6814 -0.9644,-0.4157 -1.7243,-0.9577 -2.279,-1.6206 -0.5268,-0.6883 -0.8886,-1.4862 -1.0865,-2.3987 -0.1714,-0.9113 -0.2334,-1.9099 -0.1841,-2.9972 0.014,-0.3183 -0.064,-0.5496 -0.244,-0.6906 -0.153,-0.1398 -0.3529,-0.1896 -0.5939,-0.1474 -0.2399,0.016 -0.4838,0.121 -0.7321,0.3223 -0.2483,0.2013 -0.4341,0.4899 -0.5571,0.8564 -0.1904,0.6823 -0.4241,1.3712 -0.6952,2.0764 -0.2699,0.6787 -0.5749,1.3197 -0.9208,1.9152 -0.3193,0.5968 -0.6764,1.1084 -1.0681,1.5424 -0.3652,0.4352 -0.7448,0.7439 -1.151,0.9116 -0.5364,0.1086 -1.2546,0.019 -2.1455,-0.2625 -0.8643,-0.2783 -1.7394,-0.6238 -2.6243,-1.0359 -0.8572,-0.4374 -1.6179,-0.8842 -2.2882,-1.3397 -0.6438,-0.4544 -1.0017,-0.8235 -1.0681,-1.1188 0.2398,-0.6004 0.4532,-1.2066 0.6399,-1.8094 0.2146,-0.628 0.4003,-1.2525 0.5617,-1.883 0.094,-0.3147 0.093,-0.5693 0,-0.7597 -0.098,-0.1905 -0.254,-0.3046 -0.465,-0.3407 -0.1832,-0.061 -0.3953,-0.03 -0.6399,0.092 -0.2447,0.1219 -0.4698,0.3599 -0.6722,0.7228 -0.4604,0.7764 -0.9197,1.5682 -1.3812,2.3711 -0.4339,0.7776 -0.9588,1.5111 -1.5746,2.2007 -0.5918,0.7439 -1.3592,1.3074 -2.3066,1.6897 -0.9197,0.357 -1.9005,0.5921 -2.942,0.7044 -1.0403,0.086 -2.1057,0.081 -3.1906,-0.024 -1.0837,-0.1289 -2.082,-0.311 -3.0018,-0.5387 0.2796,-0.3062 0.55,-0.689 0.8103,-1.1556 0.2868,-0.4653 0.5465,-0.9617 0.7827,-1.4825 0.2361,-0.5208 0.4488,-1.0272 0.6307,-1.5239 0.1832,-0.5233 0.3168,-0.9824 0.4144,-1.3766 0.04,-0.2905 0,-0.506 -0.1242,-0.6446 -0.1,-0.1374 -0.2472,-0.2123 -0.4328,-0.2208 -0.1855,-0.01 -0.3701,0.051 -0.5617,0.1749 -0.1917,0.1242 -0.3493,0.2898 -0.465,0.4972 -0.8798,1.2357 -1.7615,2.2458 -2.6473,3.0295 -0.8859,0.7836 -1.8435,1.3914 -2.8729,1.8231 -1.0294,0.4318 -2.1603,0.7121 -3.3886,0.8426 -1.2283,0.1304 -2.6101,0.1617 -4.1482,0.092 l -0.953,-0.046 -0.3684,-0.019 -17.8175,-4.3462 c -0.012,0 -0.025,0.01 -0.037,0 l -0.1657,-0.055 -1.0221,-0.3269 c -0.708,-0.2265 -1.4169,-0.5069 -2.1179,-0.8425 -0.7009,-0.3357 -1.3387,-0.7339 -1.9153,-1.1971 -0.5513,-0.455 -1.0245,-0.984 -1.418,-1.5837 -0.3683,-0.5916 -0.5802,-1.2726 -0.64,-2.0442 -0.056,-0.4359 -0.077,-0.8072 -0.064,-1.1096 0.038,-0.2943 0.093,-0.5793 0.1565,-0.8656 0.089,-0.2781 0.1895,-0.554 0.3039,-0.8241 0.1475,-0.2872 0.3126,-0.6291 0.4926,-1.0175 0.165,-0.2538 0.201,-0.4639 0.115,-0.6307 -0.086,-0.1669 -0.2489,-0.2586 -0.4926,-0.2809 -0.2105,-0.04 -0.4571,-0.01 -0.7413,0.097 -0.2589,0.1124 -0.4878,0.3044 -0.68599,0.5755 -0.5197,0.7535 -1.0437,1.3928 -1.5745,1.9199 -0.5056,0.535 -1.1028,1.0004 -1.7864,1.395 -0.8252,0.4886 -1.6869,0.7968 -2.5921,0.9254 -0.9052,0.1287 -1.83,0.1384 -2.7716,0.032 -0.9163,-0.098 -1.8405,-0.2659 -2.767,-0.5065 -0.9184,-0.2658 -1.7945,-0.5342 -2.6289,-0.8011 l -0.8748,-0.2762 -0.115,-0.037 -0.1289,-0.06 -0.9024,-0.4051 c -1.5483,-0.6998 -2.8443,-1.4875 -3.8766,-2.3619 -0.9972,-0.8877 -1.7608,-1.9652 -2.2974,-3.2274 0.3996,-0.1108 0.9199,-0.327 1.5608,-0.6492 0.665,-0.3112 1.3389,-0.705 2.0211,-1.1832 0.7065,-0.4673 1.358,-1.0059 1.9521,-1.6114 0.6293,-0.6187 1.101,-1.2782 1.4181,-1.9797 0.4701,-1.0403 0.6001,-2.0448 0.3959,-3.0111 -0.1801,-0.9553 -0.5856,-1.8509 -1.2247,-2.6933 -0.628,-0.8665 -1.4408,-1.6567 -2.4309,-2.3665 -0.9551,-0.723 -1.9828,-1.3467 -3.0847,-1.8738 -1.7308,-0.81139 -3.3903,-1.30049 -4.9769,-1.46409 -1.5625,-0.1525 -3.0218,-0.012 -4.3831,0.4236 -1.3261,0.4203 -2.5386,1.10909 -3.6417,2.06719 -1.068,0.9448 -1.9619,2.1138 -2.6796,3.5082 -0.2889,0.5104 -0.3059,0.8972 -0.046,1.1602 0.2707,0.2389 0.6212,0.3071 1.0451,0.2072 0.7532,-0.1838 1.4555,-0.1848 2.104,-0.01 0.6485,0.1766 1.3086,0.5512 1.9843,1.1188 0.6516,0.5566 1.1678,1.2415 1.5562,2.058 0.3994,0.7923 0.7362,1.5678 1.0037,2.3296 -1.1224,0.1629 -2.2983,0.1872 -3.5267,0.069 -1.2284,-0.1181 -2.4444,-0.3225 -3.6556,-0.6077 -1.187,-0.2743 -2.3357,-0.6056 -3.4438,-0.9899 -1.0972,-0.4085 -2.0929,-0.811 -2.988,-1.2155 l -0.9807,-0.4466 -0.1289,-0.055 -0.5985,-0.3776 c -1.2097,-0.7692 -2.1863,-1.5169 -2.9236,-2.2375 -0.7006,-0.7287 -1.191,-1.535 -1.4825,-2.4125 -0.2771,-0.8998 -0.3654,-1.9261 -0.2578,-3.0847 0.1443,-1.16669 0.468,-2.58639 0.9622,-4.25409 l 4.6409,-15.6859 c 0.083,-0.2303 0.046,-0.3975 -0.1106,-0.4973 -0.078,-0.05 -0.1652,-0.067 -0.2624,-0.051 z m 62.83109,6.1878 -18.2504,1.105 c -0.44389,0.081 -0.79869,0.2412 -1.07269,0.488 l -3.0801,3.7431 c -0.1245,0.1275 -0.1518,0.2579 -0.083,0.3913 0.052,0.1002 0.2039,0.146 0.4558,0.1427 l 18.63249,-1.395 c 0.2437,0.024 0.4637,-0.066 0.6629,-0.2533 l 2.9881,-3.7246 c 0.1404,-0.1782 0.1784,-0.2913 0.1105,-0.3407 -0.06,-0.075 -0.1789,-0.1252 -0.3637,-0.1565 z m 68.11179,7.5506 c -0.7193,0.052 -1.4063,0.2869 -2.058,0.7044 -0.63039,0.3867 -1.21479,0.889 -1.74949,1.501 -0.5347,0.6119 -0.992,1.2752 -1.372,1.9935 -0.354,0.7134 -0.5964,1.4261 -0.7366,2.12709 -0.1181,0.9667 0.029,1.77 0.4466,2.4217 0.5297,0.8198 1.2488,1.4186 2.1546,1.7909 0.90589,0.3723 1.83929,0.6705 2.79929,0.8978 -1.317,1.7826 -2.60989,3.2635 -3.87659,4.4429 -1.2715,1.1532 -2.6013,2.2759 -3.9917,3.3701 -0.1421,0.1073 -0.3187,0.2496 -0.5294,0.4236 -0.2155,0.1478 -0.4295,0.3202 -0.6354,0.5203 -0.2107,0.1739 -0.3788,0.3576 -0.5064,0.5432 -0.1278,0.1856 -0.161,0.3501 -0.1059,0.5019 0.055,0.1518 0.2216,0.2463 0.4973,0.2762 0.2968,-9e-4 0.6397,-0.038 1.0313,-0.1105 0.4128,-0.1035 0.8322,-0.2355 1.2615,-0.396 0.4505,-0.1914 0.8575,-0.4015 1.22,-0.6307 1.7539,-1.0266 3.3704,-2.204 4.85269,-3.5313 1.4774,-1.3534 2.7383,-2.9341 3.7799,-4.7467 0.2542,0.061 0.5638,0.1883 0.9254,0.3913 0.3876,0.198 0.6493,0.3691 0.7827,0.5064 0.2213,0.1752 0.4138,0.2761 0.5801,0.2993 0.1662,0.024 0.3385,-0.1344 0.5202,-0.465 0.1462,-0.378 0.2594,-0.8545 0.3407,-1.4365 0.077,-0.6081 0,-1.1229 -0.244,-1.5377 -0.2841,-0.5144 -0.7787,-0.9183 -1.4825,-1.2201 -0.1711,-0.049 -0.2398,-0.1454 -0.2117,-0.2854 0.053,-0.4419 0.048,-1.1297 -0.019,-2.0626 -0.039,-0.93779 -0.1895,-1.88469 -0.4466,-2.83609 -0.2571,-0.9514 -0.6362,-1.7692 -1.1418,-2.4585 -0.5104,-0.7155 -1.2049,-1.0495 -2.0856,-0.9945 z m 31.5606,1.9199 c -0.6623,-0.038 -1.3283,0.1221 -1.9981,0.4788 -0.9344,0.5805 -1.6246,1.3874 -2.0719,2.4217 -0.4578,1.0101 -0.7387,2.09379 -0.8471,3.24129 -0.084,1.1369 -0.046,2.2477 0.1106,3.3379 0.1803,1.0796 0.4169,1.9611 0.7136,2.6427 0.3104,0.6466 0.7381,1.1958 1.2845,1.6528 0.5359,0.4327 1.1207,0.7747 1.7495,1.0221 0.6427,0.2127 1.3081,0.3148 1.9982,0.3039 0.6901,-0.012 1.3515,-0.1572 1.9843,-0.4328 1.0224,-0.445 1.8354,-1.0348 2.4448,-1.7633 0.5987,-0.7529 1.0166,-1.5526 1.2523,-2.4079 0.2251,-0.8798 0.2983,-1.7782 0.2164,-2.698 -0.082,-0.9198 -0.2917,-1.7717 -0.6308,-2.5506 -0.2649,-0.6085 -0.6743,-1.28299 -1.2293,-2.02579 -0.5306,-0.7534 -1.1651,-1.4066 -1.8968,-1.9567 -0.7423,-0.5744 -1.548,-0.9641 -2.4171,-1.1648 -0.22,-0.056 -0.4423,-0.089 -0.663,-0.1014 z m -32.3939,2.5276 c 0.3442,-0.037 0.6365,0.037 0.884,0.2072 0.2164,0.1488 0.3783,0.3472 0.4788,0.5985 0.1266,0.2466 0.214,0.5094 0.267,0.7965 0.053,0.28719 0.078,0.58269 0.078,0.87939 0,0.2707 -0.01,0.5028 -0.028,0.6952 -0.7695,-0.073 -1.5063,-0.2538 -2.2053,-0.5295 -0.7038,-0.3017 -1.25049,-0.6973 -1.63899,-1.19239 0.04,-0.2232 0.1734,-0.4503 0.4005,-0.6814 0.22719,-0.2312 0.48849,-0.4116 0.78729,-0.5479 0.3249,-0.1409 0.6531,-0.2194 0.976,-0.2255 z m -86.05368,1.5562 c -0.093,-0.016 -0.1853,0 -0.2855,0.051 l -5.1887,3.52659 c -0.2913,0.2136 -0.3458,0.4455 -0.1749,0.6953 l 3.5635,5.4465 c 0.1376,0.267 0.3419,0.3194 0.6169,0.1565 l 4.68229,-3.2688 3.3057,5.1104 c 0.1042,0.2842 0.32,0.3377 0.6538,0.1658 l 5.1427,-3.5359 c 0.2234,-0.263 0.2642,-0.473 0.1197,-0.6308 l -3.5773,-5.534 c -0.095,-0.2256 -0.2982,-0.2653 -0.5985,-0.1106 l -4.6455,3.2873 -3.34709,-5.21629 c -0.085,-0.083 -0.1744,-0.1271 -0.267,-0.1429 z m 48.57699,0.84249 c -1.0945,0.1099 -2.0758,0.5296 -2.9328,1.2615 -0.8557,0.7054 -1.5843,1.5497 -2.1869,2.5322 -0.576,0.9838 -1.0322,2.0003 -1.372,3.0479 -0.3132,1.0488 -0.4866,1.9462 -0.5202,2.6887 -0.01,0.7173 0.1341,1.4025 0.4235,2.0534 0.2907,0.6244 0.6677,1.1861 1.1234,1.6851 0.4835,0.4737 1.033,0.8524 1.6574,1.1464 0.6245,0.294 1.2811,0.4614 1.9706,0.4926 1.1138,0.05 2.1063,-0.1207 2.9742,-0.5064 0.869,-0.4124 1.5987,-0.9517 2.1869,-1.616 0.5893,-0.6909 1.0498,-1.4677 1.3812,-2.3297 0.3313,-0.8619 0.514,-1.7158 0.5525,-2.5644 0.03,-0.663 -0.036,-1.446 -0.2072,-2.3573 -0.145,-0.9101 -0.4278,-1.7806 -0.8426,-2.5966 -0.4136,-0.8426 -0.9654,-1.5412 -1.6574,-2.1041 -0.6909,-0.5893 -1.5393,-0.8672 -2.5506,-0.8333 z m 84.25359,0.1749 c -0.2583,-0.061 -0.4472,0.047 -0.5571,0.3269 l -2.0718,6.2016 c -0.1342,0.2901 -0.058,0.4729 0.2347,0.5479 l 6.6391,1.8876 c 0.2201,0.1068 0.4247,0 0.6077,-0.3084 l 2.0395,-6.1878 c 0.044,-0.1641 0.049,-0.2815 0.019,-0.3546 -0.032,-0.073 -0.1228,-0.118 -0.2762,-0.1381 l -6.6344,-1.9751 z m -13.453,0.097 c 0.5472,-0.01 1.0453,0.1122 1.4963,0.3499 0.4405,0.2138 0.8156,0.5126 1.128,0.8978 0.3262,0.3502 0.5513,0.7311 0.6722,1.1418 -0.071,0.4361 -0.4101,0.8865 -1.0175,1.3536 -0.583,0.4565 -1.2528,0.8501 -2.0073,1.1786 -0.7303,0.3179 -1.443,0.5099 -2.1363,0.5801 -0.669,0.06 -1.1248,-0.089 -1.3674,-0.4466 -0.2077,-0.3439 -0.3062,-0.7347 -0.2947,-1.174 0.012,-0.4393 0.1021,-0.8653 0.2671,-1.2846 0.1544,-0.4435 0.3781,-0.8636 0.6722,-1.2522 0.294,-0.3886 0.6105,-0.6981 0.9438,-0.9301 0.563,-0.3029 1.1101,-0.4426 1.6436,-0.4143 z m -71.91479,4.9032 c 0.6389,-0.024 1.1909,0.09 1.6575,0.35 0.4943,0.235 0.8922,0.5592 1.1924,0.9714 0.3014,0.3857 0.5106,0.8196 0.6215,1.3029 0.1389,0.4581 0.1691,0.8995 0.097,1.3214 -0.2555,0.3605 -0.7591,0.6168 -1.5101,0.7689 -0.7244,0.1532 -1.4983,0.2079 -2.3205,0.1704 -0.7956,-0.036 -1.5196,-0.1723 -2.173,-0.4144 -0.6269,-0.2409 -0.971,-0.5757 -1.0313,-1.0036 -0.035,-0.4003 0.054,-0.7939 0.2578,-1.1833 0.2036,-0.3894 0.4684,-0.7366 0.8011,-1.0405 0.3338,-0.3303 0.7204,-0.6093 1.1556,-0.8287 0.4351,-0.2195 0.8508,-0.3529 1.2523,-0.4144 z m 47.41219,17.638 c 0.5627,-0.024 1.1046,0.108 1.616,0.3914 0.5375,0.2785 1.0189,0.6457 1.4549,1.105 0.4311,0.4332 0.8083,0.9192 1.1234,1.4548 0.3364,0.5048 0.5742,1.0008 0.7182,1.4871 -0.6884,0.073 -1.4653,0.108 -2.3296,0.1059 -0.8382,-0.01 -1.6841,-0.053 -2.5369,-0.1382 -0.8266,-0.09 -1.633,-0.2119 -2.4171,-0.3637 -0.7579,-0.1567 -1.4163,-0.3601 -1.9751,-0.6077 0.089,-0.3944 0.2865,-0.7793 0.5939,-1.1602 0.3027,-0.407 0.6694,-0.7693 1.0958,-1.0912 0.4264,-0.3219 0.8772,-0.5972 1.349,-0.8195 0.4718,-0.2223 0.9063,-0.3435 1.3075,-0.3637 z m -143.00548,4.8757 c -0.4261,0.041 -0.7802,0.1431 -1.0589,0.3085 l -3.4254,3.0432 c -0.1273,0.088 -0.1763,0.1973 -0.1473,0.3269 0.053,0.1405 0.1926,0.2155 0.4189,0.2303 l 17.5828,1.6114 c 0.2528,0.085 0.4925,0.035 0.7228,-0.152 l 3.2873,-3.0157 c 0.1381,-0.1122 0.1869,-0.2213 0.1473,-0.3268 -0.051,-0.081 -0.1629,-0.1219 -0.3407,-0.1151 l -17.1868,-1.9106 z m -84.285769,13.0708 c 12.95549,17.0922 33.368409,34.0513 55.358769,47.51809 19.3244,11.8342 39.7621,20.8903 57.5732,24.7881 l -46.8274,4.3968 c -0.2049,-0.1011 -0.4123,-0.1933 -0.617,-0.2946 a 1.8295534,1.8295534 0 0 0 -2.2606,0.5202 l -38.1811,49.2815 c -23.152549,-13.039 -44.069259,-28.3565 -53.576999,-43.7567 16.82557,4.0767 31.76231,4.9336 44.76491,-4.6684 0.58252,-0.4298 0.85688,-1.1626 0.6998,-1.8693 l -16.93358,-75.91569 z m 391.332529,0 -16.92899,75.91569 c -0.157,0.7067 0.1174,1.4395 0.6998,1.8693 13.00259,9.602 27.93469,8.7451 44.76029,4.6684 -9.5077,15.4002 -30.4245,30.7177 -53.57699,43.7567 l -38.1811,-49.2815 a 1.8295534,1.8295534 0 0 0 -1.4227,-0.709 1.8295534,1.8295534 0 0 0 -0.8379,0.1888 c -0.2049,0.1014 -0.4121,0.1935 -0.6169,0.2947 l -46.82759,-4.3969 c 17.8124,-3.8978 38.25349,-12.9538 57.57789,-24.788 21.9904,-13.46679 42.3987,-30.42589 55.35419,-47.51809 z m -265.27906,74.75089 -7.9834,21.8829 c -15.477,-4.2933 -30.6754,-9.9315 -45.5476,-16.8507 l 53.531,-5.0322 z m 139.22558,0 53.53089,5.0322 c -14.872,6.9192 -30.06589,12.5574 -45.54289,16.8507 l -7.988,-21.8829 z m -200.04928,5.5709 c 39.6414,19.418 81.71109,29.9215 125.30299,29.9215 1.706,0 3.4055,-0.024 5.1013,-0.055 1.718,0.033 3.437,0.055 5.1657,0.055 43.59189,0 85.66619,-10.5035 125.30758,-29.9215 l 54.6175,70.49679 c -55.7582,35.7878 -116.41749,55.5106 -179.92508,55.5106 -1.6955,0 -3.3953,-0.021 -5.1013,-0.051 a 1.8295534,1.8295534 0 0 0 -0.06,0 c -1.706,0.028 -3.4058,0.051 -5.1013,0.051 -63.50759,0 -124.16689,-19.7229 -179.925129,-55.5106 L 144.16941,814.8173 Z m 215.44968,27.3064 c -0.1727,0.08 -0.28,0.3562 -0.3222,0.8333 -0.055,0.4545 -0.068,1.0197 -0.032,1.6897 0.047,0.636 0.1339,1.3367 0.2578,2.1087 0.111,0.7493 0.2336,1.4643 0.3683,2.1454 0.1351,0.6812 0.2684,1.2802 0.4006,1.791 0.157,0.4993 0.291,0.8195 0.4051,0.9669 0.8747,1.1108 1.967,2.5239 3.2735,4.2357 1.2937,1.689 2.6821,3.52 4.1666,5.49249 1.4964,1.9385 3.0131,3.9404 4.5488,6.0037 1.5475,2.0292 2.9902,3.9503 4.3231,5.7642 1.5093,1.9612 2.93799,3.9461 4.28639,5.953 1.3603,1.9729 2.7525,3.9742 4.1759,6.0037 0.2793,0.3855 0.547,0.5028 0.8056,0.3545 0.2587,-0.1483 0.3978,-0.4858 0.4144,-1.0083 0.032,-1.1586 -0.1061,-2.3112 -0.4097,-3.4576 -0.2918,-1.1805 -0.6906,-2.3228 -1.1925,-3.4346 -0.49,-1.1459 -1.0581,-2.244 -1.7081,-3.2873 -0.6381,-1.0774 -1.2809,-2.0813 -1.9291,-3.011 -2.28869,-3.3449 -4.65709,-6.5813 -7.10399,-9.7099 -2.4222,-3.14009 -4.87,-6.32249 -7.3434,-9.55329 -0.8628,-1.145 -1.7012,-2.2729 -2.5138,-3.384 -0.8006,-1.1451 -1.5755,-2.2467 -2.325,-3.3011 l -0.4604,-0.8149 c -0.2173,-0.3856 -0.4441,-0.7676 -0.686,-1.1418 -0.2547,-0.3969 -0.5179,-0.7176 -0.7827,-0.9668 -0.2401,-0.2607 -0.4442,-0.3517 -0.6169,-0.2717 z m -26.9657,8.011 c -0.096,-0.055 -0.1789,-0.051 -0.244,0.019 -0.1379,0.1131 -0.2214,0.3085 -0.2532,0.5801 -0.082,0.3895 -0.2047,0.8397 -0.3638,1.3536 -0.1591,0.5139 -0.3234,1.0434 -0.5018,1.5884 -0.1785,0.545 -0.3683,1.0648 -0.5617,1.5607 -0.1933,0.496 -0.3649,0.9218 -0.5156,1.2753 -0.1238,0.3471 -0.1681,0.5696 -0.1382,0.6676 0.03,0.098 0.2209,0.2472 0.5709,0.4512 0.2282,0.1813 0.5084,0.4429 0.8426,0.7827 0.3533,0.3087 0.6988,0.6439 1.0405,1.0083 0.3416,0.3643 0.6619,0.749 0.9576,1.151 0.2881,0.37749 0.5072,0.72099 0.6584,1.02669 0.779,1.4173 1.5898,3.0343 2.4355,4.8572 0.8649,1.7918 1.7331,3.6375 2.6013,5.5341 0.8606,1.8719 1.7142,3.7203 2.5598,5.5432 0.8649,1.7918 1.6741,3.4012 2.4263,4.825 0.1587,0.3303 0.2669,0.5911 0.3269,0.7873 0.052,0.1716 0.056,0.3272 0.014,0.4696 -0.05,0.1179 -0.1739,0.2298 -0.3729,0.3315 -0.2065,0.077 -0.4922,0.1858 -0.8517,0.3269 -0.3863,0.1478 -1.017,0.343 -1.8923,0.5847 -0.8753,0.2417 -1.8656,0.5263 -2.9742,0.8517 -1.1086,0.3255 -2.2696,0.6612 -3.4852,1.0129 -1.2156,0.3518 -2.3502,0.6991 -3.3978,1.0359 -1.0208,0.3302 -1.8998,0.6488 -2.6381,0.9623 -0.7383,0.3134 -1.1729,0.5787 -1.3075,0.7965 -0.3155,0.4732 -0.593,1.0724 -0.8334,1.7909 -0.2478,0.694 -0.4572,1.431 -0.6215,2.21 -0.145,0.7478 -0.2629,1.4891 -0.3545,2.2237 -0.091,0.7347 -0.1351,1.3791 -0.1381,1.9337 -0.012,0.2406 0.1091,0.4074 0.3683,0.5018 0.2515,0.07 0.534,0.014 0.8517,-0.1704 0.8153,-0.4379 1.8012,-0.8385 2.9558,-1.2016 1.1738,-0.3943 2.4348,-0.7453 3.7799,-1.0498 1.3644,-0.3355 2.761,-0.6138 4.1897,-0.8333 1.4554,-0.226 2.8693,-0.4033 4.2403,-0.5294 1.3976,-0.1332 2.7127,-0.2039 3.9456,-0.2164 1.2597,-0.019 2.3511,0.028 3.2781,0.1428 -1.9587,1.5895 -4.0855,2.9968 -6.3858,4.2219 -2.2811,1.194 -4.6316,2.2578 -7.0488,3.1952 -2.4171,0.9374 -4.8532,1.7623 -7.3112,2.4723 -2.4654,0.6856 -4.8493,1.3126 -7.15,1.8785 l -0.2855,0.069 -25.253,0.3591 -0.13339,-0.019 -1.1142,-0.1565 c -1.1277,-0.1593 -2.1375,-0.356 -3.0294,-0.5847 -0.892,-0.2287 -1.72,-0.4968 -2.4862,-0.8103 -0.7347,-0.3347 -1.4222,-0.702 -2.0626,-1.1004 -0.6404,-0.3983 -1.2715,-0.862 -1.8923,-1.3858 l 0,0 c -0.2239,-0.1855 -0.4469,-0.3074 -0.6629,-0.3637 -0.2122,-0.081 -0.374,0.059 -0.4881,0.4282 -0.3854,1.2025 -0.7489,2.4482 -1.0911,3.7338 -0.3383,1.2605 -0.6388,2.4622 -0.9024,3.605 -0.075,0.2973 -0.088,0.5518 -0.037,0.7643 0.055,0.1874 0.1803,0.3825 0.3729,0.5893 0.5893,0.545 1.2013,1.0196 1.8416,1.418 0.6719,0.3772 1.4841,0.7718 2.431,1.1878 -0.7313,1.2563 -1.654,2.4626 -2.7624,3.6142 -1.085,1.1806 -2.2777,2.2692 -3.5866,3.2643 -1.3088,0.995 -2.6867,1.8646 -4.1252,2.6104 -1.4424,0.771 -2.8663,1.3497 -4.2771,1.7403 -2.8453,0.7522 -5.7194,1.1549 -8.6233,1.2063 -2.904,0.051 -5.6718,-0.2492 -8.2965,-0.9024 -0.5658,-0.157 -1.0236,-0.1704 -1.3812,-0.042 -0.3577,0.129 -0.5732,0.3146 -0.64,0.5617 -0.098,0.2683 -0.044,0.5709 0.1565,0.907 0.2004,0.3362 0.5594,0.6305 1.082,0.884 1.273,0.6673 2.7381,1.3756 4.3922,2.1224 1.6266,0.743 3.3041,1.4171 5.0368,2.0212 1.7603,0.6079 3.4993,1.0865 5.2164,1.4319 1.7171,0.3452 3.3073,0.4385 4.7651,0.2854 1.2575,-0.1301 2.4713,-0.535 3.6464,-1.2155 1.1712,-0.6553 2.2859,-1.4975 3.3472,-2.5276 1.0612,-1.03 2.0609,-2.183 2.9926,-3.4622 0.9317,-1.2792 1.7714,-2.5982 2.5184,-3.9548 0.7706,-1.3277 1.4563,-2.6566 2.058,-3.9825 0.6016,-1.3259 1.099,-2.5343 1.4963,-3.6326 0.8173,0.1669 1.4469,0.2903 1.883,0.3775 0.4637,0.091 1.025,0.183 1.6851,0.2763 l 1.8554,0.2624 c 0.026,0 0.091,-0.071 0.1242,-0.083 0.08,0.056 0.1561,0.1162 0.244,0.1151 l 26.24759,-0.373 c 0.1188,0 0.2112,-0.063 0.313,-0.1013 0.1497,0.086 0.2757,0.1402 0.3591,0.1197 l 0.8057,-0.198 1.0037,-0.244 c 3.3173,-0.8159 6.2838,-1.7859 8.9042,-2.9051 2.6204,-1.1193 5.0392,-2.3317 7.2559,-3.6418 2.2168,-1.3101 4.3122,-2.6849 6.2891,-4.1206 1.9695,-1.4603 3.9669,-2.928 5.9899,-4.4015 2.4176,-1.7815 4.9455,-3.1032 7.5874,-3.964 2.6687,-0.8671 5.5267,-1.3058 8.5727,-1.3168 0.351,0.019 0.615,-0.017 0.7873,-0.1105 0.1916,-0.1261 0.3136,-0.2505 0.3637,-0.3684 0.077,-0.1244 0.165,-0.5298 0.2716,-1.2154 0.1334,-0.6922 0.271,-1.4756 0.4052,-2.3527 0.1268,-0.9015 0.2359,-1.7984 0.3361,-2.6933 0.1268,-0.9016 0.2199,-1.6376 0.2762,-2.2053 0.037,-0.5367 -0.1975,-0.7938 -0.709,-0.7735 -4.3128,0.6651 -8.3691,1.1337 -12.1684,1.4088 -3.7801,0.244 -7.4911,0.3 -11.1279,0.1657 0.3763,-0.4618 0.6225,-1.024 0.7366,-1.685 0.141,-0.6677 0.1733,-1.3613 0.097,-2.0811 -0.05,-0.7263 -0.1826,-1.4433 -0.4005,-2.1547 -0.1985,-0.7424 -0.4382,-1.4261 -0.7136,-2.0441 -0.5209,-1.1379 -1.1056,-2.4829 -1.7542,-4.0377 -0.6485,-1.555 -1.3041,-3.146 -1.9751,-4.7744 -0.671,-1.6285 -1.3459,-3.2169 -2.0212,-4.7652 -0.6485,-1.5549 -1.258,-2.8945 -1.8323,-4.01929 -0.3783,-0.6718 -0.4779,-1.4533 -0.2901,-2.3435 0.2145,-0.8967 0.5259,-1.9627 0.9254,-3.1951 -0.6252,-0.1627 -1.279,-0.4114 -1.9567,-0.7459 -0.6585,-0.3655 -1.2953,-0.7601 -1.9153,-1.1878 -0.6007,-0.4589 -1.1663,-0.9425 -1.6943,-1.4457 -0.5279,-0.5031 -0.9773,-0.9832 -1.3489,-1.4456 -0.1271,-0.1799 -0.24,-0.2991 -0.3361,-0.3546 z m -88.66889,6.5976 c -0.3817,-0.027 -0.7928,-0.014 -1.2292,0.042 -0.8466,0.12 -1.7004,0.3357 -2.5599,0.64 -0.8239,0.2892 -1.6251,0.6388 -2.4079,1.0497 -0.7565,0.4197 -1.3521,0.8093 -1.7909,1.174 -0.3848,0.302 -0.6627,0.6275 -0.8287,0.976 -0.1568,0.32479 -0.2656,0.67979 -0.3269,1.06359 -0.1125,1.4987 0.2076,2.8743 0.9622,4.1252 -0.8111,0.1049 -1.5788,0.2102 -2.302,0.3177 -0.7232,0.1075 -1.3596,0.2978 -1.9107,0.5708 -0.6744,0.2856 -1.2075,0.7003 -1.5976,1.2431 -0.3546,0.5279 -0.7178,1.0774 -1.0911,1.6529 -0.063,0.087 -0.069,0.1782 -0.019,0.2762 0.06,0.074 0.1268,0.099 0.198,0.069 2.7043,-0.2505 5.4131,-0.4076 8.1307,-0.465 2.7176,-0.057 5.5727,0.069 8.5635,0.3729 0.079,0.026 0.2558,-0.088 0.5341,-0.3453 0.2875,-0.2807 0.5914,-0.6008 0.907,-0.953 0.3417,-0.3435 0.6303,-0.6639 0.8655,-0.9622 0.271,-0.3135 0.3992,-0.4961 0.3913,-0.5525 -0.6748,-0.092 -1.2945,-0.1688 -1.8646,-0.2256 -0.5439,-0.048 -1.0815,-0.116 -1.6068,-0.2117 -0.5253,-0.096 -1.0509,-0.2209 -1.5838,-0.3729 -0.4973,-0.1672 -1.0435,-0.4027 -1.6344,-0.7091 -0.4525,-0.206 -0.8849,-0.5024 -1.2983,-0.8839 -0.4042,-0.4054 -0.7567,-0.8341 -1.0544,-1.2846 -0.2621,-0.4654 -0.4749,-0.9405 -0.6399,-1.4272 -0.1652,-0.4868 -0.2397,-0.9422 -0.2209,-1.36739 0.187,-0.099 0.4465,-0.1881 0.7735,-0.267 0.3625,-0.094 0.7257,-0.1606 1.0958,-0.198 0.4055,-0.052 0.801,-0.07 1.1786,-0.051 0.4037,0.028 0.7479,0.092 1.0359,0.1888 0.314,0.1056 0.5131,0.3209 0.5939,0.6446 0.1162,0.30859 0.1898,0.64579 0.2256,1.00819 0.036,0.3625 0.084,0.6981 0.1381,1.0129 0.064,0.291 0.2263,0.4829 0.488,0.5709 0.3141,0.1056 0.6694,-0.019 1.0728,-0.3683 0.4127,-0.3735 0.7937,-0.7733 1.1372,-1.197 0.2615,-0.2896 0.4256,-0.5541 0.4926,-0.8011 0.093,-0.23829 0.1337,-0.53489 0.1242,-0.88859 -0.038,-0.2822 -0.084,-0.5829 -0.1381,-0.8978 -0.019,-0.3299 -0.087,-0.649 -0.2025,-0.9576 -0.09,-0.2999 -0.2667,-0.5711 -0.5248,-0.8196 -0.232,-0.2397 -0.5679,-0.4352 -1.0129,-0.5847 -0.3272,-0.1098 -0.6818,-0.1801 -1.0636,-0.2072 z m 21.2338,4.38299 c -0.1888,-0.045 -0.4706,0.099 -0.8471,0.4282 -0.3699,0.3049 -0.7816,0.7188 -1.2385,1.2385 -0.4232,0.5015 -0.8673,1.0729 -1.3306,1.7219 -0.4566,0.6244 -0.8814,1.2305 -1.2707,1.8186 -0.3893,0.588 -0.7169,1.1148 -0.9853,1.5745 -0.2411,0.4661 -0.3713,0.7885 -0.3913,0.9669 -0.1379,1.3538 -0.327,3.0584 -0.5709,5.1196 -0.2372,2.0367 -0.5041,4.2396 -0.8011,6.6022 -0.2633,2.3444 -0.5603,4.7444 -0.884,7.2053 -0.29,2.4428 -0.5818,4.7437 -0.8793,6.8968 -0.2701,2.369 -0.62,4.7059 -1.0452,7.012 -0.3915,2.2879 -0.7756,4.6162 -1.1602,6.9843 -0.066,0.4551 0.051,0.7047 0.3546,0.7504 0.3033,0.046 0.6506,-0.1233 1.0405,-0.5018 0.8603,-0.8428 1.5898,-1.7818 2.1869,-2.8177 0.6306,-1.0541 1.153,-2.1437 1.5745,-3.2734 0.4553,-1.148 0.813,-2.308 1.0728,-3.4761 0.2934,-1.1862 0.5299,-2.3199 0.709,-3.4024 0.6771,-3.8684 1.215,-7.7024 1.616,-11.5054 0.428,-3.7966 0.8713,-7.6428 1.326,-11.5377 0.1716,-1.372 0.3488,-2.7166 0.534,-4.0331 0.2188,-1.3347 0.4248,-2.6218 0.617,-3.8582 l 0.2394,-0.8839 c 0.1134,-0.4179 0.2173,-0.8373 0.3038,-1.2615 0.093,-0.4489 0.1273,-0.8474 0.1059,-1.1925 0,-0.3387 -0.088,-0.5309 -0.2762,-0.5755 z m 32.67009,7.5368 -18.63699,3.7523 c -0.4441,0.1423 -0.787,0.3476 -1.0268,0.6215 l -2.523,3.9917 c -0.1053,0.1388 -0.1122,0.2662 -0.019,0.3821 0.071,0.087 0.2378,0.1141 0.4972,0.074 l 18.9824,-4.0884 0,0 c 0.2534,-0.017 0.4681,-0.1308 0.63999,-0.3361 l 2.4355,-3.964 c 0.1139,-0.1891 0.1292,-0.304 0.051,-0.3407 -0.075,-0.062 -0.2086,-0.091 -0.4052,-0.092 z m 31.7309,0.5617 c -0.095,-0.029 -0.23,-0.012 -0.4097,0.06 l -15.3084,10.3314 c -0.3413,0.2949 -0.5566,0.6126 -0.6537,0.953 l -0.5341,4.604 c -0.035,0.1669 0.014,0.2873 0.152,0.3592 0.1028,0.054 0.2606,0.014 0.4788,-0.1198 l 15.4741,-10.7688 c 0.2259,-0.1082 0.3759,-0.2896 0.442,-0.5432 l 0.4604,-4.5442 c 0.021,-0.216 -0.014,-0.3268 -0.1013,-0.3315 z m -139.17028,4.9769 c -0.1068,0.035 -0.2254,0.125 -0.3591,0.2717 -0.8851,0.9527 -1.7699,1.9529 -2.6519,2.9972 -0.8674,1.0229 -1.6751,2.0033 -2.4217,2.9466 -0.1999,0.2431 -0.3215,0.4692 -0.3684,0.6814 -0.032,0.1907 -0.01,0.4176 0.078,0.6768 0.3015,0.7134 0.6595,1.3717 1.0727,1.9705 0.4515,0.591 1.0208,1.2473 1.7081,1.9751 -1.2269,0.8742 -2.6021,1.6344 -4.1298,2.2744 -1.5188,0.675 -3.0993,1.2201 -4.7421,1.6436 -1.6428,0.4236 -3.2927,0.7121 -4.9447,0.861 -1.6668,0.1706 -3.2354,0.1732 -4.7053,0.01 -2.9488,-0.3639 -5.7687,-1.0573 -8.4622,-2.081 -2.6935,-1.0237 -5.1025,-2.319 -7.2283,-3.8812 -0.4512,-0.3516 -0.8711,-0.5338 -1.257,-0.5479 -0.3858,-0.014 -0.6627,0.081 -0.8333,0.2809 -0.2086,0.2079 -0.2982,0.4995 -0.2624,0.8793 0.036,0.3799 0.2389,0.783 0.6077,1.2063 0.8764,1.0768 1.9113,2.26 3.1031,3.5497 1.1682,1.276 2.416,2.5084 3.7431,3.697 1.3507,1.2023 2.7397,2.2755 4.1666,3.2228 1.4269,0.9473 2.8457,1.6232 4.2541,2.0212 1.214,0.3447 2.5095,0.4212 3.8904,0.2348 1.3665,-0.165 2.7683,-0.5216 4.1989,-1.0682 1.4306,-0.5466 2.8558,-1.2275 4.2772,-2.0487 1.4213,-0.8213 2.775,-1.7106 4.0607,-2.6704 1.2946,-0.9247 2.508,-1.8829 3.6464,-2.8683 1.1383,-0.9854 2.1335,-1.9043 2.9834,-2.7578 0.6781,0.4531 1.1981,0.8003 1.5607,1.0405 0.3863,0.254 0.8613,0.5465 1.4273,0.8748 l 1.593,0.9208 c 0.056,0.032 0.2359,-0.038 0.3729,-0.073 l 20.42349,9.1205 c 0.016,0.01 0.029,0.036 0.046,0.042 l 0.1705,0.055 1.2845,0.5755 c 0.1977,0.088 0.4034,0.102 0.6123,0.055 0.7274,0.2408 1.453,0.4759 2.1869,0.6998 0.8993,0.2752 1.8212,0.5061 2.7578,0.686 0.9366,0.1799 1.8882,0.2804 2.8545,0.3085 0.9925,0.037 2.0159,-0.048 3.0755,-0.2578 0.9362,-0.1975 1.8298,-0.6266 2.6795,-1.2845 0.8853,-0.673 1.7035,-1.474 2.454,-2.4079 0.7504,-0.934 1.3999,-1.9579 1.9521,-3.0663 0.5783,-1.0996 1.0313,-2.172 1.3536,-3.2228 0.7396,-2.4202 0.9195,-4.8527 0.5432,-7.2974 -0.3407,-2.4597 -1.1126,-4.7954 -2.3204,-7.0073 -0.094,-0.1393 -0.2114,-0.2634 -0.3499,-0.3637 -0.1122,-0.092 -0.2322,-0.049 -0.3591,0.1242 -1.6744,2.16 -3.2629,4.4008 -4.7652,6.7265 0.2511,0.5695 0.5335,1.219 0.8426,1.9429 0.3446,0.7088 0.6597,1.487 0.9484,2.3388 0.3148,0.8606 0.5698,1.7547 0.7689,2.6841 0.2251,0.9384 0.3406,1.8963 0.3453,2.8684 -0.9438,0.1412 -1.9341,0.1704 -2.9696,0.092 -1.0262,-0.102 -2.068,-0.2771 -3.1261,-0.5248 -1.032,-0.2389 -2.0592,-0.5142 -3.0893,-0.8334 l -2.8315,-0.953 -0.9807,-0.3269 0,0 -21.56979,-9.6362 c -0.01,0 -0.012,0 -0.019,0 -0.7656,-0.4611 -1.499,-0.9181 -2.0948,-1.3628 -0.7195,-0.537 -1.3628,-1.0896 -1.9291,-1.6574 -0.5281,-0.5756 -1.0002,-1.1647 -1.4135,-1.7634 -0.4132,-0.5987 -0.7882,-1.251 -1.1279,-1.9567 -0.124,-0.2516 -0.2726,-0.4402 -0.4466,-0.5709 -0.08,-0.076 -0.1742,-0.095 -0.2809,-0.06 z m 93.32349,10.0967 c -0.112,0 -0.2287,0.035 -0.3545,0.1197 l -5.2578,3.9503 c -0.2791,0.1657 -0.312,0.3556 -0.092,0.5662 l 4.8803,4.9218 c 0.1374,0.1989 0.375,0.2225 0.709,0.064 l 5.2164,-3.9595 c 0.1303,-0.1098 0.2008,-0.2008 0.2116,-0.2762 0.012,-0.074 -0.048,-0.1598 -0.1704,-0.2532 l 0,0 -4.825,-4.9908 c -0.098,-0.091 -0.2056,-0.1351 -0.3177,-0.1381 z m -74.49769,27.7023 c -0.441,0.068 -0.8008,0.187 -1.0773,0.3638 l -3.3149,3.1307 c -0.1252,0.093 -0.1657,0.2006 -0.1242,0.3223 0.067,0.1303 0.2185,0.1944 0.4558,0.1933 l 18.48049,0.3499 c 0.2711,0.064 0.5172,0 0.7412,-0.198 l 3.1676,-3.0985 c 0.1344,-0.1165 0.1794,-0.2245 0.1289,-0.3223 -0.06,-0.074 -0.1833,-0.1016 -0.3683,-0.083 l -18.08919,-0.6584 z m 132.24588,4.8619 c -0.1032,0.039 -0.1947,0.1195 -0.2716,0.244 l -3.0387,5.5755 c -0.1805,0.2554 -0.123,0.4399 0.1705,0.5525 l 6.616,2.7255 c 0.213,0.1323 0.4333,0.062 0.6676,-0.2072 l 3.0018,-5.5616 c 0.07,-0.149 0.091,-0.2626 0.069,-0.3361 -0.024,-0.074 -0.1107,-0.1297 -0.267,-0.1705 l -6.5976,-2.8084 c -0.1294,-0.047 -0.2466,-0.052 -0.3498,-0.014 z"
       style="opacity:1;fill:#000000;fill-opacity:1;stroke:none;stroke-width:1.44000006;stroke-linejoin:round;stroke-miterlimit:4;stroke-dasharray:none;stroke-opacity:1" />
  </g>
</svg>
